<?xml version="1.0" encoding="utf-8"?>
<!-- Generator: Adobe Illustrator 28.0.0, SVG Export Plug-In . SVG Version: 6.00 Build 0)  -->
<svg version="1.1" id="Layer_1" xmlns="http://www.w3.org/2000/svg" xmlns:xlink="http://www.w3.org/1999/xlink" x="0px" y="0px"
	 viewBox="0 0 50 50" style="enable-background:new 0 0 50 50;" xml:space="preserve">
<style type="text/css">
	.st0{fill:#F1F1F2;}
	.st1{fill:none;stroke:#225264;stroke-width:0.6;stroke-linecap:round;stroke-linejoin:round;stroke-miterlimit:10;}
</style>
<circle class="st0" cx="25" cy="25" r="24.1"/>
<g>
	<g>
		<g>
			<path class="st1" d="M14.8,29.4c0,0,0.7,4.5,3.6,4.5c2.9,0,4.1-4.4,4.1-4.4"/>
			<path class="st1" d="M16,27.6c0,0-0.6,1.9-1.6,1.8c-0.9-0.1-0.6-1.8-0.5-2.4c0.3-1.3,1.7-3.2,3.2-3.6c1.5-0.4,3-0.1,3.8,0.3
				c0.9,0.5,1.6,1.5,1.9,2.3c0.3,0.8,0.6,3.3-0.1,3.6c0,0-2.4-0.4-3.6-1.9c-0.7-0.8-1-1.7-1-1.7"/>
			<path class="st1" d="M15.9,27.8c0,0,0.9,1.2,1.4,0.8c0.5-0.4,1.1-2.1,1.1-2.1"/>
			<g>
				<path class="st1" d="M16.9,33.9v1.3c0,0-3.8,0.2-3.8,2.6c0,2.4,0,3.1,0,3.1"/>
				<path class="st1" d="M19.9,33.9v1.3c0,0,3.8,0.2,3.8,2.6c0,2.4,0,3.1,0,3.1"/>
			</g>
		</g>
		<g>
			<path class="st1" d="M28,29.4c0,0,0.1,4.5,3,4.5s3.1-4.5,3.1-4.5"/>
			<path class="st1" d="M32.4,26.8c0,0-2.4,2.5-5.5,2.7c0,0,0.2-5.2,4.2-5.5c4-0.3,4.2,5.4,4.2,5.4S33.1,29,32.4,26.8z"/>
			<path class="st1" d="M27.8,30.8c0,0-1.5,0.5-1.6,2.7c0,0,0.9,0.6,2.3-0.6"/>
			<path class="st1" d="M34.2,30.8c0,0,1.5,0.5,1.6,2.7c0,0-0.9,0.6-2.3-0.6"/>
			<g>
				<path class="st1" d="M29.5,33.9v1.3c0,0-3.8,0.2-3.8,2.6c0,2.4,0,3.1,0,3.1"/>
				<path class="st1" d="M32.5,33.9v1.3c0,0,3.8,0.2,3.8,2.6c0,2.4,0,3.1,0,3.1"/>
			</g>
		</g>
	</g>
	<g>
		<g>
			<path class="st1" d="M15.2,19.7c2,0,3.8,0.6,4.8,1.5c1-0.9,2.8-1.5,4.8-1.5c2,0,3.8,0.6,4.8,1.5c1-0.9,2.8-1.5,4.8-1.5
				c2,0,3.7,0.6,4.7,1.4c-0.6-6.7-6.7-12-14.1-12c-7.3,0-13.3,5.1-14.1,11.7C12,20.1,13.5,19.7,15.2,19.7z"/>
			<path class="st1" d="M24.8,9.1c0,0-4.3,3.2-4.9,12"/>
			<path class="st1" d="M24.7,9.1c0,0,4.3,3.2,4.9,12"/>
		</g>
		<line class="st1" x1="24.8" y1="19.7" x2="24.8" y2="24.9"/>
	</g>
</g>
</svg>
