<?xml version="1.0" encoding="utf-8"?>
<!-- Generator: Adobe Illustrator 28.0.0, SVG Export Plug-In . SVG Version: 6.00 Build 0)  -->
<svg version="1.1" id="Layer_1" xmlns="http://www.w3.org/2000/svg" xmlns:xlink="http://www.w3.org/1999/xlink" x="0px" y="0px"
	 viewBox="0 0 50 50" style="enable-background:new 0 0 50 50;" xml:space="preserve">
<style type="text/css">
	.st0{fill:#F1F1F2;}
	.st1{fill:none;stroke:#225264;stroke-width:0.6;stroke-linecap:round;stroke-linejoin:round;stroke-miterlimit:10;}
	.st2{fill:none;stroke:#ED1C24;stroke-width:0.6;stroke-linecap:round;stroke-linejoin:round;stroke-miterlimit:10;}
</style>
<circle class="st0" cx="25" cy="25" r="24.1"/>
<g>
	<g>
		<path class="st1" d="M37.2,26.7c0,0,1.7-0.1,3-1.1"/>
		<path class="st1" d="M40,27.9c0,0,1,0.1,2.2-1"/>
		<path class="st1" d="M41.8,29.1c0,0,1,0,2.2-0.9"/>
		<polyline class="st2" points="40,31.7 40,32.9 41,34 		"/>
		<line class="st2" x1="40" y1="32.9" x2="39.1" y2="33.1"/>
		<polyline class="st2" points="41.4,28.8 40.7,29.8 41,31 		"/>
		<line class="st2" x1="40.7" y1="29.8" x2="39.6" y2="29.9"/>
		<polyline class="st2" points="29.1,29 29.3,29.8 28.9,30.8 		"/>
		<line class="st2" x1="29.3" y1="29.8" x2="30.3" y2="29.9"/>
		<polyline class="st2" points="29.1,33.5 30,33 30,31.9 		"/>
		<line class="st2" x1="30" y1="33" x2="30.8" y2="33.3"/>
		<polyline class="st1" points="31.9,36.7 30.6,38.1 31.8,38.4 30.2,40 		"/>
		<polyline class="st1" points="34.3,37.2 33.3,38.8 34.5,39 33.2,40.8 		"/>
		<g>
			<path class="st1" d="M34,34.5c-1.4-0.5-2.4-1.8-2.4-3.4c0-2,1.6-3.6,3.6-3.6s3.6,1.6,3.6,3.6s-1.6,3.6-3.6,3.6"/>
			<path class="st1" d="M35.2,29.1c1.1,0,2,0.9,2,2s-0.9,2-2,2c-0.3,0-0.6-0.1-0.9-0.2c-0.7-0.3-1.1-1-1.1-1.8
				c0-0.5,0.1-0.9,0.4-1.2"/>
			<path class="st1" d="M44,31.3c0,0-3.9,4.8-8.7,4.8s-8.7-4.8-8.7-4.8s3.9-4.8,8.7-4.8S44,31.3,44,31.3z"/>
		</g>
	</g>
	<g>
		<path class="st1" d="M8.6,12.3c0,0-0.9,2.8-1.6,3.7c-0.6,0.9-1.9,2.2-1.6,4.2C5.6,21.6,7.6,22,7.6,22"/>
		<path class="st1" d="M14.7,12.3c0,0,0.9,2.8,1.6,3.7c0.6,0.9,1.9,2.2,1.6,4.2c-0.2,1.4-2.2,1.8-2.2,1.8"/>
		<path class="st1" d="M15.5,20c0,0.3-1.7,2.8-3.8,2.8S7.9,20.2,7.9,20"/>
		<path class="st1" d="M9.6,25.5c0,0.7-0.6,1.3-1.3,1.3S7,26.2,7,25.5c0-0.7,1.3-2.6,1.3-2.6S9.6,24.7,9.6,25.5z"/>
	</g>
	<g>
		<path class="st1" d="M32.1,19.2c-0.9,0.9-1.7,2.5-1.2,3s2.1-0.3,3-1.2c0,1.3,0.6,2.9,1.2,2.9s1.2-1.7,1.2-2.9
			c0.9,0.9,2.5,1.7,3,1.2s-0.3-2.1-1.2-3c1.3,0,2.9-0.6,2.9-1.2s-1.7-1.2-2.9-1.2c0.9-0.9,1.7-2.5,1.2-3s-2.1,0.3-3,1.2
			c0-1.3-0.6-2.9-1.2-2.9s-1.2,1.7-1.2,2.9c-0.9-0.9-2.5-1.7-3-1.2s0.3,2.1,1.2,3c-1.3,0-2.9,0.6-2.9,1.2S30.8,19.2,32.1,19.2z"/>
		<path class="st1" d="M33,17.9c0,1.2,1,2.2,2.2,2.2s2.2-1,2.2-2.2s-1-2.2-2.2-2.2C33.9,15.8,33,16.7,33,17.9z"/>
		<path class="st1" d="M42.2,17.3c0,0.2,0.1,0.3,0.3,0.3s0.3-0.1,0.3-0.3S42.6,17,42.5,17C42.3,17,42.2,17.1,42.2,17.3z"/>
		<path class="st1" d="M44,15.4c0,0.2,0.1,0.3,0.3,0.3s0.3-0.1,0.3-0.3s-0.1-0.3-0.3-0.3C44.1,15.1,44,15.2,44,15.4z"/>
		<path class="st1" d="M41.9,13.2c0,0.2,0.1,0.3,0.3,0.3s0.3-0.1,0.3-0.3s-0.1-0.3-0.3-0.3S41.9,13.1,41.9,13.2z"/>
		<circle class="st1" cx="41.8" cy="15.6" r="0.2"/>
		<path class="st1" d="M44.1,13c0,0.1,0.1,0.2,0.2,0.2c0.1,0,0.2-0.1,0.2-0.2c0-0.1-0.1-0.2-0.2-0.2C44.2,12.7,44.1,12.8,44.1,13z"
			/>
	</g>
	<g>
		<path class="st1" d="M19.4,29.4V27c0,0,0.3-1,1.4-1s4.4,3.5,4.9,7.5s-0.1,5.8-0.3,6.1c-0.3,0.3-0.7,0.7-2.3,0.5
			c-1.6-0.3-3.8-0.3-4.4-0.8S18.1,38.1,18,37s-0.2-2.9,0-3.4s1.4-2.7,1.4-2.7h-4.5c0,0,1.2,2.2,1.4,2.7c0.2,0.5,0.1,2.3,0,3.4
			c-0.1,1.1-0.1,1.9-0.7,2.3c-0.6,0.5-2.7,0.5-4.4,0.8s-2-0.1-2.3-0.4s-0.8-2.2-0.3-6.1c0.5-4,3.8-7.5,4.9-7.5s1.4,1,1.4,1v2.4"/>
		<g>
			<g>
				<polyline class="st1" points="13.5,31.5 12.8,33.5 13.5,35.5 14.8,36.7 				"/>
				<line class="st1" x1="13.5" y1="35.5" x2="12.3" y2="36.7"/>
				<line class="st1" x1="12.8" y1="33.5" x2="11.1" y2="33.9"/>
			</g>
			<g>
				<polyline class="st1" points="20.7,31.5 21.4,33.5 20.7,35.5 19.4,36.7 				"/>
				<line class="st1" x1="20.7" y1="35.5" x2="21.9" y2="36.7"/>
				<line class="st1" x1="21.4" y1="33.5" x2="23.1" y2="33.9"/>
			</g>
		</g>
		<g>
			<path class="st1" d="M16.4,24.2v4.2c0,0,0,1.1-0.9,1.1s-2.2,0-2.2,0"/>
			<path class="st1" d="M17.9,24.2v4.2c0,0,0,1.1,0.9,1.1c1,0,2.2,0,2.2,0"/>
		</g>
	</g>
	<g>
		<path class="st1" d="M20,9.2c0,0,1.1,2.5,4,3.5s3.7,2.6,3.7,3.9c0,1.5-1,2.6-2.5,3.2"/>
		<path class="st1" d="M27.6,23.9c0,0-1.1-2.5-4-3.5s-3.7-2.6-3.7-3.9c0-1.5,1-2.6,2.5-3.2"/>
		<path class="st1" d="M24.9,12.1c0,0,1.8-0.7,2.7-2.9"/>
		<path class="st1" d="M23.8,20.8c0,0-2.2,0.3-3.7,3.2"/>
		<g>
			<g>
				<line class="st1" x1="20.8" y1="14.5" x2="23.2" y2="14.5"/>
				<line class="st1" x1="20" y1="16.5" x2="23.2" y2="16.5"/>
				<line class="st1" x1="20.7" y1="18.6" x2="23.2" y2="18.6"/>
			</g>
			<g>
				<line class="st1" x1="26.8" y1="14.5" x2="24.4" y2="14.5"/>
				<line class="st1" x1="27.6" y1="16.5" x2="24.4" y2="16.5"/>
				<line class="st1" x1="26.9" y1="18.6" x2="24.4" y2="18.6"/>
			</g>
		</g>
		<line class="st1" x1="24.6" y1="10.2" x2="26.9" y2="10.2"/>
		<line class="st1" x1="23.2" y1="10.2" x2="20.8" y2="10.2"/>
		<line class="st1" x1="24.6" y1="22.8" x2="26.9" y2="22.8"/>
		<line class="st1" x1="23.2" y1="22.8" x2="20.8" y2="22.8"/>
	</g>
</g>
</svg>
