<?xml version="1.0" encoding="utf-8"?>
<!-- Generator: Adobe Illustrator 28.0.0, SVG Export Plug-In . SVG Version: 6.00 Build 0)  -->
<svg version="1.1" id="Layer_1" xmlns="http://www.w3.org/2000/svg" xmlns:xlink="http://www.w3.org/1999/xlink" x="0px" y="0px"
	 viewBox="0 0 50 50" style="enable-background:new 0 0 50 50;" xml:space="preserve">
<style type="text/css">
	.st0{fill:#F1F1F2;}
	.st1{fill:none;stroke:#225264;stroke-width:0.6;stroke-linecap:round;stroke-linejoin:round;stroke-miterlimit:10;}
</style>
<circle class="st0" cx="25" cy="25" r="24.1"/>
<g>
	<g>
		<path class="st1" d="M8.5,20.8h12.2c0,0,3.5-3.1,5-3.5c1.5-0.3,6.5,0,6.5,0s2.3,0,2.3,1.7c0,1.7-1.7,1.8-1.7,1.8"/>
		<path class="st1" d="M23.6,23.7c0,0,2.1-0.1,2.7-0.9c0.6-0.8,0.7-2,0.7-2h11.4c0,0,2-0.2,2,1.5c0,1.3-1.5,1.5-1.5,1.5h-6.9"/>
		<path class="st1" d="M38.8,23.7c0,0,2.7-0.3,2.7,1.7c0,1.4-2,1.3-2,1.3h-7.6"/>
		<path class="st1" d="M39.5,26.8c0,0,0.8,0.2,0.8,1.5c0,1.3-1.3,1.3-1.3,1.3h-7"/>
		<path class="st1" d="M36.1,29.6c0,0,1.3,0.1,1.3,1.6c0,1.5-1.6,1.6-1.6,1.6H24.7c0,0-3.1-1.5-4.3-1.6c-1.2-0.1-11.9,0-11.9,0"/>
	</g>
	<path class="st1" d="M11.9,24.2c0,0.3-0.2,0.5-0.5,0.5c-0.3,0-0.5-0.2-0.5-0.5s0.2-0.5,0.5-0.5C11.7,23.7,11.9,24,11.9,24.2z"/>
	<circle class="st1" cx="14.9" cy="24.6" r="0.4"/>
	<path class="st1" d="M20.4,23.9c0,0.3-0.2,0.5-0.5,0.5c-0.3,0-0.5-0.2-0.5-0.5c0-0.3,0.2-0.5,0.5-0.5
		C20.2,23.4,20.4,23.6,20.4,23.9z"/>
	<path class="st1" d="M14,28.1c0,0.2-0.2,0.4-0.4,0.4c-0.2,0-0.4-0.2-0.4-0.4c0-0.2,0.2-0.4,0.4-0.4C13.9,27.7,14,27.9,14,28.1z"/>
	<path class="st1" d="M19.3,27.9c0,0.3-0.2,0.5-0.5,0.5c-0.3,0-0.5-0.2-0.5-0.5c0-0.3,0.2-0.5,0.5-0.5C19,27.4,19.3,27.6,19.3,27.9z
		"/>
	<circle class="st1" cx="24.4" cy="28.2" r="0.6"/>
	<circle class="st1" cx="28.8" cy="24.6" r="0.5"/>
	<path class="st1" d="M28.7,29.1c0,0.2-0.1,0.3-0.3,0.3s-0.3-0.1-0.3-0.3s0.1-0.3,0.3-0.3S28.7,29,28.7,29.1z"/>
</g>
</svg>
