<?xml version="1.0" encoding="utf-8"?>
<!-- Generator: Adobe Illustrator 28.0.0, SVG Export Plug-In . SVG Version: 6.00 Build 0)  -->
<svg version="1.1" id="Layer_1" xmlns="http://www.w3.org/2000/svg" xmlns:xlink="http://www.w3.org/1999/xlink" x="0px" y="0px"
	 viewBox="0 0 50 50" style="enable-background:new 0 0 50 50;" xml:space="preserve">
<style type="text/css">
	.st0{fill:#F1F1F2;}
	.st1{fill:none;stroke:#225264;stroke-width:0.6;stroke-miterlimit:10;}
	.st2{fill:none;stroke:#225264;stroke-width:0.6;stroke-linecap:round;stroke-linejoin:round;stroke-miterlimit:10;}
</style>
<circle class="st0" cx="25" cy="25" r="24.1"/>
<g>
	<path class="st1" d="M38.5,12.4c-0.5,0-1,0.3-1.3,0.6l-8.5,8.5c-1.1,1.1-2.1,3.2-2.2,5.3h-3.1c-0.1-2.1-1.1-4.3-2.2-5.3L12.8,13
		c-0.3-0.4-0.8-0.6-1.3-0.6c-0.8,0-1.4,0.7-1.4,1.5c0,0.4,0.2,0.7,0.4,1l8.7,8.7c0.6,0.6,1.3,2.1,1.3,3.5v13.8
		c0,0.8,0.7,1.5,1.5,1.5c0.8,0,1.5-0.7,1.5-1.5v-11h3v11c0,0.8,0.7,1.5,1.5,1.5c0.8,0,1.5-0.7,1.5-1.5V27.1c0-1.4,0.8-2.9,1.3-3.5
		l8.7-8.7c0.2-0.3,0.4-0.6,0.4-1C40,13.1,39.4,12.4,38.5,12.4z"/>
	<g>
		<path class="st2" d="M16.9,26.7L16.9,26.7c-0.6,0.6-1.5,0.6-2,0L11,22.8c-0.6-0.6-0.6-1.5,0-2l0,0c0.6-0.6,1.5-0.6,2,0l3.9,3.9
			C17.4,25.3,17.4,26.2,16.9,26.7z"/>
		<path class="st2" d="M33.1,26.7L33.1,26.7c0.6,0.6,1.5,0.6,2,0l3.9-3.9c0.6-0.6,0.6-1.5,0-2l0,0c-0.6-0.6-1.5-0.6-2,0l-3.9,3.9
			C32.6,25.3,32.6,26.2,33.1,26.7z"/>
	</g>
</g>
</svg>
