<?xml version="1.0" encoding="utf-8"?>
<!-- Generator: Adobe Illustrator 28.0.0, SVG Export Plug-In . SVG Version: 6.00 Build 0)  -->
<svg version="1.1" id="Layer_1" xmlns="http://www.w3.org/2000/svg" xmlns:xlink="http://www.w3.org/1999/xlink" x="0px" y="0px"
	 viewBox="0 0 50 50" style="enable-background:new 0 0 50 50;" xml:space="preserve">
<style type="text/css">
	.st0{fill:#F1F1F2;}
	.st1{fill:none;stroke:#225264;stroke-width:0.6;stroke-linecap:round;stroke-linejoin:round;stroke-miterlimit:10;}
</style>
<ellipse transform="matrix(0.9215 -0.3884 0.3884 0.9215 -7.7468 11.6716)" class="st0" cx="25" cy="25" rx="24.1" ry="24.1"/>
<g>
	<path class="st1" d="M9.3,18.4c0,0,3.5,5.8,3.4,8.4c-0.2,2.6-2.4,6.3-1.1,8.3c1.3,2,5.9,1.4,9.4,0.8s7.8,1.7,9.8,1.6
		c2.1-0.1,3.2-0.5,3.2-0.5s3.3,0.2,5.7-0.8c2.3-1,3.8-3.1,2.6-4.1c-1.5-1.2-5.8-0.1-6.9-0.2c-1.1-0.1-4.9-3.8-7.3-5.4
		c-2.3-1.5-4.2-1.7-6-5.7c-1.8-4-3.7-11.2-3.7-11.2"/>
	<path class="st1" d="M15.3,25.3c0,0-0.2,3.6,2.2,3.7"/>
	<path class="st1" d="M18.3,35.3c0,0,1.5-1.9,3.6-1.5c2.2,0.4,5.6,1.5,5.8,0.5c0.2-1-1.2-2.6-0.3-2.7c0.9-0.2,4.3,0,4.3,0"/>
	<path class="st1" d="M35.1,34.9c0,0,1.9,0.8,2,1.7"/>
	<path class="st1" d="M37.1,34.2c0,0,2.7,0.8,2.9,1.9"/>
	<path class="st1" d="M38.5,33.1c0,0,3.4,0.3,3.3,1.1"/>
	<g>
		<g>
			<g>
				<g>
					<line class="st1" x1="28.6" y1="15.2" x2="28.6" y2="13.7"/>
					<line class="st1" x1="27.7" y1="13.7" x2="29.5" y2="13.7"/>
				</g>
				<g>
					<line class="st1" x1="28.6" y1="21.4" x2="28.6" y2="23"/>
					<line class="st1" x1="29.5" y1="23" x2="27.7" y2="23"/>
				</g>
			</g>
			<g>
				<g>
					<line class="st1" x1="25.5" y1="18.3" x2="24" y2="18.3"/>
					<line class="st1" x1="24" y1="19.2" x2="24" y2="17.5"/>
				</g>
				<g>
					<line class="st1" x1="31.7" y1="18.3" x2="33.3" y2="18.3"/>
					<line class="st1" x1="33.3" y1="17.5" x2="33.3" y2="19.2"/>
				</g>
			</g>
			<g>
				<g>
					<line class="st1" x1="30.8" y1="16.2" x2="31.9" y2="15"/>
					<line class="st1" x1="31.3" y1="14.4" x2="32.5" y2="15.7"/>
				</g>
				<g>
					<line class="st1" x1="26.4" y1="20.5" x2="25.3" y2="21.6"/>
					<line class="st1" x1="25.9" y1="22.2" x2="24.7" y2="21"/>
				</g>
			</g>
			<g>
				<g>
					<line class="st1" x1="26.4" y1="16.2" x2="25.3" y2="15"/>
					<line class="st1" x1="24.7" y1="15.7" x2="25.9" y2="14.4"/>
				</g>
				<g>
					<line class="st1" x1="30.8" y1="20.5" x2="31.9" y2="21.6"/>
					<line class="st1" x1="32.5" y1="21" x2="31.3" y2="22.2"/>
				</g>
			</g>
		</g>
		<circle class="st1" cx="28.6" cy="18.3" r="2.8"/>
	</g>
	<g>
		<g>
			<g>
				<g>
					<line class="st1" x1="36.5" y1="23.8" x2="36.5" y2="22.6"/>
					<line class="st1" x1="35.8" y1="22.6" x2="37.1" y2="22.6"/>
				</g>
				<g>
					<line class="st1" x1="36.5" y1="28.4" x2="36.5" y2="29.6"/>
					<line class="st1" x1="37.1" y1="29.6" x2="35.8" y2="29.6"/>
				</g>
			</g>
			<g>
				<g>
					<line class="st1" x1="34.2" y1="26.1" x2="33" y2="26.1"/>
					<line class="st1" x1="33" y1="26.8" x2="33" y2="25.4"/>
				</g>
				<g>
					<line class="st1" x1="38.8" y1="26.1" x2="40" y2="26.1"/>
					<line class="st1" x1="40" y1="25.4" x2="40" y2="26.8"/>
				</g>
			</g>
			<g>
				<g>
					<line class="st1" x1="38.1" y1="24.5" x2="38.9" y2="23.6"/>
					<line class="st1" x1="38.5" y1="23.2" x2="39.4" y2="24.1"/>
				</g>
				<g>
					<line class="st1" x1="34.9" y1="27.7" x2="34" y2="28.6"/>
					<line class="st1" x1="34.5" y1="29" x2="33.6" y2="28.1"/>
				</g>
			</g>
			<g>
				<g>
					<line class="st1" x1="34.9" y1="24.5" x2="34" y2="23.6"/>
					<line class="st1" x1="33.6" y1="24.1" x2="34.5" y2="23.2"/>
				</g>
				<g>
					<line class="st1" x1="38.1" y1="27.7" x2="38.9" y2="28.6"/>
					<line class="st1" x1="39.4" y1="28.1" x2="38.5" y2="29"/>
				</g>
			</g>
		</g>
		<path class="st1" d="M38.6,26.1c0,1.2-0.9,2.1-2.1,2.1s-2.1-0.9-2.1-2.1c0-1.2,0.9-2.1,2.1-2.1S38.6,24.9,38.6,26.1z"/>
	</g>
</g>
</svg>
