<?xml version="1.0" encoding="utf-8"?>
<!-- Generator: Adobe Illustrator 28.0.0, SVG Export Plug-In . SVG Version: 6.00 Build 0)  -->
<svg version="1.1" id="Layer_1" xmlns="http://www.w3.org/2000/svg" xmlns:xlink="http://www.w3.org/1999/xlink" x="0px" y="0px"
	 viewBox="0 0 50 50" style="enable-background:new 0 0 50 50;" xml:space="preserve">
<style type="text/css">
	.st0{fill:#F1F1F2;}
	.st1{fill:none;stroke:#225264;stroke-width:0.6;stroke-linecap:round;stroke-linejoin:round;stroke-miterlimit:10;}
</style>
<circle class="st0" cx="25" cy="25" r="24.1"/>
<g>
	<path class="st1" d="M22.7,12.2c0,1.4-1.2,2.6-2.6,2.6c-1.4,0-2.6-1.2-2.6-2.6s1.2-2.6,2.6-2.6C21.5,9.7,22.7,10.8,22.7,12.2z"/>
	<path class="st1" d="M33.2,25.1c0,1.2-0.9,2.1-2.1,2.1c-1.2,0-2.1-0.9-2.1-2.1c0-1.2,0.9-2.1,2.1-2.1
		C32.3,22.9,33.2,23.9,33.2,25.1z"/>
	<path class="st1" d="M28.4,40.3v-9l-3.5-4.2l1.2-1.3l3.2,3c0,0,2.7-0.5,4.3,0.1c1.6,0.6,1.7,2.1,1.8,3.2c0.1,1.1,0.1,2.5,0,3.2
		c-0.1,0.7-1.2,1-1.2,1"/>
	<line class="st1" x1="33.2" y1="40.3" x2="33.2" y2="31.9"/>
	<line class="st1" x1="30.8" y1="35.7" x2="30.8" y2="40.3"/>
	<polyline class="st1" points="17.8,19.5 15.5,30.5 24.9,30.5 22.7,19.5 	"/>
	<path class="st1" d="M26.1,25.9c0,0-0.4-2.2-1-4.9c-0.7-3-1.2-4.7-2.4-4.7c-0.7,0-5.2,0-5.2,0s-1.3,0.3-1.7,2.2
		c-0.4,1.9-1.4,5.7-1.3,6.9c0.1,1.2,0.6,1.7,0.6,1.7"/>
	<g>
		<line class="st1" x1="16.8" y1="30.5" x2="17.6" y2="40.3"/>
		<line class="st1" x1="23.5" y1="30.5" x2="22.7" y2="40.3"/>
		<line class="st1" x1="20.2" y1="40.3" x2="20.2" y2="30.5"/>
	</g>
</g>
</svg>
