<?xml version="1.0" encoding="utf-8"?>
<!-- Generator: Adobe Illustrator 28.0.0, SVG Export Plug-In . SVG Version: 6.00 Build 0)  -->
<svg version="1.1" id="Layer_1" xmlns="http://www.w3.org/2000/svg" xmlns:xlink="http://www.w3.org/1999/xlink" x="0px" y="0px"
	 viewBox="0 0 50 50" style="enable-background:new 0 0 50 50;" xml:space="preserve">
<style type="text/css">
	.st0{fill:#F1F1F2;}
	.st1{fill:none;stroke:#225264;stroke-width:0.6;stroke-linecap:round;stroke-linejoin:round;stroke-miterlimit:10;}
	.st2{fill:none;stroke:#225264;stroke-width:0.6;stroke-linecap:round;stroke-linejoin:round;stroke-dasharray:0.9159,1.8318;}
	.st3{fill:none;stroke:#225264;stroke-width:0.6;stroke-linecap:round;stroke-linejoin:round;}
	.st4{fill:#225264;}
	
		.st5{fill:none;stroke:#225264;stroke-width:0.6;stroke-linecap:round;stroke-linejoin:round;stroke-miterlimit:10;stroke-dasharray:0.8794,1.7588;}
</style>
<ellipse transform="matrix(0.9215 -0.3884 0.3884 0.9215 -7.7468 11.6716)" class="st0" cx="25" cy="25" rx="24.1" ry="24.1"/>
<g>
	<polygon class="st1" points="37.7,35.8 11.3,35.8 11.3,37.4 14.1,37.4 14.1,39.2 34.8,39.2 34.8,37.5 37.7,37.5 	"/>
	<line class="st1" x1="14.6" y1="23.4" x2="14.6" y2="35.8"/>
	<line class="st1" x1="17.4" y1="22.2" x2="17.4" y2="35.8"/>
	<path class="st1" d="M21,17.1c0,2.8-2.3,5-5,5s-5-2.3-5-5c0-2.8,2.3-5,5-5S21,14.3,21,17.1z"/>
	<g>
		<circle class="st2" cx="16" cy="17.1" r="3.5"/>
	</g>
	<g>
		<g>
			<line class="st3" x1="16" y1="17.1" x2="17.4" y2="15.8"/>
			<g>
				<polygon class="st4" points="17.6,16.3 17.9,15.2 16.8,15.5 				"/>
			</g>
		</g>
	</g>
	<line class="st5" x1="16.3" y1="37.5" x2="34.4" y2="37.5"/>
	<path class="st1" d="M26.4,21.6c0,0.3-0.2,0.5-0.5,0.5c-0.3,0-0.5-0.2-0.5-0.5c0-0.3,0.2-0.5,0.5-0.5
		C26.2,21.1,26.4,21.3,26.4,21.6z"/>
	<path class="st1" d="M31.1,21.6c0,0.3-0.2,0.5-0.5,0.5c-0.3,0-0.5-0.2-0.5-0.5c0-0.3,0.2-0.5,0.5-0.5
		C30.9,21.1,31.1,21.3,31.1,21.6z"/>
	<path class="st1" d="M25.9,24c0.3,0.9,1.3,1.5,2.5,1.5c1.2,0,2.2-0.6,2.5-1.5"/>
	<path class="st1" d="M35.9,21.6c-0.1-0.7-1.1-0.3-1.1-0.3l-0.2,0c-0.3-3.2-3-5.7-6.3-5.7c-3.3,0-6,2.5-6.3,5.7l-0.2,0
		c0,0-1-0.4-1.1,0.3c-0.1,0.7,0,1.9,1.4,2.4l0.2,0c0.8,2.5,3.2,4.3,6,4.3c2.8,0,5.1-1.8,6-4.3h0.2C35.9,23.6,36,22.3,35.9,21.6z"/>
	<path class="st1" d="M31.8,27.2c0,0,1.7,0.2,2.8,1.5"/>
	<path class="st1" d="M24.5,27c0,0-1.8,0.6-2.9,1.7"/>
	<path class="st1" d="M20.1,26.5c0,0,0.9,2.7,3.8,3.9c2.9,1.2,2.9,1.2,2.9,1.2"/>
	<path class="st1" d="M20.1,33.3c0,0,6-1.8,9-2.3c2.9-0.4,5.9-2,7-4.3c1.1-2.3,1-4.8,1-4.8"/>
	<path class="st1" d="M36.7,35.8c0,0,1.5-0.9,1.9-3.7c0.4-2.8,0.5-9.7,0.4-12c-0.2-2.3-2.4-8.6-9.6-9.3c-5.9-0.6-8.3,1.9-8.3,1.9"/>
	<path class="st1" d="M25.9,14.3c0,0,1.8,0.6,2.2,1.4"/>
	<path class="st1" d="M28.6,15.5c0,0,0.8-0.8,2-1.2"/>
	<path class="st1" d="M28.3,15.2c0,0,0.5-1.6-0.6-2.5"/>
</g>
</svg>
