<?xml version="1.0" encoding="utf-8"?>
<!-- Generator: Adobe Illustrator 28.0.0, SVG Export Plug-In . SVG Version: 6.00 Build 0)  -->
<svg version="1.1" id="Layer_1" xmlns="http://www.w3.org/2000/svg" xmlns:xlink="http://www.w3.org/1999/xlink" x="0px" y="0px"
	 viewBox="0 0 50 50" style="enable-background:new 0 0 50 50;" xml:space="preserve">
<style type="text/css">
	.st0{fill:#F1F1F2;}
	.st1{fill:none;stroke:#225264;stroke-width:0.6;stroke-linecap:round;stroke-linejoin:round;stroke-miterlimit:10;}
</style>
<circle class="st0" cx="25" cy="25" r="24.1"/>
<g>
	<path class="st1" d="M37.1,25.9H13.3c0,0-1.6,2.8,1.5,6.7c3.1,3.9,5.2,3.7,5.2,3.7h10.8c0,0,3.9-1.8,5.3-3.8
		C37.7,30.3,38.2,26.7,37.1,25.9z"/>
	<polyline class="st1" points="19.5,36.6 19.5,38.4 30.3,38.4 30.3,36.2 	"/>
	<path class="st1" d="M29.1,34.3c0,0,4.3-1,6.2-5.5"/>
	<path class="st1" d="M22.3,24.5c0,0-0.7-3,0-4c0.7-1,0.9-2.7-0.3-2.5c-1.2,0.2-2,1.3-2,1.3s0.3-1.9-0.5-2.1
		c-0.9-0.2-1.7,0.4-1.7,0.4s-1.1-4-3-3.4C13,14.8,12.9,18,12.9,18s-1.8,1-1,2.4c0.8,1.4,1.8,1.2,1.8,1.2s-1.4,0.5-0.8,1.8
		c0.6,1.3,1.8,1,1.8,1"/>
	<path class="st1" d="M15,17.3c0,0,2.3,4.5,5.5,6.8"/>
	<path class="st1" d="M18.5,19.3c0,0-0.2,2,0.2,3.3"/>
	<path class="st1" d="M15.2,22.6c0,0,1.7-0.4,3.9,0.5"/>
	<path class="st1" d="M20.8,16.3c0,0-0.9-3.1,0.9-3.3c1.7-0.2,2.1,0.6,2.1,0.6s1.5-3.1,4.1-1.5c2.6,1.5-0.2,4.2-0.2,4.2l1.5,0.3"/>
	<path class="st1" d="M22.8,15.5c0,0,1.8,1.6,2.1,3"/>
	<path class="st1" d="M25.7,14.2c0,0-1,6.6-1.3,10"/>
	<path class="st1" d="M24.9,20.3c0,0,0.9-1.6,2.8-1.9"/>
	<path class="st1" d="M29.9,18.8c0,0,1.6-4.7,3.1-4.6c1.5,0.1,5.1,0.1,5.3,2.4c0.2,2.3-1.5,3.7-1.5,3.7"/>
	<path class="st1" d="M34.6,16.6c0,0,1.1,0,3,1.9"/>
	<path class="st1" d="M30.4,17.5c0,0,1.6-0.1,2.8,0.9"/>
	<line class="st1" x1="34.6" y1="11.6" x2="35.3" y2="14.4"/>
	<line class="st1" x1="36.2" y1="14.1" x2="36.8" y2="11.6"/>
	<line class="st1" x1="36.5" y1="14.6" x2="38.3" y2="13.2"/>
	<path class="st1" d="M26.7,24.1c0,0-0.4-4,3.7-3.8c4.1,0.2,2.9,4.2,2.9,4.2"/>
	<path class="st1" d="M34.1,21c0,0,3.8-0.3,2.7,3.2"/>
</g>
</svg>
