<?xml version="1.0" encoding="utf-8"?>
<!-- Generator: Adobe Illustrator 28.0.0, SVG Export Plug-In . SVG Version: 6.00 Build 0)  -->
<svg version="1.1" id="Layer_1" xmlns="http://www.w3.org/2000/svg" xmlns:xlink="http://www.w3.org/1999/xlink" x="0px" y="0px"
	 viewBox="0 0 50 50" style="enable-background:new 0 0 50 50;" xml:space="preserve">
<style type="text/css">
	.st0{fill:#F1F1F2;}
	.st1{fill:none;stroke:#225264;stroke-width:0.6;stroke-linecap:round;stroke-linejoin:round;stroke-miterlimit:10;}
</style>
<ellipse transform="matrix(0.9215 -0.3884 0.3884 0.9215 -7.7468 11.6716)" class="st0" cx="25" cy="25" rx="24.1" ry="24.1"/>
<g>
	<path class="st1" d="M41.1,11.8c0,1.3-1.1,2.4-2.4,2.4c-1.3,0-2.4-1.1-2.4-2.4c0-1.3,1.1-2.4,2.4-2.4C40,9.4,41.1,10.5,41.1,11.8z"
		/>
	<path class="st1" d="M32.6,16.8c0,1.2-1,2.1-2.1,2.1c-1.2,0-2.1-1-2.1-2.1c0-1.2,1-2.1,2.1-2.1C31.6,14.6,32.6,15.6,32.6,16.8z"/>
	<path class="st1" d="M24.7,20.3c0,1-0.8,1.8-1.8,1.8c-1,0-1.8-0.8-1.8-1.8c0-1,0.8-1.8,1.8-1.8C23.9,18.6,24.7,19.4,24.7,20.3z"/>
	<circle class="st1" cx="18.5" cy="27.6" r="1.8"/>
	<line class="st1" x1="20.1" y1="30.3" x2="19.3" y2="32.2"/>
	<path class="st1" d="M18.5,24.5c0,0-1.1-1.1-1.4-1.6c-0.3-0.5-0.8-1.4-0.2-1.9c0.5-0.4,1.2,0,1.6,0.5c0.3,0.5,1.4,2.1,2.2,2.3
		c0.8,0.1,4,0,4,0s1.6-0.8,2.3-1.6c0.6-0.7,1.3-1.1,1.8-1.1c0.4,0.1,0.9,0.6,0.4,1.5c-0.6,0.9-4,3-4,3L25,29.4c0,0,1.7,2.3,1.8,3.1
		c0,1.1,0,2.6-0.2,3c-0.2,0.3-0.6,0.8-1.2,0.6c-0.4-0.2-0.6-0.6-0.6-1.3c-0.1-0.9,0-2.2,0-2.2l-1.8-2.3l-1.8,2.5v3"/>
	<path class="st1" d="M14.8,29.9c0,0-5,1.4-5.4,1.7c-0.4,0.3-0.1,1.6-0.5,1.6c-0.4,0-1.2,0.1-1.4,0.5c-0.1,0.3-0.6,0.3-1.1,0.5
		c-0.5,0.2-1,0.4-0.9,1c0.1,0.6,0.2,1,1.1,1c0.9,0,2.8,0,2.8,0s0.8-0.5,0.6-0.7c-0.1-0.2,1.3-0.2,1.3-0.2l0.8-1.9l1.1-0.1
		c0,0-0.3,1.4-0.2,1.7c0.2,0.3,1.8,0.3,2.2,0.2c0.4-0.1,0.2-1.2,0-1.2c-0.2,0,0-1.2,0.2-1.2c0.2,0,0.9,0,0.9,0s0.3,2.9,0.8,3.1
		c0.5,0.1,2.1,0.2,2.3,0.1c0.3-0.1,0.7-1.3,0-1.3s-1.2-0.1-1.2-0.1s-0.9-4-1.1-4.1C17.2,30.1,16.3,29.5,14.8,29.9z"/>
	<polyline class="st1" points="26.4,28.5 27.9,25.7 27.9,31.6 	"/>
	<path class="st1" d="M27.9,35.6c0,0,0.1,0.5,0.7,0.5c0.6,0.1,1-0.6,1.1-1.1c0.1-0.5,0.7-5.2,0.7-5.2l0.7,5.4c0,0,0.2,1,1.2,0.9
		c0.9-0.1,1.1-0.5,1.1-1.2c0.1-0.7-0.5-10.2-0.5-10.2l1.3,3.3c0,0,0.2,0.6,1.2,0.2c1-0.4,0.4-1.3,0.3-1.6c-0.1-0.3-1.6-4.1-2-4.9
		c-0.4-0.9-1.3-1.3-1.8-1.4c-0.4-0.1-2.1,0-2.1,0"/>
	<path class="st1" d="M34.2,19.7c0,0,0.6-3.2,2.1-3.8c1.7-0.7,4.2-0.3,5,0c0.7,0.3,1.6,2.4,1.9,3.4s1.1,5,1.2,5.5
		c0.1,0.5,0.3,1.1-0.5,1.4c-0.6,0.2-1.1-0.1-1.4-1.1c-0.1-0.4-1.1-3.8-1.1-3.8s0.2,6.1,0.3,7.8c0.1,1.7,0.5,5.2,0.5,5.8
		c0,0.7-0.5,1.5-1.3,1.4c-0.7-0.1-1.1-0.9-1.1-1.7c-0.1-0.7-1-7.7-1-7.7s-0.9,7.8-1,8.2c-0.2,0.9-0.6,1.4-1.4,1.2
		c-1.1-0.2-1.1-1.4-1.1-2.2c0-0.5,0.3-4.5,0.3-4.5"/>
</g>
</svg>
