<?xml version="1.0" encoding="utf-8"?>
<!-- Generator: Adobe Illustrator 28.0.0, SVG Export Plug-In . SVG Version: 6.00 Build 0)  -->
<svg version="1.1" id="Layer_1" xmlns="http://www.w3.org/2000/svg" xmlns:xlink="http://www.w3.org/1999/xlink" x="0px" y="0px"
	 viewBox="0 0 50 50" style="enable-background:new 0 0 50 50;" xml:space="preserve">
<style type="text/css">
	.st0{fill:#F1F1F2;}
	.st1{fill:none;stroke:#225264;stroke-width:0.6;stroke-linecap:round;stroke-linejoin:round;stroke-miterlimit:10;}
</style>
<g>
	<circle class="st0" cx="24.1" cy="24.1" r="24.1"/>
	<g>
		<path class="st1" d="M31,39.2H17.2c-2.1,0-3.8-1.7-3.8-3.8V22.7c0-2.1,1.7-3.8,3.8-3.8H31c2.1,0,3.8,1.7,3.8,3.8v12.7
			C34.8,37.5,33.1,39.2,31,39.2z"/>
		<path class="st1" d="M15.6,18.8v-3.1c0-3.7,3-6.7,6.7-6.7h3.6c3.7,0,6.7,3,6.7,6.7v3.1"/>
		<path class="st1" d="M26.9,33.8l-1.4-5c0.8-0.5,1.3-1.3,1.3-2.3c0-1.5-1.2-2.6-2.6-2.6c-1.5,0-2.6,1.2-2.6,2.6
			c0,1,0.5,1.8,1.3,2.3l-1.4,5H26.9z"/>
	</g>
</g>
</svg>
