<?xml version="1.0" encoding="utf-8"?>
<!-- Generator: Adobe Illustrator 28.0.0, SVG Export Plug-In . SVG Version: 6.00 Build 0)  -->
<svg version="1.1" id="Layer_1" xmlns="http://www.w3.org/2000/svg" xmlns:xlink="http://www.w3.org/1999/xlink" x="0px" y="0px"
	 viewBox="0 0 50 50" style="enable-background:new 0 0 50 50;" xml:space="preserve">
<style type="text/css">
	.st0{fill:#F1F1F2;}
	.st1{fill:none;stroke:#EC1C24;stroke-width:0.6;stroke-linecap:round;stroke-linejoin:round;stroke-miterlimit:10;}
	.st2{fill:none;stroke:#225264;stroke-width:0.6;stroke-linecap:round;stroke-linejoin:round;stroke-miterlimit:10;}
</style>
<g>
	<circle class="st0" cx="24.1" cy="24.1" r="24.1"/>
	<g>
		<g>
			<path class="st1" d="M24.2,26.2c0,0-0.4-0.8-1.3-0.8c-1.2,0-1.5,1.2-1.3,1.8c0.4,1.3,2.6,2.9,2.6,2.9"/>
			<path class="st1" d="M24.2,26.2c0,0,0.4-0.8,1.3-0.8c1.2,0,1.5,1.2,1.3,1.8c-0.4,1.3-2.6,2.9-2.6,2.9"/>
		</g>
		<path class="st2" d="M10.1,17.6c2.5-5.6,8.3-9.4,14.8-9.1c8.6,0.3,15.3,7.6,14.9,16.1c-0.3,8.6-7.6,15.3-16.1,14.9
			S8.4,32,8.8,23.4"/>
		<polyline class="st2" points="6.6,26 8.8,23.4 11.1,26 		"/>
		<path class="st2" d="M26.8,17.7c0,1.5-1.2,3.6-2.7,3.6s-2.7-2.1-2.7-3.6s1.2-2.7,2.7-2.7S26.8,16.2,26.8,17.7z"/>
		<path class="st2" d="M21.2,21.7c0,0,1.1,1.7,3,1.7s3-1.7,3-1.7s1.4,0.6,1.4,1.9c0,1.3,0,8.5,0,8.5s0.1,1-2.2,1v-2.9"/>
		<path class="st2" d="M21.2,21.7c0,0-1.5,0.8-1.5,1.9c0,1.2,0,8.3,0,8.3s0,1.2,2.2,1.2v-2.9"/>
		<line class="st2" x1="28.6" y1="30.4" x2="32.3" y2="30.4"/>
		<line class="st2" x1="19.7" y1="30.6" x2="15.9" y2="30.6"/>
		<polyline class="st1" points="23.1,27.4 24.2,28.4 25.5,26.9 		"/>
		<g>
			<path class="st2" d="M32.7,19.7c0,1.1-0.9,2.7-2,2.7s-2-1.6-2-2.7s0.9-2,2-2S32.7,18.6,32.7,19.7z"/>
			<path class="st2" d="M30.4,24.2c0,0,1.8,0.3,2.6-1.5c0,0,1.3,0.6,1.3,1.5s0,4.2,0,4.2s-0.2,1-2,0.6v-2.5"/>
		</g>
		<g>
			<path class="st2" d="M15.7,19.7c0,1.1,0.9,2.7,2,2.7s2-1.6,2-2.7s-0.9-2-2-2S15.7,18.6,15.7,19.7z"/>
			<path class="st2" d="M18,24.2c0,0-1.8,0.3-2.6-1.5c0,0-1.3,0.6-1.3,1.5s0,4.2,0,4.2s0.2,1,2,0.6v-2.5"/>
		</g>
	</g>
</g>
</svg>
