<?xml version="1.0" encoding="utf-8"?>
<!-- Generator: Adobe Illustrator 28.0.0, SVG Export Plug-In . SVG Version: 6.00 Build 0)  -->
<svg version="1.1" id="Layer_1" xmlns="http://www.w3.org/2000/svg" xmlns:xlink="http://www.w3.org/1999/xlink" x="0px" y="0px"
	 viewBox="0 0 50 50" style="enable-background:new 0 0 50 50;" xml:space="preserve">
<style type="text/css">
	.st0{fill:#F1F1F2;}
	.st1{fill:none;stroke:#225264;stroke-width:0.6;stroke-linecap:round;stroke-linejoin:round;stroke-miterlimit:10;}
	.st2{fill:none;stroke:#EC1C24;stroke-width:0.6;stroke-linecap:round;stroke-linejoin:round;stroke-miterlimit:10;}
</style>
<g>
	<circle class="st0" cx="24.1" cy="24.1" r="24.1"/>
	<g>
		<path class="st1" d="M14.6,37.1L14.6,37.1c0-0.5,0.4-0.9,0.9-0.9h17.1c0.5,0,0.9,0.4,0.9,0.9l0,0c0,0.5-0.4,0.9-0.9,0.9h-8.5
			l-0.8,1.3L15.6,38C15.1,38,14.6,37.6,14.6,37.1z"/>
		<g>
			<path class="st1" d="M33.2,12.9v-0.4c0-0.3-0.3-0.6-0.6-0.6c0.3,0,0.6-0.3,0.6-0.6V11c0-0.3-0.3-0.6-0.6-0.6
				c0.3,0,0.6-0.3,0.6-0.6V9.4c0-0.3-0.3-0.6-0.6-0.6H27h-0.1h-0.3c-0.3,0-0.5,0.2-0.6,0.4c-0.2,0.2-0.3,0.4-0.3,0.7v0.4H14.7
				c-0.5,0-0.8,0.4-0.8,0.8s0.4,0.8,0.8,0.8h11.2v0.4c0,0.3,0.1,0.5,0.3,0.7c0.1,0.2,0.3,0.4,0.6,0.4h0.3H27h5.6
				C32.9,13.5,33.2,13.2,33.2,12.9z"/>
			<line class="st1" x1="32.6" y1="10.4" x2="28" y2="10.4"/>
			<line class="st1" x1="32.6" y1="11.9" x2="28" y2="11.9"/>
		</g>
		<path class="st1" d="M20.5,36.1c-5-1.5-8.7-6.2-8.7-11.7c0-6.1,4.4-11.1,10.2-12.1"/>
		<path class="st1" d="M29.9,13.6c3.8,2.1,6.4,6.1,6.4,10.8c0,5.5-3.6,10.1-8.6,11.7"/>
		<g>
			<circle class="st1" cx="24.1" cy="24.3" r="8.2"/>
			<path class="st2" d="M24,21.7c0,0-1.7-1.5-3.6-1c-1.9,0.5-2.3,2.2-1.9,3.7c0.5,1.5,2.5,5.4,3.8,5.3s1.6-0.8,1.6-0.8"/>
			<path class="st1" d="M23.5,24.4c0,0-2.7,0.5-1.4,1.7C23.5,27.4,23.6,25.3,23.5,24.4z"/>
			<path class="st2" d="M24.1,21.7c0,0,1.7-1.5,3.6-1c1.9,0.5,2.3,2.2,1.9,3.7c-0.5,1.5-2.5,5.4-3.8,5.3s-1.6-0.8-1.6-0.8"/>
			<path class="st1" d="M24.6,24.4c0,0,2.7,0.5,1.4,1.7C24.6,27.4,24.5,25.3,24.6,24.4z"/>
		</g>
		<path class="st1" d="M24.1,21.7c0,0-0.1-2.5,1.3-3.3"/>
	</g>
</g>
</svg>
