<?xml version="1.0" encoding="utf-8"?>
<!-- Generator: Adobe Illustrator 28.0.0, SVG Export Plug-In . SVG Version: 6.00 Build 0)  -->
<svg version="1.1" id="Layer_1" xmlns="http://www.w3.org/2000/svg" xmlns:xlink="http://www.w3.org/1999/xlink" x="0px" y="0px"
	 viewBox="0 0 50 50" style="enable-background:new 0 0 50 50;" xml:space="preserve">
<style type="text/css">
	.st0{fill:#F1F1F2;}
	.st1{fill:none;stroke:#225264;stroke-width:0.6;stroke-linecap:round;stroke-linejoin:round;stroke-miterlimit:10;}
</style>
<g>
	<circle class="st0" cx="24.1" cy="24.1" r="24.1"/>
	<g>
		<path class="st1" d="M11.4,17.9c-2,0.7-1.5,2.7-1.3,3.7c0.1,1,0.2,3.7-0.4,5.2s-0.8,4.6,1.3,6.7s5.9,3.2,9.3,0.6s1.8-7.7,0.7-8.9
			c-1.5-1.5-4.4-3.2-5.2-4.8C15.1,18.9,13.8,17.1,11.4,17.9z"/>
		<path class="st1" d="M11.5,17.7c0,0-0.6-2.9,2.3-3.3"/>
		<path class="st1" d="M18.3,25.5c0,0,2.2,1.1,2,3.7s-2,4-2,4"/>
		<line class="st1" x1="20.3" y1="24.6" x2="20.3" y2="16.1"/>
		<line class="st1" x1="30.4" y1="16.1" x2="30.4" y2="26.5"/>
		<line class="st1" x1="17.9" y1="16.1" x2="32.9" y2="16.1"/>
		<path class="st1" d="M27.7,16.1l2.7-5.7c0,0-0.1-0.8,1.3,0c1.5,0.8,0.4,1.4,0.4,1.4l-2.1,4.3"/>
		<line class="st1" x1="20.3" y1="20.3" x2="30.4" y2="20.3"/>
		<line class="st1" x1="22.4" y1="29.3" x2="28.1" y2="29.3"/>
		<path class="st1" d="M34.5,28c0,0-0.7-0.8-1.6-1.6c-0.6-0.5-3-0.3-3.8,1.2c-0.9,1.5-5.4,9.4-5.7,9.8s-0.4,1,0,1.6s1.1,0.4,2,0
			c0.9-0.4,8.7-5.2,9.7-5.8s1.8-2.6,0.8-3.6C35.3,29,35,28.5,34.5,28z"/>
		<line class="st1" x1="33.3" y1="26.7" x2="34.5" y2="23.8"/>
		<line class="st1" x1="35.7" y1="29.3" x2="38.9" y2="27.5"/>
		<line class="st1" x1="34.5" y1="28" x2="37.6" y2="24.6"/>
		<line class="st1" x1="31.2" y1="31.2" x2="33.9" y2="33.9"/>
		<line class="st1" x1="27" y1="31.2" x2="29.8" y2="33.9"/>
		<line class="st1" x1="27" y1="35.2" x2="28.7" y2="37.1"/>
	</g>
</g>
</svg>
