<?xml version="1.0" encoding="utf-8"?>
<!-- Generator: Adobe Illustrator 28.0.0, SVG Export Plug-In . SVG Version: 6.00 Build 0)  -->
<svg version="1.1" id="Layer_1" xmlns="http://www.w3.org/2000/svg" xmlns:xlink="http://www.w3.org/1999/xlink" x="0px" y="0px"
	 viewBox="0 0 50 50" style="enable-background:new 0 0 50 50;" xml:space="preserve">
<style type="text/css">
	.st0{fill:#F1F1F2;}
	.st1{fill:none;stroke:#225264;stroke-width:0.6;stroke-linecap:round;stroke-linejoin:round;stroke-miterlimit:10;}
	.st2{fill:none;stroke:#EC1C24;stroke-width:0.6;stroke-linecap:round;stroke-linejoin:round;stroke-miterlimit:10;}
</style>
<g>
	<circle class="st0" cx="24.1" cy="24.1" r="24.1"/>
	<g>
		<path class="st1" d="M16.6,37.2c1-3.9,0.4-6.4-1.5-9c0,0,0,0,0,0l0,0c0,0,0,0,0,0c-1.7-2-2.7-4.6-2.7-7.4C12.3,14.4,17.5,9,24,9
			c6.5,0,11.8,5.2,11.8,11.8c0,0.4,0,0.7-0.1,1.1c0,0.2,0,0.4,0.1,0.6l1.8,4.4c0.1,0.2,0.1,0.4,0,0.6s-0.3,0.3-0.5,0.3l-1.5,0.2
			c-0.3,0-0.5,0.3-0.5,0.6l-0.5,4.4c-0.1,0.7-0.7,1.2-1.4,1.2L31.3,34c-1-0.1-1.9,0.7-1.9,1.8v1.5"/>
		<polygon class="st2" points="24.5,16 25.7,20.2 23.4,20.2 25.2,26.3 19.4,18.7 21.9,18.7 19.9,16 		"/>
		<path class="st1" d="M25.7,22h3.7h0.1c1.9,0,3.4-1.5,3.4-3.4c0-1.6-1.2-3-2.7-3.3C30,13.4,28.3,12,26.4,12c-0.9,0-1.7,0.3-2.3,0.8
			c-0.6-0.7-1.6-1.2-2.6-1.2c-1.7,0-3.1,1.2-3.3,2.8c0,0.2,0,0.4,0,0.6c0,0.1,0,0.2,0,0.3c-0.2,0-0.4,0.1-0.6,0.2
			c-1.3,0.5-2.3,1.7-2.3,3.2c0,1.9,1.5,3.4,3.4,3.4h1.2"/>
		<line class="st1" x1="27" y1="23.7" x2="27.6" y2="25.3"/>
		<line class="st1" x1="30.1" y1="23.7" x2="30.7" y2="25.3"/>
		<line class="st1" x1="28.6" y1="23.7" x2="29.5" y2="26.6"/>
		<path class="st1" d="M30.3,15.3c-0.5-0.1-0.8-0.1-1.3,0"/>
		<path class="st1" d="M24,12.7c0.3,0.4,0.4,0.6,0.5,1"/>
	</g>
</g>
</svg>
