<?xml version="1.0" encoding="utf-8"?>
<!-- Generator: Adobe Illustrator 28.0.0, SVG Export Plug-In . SVG Version: 6.00 Build 0)  -->
<svg version="1.1" id="Layer_1" xmlns="http://www.w3.org/2000/svg" xmlns:xlink="http://www.w3.org/1999/xlink" x="0px" y="0px"
	 viewBox="0 0 50 50" style="enable-background:new 0 0 50 50;" xml:space="preserve">
<style type="text/css">
	.st0{fill:#F1F1F2;}
	.st1{fill:none;stroke:#225264;stroke-width:0.6;stroke-linecap:round;stroke-linejoin:round;stroke-miterlimit:10;}
</style>
<g>
	<circle class="st0" cx="24.1" cy="24.1" r="24.1"/>
	<g>
		<g>
			<path class="st1" d="M10.9,30.4v2.8c0,1.8,1.5,3.3,3.3,3.3h4.2"/>
			<line class="st1" x1="14" y1="36.5" x2="14" y2="39.8"/>
		</g>
		<g>
			<path class="st1" d="M38.3,30.4v2.8c0,1.8-1.5,3.3-3.3,3.3h-4.2"/>
			<line class="st1" x1="35.1" y1="36.5" x2="35.1" y2="39.8"/>
		</g>
		<path class="st1" d="M18.5,11.7v10.7l3.2-3.5h7.1c1.8,0,3.3-1.5,3.3-3.3v-3.9c0-1.8-1.5-3.3-3.3-3.3h-7C20,8.4,18.5,9.8,18.5,11.7
			z"/>
		<path class="st1" d="M12.8,22.1c-0.7-0.9-0.4-2.2,0.5-2.8c0.9-0.7,2.2-0.4,2.8,0.5c0.7,0.9,0.7,2.5-0.3,3.1
			C15,23.5,13.5,23,12.8,22.1z"/>
		<path class="st1" d="M21.6,39.7c0,0-1.4-4.2-1.7-5h-5.2c-1.1,0-2.1-0.9-2.1-2.1v-6.1c0-1.1,0.9-2,2-2l0,0c1.1,0,2,0.7,2.3,1.8
			l0.8,3.3l2.9,0c0.6,0,1.2,0.5,1.2,1.2l0,0c0,0.6-0.5,1.2-1.2,1.2h-3.7c-0.7,0-1.4-0.5-1.6-1.2l-1-3.8"/>
		<path class="st1" d="M20.1,32c1,0,1.9,0.7,2.2,1.6l1.7,6.1"/>
		<path class="st1" d="M36.3,22.1c0.7-0.9,0.4-2.2-0.5-2.8c-0.9-0.7-2.2-0.4-2.8,0.5c-0.7,0.9-0.7,2.5,0.3,3.1
			C34.2,23.5,35.7,23,36.3,22.1z"/>
		<path class="st1" d="M27.6,39.7c0,0,1.4-4.2,1.7-5h5.2c1.1,0,2.1-0.9,2.1-2.1v-6.1c0-1.1-0.9-2-2-2l0,0c-1.1,0-2,0.7-2.3,1.8
			l-0.8,3.3l-2.9,0c-0.6,0-1.2,0.5-1.2,1.2l0,0c0,0.6,0.5,1.2,1.2,1.2h3.7c0.7,0,1.4-0.5,1.6-1.2l1-3.8"/>
		<path class="st1" d="M29.1,32c-1,0-1.9,0.7-2.2,1.6l-1.7,6.1"/>
		<g>
			<g>
				<rect x="22" y="13.7" class="st1" width="0" height="0"/>
				<rect x="25.3" y="13.7" class="st1" width="0" height="0"/>
				<rect x="28.6" y="13.7" class="st1" width="0" height="0"/>
			</g>
		</g>
	</g>
</g>
</svg>
