<?xml version="1.0" encoding="utf-8"?>
<!-- Generator: Adobe Illustrator 28.0.0, SVG Export Plug-In . SVG Version: 6.00 Build 0)  -->
<svg version="1.1" id="Layer_1" xmlns="http://www.w3.org/2000/svg" xmlns:xlink="http://www.w3.org/1999/xlink" x="0px" y="0px"
	 viewBox="0 0 50 50" style="enable-background:new 0 0 50 50;" xml:space="preserve">
<style type="text/css">
	.st0{fill:#F1F1F2;}
	.st1{fill:none;stroke:#225264;stroke-width:0.6;stroke-linecap:round;stroke-linejoin:round;stroke-miterlimit:10;}
</style>
<g>
	<circle class="st0" cx="24.1" cy="24.1" r="24.1"/>
	<g>
		<path class="st1" d="M16.6,38c1-3.9,0.4-6.4-1.5-9c0,0,0,0,0,0l0,0c0,0,0,0,0,0c-1.7-2-2.7-4.6-2.7-7.4C12.3,15.1,17.5,9.7,24,9.7
			c6.5,0,11.8,5.2,11.8,11.8c0,0.4,0,0.7-0.1,1.1c0,0.2,0,0.4,0.1,0.6l1.8,4.4c0.1,0.2,0.1,0.4,0,0.6c-0.1,0.2-0.3,0.3-0.5,0.3
			l-1.5,0.2c-0.3,0-0.5,0.3-0.5,0.6l-0.5,4.4c-0.1,0.7-0.7,1.2-1.4,1.2l-1.8-0.1c-1-0.1-1.9,0.7-1.9,1.8V38"/>
		<path class="st1" d="M34,19.4l-3.1,0.7c0,0-0.1,0-0.1,0c0,0,0-0.1,0-0.1c0.3-0.4,0.4-0.9,0.3-1.5c-0.2-1-1.2-1.7-2.3-1.5
			c-1,0.2-1.7,1.2-1.5,2.3c0.1,0.5,0.4,0.9,0.8,1.2c0,0,0.1,0.1,0,0.1c0,0,0,0.1-0.1,0.1l-4,0.9l-3.5,0.8c0,0-0.1,0-0.1,0.1
			c0,0,0,0.1,0,0.1c0.4,0.3,0.7,0.7,0.8,1.2c0.2,1-0.4,2.1-1.5,2.3c-1,0.2-2.1-0.4-2.3-1.5c-0.1-0.5,0-1,0.3-1.5c0,0,0-0.1,0-0.1
			c0,0-0.1-0.1-0.1,0l-3.5,0.7"/>
		<path class="st1" d="M21.9,11.6l0.7,3.5c0,0,0,0.1,0,0.1c0,0-0.1,0-0.1,0c-0.4-0.3-0.9-0.4-1.4-0.3c-1,0.2-1.7,1.2-1.5,2.3
			c0.2,1,1.2,1.7,2.3,1.5c0.5-0.1,0.9-0.4,1.2-0.8c0,0,0.1-0.1,0.1,0c0,0,0.1,0,0.1,0.1l0.8,3.6l0.8,3.5c0,0,0,0.1,0.1,0.1
			c0,0,0.1,0,0.1,0c0.3-0.4,0.7-0.7,1.2-0.8c1-0.2,2.1,0.4,2.3,1.5c0.2,1-0.4,2.1-1.5,2.3c-0.5,0.1-1,0-1.5-0.3c0,0-0.1,0-0.1,0
			c0,0-0.1,0.1,0,0.1l0.7,3.5"/>
	</g>
</g>
</svg>
