<?xml version="1.0" encoding="utf-8"?>
<!-- Generator: Adobe Illustrator 28.0.0, SVG Export Plug-In . SVG Version: 6.00 Build 0)  -->
<svg version="1.1" id="Layer_1" xmlns="http://www.w3.org/2000/svg" xmlns:xlink="http://www.w3.org/1999/xlink" x="0px" y="0px"
	 viewBox="0 0 50 50" style="enable-background:new 0 0 50 50;" xml:space="preserve">
<style type="text/css">
	.st0{fill:#F1F1F2;}
	.st1{fill:none;stroke:#225264;stroke-width:0.6;stroke-linecap:round;stroke-linejoin:round;stroke-miterlimit:10;}
</style>
<circle class="st0" cx="25" cy="25" r="24.09"/>
<g>
	<path class="st1" d="M16.6,31.03c0,0,1.93-2.58,2.07-6.74c0.14-4.16-0.72-5.97-0.72-5.97s-2.83-5.14-5-4.2
		c-2.17,0.94-1.59,6.91-1.23,8.53c0.36,1.62,3.33,8.79,8.55,11.9c5.22,3.12,7.83,3.55,10.07,2.83c2.25-0.72,3.14-2.06,3.26-2.32
		c0.25-0.54-0.14-1.09-0.14-1.09"/>
	<path class="st1" d="M20.2,29.91c0,0,10.56,5.91,14.64,3.41c1.88-1.16,2.32-4.78,2.32-4.78"/>
	<path class="st1" d="M21.43,26.8c0,0,15,3.18,16.05,1.05c1.22-2.46,0.36-4.96,0.36-4.96"/>
	<path class="st1" d="M21.43,23.39c0,0,11.13-1.58,13.52-1.33c1.91,0.2,2.54,0.81,3.2,0.53c0.43-0.18,0.85-3.91,0-4.42
		c-0.85-0.51-5.99-2.32-17.95,1.01"/>
	<path class="st1" d="M38.14,18.18c0,0-2.51-6.3-4.25-5.83c-1.74,0.47-2.25,4.89-2.25,4.89"/>
</g>
</svg>
