<?xml version="1.0" encoding="utf-8"?>
<!-- Generator: Adobe Illustrator 28.0.0, SVG Export Plug-In . SVG Version: 6.00 Build 0)  -->
<svg version="1.1" id="Layer_1" xmlns="http://www.w3.org/2000/svg" xmlns:xlink="http://www.w3.org/1999/xlink" x="0px" y="0px"
	 viewBox="0 0 50 50" style="enable-background:new 0 0 50 50;" xml:space="preserve">
<style type="text/css">
	.st0{fill:#F1F1F2;}
	.st1{fill:none;stroke:#225264;stroke-width:0.6;stroke-linecap:round;stroke-linejoin:round;stroke-miterlimit:10;}
</style>
<circle class="st0" cx="25" cy="25" r="24.1"/>
<g>
	<path class="st1" d="M12.3,11.8c0,0,7.1-2.2,10.7-0.6c0,0,0.8,1.9-0.5,3.4c-1.3,1.6-2.5,2.1-2.5,2.1s-0.3,1.6-0.7,2.2
		c-0.5,0.7-1.5,1.8-1.5,1.8v2.2c0,0-3-2.2-4,0c-1,2.2,0.3,3.8,0.8,4.3c0.6,0.5,1.9,0.9,1.9,0.9s0.3,2.9,1.3,3.7
		c1,0.8,4.6,3.5,5.9,3.4c1.3-0.1,1.4-1.4,1.4-1.4s1.5-0.8,1.4-1.2c-0.1-0.4-1.7-1.2-1.7-1.2"/>
	<path class="st1" d="M24.1,14.8c0,0,2.2,1.8,2.2,3.8s-0.3,3,0,3.8s2.1,3,1.9,3.4c-0.2,0.4-1.6,0.9-1.5,1.5c0.1,0.6,0.6,1.2-0.2,1.4
		c-0.8,0.3-1.5,0.7-1.5,0.7"/>
	<path class="st1" d="M20.9,34.3c0,0-2.3,0.8-2.6,2.4c-0.3,1.6-0.2,3.1-0.2,3.1"/>
	<line class="st1" x1="28.7" y1="29.4" x2="33.3" y2="29.4"/>
	<line class="st1" x1="28" y1="30.7" x2="32.4" y2="33.1"/>
	<path class="st1" d="M33.3,25.9c0,0,1-2,3.3-1.4c1.5,0.4,1.8,2,1.3,3c-0.5,1-1.7,1.6-1.7,1.6s2.5,0.3,3,2c0.5,1.9-0.5,3-1,3.4
		c-1.2,1.1-3.7,0-3.7,0s1.3,2.5-0.3,3.2c-1.6,0.7-3-0.4-3.4-1"/>
</g>
</svg>
