<?xml version="1.0" encoding="utf-8"?>
<!-- Generator: Adobe Illustrator 28.0.0, SVG Export Plug-In . SVG Version: 6.00 Build 0)  -->
<svg version="1.1" id="Layer_1" xmlns="http://www.w3.org/2000/svg" xmlns:xlink="http://www.w3.org/1999/xlink" x="0px" y="0px"
	 viewBox="0 0 50 50" style="enable-background:new 0 0 50 50;" xml:space="preserve">
<style type="text/css">
	.st0{fill:#F1F1F2;}
	.st1{fill:none;stroke:#225264;stroke-width:0.6;stroke-linecap:round;stroke-linejoin:round;stroke-miterlimit:10;}
	.st2{fill:none;stroke:#ED1C24;stroke-width:0.6;stroke-linecap:round;stroke-linejoin:round;stroke-miterlimit:10;}
</style>
<circle class="st0" cx="25" cy="25" r="24.1"/>
<g>
	<g>
		<path class="st1" d="M9.4,27h12.2c0,0,3.5-3.1,5-3.5c1.5-0.3,6.5,0,6.5,0s2.3,0,2.3,1.7S33.8,27,33.8,27"/>
		<path class="st1" d="M24.4,29.9c0,0,2.1-0.1,2.7-0.9s0.7-2,0.7-2h11.4c0,0,2-0.2,2,1.5c0,1.3-1.5,1.5-1.5,1.5h-6.9"/>
		<path class="st1" d="M39.7,29.9c0,0,2.7-0.3,2.7,1.7c0,1.4-2,1.3-2,1.3h-7.6"/>
		<path class="st1" d="M40.4,32.9c0,0,0.8,0.2,0.8,1.5s-1.3,1.3-1.3,1.3h-7"/>
		<path class="st1" d="M37,35.8c0,0,1.3,0.1,1.3,1.6S36.7,39,36.7,39H25.6c0,0-3.1-1.5-4.3-1.6s-11.9,0-11.9,0"/>
	</g>
	<g>
		<path class="st1" d="M24.3,11.6L16.8,19v2.2l-1.6,1.6c0,0-0.3,0.8,0.2,1.4s1.5,0.3,1.5,0.3l1.7-1.5l1.8-0.2l7.4-7.4"/>
		<path class="st1" d="M23.6,10.8l5.1,5.1c0,0,0.6,0.7,1.3,0c0.6-0.6,0-1.3,0-1.3l-5.1-5.1c0,0-0.6-0.8-1.3,0
			C22.9,10.3,23.6,10.8,23.6,10.8z"/>
		<path class="st1" d="M25.7,10.3l3.8-3.8c0,0,1.6-1.8,3.5,0c1.8,1.8,0.3,3.4,0.3,3.4l-3.9,3.9"/>
		<line class="st1" x1="27.2" y1="8.7" x2="30.8" y2="12.3"/>
		<line class="st1" x1="24" y1="16.6" x2="25.1" y2="17.7"/>
		<line class="st1" x1="22.5" y1="18.1" x2="23.6" y2="19.2"/>
		<line class="st1" x1="21" y1="19.6" x2="22.1" y2="20.7"/>
	</g>
	<circle class="st2" cx="11" cy="30.9" r="0.7"/>
	<circle class="st2" cx="11" cy="34.3" r="0.7"/>
	<circle class="st2" cx="14.5" cy="30.9" r="0.7"/>
	<circle class="st2" cx="14.5" cy="34.3" r="0.7"/>
	<path class="st2" d="M18.8,30.9c0,0.4-0.3,0.7-0.7,0.7c-0.4,0-0.7-0.3-0.7-0.7s0.3-0.7,0.7-0.7C18.5,30.1,18.8,30.5,18.8,30.9z"/>
	<path class="st2" d="M18.8,34.3c0,0.4-0.3,0.7-0.7,0.7c-0.4,0-0.7-0.3-0.7-0.7s0.3-0.7,0.7-0.7S18.8,33.9,18.8,34.3z"/>
	<path class="st2" d="M22.3,30.9c0,0.4-0.3,0.7-0.7,0.7s-0.7-0.3-0.7-0.7s0.3-0.7,0.7-0.7S22.3,30.5,22.3,30.9z"/>
	<path class="st2" d="M22.3,34.3c0,0.4-0.3,0.7-0.7,0.7s-0.7-0.3-0.7-0.7s0.3-0.7,0.7-0.7S22.3,33.9,22.3,34.3z"/>
</g>
</svg>
