<?xml version="1.0" encoding="utf-8"?>
<!-- Generator: Adobe Illustrator 28.0.0, SVG Export Plug-In . SVG Version: 6.00 Build 0)  -->
<svg version="1.1" id="Layer_1" xmlns="http://www.w3.org/2000/svg" xmlns:xlink="http://www.w3.org/1999/xlink" x="0px" y="0px"
	 viewBox="0 0 50 50" style="enable-background:new 0 0 50 50;" xml:space="preserve">
<style type="text/css">
	.st0{fill:#F1F1F2;}
	.st1{fill:none;stroke:#225264;stroke-width:0.6;stroke-linecap:round;stroke-linejoin:round;stroke-miterlimit:10;}
</style>
<ellipse transform="matrix(0.9215 -0.3884 0.3884 0.9215 -7.7468 11.6716)" class="st0" cx="25" cy="25" rx="24.1" ry="24.1"/>
<g>
	<path class="st1" d="M13.9,11.6c0,0,6.9-2.2,10.4-0.5c0,0,0.8,1.8-0.5,3.3c-1.3,1.5-2.4,2.1-2.4,2.1s-0.3,1.5-0.7,2.2
		c-0.5,0.6-1.5,1.7-1.5,1.7v2.2c0,0-2.9-2.2-3.9,0s0.3,3.7,0.8,4.2c0.5,0.5,1.8,0.9,1.8,0.9s0.5,2.8,2.2,4.1"/>
	<path class="st1" d="M25.3,14.5c0,0,2.2,1.8,2.2,3.7c0,1.9-0.3,2.9,0,3.7l1.8,2.8"/>
	<polyline class="st1" points="23.9,20.1 24.6,21.6 23.1,23.2 	"/>
	<line class="st1" x1="30.7" y1="15.2" x2="34.6" y2="12.9"/>
	<line class="st1" x1="30.7" y1="17.4" x2="34.6" y2="17.4"/>
	<line class="st1" x1="30.7" y1="19.5" x2="34" y2="21.6"/>
	<path class="st1" d="M21.9,35c0,0-0.3-3.7,0.2-4.4c0.5-0.8,1.5-2.4,2-2.3c0.5,0.1,1.6,1.3,1.6,1.3"/>
	<path class="st1" d="M24.8,31.2c0,0,2.6-5.6,3.3-5.3c0.7,0.2,3.5,2.5,3.3,3.8c-0.2,1.3-3.8,6.7-5.2,7.8"/>
	<path class="st1" d="M17.4,39.2c0-0.1,3.3-4.7,3.3-4.7l5.9,3.8L26,39.6"/>
	<path class="st1" d="M29,26.4c0,0,0.4-2.4,1.2-2.7c0.8-0.3,9,8.1,9,8.1s-0.9,2-2,3.3c-1.2,1.3-1.9,1.6-1.9,1.6l-1.4-2.1"/>
	<polyline class="st1" points="31.2,33.9 32,36.2 35.1,33 32.7,30.6 	"/>
</g>
</svg>
