<?xml version="1.0" encoding="utf-8"?>
<!-- Generator: Adobe Illustrator 28.0.0, SVG Export Plug-In . SVG Version: 6.00 Build 0)  -->
<svg version="1.1" id="Layer_1" xmlns="http://www.w3.org/2000/svg" xmlns:xlink="http://www.w3.org/1999/xlink" x="0px" y="0px"
	 viewBox="0 0 50 50" style="enable-background:new 0 0 50 50;" xml:space="preserve">
<style type="text/css">
	.st0{fill:#F1F1F2;}
	.st1{fill:none;stroke:#225264;stroke-width:0.6;stroke-linecap:round;stroke-linejoin:round;stroke-miterlimit:10;}
	.st2{fill:none;stroke:#ED1C24;stroke-width:0.6;stroke-linecap:round;stroke-linejoin:round;}
	.st3{fill:none;stroke:#ED1C24;stroke-width:0.6;stroke-linecap:round;stroke-linejoin:round;stroke-dasharray:0.6706,1.3412;}
	.st4{fill:none;stroke:#ED1C24;stroke-width:0.6;stroke-linecap:round;stroke-linejoin:round;stroke-dasharray:0.9534,1.9068;}
	.st5{fill:none;stroke:#ED1C24;stroke-width:0.6;stroke-linecap:round;stroke-linejoin:round;stroke-dasharray:0.6662,1.3324;}
</style>
<circle class="st0" cx="25" cy="25" r="24.1"/>
<g>
	<path class="st1" d="M11.2,36.4c0,0,0.2-5.8,0.8-7c0.5-1.2,2.2-2.3,3.6-2.8c1.3-0.5,6.1-2.2,6.1-2.4s0.3-2.3,0-2.7
		c-0.3-0.4-3.4-2-3.3-7s5.4-5.7,6.1-5.8c0.8-0.1,5,0.3,6,3.4c1,3,0.7,4,1.2,4.8c0.5,0.8,0.9,1.5,0.4,1.6s-1.4,0.1-1.4,0.4
		s0.1,3.1-0.5,3.1c-0.5,0-1.9,0.1-1.9,0.1s-0.3,1.8,0,2.2c0.3,0.3,6.3,2.6,7.1,3c0.8,0.3,2.5,1.5,2.9,4.4c0.3,2.9,0.2,4.9,0.2,4.9"
		/>
	<g>
		<g>
			<line class="st2" x1="33.1" y1="19.7" x2="33.5" y2="19.6"/>
			<line class="st3" x1="34.8" y1="19.2" x2="36.1" y2="18.8"/>
			<line class="st2" x1="36.8" y1="18.7" x2="37.3" y2="18.5"/>
		</g>
	</g>
	<g>
		<g>
			<line class="st2" x1="33.1" y1="21.1" x2="33.6" y2="21.1"/>
			<line class="st4" x1="35.5" y1="21.1" x2="37.4" y2="21.1"/>
			<line class="st2" x1="38.3" y1="21.1" x2="38.8" y2="21.1"/>
		</g>
	</g>
	<g>
		<g>
			<line class="st2" x1="33.1" y1="22.5" x2="33.6" y2="22.6"/>
			<line class="st5" x1="34.8" y1="22.9" x2="36.1" y2="23.2"/>
			<line class="st2" x1="36.8" y1="23.4" x2="37.3" y2="23.5"/>
		</g>
	</g>
	<g>
		<g>
			<polyline class="st1" points="23.8,23.1 23.8,29.5 21.7,30.4 			"/>
			<polyline class="st1" points="26.4,23.1 26.4,29.5 28.5,30.4 			"/>
		</g>
		<polyline class="st1" points="28.2,32.3 25.1,31.2 22.1,32.3 		"/>
		<g>
			<path class="st1" d="M23.7,29.2c0,0-0.2-2.8-2-2.7c-1.8,0.1-6,4.1-6.5,7.7s0.5,4.9,1.6,4.6c1.1-0.3,1.6-1.2,3.4-1.1
				c1.5,0.1,3.2-0.8,3.4-1.7s0-4.3,0-4.3"/>
			<path class="st1" d="M26.5,29.2c0,0,0.2-2.8,2-2.7c1.8,0.1,6,4.1,6.5,7.7s-0.5,4.9-1.6,4.6c-1.1-0.3-1.6-1.2-3.4-1.1
				c-1.5,0.1-3.2-0.8-3.4-1.7s0-4.3,0-4.3"/>
		</g>
	</g>
</g>
</svg>
