<?xml version="1.0" encoding="utf-8"?>
<!-- Generator: Adobe Illustrator 28.0.0, SVG Export Plug-In . SVG Version: 6.00 Build 0)  -->
<svg version="1.1" id="Layer_1" xmlns="http://www.w3.org/2000/svg" xmlns:xlink="http://www.w3.org/1999/xlink" x="0px" y="0px"
	 viewBox="0 0 50 50" style="enable-background:new 0 0 50 50;" xml:space="preserve">
<style type="text/css">
	.st0{fill:#F1F1F2;}
	.st1{fill:none;stroke:#225264;stroke-width:0.6;stroke-linecap:round;stroke-linejoin:round;stroke-miterlimit:10;}
</style>
<circle class="st0" cx="25" cy="25" r="24.1"/>
<g>
	<g>
		<path class="st1" d="M32.7,19.1c-1.1-1.3-4.7-4.6-9.4-4.6c-4.1,0-10.4,3.6-9.9,8.5c0.5,4.8,5.9,4.2,7.3,3.9c1.4-0.3,4.2-2,5.6-3.6
			c1.3-1.5,2.6-2.9,3.8-2.7c1.1,0.2,2.2,2.1,1,2.7c-1.1,0.6-5.9,1.7-8.4,6.4c-2.4,4.7,0,7.4,1.4,8.1c1.3,0.7,6.8,0.5,9.5-3.8
			C36.5,29.4,35.5,22.5,32.7,19.1z"/>
		<circle class="st1" cx="25" cy="25" r="16.4"/>
		<path class="st1" d="M10.9,26c0,0.2-0.1,0.3-0.3,0.3c-0.2,0-0.3-0.1-0.3-0.3c0-0.2,0.1-0.3,0.3-0.3C10.8,25.7,10.9,25.8,10.9,26z"
			/>
		<path class="st1" d="M13.6,28.6c0,0.2-0.1,0.3-0.3,0.3c-0.2,0-0.3-0.1-0.3-0.3s0.1-0.3,0.3-0.3C13.5,28.4,13.6,28.5,13.6,28.6z"/>
		<path class="st1" d="M16.4,28.9c0,0.1-0.1,0.2-0.2,0.2c-0.1,0-0.2-0.1-0.2-0.2c0-0.1,0.1-0.2,0.2-0.2
			C16.3,28.6,16.4,28.7,16.4,28.9z"/>
		<path class="st1" d="M15.4,32.9c0,0.1-0.2,0.3-0.5,0.3c-0.3,0-0.5-0.1-0.5-0.3c0-0.1,0.2-0.3,0.5-0.3
			C15.2,32.7,15.4,32.8,15.4,32.9z"/>
		<path class="st1" d="M18.7,31.6c0,0.1-0.3,0.1-0.6,0.1c-0.3,0-0.6-0.1-0.6-0.1c0-0.1,0.3-0.1,0.6-0.1
			C18.5,31.5,18.7,31.6,18.7,31.6z"/>
		<path class="st1" d="M18.1,36.3c0,0.2-0.3,0.4-0.6,0.4c-0.3,0-0.6-0.2-0.6-0.4c0-0.2,0.3-0.4,0.6-0.4
			C17.8,35.9,18.1,36.1,18.1,36.3z"/>
		<path class="st1" d="M22.9,11.8c0,0.2-0.2,0.4-0.4,0.4c-0.2,0-0.4-0.2-0.4-0.4c0-0.2,0.2-0.4,0.4-0.4
			C22.7,11.4,22.9,11.6,22.9,11.8z"/>
		<path class="st1" d="M31,14.6c0,0.1-0.2,0.1-0.5,0.1c-0.3,0-0.5-0.1-0.5-0.1c0-0.1,0.2-0.1,0.5-0.1C30.8,14.5,31,14.6,31,14.6z"/>
		<path class="st1" d="M36.2,18.4c0,0.2-0.2,0.4-0.4,0.4c-0.2,0-0.4-0.2-0.4-0.4c0-0.2,0.2-0.4,0.4-0.4C36,18,36.2,18.2,36.2,18.4z"
			/>
		<path class="st1" d="M37.4,22.5c0,0.2-0.2,0.4-0.4,0.4c-0.2,0-0.4-0.2-0.4-0.4c0-0.2,0.2-0.4,0.4-0.4
			C37.2,22.1,37.4,22.3,37.4,22.5z"/>
		<path class="st1" d="M16.2,14.6c0,0.1-0.2,0.1-0.4,0.1s-0.4-0.1-0.4-0.1c0-0.1,0.2-0.1,0.4-0.1S16.2,14.6,16.2,14.6z"/>
		<path class="st1" d="M11.4,21.5c0,0.2-0.2,0.4-0.4,0.4c-0.2,0-0.4-0.2-0.4-0.4c0-0.2,0.2-0.4,0.4-0.4
			C11.2,21.1,11.4,21.3,11.4,21.5z"/>
		<path class="st1" d="M19.1,34.7c0,0.1-0.1,0.2-0.2,0.2c-0.1,0-0.2-0.1-0.2-0.2c0-0.1,0.1-0.2,0.2-0.2C19,34.5,19.1,34.6,19.1,34.7
			z"/>
		<path class="st1" d="M20,28.6c0,0.1-0.1,0.3-0.3,0.3c-0.1,0-0.3-0.1-0.3-0.3c0-0.1,0.1-0.3,0.3-0.3C19.9,28.4,20,28.5,20,28.6z"/>
		<path class="st1" d="M39.1,26.3c0,0.1-0.1,0.2-0.2,0.2s-0.2-0.1-0.2-0.2c0-0.1,0.1-0.2,0.2-0.2S39.1,26.2,39.1,26.3z"/>
		<ellipse class="st1" cx="21.2" cy="39.2" rx="0.3" ry="0"/>
		<path class="st1" d="M27.1,10.4c0,0.1-0.1,0.2-0.2,0.2c-0.1,0-0.2-0.1-0.2-0.2c0-0.1,0.1-0.2,0.2-0.2
			C27.1,10.3,27.1,10.3,27.1,10.4z"/>
		<path class="st1" d="M37.8,31.6c0,0.1-0.2,0.1-0.4,0.1c-0.2,0-0.4-0.1-0.4-0.1c0-0.1,0.2-0.1,0.4-0.1
			C37.6,31.5,37.8,31.6,37.8,31.6z"/>
	</g>
	<path class="st1" d="M28.8,11.4c0,0,4.4,1.5,7,4.6"/>
	<path class="st1" d="M10.6,29.1c0,0,1,3.2,3,5.6"/>
</g>
</svg>
