<?xml version="1.0" encoding="utf-8"?>
<!-- Generator: Adobe Illustrator 28.0.0, SVG Export Plug-In . SVG Version: 6.00 Build 0)  -->
<svg version="1.1" id="Layer_1" xmlns="http://www.w3.org/2000/svg" xmlns:xlink="http://www.w3.org/1999/xlink" x="0px" y="0px"
	 viewBox="0 0 50 50" style="enable-background:new 0 0 50 50;" xml:space="preserve">
<style type="text/css">
	.st0{fill:#F1F1F2;}
	.st1{fill:none;stroke:#225264;stroke-width:0.6;stroke-linecap:round;stroke-linejoin:round;stroke-miterlimit:10;}
</style>
<circle class="st0" cx="25" cy="25" r="24.1"/>
<g>
	<g>
		<path class="st1" d="M25.3,29.8l-10,9.8c-1.1,1-2.8,1-3.8,0l-4.3-4.4c-1-1.1-1-2.8,0-3.8l10-9.8c1.1-1,2.8-1,3.8,0l4.3,4.4
			C26.4,27,26.3,28.7,25.3,29.8z"/>
		<g>
			<g>
				<path class="st1" d="M11.3,32.5c0.5,0.5,0.5,1.3,0,1.7c-0.5,0.5-1.3,0.5-1.7,0c-0.5-0.5-0.5-1.3,0-1.7
					C10.1,32,10.9,32,11.3,32.5z"/>
				<path class="st1" d="M14.2,29.7c0.5,0.5,0.5,1.3,0,1.7c-0.5,0.5-1.3,0.5-1.7,0c-0.5-0.5-0.5-1.3,0-1.7
					C13,29.2,13.8,29.2,14.2,29.7z"/>
				<path class="st1" d="M17.1,26.8c0.5,0.5,0.5,1.3,0,1.7c-0.5,0.5-1.3,0.5-1.7,0c-0.5-0.5-0.5-1.3,0-1.7
					C15.9,26.4,16.7,26.4,17.1,26.8z"/>
				<path class="st1" d="M20,24c0.5,0.5,0.5,1.3,0,1.7c-0.5,0.5-1.3,0.5-1.7,0c-0.5-0.5-0.5-1.3,0-1.7C18.8,23.5,19.6,23.5,20,24z"
					/>
			</g>
			<g>
				<path class="st1" d="M14.2,35.4c0.5,0.5,0.5,1.3,0,1.7c-0.5,0.5-1.3,0.5-1.7,0c-0.5-0.5-0.5-1.3,0-1.7
					C12.9,34.9,13.7,34.9,14.2,35.4z"/>
				<path class="st1" d="M17.1,32.6c0.5,0.5,0.5,1.3,0,1.7c-0.5,0.5-1.3,0.5-1.7,0c-0.5-0.5-0.5-1.3,0-1.7
					C15.8,32.1,16.6,32.1,17.1,32.6z"/>
				<path class="st1" d="M20,29.7c0.5,0.5,0.5,1.3,0,1.7c-0.5,0.5-1.3,0.5-1.7,0c-0.5-0.5-0.5-1.3,0-1.7
					C18.7,29.2,19.5,29.2,20,29.7z"/>
				<path class="st1" d="M22.9,26.9c0.5,0.5,0.5,1.3,0,1.7c-0.5,0.5-1.3,0.5-1.7,0c-0.5-0.5-0.5-1.3,0-1.7
					C21.6,26.4,22.4,26.4,22.9,26.9z"/>
			</g>
		</g>
	</g>
	<g>
		<g>
			<polyline class="st1" points="31.3,38.2 39.3,30.1 38.5,27.1 39.4,26 39.4,24.6 38.1,24.6 37.1,25.4 34.1,24.6 26.2,32.6 			"/>
			<polyline class="st1" points="30.4,37.5 31.8,38.8 30.4,40.3 23.7,33.8 25.2,32.2 29.3,36.2 			"/>
			<line class="st1" x1="33.9" y1="35.2" x2="28.6" y2="30.1"/>
			<line class="st1" x1="31.3" y1="32.9" x2="25.2" y2="38.9"/>
			<line class="st1" x1="27.1" y1="40.9" x2="23.5" y2="37.1"/>
			<line class="st1" x1="30.2" y1="28.5" x2="31.8" y2="30.1"/>
			<line class="st1" x1="32" y1="26.7" x2="33.6" y2="28.3"/>
			<line class="st1" x1="39.4" y1="24.6" x2="42.9" y2="21.1"/>
		</g>
		<path class="st1" d="M44.7,27.2c0,0.9-0.8,1.7-1.7,1.7c-0.9,0-1.7-0.8-1.7-1.7c0-0.9,1.7-3.4,1.7-3.4S44.7,26.2,44.7,27.2z"/>
	</g>
	<g>
		<path class="st1" d="M22.8,21.5v-6.3c0-0.8,0.7-1.5,1.5-1.5h11.4c0.8,0,1.5,0.7,1.5,1.5v8.1"/>
		<g>
			<line class="st1" x1="25.8" y1="11.8" x2="25.8" y2="13.7"/>
			<line class="st1" x1="34.1" y1="11.8" x2="34.1" y2="13.7"/>
		</g>
		<path class="st1" d="M32.9,7H27c-1.6,0-2.8,1.3-2.8,2.8v1.6h11.6V9.8C35.7,8.3,34.4,7,32.9,7z"/>
		<polygon class="st1" points="33.5,20 31.4,20 31.4,18 28.5,18 28.5,20 26.4,20 26.4,22.9 28.5,22.9 28.5,25 31.4,25 31.4,22.9 
			33.5,22.9 		"/>
	</g>
</g>
</svg>
