<?xml version="1.0" encoding="utf-8"?>
<!-- Generator: Adobe Illustrator 28.0.0, SVG Export Plug-In . SVG Version: 6.00 Build 0)  -->
<svg version="1.1" id="Layer_1" xmlns="http://www.w3.org/2000/svg" xmlns:xlink="http://www.w3.org/1999/xlink" x="0px" y="0px"
	 viewBox="0 0 50 50" style="enable-background:new 0 0 50 50;" xml:space="preserve">
<style type="text/css">
	.st0{fill:#F1F1F2;}
	.st1{fill:none;stroke:#225264;stroke-width:0.6;stroke-linecap:round;stroke-linejoin:round;stroke-miterlimit:10;}
</style>
<circle class="st0" cx="25" cy="25" r="24.1"/>
<g>
	<path class="st1" d="M32.5,26v-7.1c0-1.5-1.2-7.6-2.8-7.6h-6.5c-1.5,0-2.8,6.1-2.8,7.6v15.4h4.1"/>
	<path class="st1" d="M29.8,11.3v-2c0-0.8-0.4-1.4-1-1.4h-4.5c-0.6,0-1,0.6-1,1.4v2"/>
	<path class="st1" d="M22.3,17.3c0,0,1.1-1.5,4.2-0.7c3.1,0.8,4.1,0.4,4.1,0.4"/>
	<g>
		<path class="st1" d="M34.5,40.5c-1.7,0-3.6,0.2-5.5-1.6c-1.9-1.9-2.2-4.8-2.2-5.9c0-1.6,0.7-4.2,3.4-4.2c2.3,0,3.3,0.6,4.1,0.6
			c0.8,0,1.7-1.1,3.6-1c1.9,0.1,3,1.7,3.3,3.2c0.3,1.8-0.4,5.2-1.9,7C37.9,40.2,36.2,40.5,34.5,40.5z"/>
		<path class="st1" d="M34.1,29.4c0,0-0.6-2.7,1.7-3.4"/>
		<path class="st1" d="M38.9,33c0,0,0,5.1-4.9,5.7"/>
	</g>
	<path class="st1" d="M9.7,32.6c0,0-0.2,4.1,4.1,4.1s4.2-4.2,4.2-4.2"/>
	<path class="st1" d="M9.7,28.2c0,0-0.2,4.1,4.1,4.1s4.2-4.2,4.2-4.2"/>
	<path class="st1" d="M9.7,23.9c0,0-0.2,4.1,4.1,4.1s4.2-4.2,4.2-4.2"/>
	<line class="st1" x1="13.9" y1="33.9" x2="13.9" y2="41.2"/>
	<line class="st1" x1="13.9" y1="29.7" x2="13.9" y2="32.4"/>
	<line class="st1" x1="13.9" y1="25.4" x2="13.9" y2="28.1"/>
	<line class="st1" x1="10" y1="22.2" x2="10" y2="15.2"/>
	<line class="st1" x1="17.8" y1="22.2" x2="17.8" y2="15.2"/>
	<line class="st1" x1="15.9" y1="22.2" x2="15.9" y2="13.3"/>
	<line class="st1" x1="12" y1="22.2" x2="12" y2="13.3"/>
	<line class="st1" x1="13.9" y1="22.2" x2="13.9" y2="11.5"/>
</g>
</svg>
