<?xml version="1.0" encoding="utf-8"?>
<!-- Generator: Adobe Illustrator 28.0.0, SVG Export Plug-In . SVG Version: 6.00 Build 0)  -->
<svg version="1.1" id="Layer_1" xmlns="http://www.w3.org/2000/svg" xmlns:xlink="http://www.w3.org/1999/xlink" x="0px" y="0px"
	 viewBox="0 0 50 50" style="enable-background:new 0 0 50 50;" xml:space="preserve">
<style type="text/css">
	.st0{fill:#F1F1F2;}
	.st1{fill:none;stroke:#225264;stroke-width:0.6;stroke-linecap:round;stroke-linejoin:round;stroke-miterlimit:10;}
	.st2{fill:none;stroke:#ED1C24;stroke-width:0.6;stroke-linecap:round;stroke-linejoin:round;stroke-miterlimit:10;}
</style>
<circle class="st0" cx="25" cy="25" r="24.1"/>
<g>
	<path class="st1" d="M15.8,10.4c0,0,3.3,7.1,2.3,12.6s-3.3,6.4-3.6,11.1s1,5.9,1,5.9"/>
	<path class="st1" d="M31,12.9c0,0,1.3-0.6,1.3-3"/>
	<path class="st1" d="M18.3,11c0,0,3.3,10.5,3.9,11.5s2.7,0.1,3.5-0.6c0.8-0.6,5.8-4.3,6.5-5c1.5-1.4,0.4-3.2-1.3-2.6
		C29,15,25,17.4,25,17.4L24,12"/>
	<path class="st1" d="M32.9,17.8c0,0,5.2,2.4,5.4,9.3c0.1,6.9-5.9,8.2-6.7,8.5s-2.1,1.3-2.2,2.7c-0.1,1.3,0,1.7,0,1.7"/>
	<path class="st2" d="M31.2,24.2c0,0-3.1-1.4-3.7,1.4c-0.7,3.3,5.4,4.1,5.4,4.1s4.3-3.6,2.5-6.2C33.4,20.9,31.2,24.2,31.2,24.2z"/>
</g>
</svg>
