<?xml version="1.0" encoding="utf-8"?>
<!-- Generator: Adobe Illustrator 28.0.0, SVG Export Plug-In . SVG Version: 6.00 Build 0)  -->
<svg version="1.1" id="Layer_1" xmlns="http://www.w3.org/2000/svg" xmlns:xlink="http://www.w3.org/1999/xlink" x="0px" y="0px"
	 viewBox="0 0 50 50" style="enable-background:new 0 0 50 50;" xml:space="preserve">
<style type="text/css">
	.st0{fill:#F1F1F2;}
	.st1{fill:none;stroke:#225264;stroke-width:0.6;stroke-linecap:round;stroke-linejoin:round;stroke-miterlimit:10;}
</style>
<circle class="st0" cx="25" cy="25" r="24.1"/>
<g>
	<path class="st1" d="M21.4,16.8c0,0,1.4,4.8,4.8,4.5c3.4-0.3,4-3.3,4.2-4.3c0.1-1,0-2.2,0-2.2s-1.8-0.3-2-3.4c0,0-1.8,2-3.4,2
		c-1.7,0-2.9-0.1-2.9-0.1l0.2,4.3"/>
	<path class="st1" d="M32.1,21.8c0,0-0.1-3.2,0.5-5.4c0.6-2.2-0.1-5.1-1.7-6.8c-1.6-1.7-4.6-1.9-5.4-1.8c-1.7,0.3-5.7,1.8-6,6.1
		c-0.3,4.4,0.9,4.2,1,5.9c0.1,1.7-0.8,1.9-0.8,1.9"/>
	<path class="st1" d="M24.1,20.8v2c0,0-3.5-0.3-4.6,1.2c-1.2,1.5-6,9.9-6.3,10.8c-0.4,1-0.3,2,1.3,2.2c1.7,0.1,8.1,0,8.6,0
		c0.6,0,1.7-0.6,1.5-2.3c-0.1-1.7-1.2-1.9-1.9-1.9c-0.6,0-4.6,0.1-4.6,0.1s2-4.3,2.4-4.5"/>
	<path class="st1" d="M16.1,29.3c0,0,1.7,0.5,2.7,1.4"/>
	<path class="st1" d="M21.7,23.2c0,0,0.4,3.1,2.6,5.7"/>
	<path class="st1" d="M28,21.4v1.4c0,0,2.8-0.4,3.9,0c1.1,0.4,4.8,5.9,5.1,7.3c0.3,1.3,0.4,2.2-1.2,3.9c-1.6,1.7-3.1,3.4-4.3,4
		c-1.2,0.6-2.6,0.4-2.6,0.4"/>
	<path class="st1" d="M33.1,30.7c0,1.8-1.4,3.2-3.2,3.2c-1.8,0-3.2-1.4-3.2-3.2c0-1.8,1.4-3.2,3.2-3.2
		C31.7,27.5,33.1,28.9,33.1,30.7z"/>
	<path class="st1" d="M23.7,31.5c0,0,1.2-1.1,1.9-1.2"/>
	<path class="st1" d="M29.9,35.1c0,0-0.1,1.2-2.6,3.4c-2.6,2.1-3.9,3.6-5.2,3.7c-1.3,0.2-3.9-2-3.8-3.4"/>
</g>
</svg>
