<?xml version="1.0" encoding="utf-8"?>
<!-- Generator: Adobe Illustrator 28.0.0, SVG Export Plug-In . SVG Version: 6.00 Build 0)  -->
<svg version="1.1" id="Layer_1" xmlns="http://www.w3.org/2000/svg" xmlns:xlink="http://www.w3.org/1999/xlink" x="0px" y="0px"
	 viewBox="0 0 50 50" style="enable-background:new 0 0 50 50;" xml:space="preserve">
<style type="text/css">
	.st0{fill:#F1F1F2;}
	.st1{fill:none;stroke:#225264;stroke-width:0.6;stroke-linecap:round;stroke-linejoin:round;stroke-miterlimit:10;}
</style>
<circle class="st0" cx="25" cy="25" r="24.1"/>
<g>
	<path class="st1" d="M29.5,21.9L16.8,34.3c-1.1,1-2.8,1-3.8,0l-5.8-5.9c-1-1.1-1-2.8,0-3.8l12.7-12.4c1.1-1,2.8-1,3.8,0l5.8,5.9
		C30.6,19.1,30.6,20.9,29.5,21.9z"/>
	<g>
		<g>
			<path class="st1" d="M12.5,25.5c0.6,0.6,0.6,1.5,0,2.1c-0.6,0.6-1.5,0.6-2.1,0c-0.6-0.6-0.6-1.5,0-2.1C11,24.9,12,25,12.5,25.5z"
				/>
			<path class="st1" d="M16,22.2c0.6,0.6,0.6,1.5,0,2.1c-0.6,0.6-1.5,0.6-2.1,0c-0.6-0.6-0.6-1.5,0-2.1C14.5,21.6,15.4,21.6,16,22.2
				z"/>
			<path class="st1" d="M19.4,18.8c0.6,0.6,0.6,1.5,0,2.1c-0.6,0.6-1.5,0.6-2.1,0s-0.6-1.5,0-2.1C17.9,18.2,18.9,18.2,19.4,18.8z"/>
			<path class="st1" d="M22.9,15.4c0.6,0.6,0.6,1.5,0,2.1c-0.6,0.6-1.5,0.6-2.1,0c-0.6-0.6-0.6-1.5,0-2.1S22.3,14.8,22.9,15.4z"/>
		</g>
		<g>
			<path class="st1" d="M15.9,29c0.6,0.6,0.6,1.5,0,2.1c-0.6,0.6-1.5,0.6-2.1,0c-0.6-0.6-0.6-1.5,0-2.1C14.4,28.4,15.3,28.4,15.9,29
				z"/>
			<path class="st1" d="M19.3,25.6c0.6,0.6,0.6,1.5,0,2.1c-0.6,0.6-1.5,0.6-2.1,0c-0.6-0.6-0.6-1.5,0-2.1C17.9,25,18.8,25,19.3,25.6
				z"/>
			<path class="st1" d="M22.8,22.2c0.6,0.6,0.6,1.5,0,2.1c-0.6,0.6-1.5,0.6-2.1,0c-0.6-0.6-0.6-1.5,0-2.1
				C21.3,21.6,22.2,21.6,22.8,22.2z"/>
			<path class="st1" d="M26.2,18.8c0.6,0.6,0.6,1.5,0,2.1c-0.6,0.6-1.5,0.6-2.1,0c-0.6-0.6-0.6-1.5,0-2.1
				C24.8,18.2,25.7,18.3,26.2,18.8z"/>
		</g>
	</g>
	<g>
		<path class="st1" d="M34.2,11.7c0.8,1.5,0.3,3.4-1.2,4.2c-1.5,0.8-3.4,0.3-4.2-1.2c-0.8-1.5-0.3-3.4,1.2-4.2
			C31.6,9.7,33.4,10.2,34.2,11.7z"/>
		<line class="st1" x1="28.5" y1="12.4" x2="34.4" y2="14.2"/>
	</g>
	<g>
		<polyline class="st1" points="34.3,19.6 24.8,29.1 25.7,32.7 24.7,34 24.7,35.7 26.1,35.7 27.4,34.8 31,35.7 40.4,26.2 		"/>
		<polyline class="st1" points="35.4,20.3 33.7,18.7 35.4,17 43.3,24.8 41.5,26.6 36.6,21.8 		"/>
		<line class="st1" x1="31.2" y1="23.1" x2="37.5" y2="29.1"/>
		<line class="st1" x1="34.3" y1="25.9" x2="41.5" y2="18.6"/>
		<line class="st1" x1="39.3" y1="16.3" x2="43.6" y2="20.8"/>
		<line class="st1" x1="35.6" y1="31.1" x2="33.7" y2="29.1"/>
		<line class="st1" x1="33.4" y1="33.2" x2="31.5" y2="31.3"/>
		<line class="st1" x1="24.7" y1="35.7" x2="20.4" y2="39.9"/>
	</g>
</g>
</svg>
