<?xml version="1.0" encoding="utf-8"?>
<!-- Generator: Adobe Illustrator 28.0.0, SVG Export Plug-In . SVG Version: 6.00 Build 0)  -->
<svg version="1.1" id="Layer_1" xmlns="http://www.w3.org/2000/svg" xmlns:xlink="http://www.w3.org/1999/xlink" x="0px" y="0px"
	 viewBox="0 0 50 50" style="enable-background:new 0 0 50 50;" xml:space="preserve">
<style type="text/css">
	.st0{fill:#F1F1F2;}
	.st1{fill:none;stroke:#225264;stroke-width:0.6;stroke-linecap:round;stroke-linejoin:round;stroke-miterlimit:10;}
</style>
<circle class="st0" cx="25" cy="25" r="24.1"/>
<g>
	<g>
		<rect x="11.5" y="9.3" class="st1" width="4.8" height="32.2"/>
		<line class="st1" x1="13.9" y1="12.2" x2="16.3" y2="12.2"/>
		<line class="st1" x1="13.9" y1="17.5" x2="16.3" y2="17.5"/>
		<line class="st1" x1="13.9" y1="22.8" x2="16.3" y2="22.8"/>
		<line class="st1" x1="13.9" y1="28.1" x2="16.3" y2="28.1"/>
		<line class="st1" x1="12.9" y1="14.9" x2="16.3" y2="14.9"/>
		<line class="st1" x1="12.9" y1="20.2" x2="16.3" y2="20.2"/>
		<line class="st1" x1="12.9" y1="25.5" x2="16.3" y2="25.5"/>
		<line class="st1" x1="12.9" y1="30.8" x2="16.3" y2="30.8"/>
		<line class="st1" x1="12.9" y1="36.1" x2="16.3" y2="36.1"/>
		<line class="st1" x1="13.9" y1="33.4" x2="16.3" y2="33.4"/>
		<line class="st1" x1="13.9" y1="38.7" x2="16.3" y2="38.7"/>
	</g>
	<g>
		<path class="st1" d="M27.6,31c1.3,0.2,1.7-0.6,1.7-0.6s0-7.5,0-9.4c0-1.9-2.9-2.6-2.9-2.6s-1.5,1.1-2.6,1.2
			c-1.1,0.1-2.5-1.2-2.5-1.2s-2.7,0.8-2.7,3.1s0,9,0,9s0.3,0.6,1.6,0.6"/>
		<g>
			<line class="st1" x1="20.5" y1="22.8" x2="20.5" y2="39.8"/>
			<line class="st1" x1="27.5" y1="39.8" x2="27.5" y2="22.8"/>
			<line class="st1" x1="24" y1="31.1" x2="24" y2="39.8"/>
		</g>
		<line class="st1" x1="18.6" y1="29.1" x2="29.1" y2="29.1"/>
		<path class="st1" d="M20.2,41.5c0,0-0.2-1.7,0.9-1.7s5.8,0,5.8,0s0.9-0.1,0.9,1.7"/>
		<path class="st1" d="M21,14.3c0,0,0.6,3.6,2.9,3.5c2.3-0.1,2.9-3.3,2.9-3.3s0.7-2.2,0-3.4c-0.7-1.2-2.8-1.7-3.3-1.5
			c-0.5,0.2-1.5,0.9-1.9,1.2C21.3,11.1,19.7,11.5,21,14.3z"/>
		<path class="st1" d="M23.4,12.2c0,0,2.2,1.6,3.4,2"/>
		<path class="st1" d="M23.4,14.3c0,0-1-0.6-1.4-1.3c0,0,0.1,1.1-0.6,1.9"/>
	</g>
	<g>
		<path class="st1" d="M37.9,24.4c0,1.4-0.9,3-2,3c-1.1,0-2-1.6-2-3c0-1.4,0.9-2,2-2C37,22.4,37.9,23,37.9,24.4z"/>
		<path class="st1" d="M34,25.4c0,0,1.6-0.1,2-0.5c0.4-0.5,0.4-1,0.4-1s0.8,1.3,1.4,1.6"/>
		<path class="st1" d="M37.9,35.7l1.6-0.8c0,0,0-3.3,0-4.5c0-1.2-1.7-2.2-1.7-2.2s-0.7,1-1.9,1c-1.2,0-1.9-1-1.9-1s-1.8,1.2-1.8,2.4
			c0,1.2,0,4.5,0,4.5l1.5,0.7"/>
		<g>
			<line class="st1" x1="33.8" y1="31.3" x2="33.8" y2="41.5"/>
			<line class="st1" x1="37.7" y1="31.3" x2="37.7" y2="41.5"/>
			<line class="st1" x1="35.8" y1="35.7" x2="35.8" y2="39.8"/>
		</g>
		<line class="st1" x1="33.8" y1="34.5" x2="37.5" y2="34.5"/>
		<line class="st1" x1="33.8" y1="39.8" x2="37.7" y2="39.8"/>
	</g>
	<polyline class="st1" points="31.6,24.9 31.6,19.2 29.9,19.2 33.1,15.9 36.3,19.2 34.4,19.2 34.4,21.2 	"/>
	<polyline class="st1" points="37.7,17.1 37.7,13 35.6,13 39.1,9.6 42.4,12.9 40.5,12.9 40.5,24.9 	"/>
</g>
</svg>
