<?xml version="1.0" encoding="utf-8"?>
<!-- Generator: Adobe Illustrator 28.0.0, SVG Export Plug-In . SVG Version: 6.00 Build 0)  -->
<svg version="1.1" id="Layer_1" xmlns="http://www.w3.org/2000/svg" xmlns:xlink="http://www.w3.org/1999/xlink" x="0px" y="0px"
	 viewBox="0 0 50 50" style="enable-background:new 0 0 50 50;" xml:space="preserve">
<style type="text/css">
	.st0{fill:#F1F1F2;}
	.st1{fill:none;stroke:#225264;stroke-width:0.6;stroke-linecap:round;stroke-linejoin:round;stroke-miterlimit:10;}
</style>
<g>
	<circle class="st0" cx="24.1" cy="24.1" r="24.1"/>
	<g>
		<path class="st1" d="M22.5,35.6c0,1.5-1.2,2.7-2.7,2.7c-1.5,0-2.7-1.2-2.7-2.7s2.7-5.1,2.7-5.1S22.5,34.1,22.5,35.6z"/>
		<path class="st1" d="M36.9,24.3c0,0-0.4-0.8-1-1.6c-0.4-0.5-2.3-0.8-3.3,0.2c-1,1-6.1,6.4-6.4,6.7c-0.3,0.2-0.5,0.8-0.3,1.3
			c0.2,0.5,0.8,0.5,1.6,0.4c0.8-0.1,7.8-2.4,8.8-2.8c1-0.3,1.9-1.7,1.3-2.7C37.3,25.3,37.1,24.9,36.9,24.3z"/>
		<line class="st1" x1="36.1" y1="23.1" x2="37.6" y2="21"/>
		<line class="st1" x1="37.5" y1="25.6" x2="40.4" y2="24.8"/>
		<line class="st1" x1="36.9" y1="24.3" x2="39.9" y2="22.3"/>
		<line class="st1" x1="33.6" y1="26.2" x2="35.2" y2="28.9"/>
		<line class="st1" x1="30.3" y1="25.4" x2="32" y2="28.1"/>
		<line class="st1" x1="29.5" y1="28.6" x2="30.5" y2="30.4"/>
		<path class="st1" d="M18.3,34.8c0,0-0.5,2,1.2,2.2"/>
		<path class="st1" d="M13.5,19.6c0,0,3.6-3.3,7.7-3.2s4.7,3.2,4.7,3.2s-1.2,3.3-4.7,3.5C17.6,23.4,13.5,19.6,13.5,19.6z"/>
		<path class="st1" d="M21.1,17.4c0,0-1.4,2.3,0.3,4.9"/>
		<path class="st1" d="M14.3,19c0,0-1.6-1.5-3.9-2.1c0,0,1.9,3,0,5.5c0,0,2.6-0.7,3.9-1.7"/>
		<line class="st1" x1="24.2" y1="9.9" x2="20.5" y2="16.4"/>
		<polyline class="st1" points="17.1,22.3 10.8,34.4 17.1,34.4 		"/>
		<polyline class="st1" points="22.4,34.4 38.1,34.4 35,29 		"/>
		<line class="st1" x1="32" y1="23.3" x2="24.4" y2="9.9"/>
		<line class="st1" x1="25.9" y1="19.6" x2="29.9" y2="19.6"/>
		<line class="st1" x1="28.2" y1="27.6" x2="14.3" y2="27.6"/>
		<circle class="st1" cx="22.7" cy="19.2" r="0.8"/>
	</g>
</g>
</svg>
