<?xml version="1.0" encoding="utf-8"?>
<!-- Generator: Adobe Illustrator 28.0.0, SVG Export Plug-In . SVG Version: 6.00 Build 0)  -->
<svg version="1.1" id="Layer_1" xmlns="http://www.w3.org/2000/svg" xmlns:xlink="http://www.w3.org/1999/xlink" x="0px" y="0px"
	 viewBox="0 0 50 50" style="enable-background:new 0 0 50 50;" xml:space="preserve">
<style type="text/css">
	.st0{fill:#F1F1F2;}
	.st1{fill:none;stroke:#225264;stroke-width:0.6;stroke-linecap:round;stroke-linejoin:round;stroke-miterlimit:10;}
</style>
<g>
	<ellipse transform="matrix(0.9215 -0.3884 0.3884 0.9215 -7.4662 11.2489)" class="st0" cx="24.1" cy="24.1" rx="24.1" ry="24.1"/>
	<g>
		<g>
			<path class="st1" d="M24.1,17.2c0,0-1.8-4-5.8-4.6c-4.6-0.6-7.7,2.8-8.1,5.9c-0.3,2.3,0.1,4.7,1.4,6.2c1.3,1.5,6.9,7.3,6.9,7.3"
				/>
			<path class="st1" d="M24.1,17.2c0,0,1.8-4,5.8-4.6c4.6-0.6,7.7,2.8,8.1,5.9c0.3,2.3-0.1,4.7-1.4,6.2c-1.3,1.5-6.9,7.3-6.9,7.3"/>
		</g>
		<g>
			<path class="st1" d="M26.9,19L26.9,19c-0.5,0-1,0.4-1,1v18.7c0,0.5,0.4,1,1,1h0c0.5,0,1-0.4,1-1v-9.4l1.5-0.9L27.9,20
				C27.9,19.5,27.4,19,26.9,19z"/>
			<g>
				<path class="st1" d="M23.3,18.8h-0.4c-0.4,0-0.6,0.3-0.6,0.6c0-0.4-0.3-0.6-0.6-0.6h-0.4c-0.4,0-0.6,0.3-0.6,0.6
					c0-0.4-0.3-0.6-0.6-0.6h-0.4c-0.4,0-0.6,0.3-0.6,0.6v6.1v0.1v0.3c0,0.3,0.2,0.5,0.4,0.6c0.2,0.2,0.5,0.3,0.7,0.3h0.4V39
					c0,0.5,0.4,0.9,0.9,0.9c0.5,0,0.9-0.4,0.9-0.9V26.8h0.4c0.3,0,0.5-0.1,0.7-0.3c0.3-0.1,0.4-0.3,0.4-0.6v-0.3v-0.1v-6.1
					C23.9,19.1,23.6,18.8,23.3,18.8z"/>
				<line class="st1" x1="20.5" y1="19.5" x2="20.5" y2="24.5"/>
				<line class="st1" x1="22.2" y1="19.5" x2="22.2" y2="24.5"/>
			</g>
		</g>
	</g>
</g>
</svg>
