<?xml version="1.0" encoding="utf-8"?>
<!-- Generator: Adobe Illustrator 28.0.0, SVG Export Plug-In . SVG Version: 6.00 Build 0)  -->
<svg version="1.1" id="Layer_1" xmlns="http://www.w3.org/2000/svg" xmlns:xlink="http://www.w3.org/1999/xlink" x="0px" y="0px"
	 viewBox="0 0 50 50" style="enable-background:new 0 0 50 50;" xml:space="preserve">
<style type="text/css">
	.st0{fill:#F1F1F2;}
	.st1{fill:none;stroke:#225264;stroke-width:0.6;stroke-linecap:round;stroke-linejoin:round;stroke-miterlimit:10;}
	.st2{fill:none;stroke:#EC1C24;stroke-width:0.6;stroke-linecap:round;stroke-linejoin:round;stroke-miterlimit:10;}
</style>
<g>
	<circle class="st0" cx="24.1" cy="24.1" r="24.1"/>
	<g>
		<rect x="9.9" y="18.1" class="st1" width="12.3" height="14"/>
		<polyline class="st1" points="9.9,18.1 13,15.2 25.3,15.2 22.3,18.3 		"/>
		<polyline class="st1" points="25.3,15.2 28.3,18.3 28.3,25.9 		"/>
		<line class="st1" x1="28.1" y1="18.1" x2="23.7" y2="18.1"/>
		<polyline class="st1" points="25.1,14.9 25.1,12.2 24.2,11.3 13.8,11.3 13,12.1 13,15.2 		"/>
		<polyline class="st1" points="14.4,14 14.4,12.6 23.7,12.6 		"/>
		<path class="st2" d="M31.4,27.5c0,0-1-1.5-3.1-1.6s-3.4,1.2-3.6,2c-0.5,1.5-0.1,2.6,0.4,3.9c0.5,1.3,2.7,5.8,4.4,5.9
			c1.7,0.1,1.9-0.9,1.9-0.9V27.5z"/>
		<path class="st1" d="M31.4,27.5c0,0,0.8-2.5-1.5-4.2"/>
		<path class="st2" d="M31.4,36.8c0,0,0.2,1,1.9,0.9c1.7-0.1,3.9-4.6,4.4-5.9c0.5-1.3,0.8-2.4,0.4-3.9c-0.2-0.7-1.1-1.6-2.6-1.9"/>
		<path class="st1" d="M31.4,27.1c0,0,0.9-5.1,5.2-4.4C36.6,22.6,37.5,27.2,31.4,27.1z"/>
		<line class="st1" x1="31.4" y1="27.1" x2="34.5" y2="24.5"/>
		<path class="st1" d="M33,31.6c0,0-0.6,2.7,1.1,2S33,31.6,33,31.6z"/>
		<path class="st1" d="M18.7,26.1c0,1.3-1.1,2.4-2.4,2.4s-2.4-1.1-2.4-2.4s2.4-4.5,2.4-4.5S18.7,24.7,18.7,26.1z"/>
		<line class="st1" x1="22.3" y1="32.1" x2="25.1" y2="32.1"/>
	</g>
</g>
</svg>
