<?xml version="1.0" encoding="utf-8"?>
<!-- Generator: Adobe Illustrator 28.0.0, SVG Export Plug-In . SVG Version: 6.00 Build 0)  -->
<svg version="1.1" id="Layer_1" xmlns="http://www.w3.org/2000/svg" xmlns:xlink="http://www.w3.org/1999/xlink" x="0px" y="0px"
	 viewBox="0 0 50 50" style="enable-background:new 0 0 50 50;" xml:space="preserve">
<style type="text/css">
	.st0{fill:#F1F1F2;}
	.st1{fill:none;stroke:#225264;stroke-width:0.6;stroke-linecap:round;stroke-linejoin:round;stroke-miterlimit:10;}
</style>
<g>
	<circle class="st0" cx="24.1" cy="24.1" r="24.1"/>
	<g>
		<polygon class="st1" points="19.8,18.3 14.6,27.3 24.9,27.3 		"/>
		<polyline class="st1" points="25.6,13.2 24.1,9 22.6,13.2 		"/>
		<line class="st1" x1="17.8" y1="21.8" x2="21.8" y2="21.8"/>
		<line class="st1" x1="16.2" y1="24.6" x2="23.4" y2="24.6"/>
		<path class="st1" d="M29.9,19.7c-0.5,0-2.4,0.1-2.2,1.5c0.2,1.4,1.8,5.7,1.9,5.8s0.8,0.6,1.2,0c0.4-0.6,1.7-5.3,1.7-5.8
			C32.5,20.7,32.2,19.7,29.9,19.7z"/>
		<line class="st1" x1="30" y1="17.2" x2="30" y2="19.5"/>
		<line class="st1" x1="28.8" y1="19.7" x2="28.1" y2="18.3"/>
		<line class="st1" x1="31.3" y1="19.9" x2="32.4" y2="18.3"/>
		<path class="st1" d="M35.8,31.6H12.4c-0.7,0-1.3-0.6-1.3-1.3V15.6c0-0.7,0.6-1.3,1.3-1.3h23.5c0.7,0,1.3,0.6,1.3,1.3v14.6
			C37.1,31,36.5,31.6,35.8,31.6z"/>
		<rect x="29.2" y="29.4" class="st1" width="5.4" height="2.2"/>
		<line class="st1" x1="13.6" y1="33.5" x2="34.6" y2="33.5"/>
		<g>
			<line class="st1" x1="16.9" y1="33.5" x2="15" y2="39.2"/>
			<line class="st1" x1="31.3" y1="33.5" x2="33.2" y2="39.2"/>
		</g>
	</g>
</g>
</svg>
