<?xml version="1.0" encoding="utf-8"?>
<!-- Generator: Adobe Illustrator 28.0.0, SVG Export Plug-In . SVG Version: 6.00 Build 0)  -->
<svg version="1.1" id="Layer_1" xmlns="http://www.w3.org/2000/svg" xmlns:xlink="http://www.w3.org/1999/xlink" x="0px" y="0px"
	 viewBox="0 0 50 50" style="enable-background:new 0 0 50 50;" xml:space="preserve">
<style type="text/css">
	.st0{fill:#F1F1F2;}
	.st1{fill:none;stroke:#225264;stroke-width:0.6;stroke-linecap:round;stroke-linejoin:round;stroke-miterlimit:10;}
</style>
<g>
	<ellipse transform="matrix(0.9215 -0.3884 0.3884 0.9215 -7.4662 11.2489)" class="st0" cx="24.1" cy="24.1" rx="24.1" ry="24.1"/>
	<g>
		<path class="st1" d="M16.6,38.2c1-3.9,0.4-6.4-1.5-9c0,0,0,0,0,0l0,0c0,0,0,0,0,0c-1.7-2-2.7-4.6-2.7-7.4C12.3,15.4,17.5,10,24,10
			c6.5,0,11.8,5.2,11.8,11.8c0,0.4,0,0.7-0.1,1.1c0,0.2,0,0.4,0.1,0.6l1.8,4.4c0.1,0.2,0.1,0.4,0,0.6c-0.1,0.2-0.3,0.3-0.5,0.3
			l-1.5,0.2c-0.3,0-0.5,0.3-0.5,0.6l-0.5,4.4c-0.1,0.7-0.7,1.2-1.4,1.2l-2-0.1c-1-0.1-1.9,0.7-1.9,1.8v1.5"/>
		<g>
			<path class="st1" d="M24.9,32.6h1.2c0.6,0,1.2-0.5,1.2-1.2v-2.2c0-1,0.5-2,1.2-2.7c1.3-1.2,2.2-3,2.2-4.9c0-3.8-3.1-6.8-6.9-6.6
				c-3.4,0.2-6.1,2.9-6.3,6.3c-0.1,2.1,0.7,4,2.2,5.2c0.8,0.7,1.2,1.7,1.2,2.8v1.4v0.8c0,0.6,0.5,1.2,1.2,1.2h1.2H24.9z"/>
			<line class="st1" x1="27.6" y1="27.5" x2="27.6" y2="27.5"/>
			<line class="st1" x1="27.2" y1="28.7" x2="20.7" y2="28.7"/>
			<line class="st1" x1="23.4" y1="30.7" x2="20.7" y2="30.7"/>
			<line class="st1" x1="27.2" y1="30.7" x2="24.6" y2="30.7"/>
			<path class="st1" d="M25.9,32.6c0,1-0.8,1.9-1.9,1.9c-1,0-1.9-0.8-1.9-1.9"/>
			<path class="st1" d="M22.8,28.7v-7.4c0-0.8-0.7-1.5-1.4-1.3c-0.6,0.1-1,0.8-1,1.4c0,0.4,0.3,0.8,0.6,1c0.3,0.2,0.6,0.4,0.9,0.5
				l0.4,0.1c1.1,0.3,2.2,0.3,3.3,0l0.4-0.1c0.3-0.1,0.6-0.3,0.9-0.5c0.4-0.3,0.6-0.6,0.6-1c0-0.6-0.4-1.3-1-1.4
				c-0.8-0.2-1.4,0.5-1.4,1.3v7.4"/>
		</g>
	</g>
</g>
</svg>
