<?xml version="1.0" encoding="utf-8"?>
<!-- Generator: Adobe Illustrator 28.0.0, SVG Export Plug-In . SVG Version: 6.00 Build 0)  -->
<svg version="1.1" id="Layer_1" xmlns="http://www.w3.org/2000/svg" xmlns:xlink="http://www.w3.org/1999/xlink" x="0px" y="0px"
	 viewBox="0 0 50 50" style="enable-background:new 0 0 50 50;" xml:space="preserve">
<style type="text/css">
	.st0{fill:#F1F1F2;}
	.st1{fill:none;stroke:#225264;stroke-width:0.6;stroke-linecap:round;stroke-linejoin:round;stroke-miterlimit:10;}
</style>
<g>
	<circle class="st0" cx="24.1" cy="24.1" r="24.1"/>
	<g>
		<g>
			<g>
				<path class="st1" d="M11.2,39.7c0,0,0.4-6.2,0.2-7.7c-0.2-1.5-2.2-5.5-2.2-5.5c-0.8-1.4-1.2-3.4-1.1-4.9c0.5-5.9,4.5-8,7.1-8.6
					c1.9-0.4,5.6-0.4,8.2,0.6v0c2.7,1,4.7,3.7,5.5,6.5c0.2,0.6,0.5,1.9,0.3,2.4c0,0-0.4,1.1-0.1,1.6l2.2,3.2
					c0.4,0.7,0.1,1.6-0.7,1.7l-1,0.2c-0.3,0.1-0.5,0.4-0.5,0.7v2.8c0,1.1-0.8,1.9-1.9,1.9h-4.3c-1.8,0-3.2-1-4.1-2.6"/>
				<line class="st1" x1="23.4" y1="34.8" x2="23.4" y2="39.7"/>
			</g>
		</g>
		<g>
			<path class="st1" d="M20.7,18.7c0.3,2.4-1.2,5.4,0.3,6.9"/>
			<path class="st1" d="M17.2,15.7c0.5-0.2,1.1-0.3,1.5-0.1c0.7,0.3,1.2,0.7,1.5,1.3"/>
			<path class="st1" d="M18.7,19.9c0.8,2.2,0.1,4.8-1.9,5.6c-2.7,1.1-4.4-1.3-4.3-3.6c0.1-1.4,1.5-3.8,3.1-5.2"/>
			<path class="st1" d="M12.2,19.9c-1.8-1.9,0.5-4.9,2.8-4.6c0.9,0.1,1.9,1.1,2.7,2.3"/>
			<path class="st1" d="M13.7,20.6c2.8,0,7.1-4.5,8.8-2.2c2.1,2.9,0.7,9.2-5.2,9.8c-3.1,0.3-6.7-2-6.3-5.1c0-0.4,0.2-0.8,0.5-1.2"/>
		</g>
		<path class="st1" d="M29.4,18c0,0,2,0.1,2.9-1.3c2.8-4.3,7-4.2,9.5-2.4c2.1,1.6,2.9,5.8,0.7,8.2c-1.8,2-4.9,2.1-6.9,0.2
			c-1.7-1.6-1.8-4.2-0.2-5.9c1.3-1.4,3.5-1.5,5-0.2c1.2,1.1,1.3,3,0.1,4.3c-1,1-2.6,1.1-3.6,0.1C36,20.3,36,18.9,36.8,18
			c0.7-0.7,1.9-0.8,2.6-0.1c0.6,0.6,0.7,1.6,0.1,2.2"/>
		<path class="st1" d="M27,18.7c0,0-1.5,0.3-3.1,0.3"/>
	</g>
</g>
</svg>
