<?xml version="1.0" encoding="utf-8"?>
<!-- Generator: Adobe Illustrator 28.0.0, SVG Export Plug-In . SVG Version: 6.00 Build 0)  -->
<svg version="1.1" id="Layer_1" xmlns="http://www.w3.org/2000/svg" xmlns:xlink="http://www.w3.org/1999/xlink" x="0px" y="0px"
	 viewBox="0 0 50 50" style="enable-background:new 0 0 50 50;" xml:space="preserve">
<style type="text/css">
	.st0{fill:#F1F1F2;}
	.st1{fill:none;stroke:#225264;stroke-width:0.6;stroke-linecap:round;stroke-linejoin:round;stroke-miterlimit:10;}
</style>
<g>
	<circle class="st0" cx="24.1" cy="24.1" r="24.1"/>
	<g>
		<path class="st1" d="M28.8,11.1c5,1.4,8.6,5.9,8.6,11.3c0,0.4,0,0.7-0.1,1.1c0,0.2,0,0.4,0.1,0.6l1.8,4.4c0.1,0.2,0.1,0.4,0,0.6
			c-0.1,0.2-0.3,0.3-0.5,0.3l-1.5,0.2c-0.3,0-0.5,0.3-0.5,0.6l-0.5,4.4c-0.1,0.7-0.7,1.2-1.4,1.2l-1.8-0.1c-1-0.1-1.9,0.7-1.9,1.8
			V39"/>
		<path class="st1" d="M15.4,28.2c0.4,0.6,0.8,1.3,1.2,1.8c1.9,2.6,2.5,5,1.5,9"/>
		<path class="st1" d="M11.6,15.4c-4.7,1.3-3.2,8.1,1.7,7.4"/>
		<path class="st1" d="M14.8,22.3c-2.3,0.5-3.6,1.9-3.8,4.4"/>
		<path class="st1" d="M12.3,17c-0.1-0.2-0.2-0.3-0.3-0.5c-0.1-0.2-0.2-0.5-0.3-0.8c-0.1-0.3-0.1-0.6-0.1-1c0-2.7,2.2-5,5.1-5
			c0.9,0,1.7,0.2,2.4,0.5"/>
		<path class="st1" d="M18.4,10.9c0.8-0.9,2-1.6,3.4-1.7c2.7-0.3,5.1,1.6,5.5,4.1c0,0.4,0.1,0.7,0,1.1"/>
		<path class="st1" d="M27.1,12.6c1.9,0.1,3.4,1.4,3.6,3.1c0.2,1.7-1.1,3.3-3,3.7c-0.1,0-0.1,0-0.2,0"/>
		<path class="st1" d="M26.7,18.7c0.2,0.1,0.4,0.2,0.6,0.4c0,0,0.1,0.1,0.1,0.1c0.5,0.6,0.7,1.4,0.6,2.2c-0.2,1.6-1.5,2.6-3.5,2.6
			c-0.7,0-2.4,0-3.5,0c-2.8-0.1-7.4-0.1-7.3,3.6"/>
		<line class="st1" x1="36.5" y1="32.4" x2="34.4" y2="32.4"/>
		<path class="st1" d="M35.1,23.7c-0.8,0.6-2.1,0.6-2.9,0"/>
		<g>
			<polygon class="st1" points="20.2,13.3 20.5,12.4 22.2,12.8 22.1,13.8 23.1,14.6 24,14.4 24.7,16 23.9,16.4 23.8,17.7 24.6,18.3 
				23.8,19.8 22.9,19.5 21.9,20.3 21.9,21.2 20.2,21.5 19.9,20.6 18.7,20.3 18,20.9 16.6,19.8 17.2,19 16.6,17.8 15.7,17.7 
				15.8,15.9 16.7,15.8 17.3,14.7 16.8,13.9 18.2,12.8 18.9,13.5 			"/>
			<path class="st1" d="M18.4,16.5c-0.3,1,0.3,2.1,1.4,2.4c1,0.3,2.1-0.3,2.4-1.4c0.3-1-0.3-2.1-1.4-2.4
				C19.7,14.8,18.6,15.4,18.4,16.5z"/>
		</g>
	</g>
</g>
</svg>
