<?xml version="1.0" encoding="utf-8"?>
<!-- Generator: Adobe Illustrator 28.0.0, SVG Export Plug-In . SVG Version: 6.00 Build 0)  -->
<svg version="1.1" id="Layer_1" xmlns="http://www.w3.org/2000/svg" xmlns:xlink="http://www.w3.org/1999/xlink" x="0px" y="0px"
	 viewBox="0 0 50 50" style="enable-background:new 0 0 50 50;" xml:space="preserve">
<style type="text/css">
	.st0{fill:#F1F1F2;}
	.st1{fill:none;stroke:#225264;stroke-width:0.6;stroke-linecap:round;stroke-linejoin:round;stroke-miterlimit:10;}
</style>
<g>
	<circle class="st0" cx="24.1" cy="24.1" r="24.1"/>
	<g>
		<g>
			<g>
				<path class="st1" d="M19.1,35.7c0-2.8-2.2-5-5-5s-5,2.2-5,5H19.1z"/>
				<circle class="st1" cx="14.1" cy="27.6" r="2.2"/>
			</g>
			<g>
				<path class="st1" d="M29.1,35.7c0-2.8-2.2-5-5-5s-5,2.2-5,5H29.1z"/>
				<circle class="st1" cx="24.1" cy="27.6" r="2.2"/>
			</g>
			<g>
				<path class="st1" d="M39.1,35.7c0-2.8-2.2-5-5-5s-5,2.2-5,5H39.1z"/>
				<circle class="st1" cx="34.1" cy="27.6" r="2.2"/>
			</g>
		</g>
		<path class="st1" d="M20.3,21v-4.8c0-1.4,1.2-2.6,2.6-2.6h2.5c1.4,0,2.6,1.2,2.6,2.6V21"/>
		<g>
			<line class="st1" x1="21.8" y1="16.5" x2="21.8" y2="21"/>
			<line class="st1" x1="26.4" y1="16.5" x2="26.4" y2="21"/>
		</g>
		<circle class="st1" cx="24.1" cy="10.7" r="1.8"/>
		<rect x="17" y="21" class="st1" width="14.3" height="2.2"/>
	</g>
</g>
</svg>
