<?xml version="1.0" encoding="utf-8"?>
<!-- Generator: Adobe Illustrator 28.0.0, SVG Export Plug-In . SVG Version: 6.00 Build 0)  -->
<svg version="1.1" id="Layer_1" xmlns="http://www.w3.org/2000/svg" xmlns:xlink="http://www.w3.org/1999/xlink" x="0px" y="0px"
	 viewBox="0 0 595 170" style="enable-background:new 0 0 595 170;" xml:space="preserve">
<style type="text/css">
	.st0{fill:#CEECFB;}
	.st1{fill:#E6F5FC;}
	.st2{fill:#9BD4EE;}
	.st3{fill:#83C678;}
	.st4{fill:none;stroke:#FFFFFF;stroke-width:0.9377;stroke-linecap:round;stroke-linejoin:round;stroke-miterlimit:10;}
	.st5{fill:none;stroke:#FFFFFF;stroke-width:0.9071;stroke-linecap:round;stroke-linejoin:round;stroke-miterlimit:10;}
	.st6{fill:#B4D99A;}
	.st7{fill:none;stroke:#FFFFFF;stroke-width:0.9476;stroke-linecap:round;stroke-linejoin:round;stroke-miterlimit:10;}
	.st8{fill:none;stroke:#FFFFFF;stroke-width:0.9415;stroke-linecap:round;stroke-linejoin:round;stroke-miterlimit:10;}
	.st9{fill:none;stroke:#FFFFFF;stroke-width:0.9433;stroke-linecap:round;stroke-linejoin:round;stroke-miterlimit:10;}
	.st10{fill:none;stroke:#FFFFFF;stroke-width:0.9474;stroke-linecap:round;stroke-linejoin:round;stroke-miterlimit:10;}
	.st11{fill:#04A7A7;}
	.st12{fill:#30BEC7;}
	.st13{fill:none;stroke:#FFFFFF;stroke-width:0.9535;stroke-linecap:round;stroke-linejoin:round;stroke-miterlimit:10;}
	.st14{fill:none;stroke:#FFFFFF;stroke-width:0.9961;stroke-linecap:round;stroke-linejoin:round;stroke-miterlimit:10;}
	.st15{fill:none;stroke:#FFFFFF;stroke-width:0.9896;stroke-linecap:round;stroke-linejoin:round;stroke-miterlimit:10;}
	.st16{fill:none;stroke:#FFFFFF;stroke-width:0.9915;stroke-linecap:round;stroke-linejoin:round;stroke-miterlimit:10;}
	.st17{fill:none;stroke:#FFFFFF;stroke-width:0.9959;stroke-linecap:round;stroke-linejoin:round;stroke-miterlimit:10;}
	.st18{fill:#4FC3CE;}
	.st19{fill:none;stroke:#FFFFFF;stroke-width:0.9891;stroke-linecap:round;stroke-linejoin:round;stroke-miterlimit:10;}
	.st20{fill:#EC9882;}
	.st21{fill:#203E51;}
	.st22{fill:#FFFFFF;}
	.st23{fill:#D1EDFB;}
	.st24{fill:#345370;}
	.st25{fill:#F6BB9D;}
	.st26{fill:#F26D40;}
	.st27{fill:#B2DAF0;}
	.st28{fill:#E6F3FC;}
	.st29{fill:#C6E5F8;}
	.st30{fill:#0C3D5F;}
	.st31{fill:#FFC906;}
	.st32{fill:#1593B9;}
	.st33{fill:#77B8D2;}
	.st34{fill:#86C2E6;}
	.st35{fill:#2A3886;}
	.st36{fill:#283271;}
	.st37{fill:#2E4199;}
	.st38{fill:#6DC1E4;}
	.st39{fill:#6CA1D6;}
	.st40{fill:#568BC9;}
	.st41{fill:#3A4EA1;}
	.st42{fill:#16AFDA;}
	.st43{fill:#D9AE28;}
	.st44{fill:#FFDE56;}
	.st45{fill:#446B8B;}
	.st46{fill-rule:evenodd;clip-rule:evenodd;fill:#9EC8EA;}
	.st47{fill-rule:evenodd;clip-rule:evenodd;fill:#FFFFFF;}
	.st48{fill-rule:evenodd;clip-rule:evenodd;fill:#EC9882;}
	.st49{fill-rule:evenodd;clip-rule:evenodd;fill:#203E51;}
	.st50{fill-rule:evenodd;clip-rule:evenodd;fill:#F6BB9D;}
	.st51{fill-rule:evenodd;clip-rule:evenodd;fill:#345370;}
	.st52{fill:#E0EEF9;}
	.st53{fill-rule:evenodd;clip-rule:evenodd;fill:#E15D34;}
	.st54{fill-rule:evenodd;clip-rule:evenodd;fill:#B56179;}
	.st55{fill-rule:evenodd;clip-rule:evenodd;fill:#874158;}
	.st56{fill:#193442;}
	.st57{fill-rule:evenodd;clip-rule:evenodd;fill:#6798CA;}
	.st58{fill:#FFDD14;}
	.st59{fill:#F8CA0F;}
	.st60{fill:#E8BC1F;}
	.st61{fill:#2C84C5;}
	.st62{fill:#424FA1;}
	.st63{fill:#B0D141;}
</style>
<g>
	<rect class="st0" width="595" height="170"/>
	<path class="st1" d="M429.88,29.87C379.59,7.92,314.23,9.46,277.3,36.35c-18.95,13.8-48.19,25.09-72.92,16.2
		c-93.27-33.52-134.03,84.49-61.58,108.68c1.93,0.64,309.16,1.99,312.72,0C504.54,133.98,503.61,62.05,429.88,29.87z"/>
	<path class="st2" d="M221.85,83.38c5.96,0,11.62,1.32,16.7,3.67c0.45-41.01,33.82-74.11,74.93-74.11
		c34.32,0,63.26,23.07,72.14,54.56c2.87-0.54,5.84-0.82,8.87-0.82c26.55,0,48.07,21.52,48.07,48.07c0,26.55-21.52,48.07-48.07,48.07
		c-13.99,0-63.82,0-81,0c-21.78,0-75.23,0-91.63,0c-21.94,0-39.72-17.79-39.72-39.72C182.12,101.17,199.91,83.38,221.85,83.38z"/>
	<g>
		<g>
			<path class="st3" d="M504.56,156.31h-33.04c0-9.12,7.4-16.52,16.52-16.52C497.17,139.79,504.56,147.19,504.56,156.31z"/>
			<path class="st4" d="M494.12,140.94c0,0-7.29,9.5-8.87,15.37"/>
			<path class="st4" d="M481.03,141.35c0,0,1.59,5.67,7.52,7.85"/>
			<path class="st4" d="M486.42,153.21c0,0,9.61-0.26,16.04-5.29"/>
		</g>
		<g>
			<path class="st3" d="M440.5,164.27c0,0-10.14-50.1,33.99-68.23C474.49,96.04,488.7,139.56,440.5,164.27z"/>
			<path class="st5" d="M474.49,96.04c0,0-28.7,39.68-33.37,68.95"/>
			<g>
				<path class="st6" d="M447.48,162.97c0,0,8.02-50.49,55.69-52.04C503.17,110.93,501.27,156.66,447.48,162.97z"/>
				<path class="st5" d="M447.48,162.97c0,0,34.93-42.36,55.69-52.04"/>
				<line class="st7" x1="479.89" y1="128.37" x2="480.29" y2="115.75"/>
				<line class="st8" x1="466.3" y1="141.88" x2="467.23" y2="124.93"/>
				<line class="st9" x1="484.26" y1="124.41" x2="500.55" y2="124.88"/>
				<line class="st10" x1="471.07" y1="136.95" x2="494.2" y2="137.51"/>
				<line class="st4" x1="457.97" y1="150.89" x2="477.27" y2="153.59"/>
			</g>
		</g>
	</g>
	<g>
		<g>
			<path class="st11" d="M162.24,157.22c0,0,15.4-37.61-19.85-64.57C142.39,92.65,123.68,128.64,162.24,157.22z"/>
			<g>
				<path class="st12" d="M168.2,161.34c0,0-8.43-53.07-58.54-54.71C109.65,106.63,111.65,154.71,168.2,161.34z"/>
				<path class="st13" d="M168.2,161.34c0,0-36.71-44.52-58.54-54.71"/>
				<line class="st14" x1="129.22" y1="120.62" x2="128.8" y2="110.22"/>
				<line class="st15" x1="145.45" y1="136" x2="144.09" y2="118.92"/>
				<line class="st16" x1="134.15" y1="124.93" x2="114.15" y2="125.9"/>
				<line class="st17" x1="150.62" y1="141.7" x2="126.95" y2="143.31"/>
			</g>
		</g>
		<g>
			<path class="st18" d="M132.58,151.14c2.09,0,4.04,0.59,5.7,1.62c2.84-3.89,7.44-6.42,12.62-6.42c6.46,0,12,3.92,14.39,9.51
				c1.46-1.31,3.39-2.11,5.5-2.11c4.55,0,8.23,3.69,8.23,8.23h-12.49h-3.98h-19.14h-8.15h-13.52v0
				C121.75,155.99,126.6,151.14,132.58,151.14z"/>
			<path class="st15" d="M153.77,162.27c0,0-2.44-12.81-4.09-15.93"/>
			<line class="st15" x1="153.16" y1="159.24" x2="140.35" y2="150.44"/>
			<line class="st15" x1="159.87" y1="148.86" x2="152.19" y2="154.81"/>
			<line class="st15" x1="135.97" y1="162.27" x2="126.28" y2="153.16"/>
			<line class="st19" x1="134.08" y1="150.93" x2="131.55" y2="158.12"/>
			<line class="st19" x1="169.13" y1="161.97" x2="174.23" y2="154.16"/>
		</g>
	</g>
	<g>
		<g>
			<polygon class="st20" points="424.37,163.32 428.81,163.09 428.64,159.78 424.7,159.98 			"/>
			<path class="st21" d="M428.68,160.48l-3.98-0.5l-3.4-37.68l-4.83-38.72l16.26-0.82c0,0-1.79,31.17-3.17,38.57
				C431.47,127.04,428.68,160.48,428.68,160.48z"/>
			<polygon class="st20" points="437.44,162.66 441.79,162.44 441.62,159.12 437.68,159.32 			"/>
			<g>
				<g>
					<path class="st22" d="M418.34,65.62c0.68,0.32,1.67,0.81,2.19,1.37c1.18,1.27,1.05,2.87,0.26,4.53
						c-0.37,0.77-1.59,2.27-2.62,2.31c-0.77,0.03-5.1-0.68-6.39-1.01c-1.44-0.38-2.84-0.9-4.28-1.28c-1.57-0.41-3.16-0.73-4.72-1.19
						c-1.46-0.43-2.89-0.94-4.35-1.38c-0.93-0.28-1.86-0.53-2.79-0.79l2.18-5.14C404.33,63.46,415.66,64.35,418.34,65.62z"/>
					<path class="st23" d="M395.64,68.19c-0.32-0.09-0.63-0.18-0.94-0.28c-0.86-0.26-1.71-0.56-2.57-0.84
						c-0.04-0.01-0.91-0.32-0.93-0.28c0.01-0.01,1.95-4.01,1.95-4.01s1.9,0.09,4.67,0.27L395.64,68.19z"/>
				</g>
				<path class="st20" d="M393.15,62.77c-0.47-0.26-0.92-0.54-1.36-0.83c-0.42-0.28-0.83-0.69-1.29-0.9
					c-1.06-0.48-2.19-0.8-3.34-0.95c-0.33-0.04-1.24-0.26-1.37-0.3c-0.19-0.06-2.21-0.4-3.02-0.54c-0.58-0.1-1.16-0.2-1.75-0.2
					c-0.25,0-0.51,0.03-0.71,0.18c-0.31,0.23-0.38,0.66-0.41,1.05c-0.05,0.71-0.04,1.48,0.38,2.06c0.12,0.17,0.27,0.31,0.43,0.45
					c0.38,0.35,1.6,1.46,4.83,2.79c0.43,0.18,0.89,0.28,1.34,0.39c1.2,0.28,2.38,0.33,3.67,0.67c0.18,0.05,0.47,0.14,0.65,0.15
					L393.15,62.77z"/>
				<path class="st22" d="M422.97,44.69c0,0-5.37-4.28-7.75,1.57c-0.6,1.47-0.99,3.02-1.26,4.58c-0.5,2.88-0.59,5.84-0.42,8.76
					c0.08,1.3,0.21,2.59,0.42,3.87c0.09,0.55,0.23,1.1,0.33,1.64c0.15,0.81,0.37,1.67,0.63,2.44c0.68,2.02,1.24,3.69,2.47,4.07
					c1.37,0.43,2.17,1.04,2.99-1.2c0.47-1.28,0.83-2.59,1.28-3.88c0.63-1.81,1.24-3.63,1.84-5.45c0.59-1.78,1.11-3.59,1.58-5.41
					c0.31-1.19,0.66-2.56,0.55-3.8C425.37,48.89,425.28,47.46,422.97,44.69z"/>
			</g>
			<path class="st24" d="M436.84,82.55c0,0,0.14,23.8-0.43,36.78c5.75,8.66,5.26,40.57,5.26,40.57l-3.97-0.45l-10.28-39.91
				l-6.42-36.19L436.84,82.55z"/>
			<path class="st23" d="M438.5,45.97c0,0-2.28-7.66-10.62-6.92c-8.34,0.74-12.79,4.45-14.53,10.79c-1.74,6.34,2.56,9.95,3.06,17.32
				c0.5,7.37,0.05,16.42,0.05,16.42s21.01,4.03,20.37-1.03C435.88,74.91,441.08,52.48,438.5,45.97z"/>
			
				<rect x="423.15" y="32.82" transform="matrix(0.9987 -0.0504 0.0504 0.9987 -1.3067 21.5066)" class="st20" width="5.77" height="7.72"/>
			<path class="st25" d="M429.59,31.58c0,0-2.53,4.42-7.43,5.1c-2.77,0.38-2.99-0.19-3.21-1c-0.67-2.47-1.81-6.57-0.27-10.98
				c0,0,3.11-6.46,8.63-2.58C431.98,25.4,430.05,30.43,429.59,31.58z"/>
			<path class="st21" d="M427.18,24.51c-3.3,1.11-14.41,1.57-11.01-4.84c0.49-0.92,1.36-1.92,2.48-1.96
				c0.98-0.04,1.69,0.68,2.33,1.31c0.6,0.59,1.14,1.08,2.03,1.06c1.11-0.02,2.22-0.49,3.32-0.64c2.17-0.29,4.64,0.12,5.35,2.45
				c2.04,0.32,2.48,2.58,2.07,4.34c-0.41,1.8-1.97,3.73-3.27,4.99c-0.59,0.57-1.2,1.11-1.82,1.65c-0.05-0.57,0.06-1.11,0.01-1.66
				c0.68-0.4,1.36-1.76,1.15-2.6c-0.38-1.47-1.92-1.03-2.26-0.3C427.4,27.07,427.33,25.75,427.18,24.51z"/>
			<path class="st26" d="M426.51,40.73l-4.62-0.42l-0.55,3.3c0,0-6.94,18.66,3.02,34.36l4.09,1.35c0,0-0.11-3.52,0.68-4.85
				c0,0-10.93-10.7-6.14-31.09L426.51,40.73z"/>
			<g>
				<g>
					<path class="st27" d="M421.22,42.55l1.45-2.32c0,0.02,0.17-0.2,0.65-0.35l-0.14-2.7c-1.21,0.87-1.12,1.07-1.49,2.51
						C421.38,40.85,421.61,40.53,421.22,42.55z"/>
				</g>
			</g>
			<g>
				<path class="st28" d="M424.35,41.54c2.13-0.38,4.07-0.65,5.57-2.97"/>
				<path class="st29" d="M424.1,42.92l0.71-0.06c2.11-0.37,4.64-0.88,6.42-3.63l-2.29-2.25c-1.12,1.73-2.69,2.82-4.61,3.16
					l-0.77,0.1L424.1,42.92z"/>
			</g>
			<path class="st24" d="M441.75,161.69c-2.47,1.16-3.45-0.46-4.48-0.23c-0.98,0.22-0.79,0.73-1.61,1.26
				c-0.91,0.58-3.95,1.49-4.21,1.58c-1.08,0.39-0.83,1.53-0.59,1.55c1.11,0.1,3.44,0.2,4.55,0.08c0.73-0.08,1.99-0.85,2.72-0.89
				c0.88-0.05,1.19,0.7,2.07,0.75c0.77,0.04,1.64-0.05,2.12-0.74c0.39-0.55,0.38-1.25,0.26-1.88
				C442.56,163.03,442.43,162.23,441.75,161.69z"/>
			<path class="st30" d="M435.37,165.16c0.85-0.04,1.38-0.25,1.89-0.45c0.44-0.17,0.85-0.33,1.39-0.36l4.15-0.21l0.09,1.69
				l-4.35,0.22l-0.03-0.63c-0.28,0.04-0.54,0.14-0.86,0.27c-0.53,0.21-1.2,0.47-2.22,0.52l-4.77,0.24l-0.05-1.04L435.37,165.16z"/>
			<g>
				<g>
					<path class="st21" d="M367.03,49.58l14.67-0.53c0.55-0.03,1.19,0.46,1.44,1.1l8.33,21.88c0.24,0.64-0.01,1.19-0.56,1.22
						l-14.04,3.26c-0.55,0.03-1.19-0.46-1.44-1.1l-8.96-24.6C366.23,50.16,366.48,49.61,367.03,49.58z"/>
					<path class="st22" d="M389.79,72.08l-12.59,2.53c-0.23,0.01-0.49-0.19-0.59-0.45l-8.25-21.88c-0.1-0.27,0-0.49,0.23-0.51
						l13.15-0.83c0.23-0.01,0.49,0.19,0.59,0.45l7.68,20.17C390.12,71.84,390.02,72.07,389.79,72.08z"/>
					<path class="st31" d="M373.63,50.33l3.16-0.2c0.7-0.04,1.52,0.58,1.83,1.4l0.15,0.39c0.05,0.15,0,0.27-0.13,0.28l-5.25,0.33
						c-0.13,0.01-0.27-0.1-0.33-0.25l-0.15-0.39C372.61,51.07,372.93,50.37,373.63,50.33z"/>
					<path class="st31" d="M374.53,48.43L374.53,48.43c-0.55,0.03-0.81,0.59-0.56,1.23l0.44,1.17l2.01-0.13l-0.44-1.17
						C375.74,48.89,375.09,48.4,374.53,48.43z M375.21,50.22c-0.29,0.02-0.63-0.24-0.76-0.58c-0.13-0.34,0-0.63,0.3-0.65
						c0.29-0.02,0.63,0.24,0.76,0.58C375.63,49.91,375.5,50.2,375.21,50.22z"/>
				</g>
			</g>
			<path class="st24" d="M428.77,162.34c-2.47,1.16-3.45-0.46-4.48-0.23c-0.98,0.22-0.79,0.73-1.61,1.26
				c-0.91,0.58-3.95,1.49-4.21,1.58c-1.08,0.39-0.83,1.53-0.59,1.55c1.11,0.1,3.44,0.2,4.55,0.08c0.73-0.08,1.99-0.85,2.73-0.89
				c0.88-0.05,1.19,0.7,2.07,0.75c0.77,0.04,1.64-0.05,2.12-0.74c0.39-0.55,0.38-1.25,0.26-1.88
				C429.57,163.68,429.45,162.88,428.77,162.34z"/>
			<path class="st30" d="M422.38,165.81c0.85-0.04,1.38-0.25,1.89-0.45c0.44-0.17,0.85-0.33,1.39-0.36l4.15-0.21l0.09,1.69
				l-4.35,0.22l-0.03-0.63c-0.28,0.04-0.54,0.14-0.86,0.27c-0.53,0.21-1.2,0.47-2.22,0.52l-4.77,0.24l-0.05-1.04L422.38,165.81z"/>
			<path class="st22" d="M422.67,32.92c0,0-2.42,0.17-3.57-0.82C419.11,32.1,420.2,36.69,422.67,32.92z"/>
			<path class="st22" d="M429.85,37.78c-0.12,2.14-0.31,3.2-1.97,4.33c-1.7,1.17-4.77,4.88-5,6.92c-0.47,4.16-1.22,8.03-1.52,12.21
				c-0.72,10.03,2.75,18.88,5.82,28.48c1.74,5.44,3.81,15.59,9.18,17.72c3.37,1.34,6.38,0.59,9.95-0.04
				c2.49-0.44,6.53-0.9,7.29-3.85c0.77-2.99-3.68-10.63-4.79-13.27c-1.45-3.48-8.43-13.86-9.3-28.27
				c-0.26-4.31,0.09-8.65,0.07-12.97C439.56,41.79,433.98,40.24,429.85,37.78z"/>
			<path class="st22" d="M421.19,40.56c-2.48,5.23-5.06,10.54-5.15,16.44c-0.08,4.6,0.99,9.22,0.47,13.82
				c-0.08,0.68-0.01,2.08-0.67,1.38c-0.85-0.89-0.55-4.48-0.63-5.61c-0.36-4.72-2.11-8.62-2.62-13.3
				C412.05,48.49,415.39,42.55,421.19,40.56z"/>
			<g>
				<g>
					<path class="st21" d="M424.58,49.97l-0.52-0.3c1.79-3.06,5.27-9.13,5.61-10.14c0.26-0.78,0.23-1.45-0.07-1.96
						c-0.25-0.41-0.53-0.56-0.66-0.58l-0.03-0.6l0.07,0.01c0.32,0.06,0.81,0.33,1.14,0.87c0.28,0.46,0.52,1.26,0.13,2.46
						C429.8,41.04,424.79,49.6,424.58,49.97z"/>
				</g>
				<g>
					<path class="st32" d="M422.38,49.94c-0.46,0.78-0.2,1.79,0.58,2.25c0.78,0.46,1.79,0.2,2.25-0.58c0.46-0.78,0.2-1.79-0.58-2.25
						C423.85,48.89,422.84,49.15,422.38,49.94z"/>
					<path class="st21" d="M423.02,50.31c-0.25,0.43-0.11,0.98,0.32,1.23c0.43,0.25,0.98,0.11,1.23-0.32
						c0.25-0.43,0.11-0.98-0.32-1.23C423.83,49.74,423.28,49.89,423.02,50.31z"/>
				</g>
				<g>
					<g>
						<path class="st32" d="M414.23,57.08c-0.45-0.13-0.43-0.21-0.78-0.83c-0.69-1.2-0.54-3.45,0.47-6.9
							c0.27-0.93,0.59-1.77,0.94-2.49l0.29,0.14c-0.34,0.7-0.65,1.52-0.92,2.44c-0.97,3.31-1.14,5.55-0.5,6.65
							c0.38,0.66,0.44,0.65,0.93,0.77c0.1,0.02,0.19,0.04,0.27,0.07l-0.09,0.31c-0.08-0.02-0.16-0.04-0.25-0.06
							C414.47,57.15,414.35,57.12,414.23,57.08z"/>
					</g>
					<g>
						<path class="st21" d="M415.25,47.06l-0.48-0.23c1.9-3.89,3.86-3.79,4.85-3.5l0,0c1,0.29,2.7,1.27,2.2,5.57l-0.53-0.06
							c0.44-3.75-0.74-4.68-1.81-5l0,0C418.61,43.58,416.97,43.54,415.25,47.06z"/>
					</g>
					<g>
						<path class="st32" d="M416.72,57.81c-0.12-0.04-0.24-0.08-0.34-0.11c-0.09-0.03-0.17-0.06-0.25-0.08l0.09-0.31
							c0.08,0.02,0.17,0.05,0.26,0.09c0.47,0.16,0.52,0.21,1.2-0.14c1.13-0.58,2.2-2.56,3.17-5.86c0.27-0.92,0.45-1.77,0.54-2.55
							l0.32,0.04c-0.09,0.79-0.28,1.67-0.55,2.6c-1.01,3.44-2.1,5.43-3.33,6.06C417.19,57.87,417.18,57.95,416.72,57.81z"/>
					</g>
					<path class="st21" d="M414.48,56.99c-0.06,0.21,0.06,0.43,0.28,0.49c0.21,0.06,0.44-0.06,0.5-0.27
						c0.06-0.21-0.06-0.43-0.28-0.49C414.77,56.66,414.55,56.78,414.48,56.99z"/>
					<path class="st21" d="M415.79,57.37c-0.06,0.21,0.06,0.43,0.28,0.49c0.21,0.06,0.44-0.06,0.5-0.27
						c0.06-0.21-0.06-0.43-0.28-0.49C416.07,57.04,415.85,57.16,415.79,57.37z"/>
				</g>
				<g>
					<path class="st21" d="M419.98,43.67l-0.57-0.18c0.03-0.1,0.91-2.99,2.31-3.91l-0.2,0.96
						C420.63,41.62,419.98,43.65,419.98,43.67z"/>
				</g>
			</g>
			<path class="st20" d="M392.02,62.32c-1.39-0.81-1.67-0.85-2.87-1.13c-0.43-0.1-4.73-0.63-5.07-0.09
				c-0.72,1.13,2.42,0.85,2.68,1.29c1.29,2.18,4.59,0.98,4.13,1.02L392.02,62.32z"/>
		</g>
		<g>
			
				<rect x="427.64" y="71.7" transform="matrix(3.026672e-03 -1 1 3.026672e-03 353.5279 504.3441)" class="st33" width="4.13" height="6.34"/>
			
				<rect x="428.65" y="72.35" transform="matrix(3.026828e-03 -1 1 3.026828e-03 355.7091 502.1824)" class="st33" width="2.11" height="0.69"/>
		</g>
	</g>
	<g>
		<g>
			<g>
				<path class="st34" d="M384.54,152.12h-74.72c-1.12,0-2.04-0.91-2.04-2.04v-0.95c0-1.12,0.91-2.04,2.04-2.04h74.72
					c1.12,0,2.04,0.91,2.04,2.04v0.95C386.58,151.21,385.67,152.12,384.54,152.12z"/>
				<rect x="336.67" y="99.52" class="st34" width="29.23" height="48.61"/>
				<path class="st34" d="M395.25,103.56H297c-1.44,0-2.62-1.17-2.62-2.62V30.56c0-1.44,1.17-2.62,2.62-2.62h98.25
					c1.44,0,2.62,1.17,2.62,2.62v70.38C397.87,102.39,396.7,103.56,395.25,103.56z"/>
				<rect x="324.06" y="99.52" class="st35" width="39.27" height="48.61"/>
				<rect x="324.06" y="99.52" class="st36" width="39.27" height="6.68"/>
				<path class="st37" d="M392.87,103.61h-98.25c-1.44,0-2.62-1.17-2.62-2.62V30.62c0-1.44,1.17-2.62,2.62-2.62h98.25
					c1.44,0,2.62,1.17,2.62,2.62V101C395.48,102.44,394.31,103.61,392.87,103.61z"/>
				<path class="st35" d="M393.66,79.94c-7.48,11.06-19.07,16.56-19.7,16.85c-4.29,1.98-0.79,2.87-3.61,3.43
					c-8.68,1.7-21.76,2.73-34.55,3.35h57.13c1.42,0,2.58-1.15,2.58-2.58V76.93C394.95,77.94,394.33,78.95,393.66,79.94z"/>
				<path class="st38" d="M295.6,90.39V33.14c0-0.9,0.73-1.63,1.63-1.63h93.08c0.9,0,1.63,0.73,1.63,1.63v57.25
					c0,0.9-0.73,1.63-1.63,1.63h-93.08C296.33,92.02,295.6,91.29,295.6,90.39z"/>
				<path class="st39" d="M379.86,96.29h-6.12c-0.34,0-0.63-0.28-0.63-0.63v0c0-0.34,0.28-0.63,0.63-0.63h6.12
					c0.34,0,0.63,0.28,0.63,0.63l0,0C380.48,96.01,380.2,96.29,379.86,96.29z"/>
				<path class="st39" d="M386.86,96.29h-3.76c-0.34,0-0.63-0.28-0.63-0.63l0,0c0-0.34,0.28-0.63,0.63-0.63h3.76
					c0.34,0,0.63,0.28,0.63,0.63l0,0C387.49,96.01,387.21,96.29,386.86,96.29z"/>
				<path class="st39" d="M370.22,96.29h-4c-0.28,0-0.51-0.23-0.51-0.51v-0.24c0-0.28,0.23-0.51,0.51-0.51h4
					c0.28,0,0.51,0.23,0.51,0.51v0.24C370.73,96.07,370.5,96.29,370.22,96.29z"/>
				<path class="st40" d="M379.89,95.04h-0.25c0.05,0.08,0.07,0.18,0.07,0.28v0.07c0,0.32-0.27,0.59-0.59,0.59h-5.94
					c0.1,0.18,0.3,0.31,0.52,0.31h6.19c0.32,0,0.59-0.27,0.59-0.59v-0.07C380.48,95.31,380.22,95.04,379.89,95.04z"/>
				<path class="st40" d="M386.86,95.04h-0.23c0.06,0.09,0.09,0.2,0.09,0.32c0,0.34-0.28,0.63-0.63,0.63h-3.53
					c0.11,0.18,0.31,0.31,0.54,0.31h3.76c0.34,0,0.63-0.28,0.63-0.63C387.49,95.32,387.21,95.04,386.86,95.04z"/>
				<path class="st40" d="M370.11,95.04h-0.23c0.06,0.09,0.09,0.2,0.09,0.32c0,0.34-0.28,0.63-0.63,0.63h-3.53
					c0.11,0.18,0.31,0.31,0.54,0.31h3.76c0.34,0,0.63-0.28,0.63-0.63C370.73,95.32,370.45,95.04,370.11,95.04z"/>
				<path class="st37" d="M381.05,152.12h-74.72c-1.12,0-2.04-0.91-2.04-2.04v-0.95c0-1.12,0.91-2.04,2.04-2.04h74.72
					c1.12,0,2.04,0.91,2.04,2.04v0.95C383.08,151.21,382.17,152.12,381.05,152.12z"/>
				<path class="st35" d="M380.57,147.09h-12.35c1.39,0,2.51,1.12,2.51,2.51l0,0c0,1.39-1.12,2.51-2.51,2.51h12.35
					c1.39,0,2.51-1.12,2.51-2.51l0,0C383.08,148.22,381.96,147.09,380.57,147.09z"/>
				<path class="st41" d="M336.89,149.37h-29.68c-0.34,0-0.62-0.28-0.62-0.62l0,0c0-0.34,0.28-0.62,0.62-0.62h29.68
					c0.34,0,0.62,0.28,0.62,0.62l0,0C337.51,149.09,337.23,149.37,336.89,149.37z"/>
				<polygon class="st42" points="321.63,31.51 295.6,60.75 295.6,75.89 327.87,31.51 				"/>
				<path class="st42" d="M390.34,31.51h-1.38c-1.4,11.01-3.68,19.94-5.73,26.49c-3.62,11.63-7.02,17.5-12.21,22.06
					c0,0,2.96,3.76-3.04,6.21c-6.57,2.68-18.64,4.66-34.87,5.74h57.23c0.89,0,1.6-0.72,1.6-1.6v-57.3
					C391.94,32.23,391.22,31.51,390.34,31.51z"/>
				<path class="st42" d="M390.34,31.51H297.2c-0.89,0-1.6,0.72-1.6,1.6v0.13h92.35c0.89,0,1.6,0.72,1.6,1.6v57.17h0.79
					c0.89,0,1.6-0.72,1.6-1.6v-57.3C391.94,32.23,391.22,31.51,390.34,31.51z"/>
			</g>
		</g>
	</g>
	<g>
		<g>
			<path class="st31" d="M305.2,153.82H166.27c-3.23,0-5.85-2.62-5.85-5.85v-7.11c0-3.23,2.62-5.85,5.85-5.85H305.2
				c3.23,0,5.85,2.62,5.85,5.85v7.11C311.05,151.2,308.43,153.82,305.2,153.82z"/>
			<path class="st31" d="M273.56,135.02h-107.3c-3.23,0-5.85-2.62-5.85-5.85v-23.16c0-3.23,2.62-5.85,5.85-5.85h107.3
				c3.23,0,5.85,2.62,5.85,5.85v23.16C279.41,132.4,276.79,135.02,273.56,135.02z"/>
			<path class="st43" d="M168.56,135.02h-2.29c-3.23,0-5.85-2.62-5.85-5.85v-23.16c0-3.23,2.62-5.85,5.85-5.85h2.29
				c3.23,0,5.85,2.62,5.85,5.85v23.16C174.41,132.4,171.79,135.02,168.56,135.02z"/>
			<path class="st43" d="M166.27,135.02h33.93c3.23,0,5.85,2.62,5.85,5.85v7.11c0,3.23-2.62,5.85-5.85,5.85h-33.93
				c-3.23,0-5.85-2.62-5.85-5.85v-7.11C160.42,137.64,163.04,135.02,166.27,135.02z"/>
			<path class="st44" d="M252.7,153.82h-40.81c-3.23,0-5.85-2.62-5.85-5.85v-7.11c0-3.23,2.62-5.85,5.85-5.85h40.81
				c3.23,0,5.85,2.62,5.85,5.85v7.11C258.55,151.2,255.93,153.82,252.7,153.82z"/>
			<path class="st44" d="M305.2,153.82h-40.81c-3.23,0-5.85-2.62-5.85-5.85v-7.11c0-3.23,2.62-5.85,5.85-5.85h40.81
				c3.23,0,5.85,2.62,5.85,5.85v7.11C311.05,151.2,308.43,153.82,305.2,153.82z"/>
			<path class="st44" d="M221.06,135.02h-40.81c-3.23,0-5.85-2.62-5.85-5.85v-23.16c0-3.23,2.62-5.85,5.85-5.85h40.81
				c3.23,0,5.85,2.62,5.85,5.85v23.16C226.91,132.4,224.29,135.02,221.06,135.02z"/>
			<path class="st44" d="M273.56,135.02h-40.81c-3.23,0-5.85-2.62-5.85-5.85v-23.16c0-3.23,2.62-5.85,5.85-5.85h40.81
				c3.23,0,5.85,2.62,5.85,5.85v23.16C279.41,132.4,276.79,135.02,273.56,135.02z"/>
			<rect x="167.09" y="153.82" class="st21" width="3" height="10.83"/>
			<rect x="170.08" y="153.82" class="st24" width="3.42" height="10.83"/>
			<rect x="197.45" y="153.82" class="st21" width="3" height="10.83"/>
			<rect x="200.44" y="153.82" class="st45" width="3.42" height="10.83"/>
			<rect x="268.65" y="153.82" class="st21" width="3" height="10.83"/>
			<rect x="271.65" y="153.82" class="st24" width="3.42" height="10.83"/>
			<rect x="299.01" y="153.82" class="st21" width="3" height="10.83"/>
			<rect x="302.01" y="153.82" class="st45" width="3.42" height="10.83"/>
			<rect x="167.09" y="153.82" class="st21" width="33.36" height="2.98"/>
			<rect x="200.44" y="153.82" class="st45" width="104.99" height="2.98"/>
		</g>
		<g>
			<path class="st25" d="M254.25,92.54c1.23-0.36,1.36-1.14,1.75-1.87c0.14-0.26,2.8-2.08,3.25-1.76c0.94,0.68-1.08,1.56-0.79,2
				c0.41,0.64,0.48,0.53,0.74,0.45c1.4-0.41,0.64-0.81,1.66-0.87c0.72-0.05,2.09,0.77,2.32,1.48c0.54,1.69,0.23,2.94-1.57,3.53
				c-1.53,0.5-3.14,0.95-5.3,1.02L254.25,92.54z"/>
			<path class="st46" d="M203.85,89.6c0,0,0.05-7.55,7.07-5.88c6.77,1.61,21.44,11.4,22.16,12.2c1.32,1.48,2.55,3.07,2.15,4.84
				c-0.51,2.26-2.56,3.02-4.58,2.05C227.16,101.13,204.81,93.71,203.85,89.6z"/>
			<path class="st46" d="M229.67,96.88c0.38-0.61,0.74-1.08,1.37-1.48c0.88-0.56,22.23-2.82,23.21-2.85l2.07,3.98
				c-3.28,1.02-10.59,3.57-13.87,4.59c-2.79,0.87-5.33,2.28-9.52,2.08c-1.44-0.07-3.1-2.2-3.47-3.26
				C229.11,98.92,229.16,97.69,229.67,96.88z"/>
		</g>
		<g>
			<path class="st20" d="M262.42,116.77c2.27,4.13,4.23,0.77,4.36-3.34c0.12-3.96-0.38-7.43-1.46-11.25
				c-0.65-2.29-2.76-12.31-6.12-10.6c-3.14,1.59-1.18,10.9-0.7,13.61C259.18,109.07,260.38,113.08,262.42,116.77z"/>
			<path class="st20" d="M283.82,106.45c-0.11-0.1,2.57-1.52,1.78-1.87c-0.46-0.2-2.37,0.94-3.3,1.78c-1.86,1.69-4.37,2.75-7.58,3.6
				c-4.01,1.07-6.36,1.04-10.39,3.36c-2.1,1.21-1.16,5.62,1.26,5.54c2.68-0.09,9.65-4.19,12.37-5.67c2.4-1.31,4.99-2.26,7.56-3.22
				c1.41-0.53,5.19-3.59,3.94-4.85c-1.25-1.26-1.28-0.27-3.5,0.93C285.23,106.45,284.32,106.88,283.82,106.45z"/>
			<path class="st47" d="M265.3,101.27c-0.27-4.26-2-8.19-5.66-10.81c-3.12-2.23-4.35-2.56-7.5-1.5
				c-7.26,2.44-8.13,28.69-7.83,34.99c4.6,0.58,8.25,1.34,12.96,1.58c-0.87-6.22,3.37-12.13,6.44-18.2
				C264.68,105.41,265.44,103.49,265.3,101.27z"/>
			<path class="st20" d="M259.85,93.69c-0.6,0.84-2.55,0.47-4.36-0.82c-1.81-1.29-2.78-3.02-2.18-3.86c0.6-0.84,2.55-0.47,4.36,0.82
				C259.47,91.12,260.45,92.85,259.85,93.69z"/>
			<g>
				<g>
					<polygon class="st48" points="274.3,155.38 273.48,160.83 281.55,164.44 277.78,159.07 278.73,157.03 					"/>
					<path class="st49" d="M276.64,164.6l-3.13-0.02c0,0-0.43-0.8-0.42-2.8c0.01-2,0.01-1.88,0.01-1.88s0.67-0.01,2.33,1.16
						c1.31,0.94,4.46,0.87,5.5,1.18c2.12,0.63,3.23,0.87,3.22,2.39l-6.43-0.04c0,0-0.47-1.01-1.14-1.02
						C276.59,163.96,276.64,164.6,276.64,164.6z"/>
					<path class="st49" d="M257.46,121.01c0,0,25.51,0.7,29.07,4.52c3.56,3.82-7.5,31.5-7.5,31.5l-5.48,0.62
						c0,0,1.49-17.77,5.64-22.34c0,0-29.65-1.83-30.05-12.45L257.46,121.01z"/>
				</g>
				<g>
					<polygon class="st50" points="269.06,155.38 268.24,160.83 276.31,164.44 272.54,159.07 273.64,157.03 					"/>
					<path class="st51" d="M255.86,121.37c0,0,21.43,0.37,25.43,4.16c3.79,3.59-7.34,31.5-7.34,31.5l-5.64,0.62
						c0,0,1.6-20.35,6.13-22.86c0,0-7.24,0.43-14.81,0.43c-7.93,0-15.99-1.95-15.32-11.27L255.86,121.37z"/>
					<path class="st51" d="M271.4,164.6l-3.13-0.02c0,0-0.43-0.8-0.42-2.8c0.01-2,0.01-1.88,0.01-1.88s0.67-0.01,2.33,1.16
						c1.31,0.94,4.46,0.87,5.5,1.18c2.12,0.63,3.23,0.87,3.22,2.39l-6.43-0.04c0,0-0.47-1.01-1.14-1.02
						C271.35,163.96,271.4,164.6,271.4,164.6z"/>
				</g>
			</g>
			<g>
				<path class="st49" d="M257.37,70.39c1.94,0.09,4.61,0.62,6.12,1.96c1.52,1.35,1.62,3.48,1.48,5.37c-0.11,1.4-0.24,2.94-0.57,4.3
					c-0.28,1.14-1.46,1.65-2.49,1.92c-2.2,0.59-4.65,0.56-6.91,0.34c-1.68-0.17-3.32-1.42-4.15-2.84c-1.06-1.8-0.32-4.05,0.39-5.85
					c0.61-1.54,1.46-2.96,2.73-4.06c0.65-0.56,1.47-0.96,2.32-1.1C256.5,70.4,257.15,70.38,257.37,70.39z"/>
				
					<rect x="249.62" y="81.12" transform="matrix(0.165 -0.9863 0.9863 0.165 132.2989 322.2303)" class="st48" width="13.68" height="3.71"/>
				<path class="st25" d="M256.58,72.9c6.16-2.5,9.28,4.48,8.21,10.18c-0.3,1.6-1.14,3.72-1.97,3.77c-1.64,0.08-2.98-0.44-4.31-0.97
					c-2.53-1-3.86-2.82-4.95-5.37C252.28,77.53,253.82,74.02,256.58,72.9z"/>
				<path class="st49" d="M261.28,70.71c2.23,1.02,0.71,3.13-0.34,4.8c-0.48,0.76-1.25,1.47-2.07,1.85c-1.09,0.49-2.23-0.01-3.36,0
					c-0.78,0.01-1.76,0.19-1.81,1.12c-0.1,2.14,1.35,1.95,1.37,1.95c0.01,0-0.03,1.61-0.06,1.75c-0.08,0.56-0.26,1.18-0.77,1.5
					c-1.33,0.83-2.61-0.76-3.39-1.61c-0.74-0.81-1.34-2.14-1.47-3.26c-0.47-4.15,0.75-6.97,3.64-8.38c0.84-0.41,1.85-0.63,2.78-0.68
					C257.31,69.66,259.88,70.19,261.28,70.71z"/>
				<path class="st49" d="M253.29,70.46c-0.07-1.41-0.69-2.35-2.15-2.6c-1.14-0.2-2.53,0.11-3.27,1.13
					c-1.43,1.95-0.98,3.87,0.28,4.88c0.61,0.49,1.34,0.51,2.04,0.22L253.29,70.46z"/>
				<path class="st22" d="M260.72,83.22c0,0,1.69-0.79,3.08-1.17C263.8,82.05,263.43,86.24,260.72,83.22z"/>
			</g>
			<path class="st50" d="M251.72,117.23c1.69,4.4,4.09,1.34,4.77-2.72c0.66-3.91,0.86-7.33,0.31-11.26
				c-0.33-2.36-1.29-12.65-4.85-11.42c-3.32,1.15-2.65,10.64-2.54,13.39C249.55,109.16,250.2,113.29,251.72,117.23z"/>
			<path class="st50" d="M277.67,109.84c-0.08-0.13,2.05-1.46,1.91-1.78c-0.2-0.45-2.5,0.52-3.56,1.18
				c-2.13,1.35-4.78,1.95-8.09,2.23c-4.14,0.36-6.17-0.08-9.86,0.47c-2.87,0.43-3.84,0.55-5.24,2.36c-1.49,1.91-0.73,4.64,0.92,5.02
				c2.61,0.6,13.87-3.11,16.8-4.1c2.59-0.87,5.31-1.36,8-1.86c1.48-0.28,3.88-2.28,3.88-3.88c0-1.01-0.37-0.7-2.77,0.1
				C278.89,109.84,277.78,110.02,277.67,109.84z"/>
		</g>
		<g>
			<path class="st20" d="M246.11,122.61c2.06,2.55,3.05,0.21,2.67-2.5c-0.36-2.61-0.94-4.84-2.13-7.28
				c-0.71-1.46-3.08-7.1-5.66-6.56c-3.64,0.76,0.41,7.25,1.05,8.99C242.97,117.77,244.27,120.32,246.11,122.61z"/>
			<path class="st20" d="M261.43,124.96c-0.02-0.13,1.71,0.33,1.44-0.3c-0.16-0.36-1.43-0.61-2.14-0.54
				c-1.43,0.14-2.96-0.46-4.77-1.57c-2.26-1.38-3.12-1.91-5.19-2.97c-1.61-0.82-1.87-0.88-3.54-0.54c-1.36,0.28-1.52,2.81-0.29,3.94
				c0.72,0.66,1.44,1.03,3.67,1.67c1.77,0.51,4.1,1.25,5.87,1.69c1.56,0.39,3.11,1.11,4.64,1.81c0.84,0.38,3.59,1.23,3.92-0.79
				c0.13-0.8-1.03-1.17-2.48-1.54C262.11,125.69,261.53,125.5,261.43,124.96z"/>
			<path class="st20" d="M240.46,125.65c0,0,12.83-11.75,15.47-9.24c2.5,2.37,12.72,15.63,12.72,15.63h-5.06
				c0,0-8.06-3.05-8.34-6.35c0,0-19.58,19.84-21.91,1.91L240.46,125.65z"/>
			<path class="st52" d="M269.36,132.77l-5.98-7.45l-4.54,4.39c0,0,5.73,3.92,7.45,3.62C268,133.02,269.36,132.77,269.36,132.77z"/>
			<path class="st21" d="M249.68,118.36c0,0-1.93,2.5,3.63,9.38c0,0-6.74,7.7-13.98,7.7c-6.64,0-6.01-8.16-6.01-8.16
				s3.32-0.3,6.84-2.1C243.89,121.9,249.68,118.36,249.68,118.36z"/>
			<g>
				<g>
					
						<rect x="262.59" y="134.14" transform="matrix(-1 -1.224647e-16 1.224647e-16 -1 536.0297 269.3639)" class="st52" width="10.84" height="1.08"/>
					<path class="st52" d="M271.09,132.07h0.28c1.14,0,2.07,0.93,2.07,2.07l0,0h-2.35V132.07z"/>
					<path class="st53" d="M271.09,132.07h-8.21c-0.16,0-0.28,0.13-0.28,0.28v1.79h8.49V132.07z"/>
					<path class="st47" d="M262.88,132.07L262.88,132.07c1.14,0,2.07,0.93,2.07,2.07l0,0h-2.35v-1.79
						C262.59,132.2,262.72,132.07,262.88,132.07z"/>
				</g>
				<path class="st53" d="M270.27,132.97l-2.45-2.45l0,0c-0.41,0.41-0.41,1.08,0,1.49l1.71,1.71L270.27,132.97z"/>
			</g>
			<path class="st52" d="M247.57,113.6c0,0-3.79-0.18-5.32,3.07c0,0-6.98-9.44-1.21-11.01C243.88,104.88,247.57,113.6,247.57,113.6z
				"/>
			<path class="st26" d="M246.27,112.19c-0.19-2.95-2.72-6.89-3.92-7.48c-3.45-1.71-7.43-0.88-9.53,3.62
				c-2.14,4.58-2.65,14.92-2.45,19.28c3.18,0.4,10.53-0.19,13.79-0.03c-0.6-4.3,1.27-6.71,2.11-11.09
				C246.56,115.01,246.36,113.73,246.27,112.19z"/>
			
				<rect x="237.05" y="97.83" transform="matrix(0.4692 -0.8831 0.8831 0.4692 40.1626 267.7068)" class="st48" width="11.47" height="5.23"/>
			<path class="st20" d="M243.4,107.95c-0.5,0.7-2.14,0.39-3.65-0.69c-1.51-1.08-2.33-2.53-1.83-3.23c0.5-0.7,2.14-0.39,3.65,0.69
				C243.08,105.8,243.9,107.24,243.4,107.95z"/>
			<path class="st50" d="M237.5,125.65c0,0,12.83-11.75,15.47-9.24c3.34,3.17,3.28,3.38,12.72,15.63h-5.06c0,0-8.06-3.05-8.34-6.35
				c0,0-19.72,20.02-21.91,1.91L237.5,125.65z"/>
			<g>
				<g>
					<path class="st25" d="M239.34,88.78c7.38-2.13,10.67,5.51,9.1,11.45c-0.44,1.66-1.55,3.85-2.52,3.82
						c-1.94-0.05-3.48-0.71-5.02-1.38c-2.92-1.27-4.38-3.3-5.53-6.1C234.03,93.33,236.03,89.74,239.34,88.78z"/>
					<path class="st22" d="M245.03,100.24c0,0,0.9-0.3,2.8-0.36C247.83,99.88,247.15,103.81,245.03,100.24z"/>
				</g>
				<path class="st49" d="M248.5,92.13c-0.31,0.88-1.25,1.46-2.38,1.37c-1.01-0.08-1.97-0.5-2.98-0.53
					c-0.25-0.01-0.5,0.01-0.73,0.11c-0.64,0.27-0.88,1.06-0.85,1.75c0.03,0.69,0.27,1.36,0.27,2.06c-0.47,0.15-0.89-0.39-1.38-0.43
					c-0.59-0.04-0.99,0.7-0.84,1.27c0.15,0.57,0.64,0.99,1.1,1.36c-0.21,0.63-0.44,1.26-0.7,1.87c-0.14,0.32-0.32,0.68-0.65,0.8
					c-0.39,0.15-0.82-0.1-1.15-0.35c-1.85-1.42-3.09-3.59-3.39-5.89c-0.26-2.01-0.09-4.51,1.51-5.96c0.92-0.83,2.17-1.16,3.39-1.37
					c2.43-0.43,5.08-0.49,7.19,0.8c0.59,0.36,1.13,0.83,1.44,1.45C248.65,91.06,248.68,91.64,248.5,92.13z"/>
			</g>
			<path class="st47" d="M266.4,132.77l-5.92-7.51l-4.6,4.44c0,0,5.73,3.92,7.45,3.62C265.04,133.02,266.4,132.77,266.4,132.77z"/>
			<path class="st24" d="M246.72,118.36c0,0-1.93,2.5,3.63,9.38c0,0-6.74,7.7-13.98,7.7c-6.64,0-6.01-8.16-6.01-8.16
				s3.32-0.3,6.84-2.1C240.93,121.9,246.72,118.36,246.72,118.36z"/>
			<g>
				<g>
					
						<rect x="259.63" y="134.14" transform="matrix(-1 -1.224647e-16 1.224647e-16 -1 530.1119 269.3639)" class="st47" width="10.84" height="1.08"/>
					<path class="st47" d="M268.13,132.07h0.28c1.14,0,2.07,0.93,2.07,2.07l0,0h-2.35V132.07z"/>
					<path class="st26" d="M268.13,132.07h-8.21c-0.16,0-0.28,0.13-0.28,0.28v1.79h8.49V132.07z"/>
					<path class="st47" d="M259.92,132.07L259.92,132.07c1.14,0,2.07,0.93,2.07,2.07l0,0h-2.35v-1.79
						C259.63,132.2,259.76,132.07,259.92,132.07z"/>
				</g>
				<path class="st26" d="M267.31,132.97l-2.45-2.45l0,0c-0.41,0.41-0.41,1.08,0,1.49l1.71,1.71L267.31,132.97z"/>
			</g>
			<path class="st50" d="M233.91,126.28c0.91,3.32,3.12,1.1,4.07-1.91c0.92-2.9,1.42-5.44,1.38-8.39c-0.03-1.77,0.29-9.2-2.71-8.63
				c-4.24,0.8-4.09,7.31-4.17,9.36C232.36,119.6,233.1,123.31,233.91,126.28z"/>
			<path class="st50" d="M250.59,130.62c0.01-0.13,1.7,0.01,1.75-0.29c0.08-0.43-1.54-0.92-2.38-0.98
				c-1.69-0.13-3.35-1.06-5.23-2.56c-2.35-1.87-3.25-2.6-5.44-4.1c-1.71-1.17-2-1.28-4-1.25c-1.63,0.03-2.27,2.55-1.13,4.03
				c1.26,1.63,1.47,1.35,3.94,2.45c1.95,0.88,4.52,2.1,6.49,2.9c1.74,0.7,3.39,1.76,5.03,2.78c0.9,0.56,3.53,2.12,4.27,1.02
				c1-1.5-0.51-2.51-2.12-3.17C251.25,131.25,250.58,130.81,250.59,130.62z"/>
			<path class="st22" d="M239.32,117.6c0,0-3.59-1.58-6.81,1.07c0,0-1.72-11.9,4.73-11.33C240.42,107.63,239.32,117.6,239.32,117.6z
				"/>
		</g>
		<g>
			<path class="st20" d="M231.05,122.58c2,1.91,2.51-0.31,1.86-2.64c-0.63-2.24-1.37-4.11-2.65-6.06c-0.77-1.17-3.4-5.75-5.43-4.86
				c-2.86,1.26,1.25,6.32,1.99,7.75C227.88,118.82,229.26,120.86,231.05,122.58z"/>
			<path class="st20" d="M243.63,128.34c0.01-0.1,1.64,0.65,1.51,0.13c-0.07-0.3-1.29-0.78-2.02-0.9c-1.46-0.24-2.85-1.04-4.41-2.26
				c-1.95-1.53-2.69-2.11-4.51-3.36c-1.43-0.97-1.67-1.08-3.41-1.23c-1.42-0.12-2.15,1.65-1.19,2.75c0.57,0.65,1.21,1.08,3.29,2.07
				c1.65,0.79,3.81,1.87,5.49,2.61c1.47,0.65,2.85,1.54,4.23,2.4c0.75,0.48,3.41,1.11,4.2-0.27c0.31-0.54-0.87-0.45-2.23-1.06
				C244.13,129.02,243.6,128.75,243.63,128.34z"/>
			<path class="st54" d="M228.98,114.31c-0.17-2.65-1.24-5.09-3.52-6.72c-1.94-1.39-5.9-0.77-7.27,1.68
				c-2.21,3.96-3.67,14.96-3.49,18.87c2.86,0.36,9.46-0.17,12.39-0.03c-0.54-3.87,1.14-6.03,1.89-9.96
				C229.24,116.84,229.07,115.69,228.98,114.31z"/>
			<path class="st55" d="M235.11,135.07c4.4,0,5.75-13.11,4.4-15.91c-0.85-1.75-5.17-0.41-5.12,5.82
				C234.44,131.2,229.11,135.07,235.11,135.07z"/>
			
				<rect x="219.35" y="100.75" transform="matrix(0.2212 -0.9752 0.9752 0.2212 74.5706 298.9948)" class="st48" width="10.3" height="4.12"/>
			<path class="st20" d="M226.41,110.5c-0.45,0.63-1.92,0.35-3.28-0.62c-1.36-0.97-2.1-2.27-1.64-2.9c0.45-0.63,1.92-0.35,3.28,0.62
				C226.12,108.57,226.86,109.87,226.41,110.5z"/>
			<path class="st48" d="M224.01,127.3c0,0,11.99-11.47,14.1-9.2c2.11,2.26,10.76,14.04,10.76,14.04l-2.45,0
				c0,0-10.99-5.01-10.02-7.19c0,0-16.41,19.99-18.58,3.2L224.01,127.3z"/>
			<path class="st50" d="M221.11,126.4c0,0,11.52-10.55,13.9-8.3c2.25,2.13,11.42,14.04,11.42,14.04l-4.55,0
				c0,0-7.24-4.19-7.49-7.16c0,0-17.51,19.96-19.68,3.17L221.11,126.4z"/>
			<g>
				<path class="st49" d="M225.1,92.42c1.45,0.2,3.62,0.94,4.68,2.37c0.91,1.23,0.98,2.72,0.74,4.13c-0.18,1.04-0.38,2.19-0.73,3.19
					c-0.29,0.84-1.21,1.13-2,1.27c-1.69,0.29-3.53,0.1-5.2-0.23c-1.25-0.24-2.39-1.29-2.92-2.42c-0.67-1.42,0.04-3.06,0.7-4.36
					c0.57-1.11,1.3-2.12,2.33-2.85c0.53-0.38,1.17-0.62,1.82-0.67C224.68,92.84,224.94,92.4,225.1,92.42z"/>
				<path class="st25" d="M222.86,93.41c5.86-1.5,8.26,4.59,6.88,9.23c-0.39,1.3-1.31,2.99-2.07,2.94
					c-1.52-0.09-2.72-0.64-3.92-1.21c-2.26-1.07-3.37-2.7-4.2-4.93C218.57,96.85,220.23,94.08,222.86,93.41z"/>
				<path class="st49" d="M228.25,93.41c1.6,0.92,0.32,2.39-0.59,3.58c-0.41,0.54-1.04,1.02-1.68,1.24
					c-0.85,0.29-2.37,0.62-3.22,0.55c-0.58-0.05-0.91,0.55-1.01,1.25c-0.21,1.52,1.64,1.05,0.94,2.71c-0.12,0.29-0.2,1.26-0.48,1.41
					c-0.52,0.28-1.85-0.69-2.23-1.15c-1.83-2.21-2.17-3.9-1.75-6.24c0.25-1.41,0.91-2.83,2.13-3.6
					C222.66,91.71,225.95,92.3,228.25,93.41z"/>
				<path class="st22" d="M226.91,103.05c0,0,1.16-0.57,2-1.12C228.91,101.93,228.22,105.78,226.91,103.05z"/>
			</g>
			<path class="st54" d="M214.71,128.15c0,0-0.88,6.92,6.44,6.92c7.33,0,13.96,0,13.96,0s-3.02-17.7,4.4-15.91
				c0,0-1.03-1.6-2.31-1.78c-6.56-0.94-14.19,7.16-14.19,7.16L214.71,128.15z"/>
			<path class="st48" d="M220.24,124.39c1.15,2.6,2.5,0.69,2.8-1.78c0.28-2.38,0.3-4.45-0.15-6.81c-0.27-1.41-1.08-7.38-3.26-6.75
				c-3.08,0.9-2.05,6.1-1.82,7.75C218.13,119.13,219.21,122.06,220.24,124.39z"/>
			<path class="st48" d="M235.19,122.4c-0.05-0.1,1.34-0.73,1.26-0.96c-0.11-0.34-1.58,0.01-2.27,0.33
				c-1.38,0.63-3.06,0.69-5.15,0.43c-2.6-0.32-6.43-0.93-7.99-0.05c-1.28,0.72-0.76,2.79,0.72,3.36c1.65,0.62,6.9-0.09,8.77-0.37
				c1.65-0.25,3.38-0.21,5.08-0.18c0.94,0.01,3.63-0.01,3.77-1.11c0.19-1.5-1.4-1.56-2.93-1.35
				C235.95,122.57,235.25,122.53,235.19,122.4z"/>
			<g>
				<path class="st55" d="M243.64,134.51c0,0,2.57,0,3.43,0c1.34,0,1.78,0.51,2.48,0.51h4.09l0,0c0-1.57-1.27-2.88-2.85-2.88h-6.67
					c-0.26,0-0.48,0.21-0.48,0.47V134.51z"/>
				<rect x="243.64" y="134.5" class="st55" width="3.43" height="0.52"/>
			</g>
			<path class="st49" d="M228.87,90.08c-0.12-1.9-2.42-2.17-2.79-2.18c-1.24-0.05-2.01,0.58-2.42,1.37
				c-0.57,1.1-0.24,2.69-1.56,3.79c1.08-0.33,1.23-1.26,1.81-1.35c0.39-0.06,0.43,0.82,0.64,1.24c0.37,0.73,1.27,1.11,2.07,0.98
				C228.36,93.65,228.96,91.58,228.87,90.08z"/>
			<g>
				<path class="st54" d="M221.8,96.76l-0.47,0.65c-0.11,0.16-0.33,0.19-0.48,0.08l-0.65-0.47c-0.16-0.11-0.19-0.33-0.08-0.48
					l0.47-0.65c0.11-0.16,0.33-0.19,0.48-0.08l0.65,0.47C221.87,96.38,221.91,96.6,221.8,96.76z"/>
				<path class="st54" d="M220.98,97.45l-0.02,1.1c-0.01,0.41-0.47,0.65-0.81,0.41l-1.12-0.8c-0.33-0.24-0.26-0.75,0.12-0.89
					l1.03-0.37L220.98,97.45z"/>
				<path class="st54" d="M221.72,96.41l1.03-0.37c0.39-0.14,0.46-0.66,0.12-0.89l-1.12-0.8c-0.33-0.24-0.8,0-0.81,0.41l-0.02,1.1
					L221.72,96.41z"/>
			</g>
			<g>
				<path class="st54" d="M241.35,134.51c0,0,2.57,0,3.43,0c1.34,0,1.78,0.51,2.48,0.51h4.09l0,0c0-1.57-1.27-2.88-2.85-2.88h-6.67
					c-0.26,0-0.48,0.21-0.48,0.47V134.51z"/>
				<rect x="241.35" y="134.51" class="st54" width="3.43" height="0.51"/>
			</g>
		</g>
		<g>
			<g>
				<polygon class="st20" points="241.15,161.04 236.83,161.18 237.17,158.62 241.18,158.22 				"/>
				<path class="st21" d="M197.13,134.41c0,0,19.52,2.72,39.58-5.05c-1.65,5.76,0.14,29.56,0.14,29.56l4.45-0.71
					c1.9-6.92,6.42-26.14,5.71-32.6c-0.12-1.04-0.22-2.79-0.76-3.7c-0.43-0.72-1.74-1.71-2.55-1.98c-2.06-0.7-32.34-1.65-32.65-1.13
					C211.04,118.82,197.13,134.41,197.13,134.41z"/>
				<path class="st21" d="M236.59,160.38c2.59,1.09,3.54-0.61,4.62-0.41c1.02,0.19,0.84,0.72,1.71,1.23
					c0.96,0.57,4.13,1.38,4.4,1.46c1.12,0.36,0.91,1.54,0.67,1.58c-1.14,0.15-3.54,0.35-4.69,0.26c-0.76-0.05-2.09-0.8-2.85-0.81
					c-0.91-0.01-1.2,0.77-2.1,0.85c-0.79,0.07-1.69,0.01-2.21-0.67c-0.42-0.55-0.44-1.27-0.34-1.93
					C235.81,161.79,235.91,160.96,236.59,160.38z"/>
				<path class="st56" d="M243.31,163.7c-0.88-0.01-1.43-0.2-1.97-0.39c-0.46-0.16-0.89-0.31-1.44-0.32l-4.29-0.05l-0.02,1.75
					l4.5,0.05l0.01-0.66c0.29,0.03,0.57,0.13,0.9,0.24c0.56,0.19,1.25,0.44,2.31,0.45l4.93,0.06l0.01-1.08L243.31,163.7z"/>
			</g>
			<path class="st57" d="M201.35,79.45c8.49-1.64,11.9,5.17,13.53,11.76c1.64,6.58-2.03,10.33-3.6,17.79
				c-2.05,9.67,0.74,11.23,0.74,11.23s-9.27,15.12-14.89,14.17c-0.8-0.14-1.55-0.86-2.16-1.73
				C190.38,126.18,181.42,83.29,201.35,79.45z"/>
			
				<rect x="201.46" y="74.38" transform="matrix(0.187 -0.9824 0.9824 0.187 91.0279 264.7064)" class="st20" width="7.97" height="5.95"/>
			<path class="st25" d="M202.19,72.25c0,0,2.26,4.74,7.26,5.82c2.83,0.61,3.09,0.04,3.38-0.78c0.88-2.49,2.37-6.62,1.12-11.28
				c0,0-2.71-6.89-8.69-3.32C200.21,65.7,201.81,71.03,202.19,72.25z"/>
			<path class="st22" d="M209.23,73.97c0,0,1.7,0.1,3.4-0.65C212.63,73.32,211.58,77.83,209.23,73.97z"/>
			<path class="st21" d="M205.22,65.15c0.07-0.35,11.42,2.69,9.76-5.28c-0.89-4.27-5.54-0.82-8.13-0.92
				c-2.13-0.09-5.22,1.02-6.05,3.16c-2.12,0.18-2.75,2.46-2.46,4.31c0.29,1.88,1.74,3.99,2.98,5.39c0.56,0.63,1.15,1.24,1.75,1.84
				c0.09-0.58,0.03-1.15,0.11-1.71c-0.67-0.46-1.27-1.92-0.98-2.76c0.51-1.48,2.06-0.91,2.35-0.13
				C204.8,67.78,204.96,66.42,205.22,65.15z"/>
			<g>
				<polygon class="st25" points="235.03,160.97 230.42,161.11 230.88,158.42 234.95,158.36 				"/>
				<path class="st24" d="M197.13,134.41c0,0,20.19,3.92,35.5-2.82c-5.26,6.4-2.11,27.33-2.11,27.33l4.57-0.56
					c2.55-7.01,7.32-25.75,6.61-32.21c-0.12-1.04-0.22-2.79-0.76-3.7c-0.43-0.72-1.74-1.71-2.55-1.98
					c-2.06-0.7-26.86-2.05-27.33-1.66C210.15,119.56,197.13,134.41,197.13,134.41z"/>
				<path class="st24" d="M230.25,160.33c2.59,1.09,3.54-0.61,4.62-0.41c1.02,0.19,0.84,0.72,1.71,1.23
					c0.96,0.57,4.13,1.38,4.4,1.46c1.12,0.36,0.91,1.54,0.67,1.58c-1.14,0.15-3.54,0.35-4.69,0.26c-0.76-0.05-2.09-0.8-2.85-0.81
					c-0.91-0.01-1.2,0.77-2.1,0.85c-0.79,0.07-1.69,0.01-2.21-0.67c-0.42-0.55-0.44-1.27-0.34-1.93
					C229.47,161.75,229.57,160.92,230.25,160.33z"/>
				<path class="st21" d="M236.97,163.65c-0.88-0.01-1.43-0.2-1.97-0.39c-0.46-0.16-0.89-0.31-1.44-0.32l-4.29-0.05l-0.02,1.75
					l4.5,0.05l0.01-0.66c0.29,0.03,0.57,0.13,0.9,0.24c0.56,0.19,1.25,0.44,2.31,0.45l4.93,0.06l0.01-1.08L236.97,163.65z"/>
			</g>
			<path class="st25" d="M217.27,120.55c1.21,0.42,1.77-0.13,2.51-0.5c0.26-0.13,4.03-0.02,4.21,0.51c0.37,1.1-2.32,0.61-2.35,1.13
				c-0.04,0.76,0.83,1.09,1.09,1.18c1.38,0.48,2.48,0.37,3.35,0.91c0.61,0.38,1.25,1.84,1.02,2.56c-0.55,1.69-3.01,1.88-4.82,1.31
				c-1.53-0.48-3.85-1.44-5.65-2.65L217.27,120.55z"/>
			<path class="st46" d="M194.57,85.63c1.85-3.68,9.58-4.05,9.38,3.16c-0.05,1.84-2.51,19.79-4,22.47
				c-0.96,1.74-2.66,4.29-4.46,4.53c-2.29,0.3-3.31-0.04-3.39-2.28C191.98,109.58,192.29,90.18,194.57,85.63z"/>
			<path class="st46" d="M194.11,109.1c0.66-0.27,1.23-0.35,1.98-0.4c4.1-0.29,20.36,11.31,21.17,11.86l-0.64,4.44
				c-3.26-1.08-6.49-2.3-9.76-3.38c-2.77-0.92-10.51-2.87-13.79-5.48c-1.13-0.9-1.24-3.6-0.92-4.67
				C192.46,110.43,193.22,109.46,194.11,109.1z"/>
		</g>
		<path class="st49" d="M215.16,91.2c-1.65,0.26-3.09,1.56-3.51,3.18c-0.35,1.35-0.04,2.77,0.09,4.16c0.15,1.58,0.06,3.18-0.27,4.74
			c0.87-0.23,1.58-0.56,2.08-0.9c1-0.68,1.01-2.03,1.2-3.22c0.07-0.46,0.15-1.03,0.58-1.19c0.2-0.07,0.42-0.03,0.62,0
			c1.31,0.19,2.75-0.11,3.67-1.06C222.35,94.09,217.95,90.76,215.16,91.2z"/>
	</g>
	<g>
		<path class="st22" d="M435.05,44.6c0,0,6.7,1.49,3.65,7.01c-0.78,1.41-1.73,2.73-2.75,3.98c-1.96,2.4-4.21,4.58-6.59,6.56
			c-1.06,0.88-2.15,1.73-3.28,2.5c-0.47,0.32-2.97,1.98-3.73,2.45c-1.41,0.87-2.9,1.64-4.35,0.86c-1.86-0.99-2.28-3.05-1.22-4.68
			c1.82-2.82,3.5-5.73,5.3-8.57c1.61-2.53,3.27-5.82,5.71-7.68C430.16,45.23,431.44,44.54,435.05,44.6z"/>
		<path class="st25" d="M396.32,53.94c-0.96-0.79-2.15-2.04-2.81-3.08c-0.18-0.28-1.39-2.63-2.25-3.73c0,0-0.59-1.1-1.28-0.28
			c-0.22,0.26,1.08,3.08,0.99,3.17c-0.53,0.52-1.77-0.75-2.13-1.05c-0.6-0.5-0.98-1.54-1.86-1.08c-0.6,0.31-1.22,0.73-1.37,1.45
			c-0.37,1.78,0.07,3.87,1.49,5.05c0.8,0.66,1.69,1.21,2.64,1.62c1.13,0.49,2.27,1.02,3.47,1.33c0.18,0.04,0.35,0.09,0.53,0.12
			L396.32,53.94z"/>
		<g>
			<path class="st22" d="M411.71,57.16c2,0.45,4.07,0.93,6,1.61c0.68,0.24,1.4,0.45,2.07,0.72c0.95,0.39,2.12,1.32,2.87,1.98
				c0.55,0.48,0.82,0.99,1.1,1.62c0.37,0.85,0.24,2.04-0.25,2.96c-0.51,0.95-2.42,2.8-3.8,2.61c-0.81-0.11-1.58-0.5-2.39-0.77
				c-1.15-0.38-2.07-0.81-3.1-1.24c-1.21-0.5-2.47-0.88-3.67-1.41c-2.58-1.16-5.19-2.26-7.73-3.5c-1.67-0.82-3.36-1.6-5.05-2.38
				l2.54-4.64C404.11,55.47,407.91,56.31,411.71,57.16z"/>
			<path class="st23" d="M396.32,53.95c0.93,0.17,1.87,0.35,2.8,0.53c0.39,0.08,0.78,0.16,1.17,0.23l-2.54,4.64
				c-1.34-0.62-2.67-1.25-4-1.89L396.32,53.95z"/>
		</g>
	</g>
	<g>
		<path class="st58" d="M379.76,78.21c-0.29,0.05-0.62,0.15-0.62,0.15L374.58,74l-0.68,0.71l4.57,4.37l0,0
			c-0.24,0.38-0.36,0.85-0.28,1.34c0.17,1.04,1.15,1.74,2.19,1.57c1.04-0.17,1.74-1.15,1.57-2.19
			C381.78,78.74,380.8,78.04,379.76,78.21z"/>
		<path class="st58" d="M383.02,72.67c-0.26,0.13-0.55,0.32-0.55,0.32l-5.63-2.86L376.4,71l5.63,2.86l0,0
			c-0.12,0.44-0.09,0.92,0.12,1.36c0.46,0.94,1.61,1.33,2.55,0.87c0.94-0.46,1.33-1.61,0.87-2.55S383.97,72.2,383.02,72.67z"/>
		<path class="st58" d="M383.75,64.98c-0.16,0.25-0.31,0.55-0.31,0.55l-6.31,0.35l0.05,0.98l6.31-0.35l0,0
			c0.11,0.44,0.38,0.84,0.79,1.11c0.87,0.58,2.06,0.35,2.64-0.53c0.58-0.87,0.35-2.06-0.53-2.64
			C385.52,63.87,384.34,64.11,383.75,64.98z"/>
		<path class="st58" d="M381.73,55.65c-1.02,0.25-1.65,1.27-1.41,2.3c0.07,0.29,0.19,0.6,0.19,0.6l-4.03,4.87l0.76,0.63l4.03-4.87
			l0,0c0.4,0.22,0.88,0.29,1.35,0.18c1.02-0.25,1.65-1.27,1.41-2.3S382.75,55.4,381.73,55.65z"/>
		<path class="st58" d="M371.88,53.99c-0.61,0.86-0.41,2.05,0.45,2.66c0.24,0.17,0.54,0.33,0.54,0.33l0.15,6.32l0.98-0.02
			l-0.15-6.32l0,0c0.44-0.1,0.85-0.35,1.14-0.75c0.61-0.86,0.41-2.05-0.45-2.66C373.67,52.94,372.49,53.14,371.88,53.99z"/>
		<path class="st58" d="M366.86,59.2c0.29-0.35,0.45-0.8,0.43-1.29c-0.05-1.05-0.94-1.86-1.99-1.81c-1.05,0.05-1.86,0.94-1.81,1.99
			c0.05,1.05,0.94,1.86,1.99,1.81c0.29-0.01,0.63-0.08,0.63-0.08l4.03,4.87l0.76-0.62L366.86,59.2L366.86,59.2z"/>
		<path class="st58" d="M362.12,62.68c0.29-0.35,0.45-0.8,0.43-1.29c-0.05-1.05-0.94-1.86-1.99-1.81c-1.05,0.05-1.86,0.94-1.81,1.99
			c0.05,1.05,0.94,1.86,1.99,1.81c0.29-0.01,0.63-0.08,0.63-0.08l4.03,4.87l0.76-0.62L362.12,62.68L362.12,62.68z"/>
		<path class="st58" d="M355.68,60.41c-0.99-0.36-2.08,0.15-2.44,1.14c-0.36,0.99,0.15,2.08,1.14,2.44c0.28,0.1,0.61,0.17,0.61,0.17
			l1.83,6.05l0.94-0.28l-1.83-6.05l0,0c0.4-0.21,0.73-0.57,0.9-1.03C357.17,61.86,356.66,60.77,355.68,60.41z"/>
		<path class="st58" d="M349.94,65.55c0.3-0.34,0.49-0.78,0.49-1.27c0-1.05-0.86-1.9-1.91-1.9c-1.05,0-1.9,0.86-1.9,1.91
			c0,1.05,0.86,1.9,1.91,1.9c0.3,0,0.63-0.05,0.63-0.05l3.8,5.05l0.78-0.59L349.94,65.55L349.94,65.55z"/>
		<path class="st58" d="M345.56,71.53c0.03-0.45-0.1-0.92-0.41-1.3c-0.65-0.82-1.85-0.96-2.67-0.31s-0.96,1.85-0.31,2.68
			c0.65,0.82,1.85,0.96,2.68,0.31c0.23-0.18,0.47-0.43,0.47-0.43l6.11,1.61l0.25-0.95L345.56,71.53L345.56,71.53z"/>
		<path class="st58" d="M346.61,79.98L346.61,79.98c-0.29-0.34-0.71-0.58-1.2-0.64c-1.04-0.13-2,0.61-2.13,1.65
			c-0.13,1.04,0.61,2,1.65,2.13c1.04,0.13,2-0.61,2.13-1.65c0.04-0.29,0.03-0.63,0.03-0.63l5.49-3.13l-0.49-0.85L346.61,79.98z"/>
		<path class="st58" d="M355.95,79.02l-2.45,5.83l0,0c-0.44-0.09-0.92-0.03-1.35,0.22c-0.91,0.53-1.21,1.7-0.68,2.61
			c0.53,0.91,1.7,1.21,2.61,0.68c0.91-0.53,1.21-1.7,0.68-2.61c-0.15-0.25-0.36-0.52-0.36-0.52l2.45-5.83L355.95,79.02z"/>
		<path class="st58" d="M361.2,79.34l0.14,6.32l0,0c-0.44,0.1-0.85,0.35-1.14,0.75c-0.61,0.86-0.41,2.05,0.44,2.66
			c0.86,0.61,2.05,0.41,2.66-0.44c0.61-0.86,0.41-2.05-0.44-2.66c-0.24-0.17-0.54-0.33-0.54-0.33l-0.14-6.32L361.2,79.34z"/>
		<path class="st58" d="M374.78,82.5c-0.3,0-0.63,0.05-0.63,0.05l-3.82-5.04l-0.78,0.59l3.82,5.04l0,0
			c-0.3,0.34-0.49,0.79-0.48,1.27c0.01,1.05,0.86,1.9,1.91,1.89c1.05-0.01,1.9-0.86,1.89-1.91
			C376.69,83.34,375.83,82.49,374.78,82.5z"/>
		<path class="st58" d="M368.81,85.02c-0.28-0.1-0.61-0.17-0.61-0.17l-1.85-6.04l-0.94,0.29l1.85,6.04l0,0
			c-0.4,0.21-0.73,0.57-0.89,1.03c-0.36,0.99,0.16,2.08,1.15,2.44c0.99,0.36,2.08-0.16,2.44-1.15
			C370.31,86.47,369.8,85.38,368.81,85.02z"/>
		<path class="st59" d="M375.01,61.06c-0.54-0.11-1.67-0.27-3,0.07c-1.67,0.42-2.73,1.4-3.53,2.16c-1.49,1.42-1.27,1.97-2.64,3.17
			c-0.46,0.4-1.63,1.34-3.33,1.86c-1.7,0.52-2.21-0.17-5.71-0.17c-1.52,0-2.3,0.01-3.01,0.27c-2.38,0.87-3.39,3.2-3.55,3.56
			c-0.21,0.51-0.97,2.4-0.25,4.5c0.9,2.63,3.44,3.69,4.56,4.16c1.25,0.52,2.35,0.65,3.1,0.74c1.52,0.17,2.77,0.04,4.01-0.15
			c3.15-0.51,5.45-0.87,8.24-2.31c4.31-2.22,6.58-5.32,7.89-7.12c1.23-1.68,1.58-2.61,1.74-3.48c0.36-1.93-0.05-4.62-1.93-6.13
			C376.61,61.4,375.5,61.16,375.01,61.06z"/>
		<path class="st58" d="M374.6,63.02c-0.49-0.1-1.25-0.17-2.11,0.04c-1.2,0.3-1.97,1.03-2.64,1.67c-0.57,0.54-0.78,0.87-1.06,1.29
			c-0.33,0.51-0.74,1.14-1.64,1.93c-0.82,0.72-2.2,1.7-4.06,2.27c-1.36,0.42-2.3,0.28-3.3,0.14c-0.7-0.1-1.57-0.22-2.99-0.22
			c-1.3,0-1.94,0.01-2.32,0.14c-1.53,0.56-2.26,2.15-2.39,2.46c-0.26,0.62-0.39,1.23-0.4,1.83c0,0,0,0,0,0
			c-0.01,0.44,0.06,0.86,0.2,1.25c0.61,1.78,2.45,2.55,3.44,2.96c1.01,0.42,1.94,0.53,2.55,0.59c1.34,0.15,2.46,0.02,3.47-0.14
			c3.09-0.5,5.13-0.82,7.64-2.11c3.89-2,5.96-4.83,7.19-6.52c1.11-1.52,1.3-2.17,1.39-2.67c0.05-0.28,0.08-0.58,0.08-0.89
			c0.02-1.41-0.47-2.65-1.3-3.32C375.71,63.25,374.94,63.09,374.6,63.02z"/>
		<path class="st60" d="M372.49,64.87c-0.71-0.01-1.29,1.3-1.31,2.91c-0.02,1.62,0.54,2.94,1.24,2.94c0.71,0.01,1.29-1.3,1.31-2.91
			C373.75,66.19,373.2,64.87,372.49,64.87z"/>
		<path class="st60" d="M362.76,72.14c-0.71-0.01-1.29,1.3-1.31,2.91c-0.02,1.62,0.54,2.94,1.24,2.94c0.71,0.01,1.29-1.3,1.31-2.91
			C364.02,73.46,363.47,72.15,362.76,72.14z"/>
		<path class="st60" d="M355.07,72.51c-0.5-0.01-0.92,0.93-0.94,2.08c-0.01,1.16,0.38,2.1,0.89,2.1c0.5,0.01,0.92-0.93,0.94-2.08
			C355.97,73.45,355.57,72.51,355.07,72.51z"/>
		<path class="st60" d="M365.04,71.49c-0.37,0.31-0.1,1.26,0.62,2.11c0.71,0.86,1.6,1.3,1.97,0.99c0.37-0.31,0.1-1.26-0.62-2.11
			C366.3,71.62,365.41,71.18,365.04,71.49z"/>
		<path class="st60" d="M357.33,71.4c-0.37,0.31-0.1,1.26,0.62,2.11c0.71,0.86,1.6,1.3,1.97,0.99c0.37-0.31,0.1-1.26-0.62-2.11
			C358.59,71.53,357.71,71.09,357.33,71.4z"/>
		<path class="st22" d="M370.79,72.23c-0.47-0.01-0.86,0.37-0.87,0.85c-0.01,0.47,0.37,0.86,0.85,0.87
			c0.47,0.01,0.86-0.37,0.87-0.85C371.64,72.63,371.26,72.24,370.79,72.23z"/>
		<path class="st22" d="M366.06,75.21c-0.47-0.01-0.86,0.37-0.87,0.85c-0.01,0.47,0.37,0.86,0.85,0.87
			c0.47,0.01,0.86-0.37,0.87-0.85C366.91,75.61,366.53,75.22,366.06,75.21z"/>
		<path class="st22" d="M358.18,75.87c-0.47-0.01-0.86,0.37-0.87,0.85c-0.01,0.47,0.37,0.86,0.85,0.87
			c0.47,0.01,0.86-0.37,0.87-0.85C359.03,76.26,358.65,75.87,358.18,75.87z"/>
		<path class="st22" d="M360.55,71.09c-0.47-0.01-0.86,0.37-0.87,0.85s0.37,0.86,0.85,0.87c0.47,0.01,0.86-0.37,0.87-0.85
			C361.4,71.48,361.02,71.09,360.55,71.09z"/>
		<path class="st60" d="M369.1,68.61c-0.66-0.01-1.2,0.52-1.21,1.18c-0.01,0.66,0.52,1.2,1.18,1.21c0.66,0.01,1.2-0.52,1.21-1.18
			C370.28,69.15,369.75,68.61,369.1,68.61z"/>
		<path class="st22" d="M376.16,65.89c-0.47-0.01-0.86,0.37-0.87,0.85c-0.01,0.47,0.37,0.86,0.85,0.87
			c0.47,0.01,0.86-0.37,0.87-0.85C377.01,66.28,376.63,65.89,376.16,65.89z"/>
	</g>
	<g>
		<g>
			<path class="st61" d="M344.74,36.85c-0.42,0.23-0.48,0.72-0.13,1.1c0.1,0.11,0.23,0.22,0.23,0.22l-0.78,2.46l0.5,0.15l0.78-2.46
				l0,0c0.24,0.03,0.48,0,0.67-0.1c0.42-0.23,0.48-0.72,0.13-1.1C345.78,36.74,345.16,36.62,344.74,36.85z"/>
			<path class="st61" d="M350.99,49.09c-0.12,0.09-0.25,0.22-0.25,0.22l-3.2-0.94l-0.15,0.5l3.2,0.94l0,0
				c-0.02,0.24,0.04,0.49,0.19,0.69c0.33,0.44,0.96,0.54,1.41,0.2c0.44-0.33,0.54-0.96,0.2-1.41S351.44,48.76,350.99,49.09z"/>
			<path class="st61" d="M349.36,39.42c-0.55,0.07-0.94,0.57-0.88,1.12c0.02,0.15,0.06,0.33,0.06,0.33l-2.41,2.3l0.36,0.37l2.41-2.3
				l0,0c0.2,0.14,0.44,0.21,0.7,0.18c0.55-0.07,0.94-0.57,0.88-1.12C350.41,39.75,349.91,39.35,349.36,39.42z"/>
			<path class="st61" d="M352.34,43.77c-0.48-0.17-1.03,0.14-1.22,0.7c-0.05,0.16-0.09,0.34-0.09,0.34l-3.01,1.19l0.13,0.51
				l3.01-1.19l0,0c0.1,0.22,0.27,0.39,0.5,0.47c0.48,0.17,1.03-0.14,1.22-0.7C353.06,44.53,352.82,43.94,352.34,43.77z"/>
			<path class="st61" d="M334.11,44.12c-0.2-0.52-0.78-0.78-1.3-0.58c-0.52,0.2-0.78,0.78-0.58,1.3c0.2,0.52,0.78,0.78,1.3,0.58
				c0.24-0.09,0.43-0.27,0.53-0.48l0,0l3.21,0.91l0.14-0.5l-3.21-0.91C334.21,44.44,334.17,44.27,334.11,44.12z"/>
			<path class="st61" d="M340.79,38.32c0.35-0.43,0.28-1.06-0.15-1.41c-0.43-0.35-1.06-0.28-1.41,0.15
				c-0.35,0.43-0.28,1.06,0.15,1.41c0.2,0.16,0.45,0.23,0.68,0.22l0,0l0.82,3.23l0.5-0.13l-0.82-3.23
				C340.56,38.56,340.69,38.44,340.79,38.32z"/>
			<path class="st61" d="M336.46,39.97c0.1-0.42-0.21-0.86-0.69-0.97c-0.48-0.11-0.94,0.14-1.04,0.56c-0.1,0.42,0.21,0.86,0.69,0.97
				c0.22,0.05,0.44,0.03,0.62-0.06l0,0l1.95,2.07l0.34-0.25l-1.95-2.07C336.38,40.22,336.43,40.09,336.46,39.97z"/>
			<path class="st61" d="M341.14,52.62l-0.5-0.13l-0.86,3.22c0,0-0.17,0.04-0.32,0.1c-0.52,0.21-0.77,0.79-0.56,1.31
				c0.21,0.52,0.79,0.77,1.31,0.56c0.52-0.21,0.77-0.79,0.56-1.31c-0.1-0.24-0.28-0.42-0.49-0.53l0,0L341.14,52.62z"/>
			<path class="st61" d="M345.39,56.12c-0.19-0.15-0.43-0.22-0.66-0.21l0,0l-0.83-2.93l-0.48,0.11l0.83,2.93
				c0,0-0.12,0.11-0.21,0.22c-0.33,0.38-0.25,0.96,0.16,1.28s1.02,0.27,1.35-0.11C345.88,57.01,345.81,56.44,345.39,56.12z"/>
			<path class="st61" d="M349.37,53.41c-0.25-0.06-0.5-0.02-0.71,0.1l0,0l-2.15-2.55l-0.4,0.33l2.15,2.55c0,0-0.06,0.17-0.1,0.32
				c-0.13,0.54,0.21,1.08,0.75,1.21c0.54,0.13,1.08-0.21,1.21-0.75C350.25,54.07,349.92,53.53,349.37,53.41z"/>
			<path class="st61" d="M337.77,51.42l-2.11,1.96l0,0c-0.17-0.12-0.39-0.18-0.62-0.16c-0.48,0.05-0.83,0.48-0.76,0.95
				s0.51,0.81,0.99,0.76c0.48-0.05,0.83-0.48,0.77-0.95c-0.02-0.13-0.06-0.28-0.06-0.28l2.11-1.96L337.77,51.42z"/>
			<path class="st61" d="M333.73,49.2L333.73,49.2c-0.12-0.21-0.31-0.38-0.55-0.46c-0.52-0.18-1.1,0.1-1.28,0.62
				c-0.18,0.52,0.1,1.1,0.62,1.28c0.52,0.18,1.1-0.1,1.28-0.62c0.05-0.15,0.09-0.32,0.09-0.32l3.18-1.02l-0.16-0.49L333.73,49.2z"/>
		</g>
		<path class="st61" d="M342.42,39.83c-3.97,0-7.19,3.22-7.19,7.19s3.22,7.19,7.19,7.19s7.19-3.22,7.19-7.19
			S346.39,39.83,342.42,39.83z M337.15,47.48c-0.43-0.2-0.61-0.71-0.41-1.14c0.2-0.43,0.71-0.61,1.14-0.41
			c0.43,0.2,0.61,0.71,0.41,1.14C338.09,47.5,337.58,47.68,337.15,47.48z M339.04,50.65c-0.2,0.43-0.71,0.61-1.14,0.41
			c-0.43-0.2-0.61-0.71-0.41-1.14c0.2-0.43,0.71-0.61,1.14-0.41C339.06,49.7,339.24,50.22,339.04,50.65z M339.39,43.66
			c-0.2,0.43-0.71,0.61-1.14,0.41c-0.43-0.2-0.61-0.71-0.41-1.14c0.2-0.43,0.71-0.61,1.14-0.41
			C339.41,42.71,339.6,43.23,339.39,43.66z M339.71,45.19c0.2-0.43,0.71-0.61,1.14-0.41c0.43,0.2,0.61,0.71,0.41,1.14
			c-0.2,0.43-0.71,0.61-1.14,0.41S339.51,45.62,339.71,45.19z M340.1,48.4c0.2-0.43,0.71-0.61,1.14-0.41
			c0.43,0.2,0.61,0.71,0.41,1.14c-0.2,0.43-0.71,0.61-1.14,0.41C340.08,49.34,339.9,48.83,340.1,48.4z M342.22,52.15
			c-0.2,0.43-0.71,0.61-1.14,0.41s-0.61-0.71-0.41-1.14s0.71-0.61,1.14-0.41C342.24,51.2,342.42,51.72,342.22,52.15z M342.53,43.23
			c-0.2,0.43-0.71,0.61-1.14,0.41c-0.43-0.2-0.61-0.71-0.41-1.14c0.2-0.43,0.71-0.61,1.14-0.41
			C342.55,42.29,342.73,42.8,342.53,43.23z M342.86,41.33c0.2-0.43,0.71-0.61,1.14-0.41c0.43,0.2,0.61,0.71,0.41,1.14
			c-0.2,0.43-0.71,0.61-1.14,0.41C342.85,42.28,342.66,41.76,342.86,41.33z M344.85,46.03c-0.2,0.43-0.71,0.61-1.14,0.41
			c-0.43-0.2-0.61-0.71-0.41-1.14c0.2-0.43,0.71-0.61,1.14-0.41C344.87,45.09,345.06,45.6,344.85,46.03z M343.13,48.03
			c0.2-0.43,0.71-0.61,1.14-0.41c0.43,0.2,0.61,0.71,0.41,1.14c-0.2,0.43-0.71,0.61-1.14,0.41
			C343.12,48.97,342.93,48.46,343.13,48.03z M344.87,52.44c-0.2,0.43-0.71,0.61-1.14,0.41c-0.43-0.2-0.61-0.71-0.41-1.14
			c0.2-0.43,0.71-0.61,1.14-0.41C344.89,51.5,345.07,52.01,344.87,52.44z M344.59,43.1c0.2-0.43,0.71-0.61,1.14-0.41
			c0.43,0.2,0.61,0.71,0.41,1.14c-0.2,0.43-0.71,0.61-1.14,0.41C344.57,44.04,344.38,43.53,344.59,43.1z M346.89,50.17
			c-0.2,0.43-0.71,0.61-1.14,0.41c-0.43-0.2-0.61-0.71-0.41-1.14c0.2-0.43,0.71-0.61,1.14-0.41
			C346.91,49.23,347.09,49.74,346.89,50.17z M347.88,46.71c-0.2,0.43-0.71,0.61-1.14,0.41s-0.61-0.71-0.41-1.14
			c0.2-0.43,0.71-0.61,1.14-0.41C347.9,45.76,348.08,46.28,347.88,46.71z"/>
	</g>
	<g>
		<path class="st62" d="M313.31,65.56c-0.68-1.43-1.2-2.19-1.96-4.03c-0.53-1.3-0.8-1.96-0.75-2.58c0.14-1.6,1.53-2.7,2.53-3.45
			c1.71-1.3,2.47-1.1,5.31-2.52c1.66-0.83,2.68-1.34,3.87-2.36c1.51-1.29,2.25-2.58,3.75-5.15c0.62-1.07,0.93-1.74,0.83-2.58
			c-0.02-0.19-0.22-1.57-1.48-2.17c-0.91-0.43-2-0.27-2.66,0.29c-0.6,0.5-0.54,1.05-0.93,2.26c-0.07,0.22-0.79,2.38-2.21,3.87
			c-0.23,0.24-0.79,0.79-3.13,1.94c-2.77,1.36-3.26,1.21-4.79,2c-1.17,0.61-3.94,2.04-5.15,5.02c-1.02,2.5-0.46,4.88-0.29,5.58
			c0.23,0.98,0.4,1,2.36,4.92c1.84,3.69,1.95,4.2,1.92,4.85c-0.1,1.76-1.13,2.41-0.73,3.94c0.22,0.83,0.86,1.89,1.74,1.98
			c1.05,0.11,1.91-1.24,2.29-1.84c1.59-2.48,1.1-5.36,0.96-6.08C314.52,68.11,314.07,67.15,313.31,65.56z"/>
		<path class="st62" d="M326.86,38.71c0.36-0.27,0.44-0.78,0.17-1.14c-0.27-0.36-0.78-0.44-1.14-0.17
			c-0.36,0.27-0.44,0.78-0.17,1.14c0.08,0.1,0.17,0.18,0.28,0.23l-0.1-0.03l-0.77,2.59l0.4,0.12l0.77-2.59l0,0
			C326.49,38.89,326.69,38.84,326.86,38.71z"/>
		<path class="st62" d="M329.51,41.4c-0.41-0.19-0.89-0.01-1.08,0.39c-0.05,0.11-0.08,0.23-0.08,0.35l-0.02-0.1l-2.65,0.55
			l0.09,0.41l2.65-0.55l0,0c0.08,0.18,0.21,0.33,0.4,0.42c0.41,0.19,0.89,0.01,1.08-0.39C330.1,42.07,329.92,41.59,329.51,41.4z"/>
		<path class="st62" d="M329.07,45.44c-0.33-0.31-0.84-0.29-1.15,0.04c-0.09,0.09-0.15,0.2-0.18,0.31l0.01-0.1l-2.69-0.3l-0.05,0.42
			l2.69,0.3l0,0c0.02,0.19,0.1,0.38,0.25,0.53c0.33,0.31,0.84,0.29,1.15-0.04C329.41,46.27,329.4,45.75,329.07,45.44z"/>
		<path class="st62" d="M321.23,39.72c0.07-0.09,0.13-0.2,0.16-0.33c0.1-0.44-0.18-0.87-0.62-0.97c-0.44-0.1-0.87,0.18-0.97,0.62
			c-0.1,0.44,0.18,0.87,0.62,0.97c0.2,0.05,0.41,0.01,0.58-0.09l0,0l1.76,2.06l0.32-0.27l-1.76-2.06L321.23,39.72z"/>
		<path class="st62" d="M319.75,42.79c0.04-0.11,0.06-0.23,0.05-0.36c-0.04-0.45-0.44-0.78-0.89-0.73
			c-0.45,0.04-0.78,0.44-0.73,0.89c0.04,0.45,0.44,0.78,0.89,0.73c0.21-0.02,0.39-0.12,0.52-0.26l0,0l2.31,1.41l0.22-0.36
			l-2.31-1.41L319.75,42.79z"/>
		<path class="st62" d="M318.19,45.5c0.04-0.11,0.06-0.23,0.05-0.36c-0.04-0.45-0.44-0.78-0.89-0.73c-0.45,0.04-0.78,0.44-0.73,0.89
			c0.04,0.45,0.44,0.78,0.89,0.73c0.21-0.02,0.39-0.12,0.52-0.26l0,0l2.31,1.41l0.22-0.36l-2.31-1.41L318.19,45.5z"/>
		<path class="st62" d="M315.92,47.21c0.09-0.07,0.17-0.17,0.22-0.28c0.19-0.41,0.02-0.89-0.39-1.09c-0.41-0.19-0.89-0.02-1.09,0.39
			c-0.19,0.41-0.02,0.89,0.39,1.09c0.19,0.09,0.4,0.1,0.58,0.04l0,0l1.26,2.39l0.37-0.2l-1.26-2.39L315.92,47.21z"/>
		<path class="st62" d="M313.01,48.7c0.11-0.03,0.22-0.08,0.32-0.17c0.34-0.29,0.38-0.81,0.09-1.15c-0.29-0.34-0.81-0.38-1.15-0.09
			s-0.38,0.81-0.09,1.15c0.14,0.16,0.32,0.25,0.51,0.28l0,0l0.17,2.7l0.42-0.03l-0.17-2.7L313.01,48.7z"/>
		<path class="st62" d="M310.41,50.44c0.11-0.03,0.22-0.08,0.32-0.17c0.34-0.29,0.38-0.81,0.09-1.15c-0.29-0.34-0.81-0.38-1.15-0.09
			c-0.34,0.29-0.38,0.81-0.09,1.15c0.14,0.16,0.32,0.25,0.51,0.28l0,0l0.17,2.7l0.42-0.03l-0.17-2.7L310.41,50.44z"/>
		<path class="st62" d="M307.63,52.62c0.1-0.06,0.2-0.14,0.27-0.24c0.26-0.37,0.17-0.88-0.2-1.14c-0.37-0.26-0.88-0.17-1.14,0.2
			c-0.26,0.37-0.17,0.88,0.2,1.14c0.17,0.12,0.37,0.17,0.57,0.14l0,0l0.83,2.57l0.4-0.13l-0.83-2.57L307.63,52.62z"/>
		<path class="st62" d="M305.46,54.95c0.07-0.1,0.11-0.21,0.13-0.34c0.06-0.45-0.25-0.86-0.69-0.92c-0.45-0.06-0.86,0.25-0.92,0.69
			c-0.06,0.45,0.25,0.86,0.69,0.92c0.21,0.03,0.41-0.02,0.57-0.13l0,0l1.91,1.91l0.3-0.3l-1.91-1.91L305.46,54.95z"/>
		<path class="st62" d="M304.29,57.91l-0.03,0.1c0.02-0.12,0.01-0.24-0.03-0.36c-0.13-0.43-0.59-0.67-1.02-0.54
			c-0.43,0.13-0.67,0.59-0.54,1.02c0.13,0.43,0.59,0.67,1.02,0.54c0.2-0.06,0.36-0.19,0.46-0.36l0,0l2.55,0.91l0.14-0.4
			L304.29,57.91z"/>
		<path class="st62" d="M307.38,61.78l0-0.42l-2.7,0.02l0,0.1c-0.02-0.12-0.07-0.23-0.15-0.33c-0.27-0.36-0.78-0.43-1.14-0.16
			c-0.36,0.27-0.43,0.78-0.16,1.14c0.27,0.36,0.78,0.43,1.14,0.16c0.17-0.13,0.27-0.31,0.31-0.5l0,0L307.38,61.78z"/>
		<path class="st62" d="M308.48,65.37l0-0.42l-2.7,0.02l0,0.1c-0.02-0.12-0.07-0.23-0.15-0.33c-0.27-0.36-0.78-0.43-1.14-0.16
			c-0.36,0.27-0.43,0.78-0.16,1.14s0.78,0.43,1.14,0.16c0.17-0.13,0.27-0.31,0.31-0.5l0,0L308.48,65.37z"/>
		<path class="st62" d="M309.66,67.35l-0.17-0.39l-2.48,1.07l0.04,0.09c-0.07-0.1-0.16-0.18-0.27-0.25
			c-0.39-0.22-0.89-0.09-1.11,0.3c-0.22,0.39-0.09,0.89,0.3,1.11s0.89,0.09,1.11-0.3c0.1-0.18,0.13-0.39,0.09-0.58l0,0L309.66,67.35
			z"/>
		<path class="st62" d="M310.93,70.45l-0.17-0.39l-2.48,1.07l0.04,0.09c-0.07-0.1-0.16-0.18-0.27-0.25
			c-0.39-0.22-0.89-0.09-1.11,0.3c-0.22,0.39-0.09,0.89,0.3,1.11c0.39,0.22,0.89,0.09,1.11-0.3c0.1-0.18,0.13-0.39,0.09-0.58l0,0
			L310.93,70.45z"/>
		<path class="st62" d="M310.81,73.77l-0.17-0.39l-2.48,1.07l0.04,0.09c-0.07-0.1-0.16-0.18-0.27-0.25
			c-0.39-0.22-0.89-0.09-1.11,0.3c-0.22,0.39-0.09,0.89,0.3,1.11s0.89,0.09,1.11-0.3c0.1-0.18,0.13-0.39,0.09-0.58l0,0L310.81,73.77
			z"/>
		<path class="st62" d="M326.05,48.93c-0.12,0.05-0.22,0.12-0.3,0.2l0.05-0.09l-2.29-1.44l-0.22,0.36l2.29,1.44l0,0
			c-0.07,0.18-0.08,0.39,0,0.58c0.16,0.42,0.63,0.63,1.05,0.47c0.42-0.16,0.63-0.63,0.47-1.05
			C326.94,48.97,326.47,48.76,326.05,48.93z"/>
		<path class="st62" d="M323.7,51.72c-0.13,0.01-0.24,0.06-0.34,0.12l0.07-0.07l-1.85-1.97l-0.31,0.29l1.85,1.97l0,0
			c-0.11,0.16-0.17,0.36-0.15,0.56c0.05,0.45,0.45,0.77,0.9,0.72c0.45-0.05,0.77-0.45,0.72-0.9
			C324.55,51.99,324.15,51.67,323.7,51.72z"/>
		<path class="st62" d="M320.84,53.93c-0.13,0-0.25,0.03-0.35,0.08l0.08-0.06l-1.61-2.17l-0.34,0.25l1.61,2.17l0,0
			c-0.13,0.14-0.21,0.33-0.21,0.54c0,0.45,0.36,0.82,0.81,0.82c0.45,0,0.82-0.36,0.82-0.81C321.66,54.3,321.29,53.94,320.84,53.93z"
			/>
		<path class="st62" d="M317.67,55.52c-0.13,0.01-0.24,0.05-0.34,0.11l0.08-0.07l-1.8-2.02l-0.31,0.28l1.8,2.02l0,0
			c-0.12,0.15-0.18,0.35-0.16,0.56c0.04,0.45,0.43,0.78,0.88,0.74c0.45-0.04,0.78-0.43,0.74-0.88
			C318.51,55.82,318.12,55.49,317.67,55.52z"/>
		<path class="st62" d="M314.76,56.87c-0.12,0.02-0.24,0.08-0.33,0.15l0.07-0.08l-2.01-1.81l-0.28,0.31l2.01,1.81l0,0
			c-0.1,0.17-0.14,0.37-0.1,0.57c0.09,0.44,0.51,0.73,0.96,0.64c0.44-0.09,0.73-0.51,0.64-0.96
			C315.63,57.08,315.21,56.79,314.76,56.87z"/>
		<path class="st62" d="M314.24,59.42c-0.25-0.37-0.76-0.47-1.13-0.21c-0.1,0.07-0.19,0.16-0.25,0.27l0.03-0.1l-2.56-0.87l-0.14,0.4
			l2.56,0.87l0,0c-0.03,0.19,0.02,0.39,0.13,0.57c0.25,0.37,0.76,0.47,1.13,0.21C314.4,60.3,314.49,59.79,314.24,59.42z"/>
		<path class="st62" d="M314.9,61.52c-0.42-0.16-0.89,0.04-1.06,0.46c-0.05,0.12-0.06,0.24-0.05,0.36l-0.03-0.1l-2.61,0.72l0.11,0.4
			l2.61-0.72l0,0c0.09,0.17,0.23,0.32,0.43,0.39c0.42,0.16,0.89-0.04,1.06-0.46C315.52,62.16,315.32,61.69,314.9,61.52z"/>
		<path class="st62" d="M316.24,64.33c-0.43-0.12-0.88,0.14-1,0.58c-0.03,0.12-0.04,0.24-0.01,0.36l-0.04-0.09l-2.51,1l0.16,0.39
			l2.51-1l0,0c0.11,0.16,0.27,0.29,0.47,0.34c0.43,0.12,0.88-0.14,1-0.58C316.93,64.9,316.67,64.45,316.24,64.33z"/>
		<path class="st62" d="M317.36,67.66c-0.4-0.2-0.89-0.03-1.09,0.37c-0.06,0.11-0.08,0.23-0.08,0.35l-0.02-0.1l-2.66,0.5l0.08,0.41
			l2.66-0.5l0,0c0.07,0.18,0.21,0.34,0.4,0.43c0.4,0.2,0.89,0.03,1.09-0.37C317.93,68.34,317.77,67.86,317.36,67.66z"/>
		<path class="st62" d="M318.03,71.48c-0.32-0.32-0.84-0.31-1.15,0c-0.09,0.09-0.15,0.2-0.19,0.31l0.01-0.1l-2.68-0.37l-0.06,0.42
			l2.68,0.37l0,0c0.01,0.19,0.09,0.38,0.24,0.53c0.32,0.32,0.84,0.31,1.15,0S318.35,71.8,318.03,71.48z"/>
		<path class="st62" d="M315.85,75.11c-0.12,0.04-0.23,0.1-0.31,0.18l0.06-0.08l-2.18-1.59l-0.25,0.34l2.18,1.59l0,0
			c-0.08,0.18-0.1,0.38-0.04,0.58c0.13,0.43,0.59,0.67,1.02,0.54c0.43-0.13,0.67-0.59,0.54-1.02
			C316.74,75.22,316.28,74.98,315.85,75.11z"/>
		<path class="st62" d="M313.79,78.19c-0.12-0.02-0.25-0.02-0.36,0.01l0.09-0.04l-1.19-2.43l-0.38,0.19l1.19,2.43l0,0
			c-0.15,0.12-0.27,0.29-0.31,0.5c-0.08,0.44,0.21,0.87,0.65,0.95c0.44,0.08,0.87-0.21,0.95-0.65
			C314.52,78.7,314.23,78.27,313.79,78.19z"/>
		<path class="st62" d="M310.07,78.76c-0.06-0.11-0.14-0.2-0.23-0.28l0.09,0.04l1.18-2.43l-0.38-0.18l-1.18,2.43l0,0
			c-0.19-0.05-0.39-0.03-0.58,0.06c-0.4,0.21-0.56,0.7-0.35,1.1s0.7,0.56,1.1,0.35C310.12,79.65,310.28,79.16,310.07,78.76z"/>
		<path class="st63" d="M324.64,43.21c-0.2-0.27-0.57-0.32-0.84-0.12s-0.32,0.57-0.12,0.84c0.2,0.27,0.57,0.32,0.84,0.12
			C324.79,43.86,324.84,43.48,324.64,43.21z"/>
		<path class="st63" d="M323.09,46.4c-0.2-0.27-0.57-0.32-0.84-0.12s-0.32,0.57-0.12,0.84c0.2,0.27,0.57,0.32,0.84,0.12
			C323.24,47.04,323.29,46.66,323.09,46.4z"/>
		<path class="st63" d="M320.09,49.39c-0.2-0.27-0.57-0.32-0.84-0.12s-0.32,0.57-0.12,0.84c0.2,0.27,0.57,0.32,0.84,0.12
			S320.29,49.65,320.09,49.39z"/>
		<path class="st63" d="M316.16,51.27c-0.2-0.27-0.57-0.32-0.84-0.12s-0.32,0.57-0.12,0.84c0.2,0.27,0.57,0.32,0.84,0.12
			C316.3,51.91,316.36,51.54,316.16,51.27z"/>
		<path class="st63" d="M312.07,53.58c-0.2-0.27-0.57-0.32-0.84-0.12c-0.27,0.2-0.32,0.57-0.12,0.84c0.2,0.27,0.57,0.32,0.84,0.12
			S312.26,53.84,312.07,53.58z"/>
		<path class="st63" d="M309.01,56.89c-0.2-0.27-0.57-0.32-0.84-0.12c-0.27,0.2-0.32,0.57-0.12,0.84c0.2,0.27,0.57,0.32,0.84,0.12
			C309.15,57.53,309.21,57.16,309.01,56.89z"/>
		<path class="st63" d="M309.21,60.99c-0.2-0.27-0.57-0.32-0.84-0.12c-0.27,0.2-0.32,0.57-0.12,0.84c0.2,0.27,0.57,0.32,0.84,0.12
			C309.35,61.63,309.41,61.25,309.21,60.99z"/>
		<path class="st63" d="M311.06,64.98c-0.2-0.27-0.57-0.32-0.84-0.12c-0.27,0.2-0.32,0.57-0.12,0.84c0.2,0.27,0.57,0.32,0.84,0.12
			C311.21,65.62,311.26,65.24,311.06,64.98z"/>
		<path class="st63" d="M312.74,69.1c-0.2-0.27-0.57-0.32-0.84-0.12c-0.27,0.2-0.32,0.57-0.12,0.84c0.2,0.27,0.57,0.32,0.84,0.12
			C312.88,69.74,312.94,69.37,312.74,69.1z"/>
		<path class="st63" d="M312.75,73.4c-0.2-0.27-0.57-0.32-0.84-0.12c-0.27,0.2-0.32,0.57-0.12,0.84c0.2,0.27,0.57,0.32,0.84,0.12
			C312.89,74.04,312.94,73.67,312.75,73.4z"/>
	</g>
</g>
</svg>
