<?xml version="1.0" encoding="utf-8"?>
<!-- Generator: Adobe Illustrator 28.0.0, SVG Export Plug-In . SVG Version: 6.00 Build 0)  -->
<svg version="1.1" id="Layer_1" xmlns="http://www.w3.org/2000/svg" xmlns:xlink="http://www.w3.org/1999/xlink" x="0px" y="0px"
	 viewBox="0 0 595 170" style="enable-background:new 0 0 595 170;" xml:space="preserve">
<style type="text/css">
	.st0{fill:#CEECFB;}
	.st1{fill:#E6F5FC;}
	.st2{fill:none;stroke:#FFFFFF;stroke-width:1.0383;stroke-miterlimit:10;}
	.st3{fill:#FFFFFF;}
	.st4{fill:#B2DAF0;}
	.st5{fill:#C6E5F8;}
	.st6{fill:#9BD4EE;}
	.st7{fill:#86C2E6;}
	.st8{fill:#2A3886;}
	.st9{fill:#283271;}
	.st10{fill:#2E4199;}
	.st11{fill:#6DC1E4;}
	.st12{fill:#6CA1D6;}
	.st13{fill:#568BC9;}
	.st14{fill:#3A4EA1;}
	.st15{fill:#16AFDA;}
	.st16{fill:#04A7A7;}
	.st17{fill:#30BEC7;}
	.st18{fill:none;stroke:#FFFFFF;stroke-width:0.9164;stroke-linecap:round;stroke-linejoin:round;stroke-miterlimit:10;}
	.st19{fill:none;stroke:#FFFFFF;stroke-width:0.9573;stroke-linecap:round;stroke-linejoin:round;stroke-miterlimit:10;}
	.st20{fill:none;stroke:#FFFFFF;stroke-width:0.9511;stroke-linecap:round;stroke-linejoin:round;stroke-miterlimit:10;}
	.st21{fill:none;stroke:#FFFFFF;stroke-width:0.953;stroke-linecap:round;stroke-linejoin:round;stroke-miterlimit:10;}
	.st22{fill:none;stroke:#FFFFFF;stroke-width:0.9572;stroke-linecap:round;stroke-linejoin:round;stroke-miterlimit:10;}
	.st23{fill:#4FC3CE;}
	.st24{fill:none;stroke:#FFFFFF;stroke-width:0.9507;stroke-linecap:round;stroke-linejoin:round;stroke-miterlimit:10;}
	.st25{fill:#FFC906;}
	.st26{fill:#D9AE28;}
	.st27{fill:#FFDE56;}
	.st28{fill:#203E51;}
	.st29{fill:#345370;}
	.st30{fill:#446B8B;}
	.st31{fill:#EC9882;}
	.st32{fill-rule:evenodd;clip-rule:evenodd;fill:#FFFFFF;}
	.st33{fill-rule:evenodd;clip-rule:evenodd;fill:#EC9882;}
	.st34{fill-rule:evenodd;clip-rule:evenodd;fill:#203E51;}
	.st35{fill-rule:evenodd;clip-rule:evenodd;fill:#005F8A;}
	.st36{fill-rule:evenodd;clip-rule:evenodd;fill:#F6BB9D;}
	.st37{fill-rule:evenodd;clip-rule:evenodd;fill:#007DB3;}
	.st38{fill-rule:evenodd;clip-rule:evenodd;fill:#345370;}
	.st39{fill-rule:evenodd;clip-rule:evenodd;fill:#5F3B16;}
	.st40{fill:#F6BB9D;}
	.st41{fill-rule:evenodd;clip-rule:evenodd;fill:#446B8B;}
	.st42{fill-rule:evenodd;clip-rule:evenodd;fill:#FFDE56;}
	.st43{fill-rule:evenodd;clip-rule:evenodd;fill:#F3DB77;}
	.st44{fill:#D6ECE6;}
	.st45{fill:#AEDCCE;}
	.st46{fill:#7DC9A9;}
	.st47{fill:#EA8D6C;}
	.st48{fill:#DC8063;}
	.st49{fill:#4E2819;}
	.st50{fill:#F6F7F7;}
	.st51{fill:#C36252;}
	.st52{fill:#FFFFFB;}
	.st53{fill:#351604;}
	.st54{fill:#E9EAED;}
	.st55{fill:#F27E96;}
	.st56{fill:#F9F9FC;}
	.st57{clip-path:url(#SVGID_00000134964768030148217720000006639076851789381544_);}
	.st58{fill:#27213A;}
	.st59{fill:#EC1981;}
	.st60{fill:#3FC4E3;}
	.st61{fill:#F5871F;}
	.st62{fill:#534E62;}
	.st63{fill:#B45358;}
	.st64{fill:#E7A439;}
</style>
<g>
	<rect x="0" class="st0" width="595" height="170"/>
	<path class="st1" d="M162.56,30.17c50.29-21.95,115.65-20.41,152.58,6.48c18.95,13.8,48.19,25.09,72.92,16.2
		c93.27-33.52,134.03,84.49,61.58,108.68c-1.93,0.64-309.16,1.99-312.72,0C87.9,134.28,88.82,62.35,162.56,30.17z"/>
	<g>
		<g>
			<g>
				<g>
					<g>
						<g>
							<path class="st2" d="M504.75,48.81c0,0-0.35,0.04-0.88,0.09c-0.26,0.02-0.57,0.06-0.9,0.09c-0.33,0.02-0.69,0.04-1.04,0.06
								c-0.35,0.02-0.71,0.04-1.04,0.05c-0.33,0-0.64,0-0.91,0c-0.53,0-0.89,0-0.89,0"/>
						</g>
						<g>
							<path class="st2" d="M496.25,48.98c0,0-0.35-0.03-0.88-0.08c-0.13-0.01-0.28-0.02-0.43-0.04c-0.15-0.01-0.31-0.03-0.48-0.05
								c-0.33-0.05-0.68-0.09-1.03-0.14c-0.18-0.02-0.35-0.05-0.52-0.07c-0.09-0.01-0.17-0.02-0.26-0.04
								c-0.08-0.02-0.17-0.03-0.25-0.04c-0.33-0.06-0.63-0.12-0.89-0.16c-0.26-0.05-0.48-0.09-0.63-0.12
								c-0.15-0.03-0.24-0.05-0.24-0.05"/>
						</g>
						<g>
							<path class="st2" d="M487.88,47.53c0,0-0.34-0.09-0.86-0.23c-0.51-0.15-1.19-0.37-1.86-0.58c-0.67-0.22-1.34-0.47-1.84-0.64
								c-0.25-0.09-0.46-0.17-0.6-0.23c-0.14-0.06-0.23-0.09-0.23-0.09"/>
						</g>
						<g>
							<path class="st2" d="M479.86,44.68c0,0-0.33-0.13-0.81-0.36c-0.24-0.11-0.52-0.24-0.83-0.38c-0.15-0.07-0.31-0.14-0.47-0.21
								c-0.16-0.08-0.32-0.15-0.48-0.23c-0.64-0.31-1.28-0.62-1.75-0.87c-0.47-0.24-0.79-0.41-0.79-0.41"/>
						</g>
						<g>
							<path class="st2" d="M472.25,40.88c0,0-0.31-0.17-0.77-0.43c-0.23-0.13-0.5-0.28-0.79-0.44c-0.29-0.17-0.6-0.34-0.9-0.52
								c-0.62-0.35-1.23-0.71-1.68-0.98c-0.46-0.27-0.76-0.45-0.76-0.45"/>
						</g>
						<g>
							<line class="st2" x1="464.9" y1="36.58" x2="460.04" y2="33.64"/>
						</g>
						<g>
							<path class="st2" d="M457.61,32.19c0,0-0.31-0.18-0.76-0.45c-0.46-0.27-1.07-0.62-1.69-0.98c-0.62-0.35-1.24-0.7-1.7-0.96
								c-0.23-0.13-0.43-0.24-0.56-0.31c-0.14-0.07-0.21-0.12-0.21-0.12"/>
						</g>
						<g>
							<path class="st2" d="M450.17,28.04c0,0-0.31-0.16-0.79-0.41c-0.48-0.24-1.11-0.55-1.75-0.87c-1.28-0.62-2.57-1.2-2.57-1.2"/>
						</g>
						<g>
							<path class="st2" d="M442.46,24.44c0,0-1.31-0.54-2.64-1.04c-1.33-0.5-2.67-0.96-2.67-0.96"/>
						</g>
						<g>
							<path class="st2" d="M434.44,21.58c0,0-1.36-0.41-2.73-0.77c-0.69-0.18-1.38-0.35-1.89-0.46c-0.26-0.06-0.48-0.11-0.63-0.14
								c-0.15-0.03-0.24-0.05-0.24-0.05"/>
						</g>
						<g>
							<path class="st2" d="M426.17,19.62c0,0-0.35-0.06-0.88-0.14c-0.26-0.04-0.57-0.09-0.9-0.13c-0.33-0.05-0.68-0.09-1.03-0.13
								c-0.35-0.04-0.71-0.08-1.04-0.12c-0.33-0.03-0.64-0.06-0.91-0.08c-0.53-0.04-0.88-0.07-0.88-0.07"/>
						</g>
						<g>
							<path class="st2" d="M417.7,18.85c0,0-1.42-0.01-2.84,0.09c-0.71,0.04-1.41,0.12-1.94,0.18c-0.53,0.07-0.88,0.11-0.88,0.11"
								/>
						</g>
						<g>
							<path class="st2" d="M409.25,19.75c0,0-0.09,0.02-0.24,0.06c-0.08,0.02-0.17,0.04-0.27,0.06c-0.1,0.03-0.22,0.06-0.35,0.09
								c-0.13,0.03-0.27,0.07-0.42,0.11c-0.15,0.04-0.3,0.09-0.46,0.13c-0.32,0.09-0.66,0.2-0.99,0.31
								c-0.34,0.11-0.67,0.24-0.98,0.35c-0.31,0.12-0.6,0.23-0.85,0.33c-0.24,0.1-0.45,0.19-0.59,0.25
								c-0.07,0.03-0.13,0.06-0.16,0.07c-0.04,0.02-0.06,0.03-0.06,0.03"/>
						</g>
						<g>
							<path class="st2" d="M401.36,22.85c0,0-0.31,0.17-0.76,0.46c-0.45,0.28-1.04,0.68-1.61,1.1c-0.28,0.21-0.56,0.43-0.82,0.64
								c-0.25,0.21-0.5,0.41-0.7,0.58c-0.2,0.18-0.36,0.32-0.48,0.43c-0.06,0.05-0.1,0.09-0.13,0.12c-0.03,0.03-0.05,0.04-0.05,0.04
								"/>
						</g>
						<g>
							<path class="st2" d="M394.84,28.27c0,0-0.23,0.27-0.58,0.67c-0.08,0.1-0.18,0.21-0.28,0.33c-0.09,0.12-0.19,0.25-0.29,0.38
								c-0.2,0.26-0.42,0.55-0.63,0.83c-0.2,0.3-0.39,0.59-0.58,0.87c-0.09,0.14-0.18,0.27-0.27,0.4c-0.08,0.13-0.15,0.26-0.22,0.37
								c-0.27,0.46-0.45,0.77-0.45,0.77"/>
						</g>
						<g>
							<path class="st2" d="M390.33,35.45c0,0-0.03,0.08-0.1,0.22c-0.07,0.14-0.13,0.35-0.22,0.6c-0.09,0.25-0.19,0.54-0.3,0.86
								c-0.09,0.32-0.19,0.66-0.29,1c-0.05,0.17-0.1,0.34-0.14,0.51c-0.04,0.17-0.07,0.34-0.11,0.5c-0.07,0.33-0.15,0.63-0.19,0.89
								c-0.08,0.53-0.14,0.88-0.14,0.88"/>
						</g>
						<g>
							<path class="st2" d="M388.59,43.73c0,0,0,0.09-0.01,0.24c-0.01,0.16,0,0.38,0,0.64c0,0.27,0.01,0.58,0.01,0.91
								c0.02,0.33,0.05,0.69,0.07,1.04c0.02,0.35,0.07,0.71,0.1,1.04c0.04,0.33,0.07,0.64,0.12,0.9c0.09,0.52,0.15,0.87,0.15,0.87"
								/>
						</g>
						<g>
							<path class="st2" d="M389.68,52.14c0,0,0.02,0.09,0.06,0.24c0.04,0.15,0.11,0.36,0.19,0.61c0.08,0.25,0.18,0.55,0.28,0.87
								c0.11,0.31,0.24,0.64,0.36,0.98c0.06,0.17,0.12,0.33,0.19,0.5c0.07,0.16,0.13,0.32,0.2,0.47c0.13,0.31,0.25,0.59,0.35,0.84
								c0.23,0.48,0.38,0.8,0.38,0.8"/>
						</g>
						<g>
							<path class="st2" d="M393,59.96c0,0,0.04,0.08,0.12,0.21c0.08,0.13,0.18,0.33,0.32,0.56c0.14,0.23,0.3,0.49,0.48,0.77
								c0.09,0.14,0.18,0.29,0.27,0.43c0.1,0.14,0.2,0.29,0.3,0.44c0.2,0.29,0.39,0.59,0.59,0.86c0.2,0.27,0.38,0.52,0.54,0.73
								c0.16,0.22,0.29,0.39,0.39,0.51c0.1,0.12,0.15,0.19,0.15,0.19"/>
						</g>
						<g>
							<path class="st2" d="M397.97,66.85c0,0,0.24,0.26,0.6,0.66c0.09,0.1,0.18,0.21,0.29,0.32c0.11,0.11,0.22,0.22,0.33,0.34
								c0.23,0.24,0.48,0.49,0.73,0.74c0.52,0.49,1.02,0.99,1.42,1.34c0.4,0.35,0.66,0.59,0.66,0.59"/>
						</g>
						<g>
							<path class="st2" d="M404.21,72.62c0,0,0.07,0.05,0.19,0.15c0.13,0.09,0.31,0.22,0.52,0.37c0.22,0.15,0.47,0.33,0.74,0.53
								c0.28,0.18,0.57,0.38,0.87,0.57c0.29,0.2,0.6,0.38,0.88,0.55c0.28,0.17,0.55,0.34,0.78,0.47c0.46,0.26,0.77,0.43,0.77,0.43"
								/>
						</g>
						<g>
							<path class="st2" d="M411.51,76.97c0,0,0.08,0.04,0.22,0.1c0.14,0.06,0.34,0.16,0.59,0.26c0.25,0.1,0.53,0.22,0.84,0.34
								c0.08,0.03,0.16,0.06,0.23,0.1c0.08,0.03,0.16,0.06,0.24,0.09c0.16,0.06,0.33,0.12,0.5,0.18c0.66,0.25,1.35,0.44,1.86,0.6
								c0.25,0.08,0.47,0.12,0.62,0.17c0.15,0.04,0.24,0.06,0.24,0.06"/>
						</g>
						<g>
							<path class="st2" d="M419.63,79.42c0,0,0.09,0.01,0.24,0.04c0.15,0.02,0.37,0.06,0.64,0.08c0.26,0.03,0.57,0.06,0.9,0.09
								c0.17,0.02,0.34,0.03,0.51,0.04c0.17,0.01,0.35,0.02,0.53,0.03c0.18,0.01,0.35,0.02,0.53,0.03c0.17,0,0.35,0,0.51,0
								c0.33,0,0.64,0,0.91-0.01c0.53-0.03,0.88-0.06,0.88-0.06"/>
						</g>
						<g>
							<path class="st2" d="M428.1,79.27c0,0,0.09-0.02,0.24-0.04c0.15-0.02,0.37-0.09,0.62-0.15c0.26-0.07,0.56-0.14,0.88-0.23
								c0.32-0.1,0.65-0.21,0.99-0.32c0.08-0.03,0.17-0.05,0.25-0.08c0.08-0.03,0.16-0.06,0.25-0.09c0.16-0.06,0.32-0.13,0.48-0.19
								c0.31-0.13,0.6-0.23,0.84-0.35c0.48-0.23,0.8-0.38,0.8-0.38"/>
						</g>
						<g>
							<path class="st2" d="M435.91,76.02c0,0,0.07-0.05,0.21-0.13c0.13-0.08,0.31-0.22,0.52-0.37c0.21-0.16,0.47-0.34,0.73-0.54
								c0.26-0.2,0.53-0.44,0.81-0.66c0.14-0.11,0.27-0.23,0.41-0.34c0.13-0.11,0.25-0.23,0.38-0.35c0.24-0.23,0.47-0.44,0.66-0.62
								c0.2-0.18,0.35-0.34,0.45-0.46c0.11-0.11,0.17-0.18,0.17-0.18"/>
						</g>
						<g>
							<path class="st2" d="M442.09,70.22c0,0,0.05-0.07,0.14-0.2c0.05-0.06,0.1-0.14,0.16-0.23c0.03-0.04,0.07-0.09,0.1-0.14
								c0.03-0.05,0.07-0.11,0.1-0.16c0.14-0.23,0.31-0.49,0.48-0.77c0.17-0.29,0.33-0.6,0.5-0.91c0.09-0.15,0.16-0.32,0.23-0.48
								c0.07-0.16,0.14-0.32,0.21-0.47c0.15-0.3,0.24-0.59,0.34-0.84c0.09-0.25,0.18-0.45,0.22-0.6c0.04-0.15,0.07-0.23,0.07-0.23"
								/>
						</g>
						<g>
							<path class="st2" d="M445.28,62.43c0,0,0-0.02,0.01-0.06c0.01-0.04,0.02-0.1,0.02-0.18c0.01-0.15,0.04-0.38,0.06-0.64
								c0.01-0.13,0.03-0.28,0.04-0.43c0.01-0.15,0.01-0.31,0.02-0.48c0.01-0.17,0.01-0.34,0.02-0.51c0-0.17-0.01-0.35-0.01-0.53
								c0-0.18-0.01-0.35-0.01-0.53c-0.01-0.17-0.03-0.35-0.04-0.51c-0.03-0.33-0.05-0.64-0.09-0.9c-0.04-0.26-0.07-0.48-0.09-0.64
								c-0.01-0.08-0.02-0.14-0.03-0.18c-0.01-0.04-0.01-0.06-0.01-0.06"/>
						</g>
						<g>
							<path class="st2" d="M444.47,54.02c0,0-0.03-0.08-0.07-0.23c-0.02-0.07-0.05-0.16-0.09-0.27c-0.04-0.1-0.08-0.22-0.13-0.34
								c-0.05-0.12-0.1-0.26-0.15-0.4c-0.05-0.14-0.11-0.29-0.18-0.45c-0.13-0.3-0.27-0.63-0.42-0.95
								c-0.16-0.32-0.31-0.64-0.46-0.94c-0.16-0.29-0.31-0.56-0.44-0.8c-0.12-0.24-0.25-0.42-0.33-0.55
								c-0.08-0.13-0.13-0.21-0.13-0.21"/>
						</g>
						<g>
							<path class="st2" d="M440.47,46.56c0,0-0.22-0.27-0.56-0.69c-0.04-0.05-0.09-0.11-0.13-0.16c-0.05-0.05-0.1-0.11-0.15-0.17
								c-0.1-0.11-0.21-0.23-0.32-0.36c-0.11-0.12-0.22-0.25-0.34-0.38c-0.12-0.12-0.25-0.25-0.37-0.38
								c-0.12-0.13-0.25-0.25-0.37-0.38c-0.13-0.12-0.25-0.24-0.37-0.35c-0.25-0.22-0.46-0.44-0.67-0.61
								c-0.41-0.34-0.68-0.57-0.68-0.57"/>
						</g>
						<g>
							<path class="st2" d="M434.2,40.86c0,0-0.07-0.05-0.21-0.13c-0.13-0.08-0.31-0.21-0.55-0.34c-0.23-0.13-0.5-0.29-0.79-0.45
								c-0.3-0.15-0.61-0.32-0.92-0.48c-0.32-0.15-0.64-0.3-0.94-0.44c-0.31-0.13-0.59-0.25-0.84-0.35c-0.25-0.1-0.46-0.17-0.6-0.23
								c-0.15-0.05-0.23-0.09-0.23-0.09"/>
						</g>
						<g>
							<path class="st2" d="M426.41,37.52c0,0-0.09-0.02-0.24-0.06c-0.15-0.04-0.37-0.08-0.63-0.14c-0.26-0.05-0.56-0.12-0.89-0.17
								c-0.33-0.05-0.68-0.12-1.03-0.15c-0.18-0.02-0.35-0.04-0.53-0.07c-0.17-0.02-0.34-0.03-0.51-0.05
								c-0.33-0.03-0.64-0.06-0.91-0.07c-0.27-0.01-0.49-0.02-0.64-0.03c-0.16,0-0.24,0-0.24,0"/>
						</g>
						<g>
							<path class="st2" d="M417.96,36.88c0,0-0.35,0.03-0.88,0.09c-0.26,0.03-0.57,0.07-0.9,0.12c-0.33,0.04-0.68,0.11-1.03,0.17
								c-0.35,0.06-0.7,0.14-1.02,0.2c-0.32,0.07-0.63,0.15-0.89,0.21c-0.26,0.06-0.47,0.12-0.62,0.16
								c-0.15,0.04-0.24,0.06-0.24,0.06"/>
						</g>
						<g>
							<path class="st2" d="M409.68,38.75c0,0-0.08,0.03-0.23,0.09c-0.07,0.03-0.16,0.06-0.26,0.1c-0.1,0.04-0.21,0.09-0.34,0.14
								c-0.49,0.2-1.15,0.48-1.79,0.78c-0.64,0.3-1.27,0.63-1.74,0.88c-0.47,0.26-0.78,0.43-0.78,0.43"/>
						</g>
						<g>
							<path class="st2" d="M402.14,42.66c0,0-0.29,0.2-0.73,0.5c-0.22,0.15-0.48,0.32-0.75,0.51c-0.27,0.2-0.55,0.41-0.83,0.63
								c-0.56,0.43-1.14,0.85-1.54,1.2c-0.41,0.34-0.68,0.57-0.68,0.57"/>
						</g>
						<g>
							<path class="st2" d="M395.49,47.96c0,0-0.07,0.06-0.18,0.16c-0.11,0.11-0.28,0.25-0.47,0.44c-0.38,0.38-0.88,0.88-1.38,1.38
								c-0.13,0.12-0.25,0.25-0.37,0.38c-0.12,0.13-0.24,0.25-0.35,0.38c-0.23,0.24-0.44,0.47-0.62,0.67
								c-0.18,0.19-0.33,0.36-0.44,0.47c-0.1,0.11-0.16,0.18-0.16,0.18"/>
						</g>
						<g>
							<path class="st2" d="M389.69,54.18c0,0-0.22,0.28-0.56,0.69c-0.17,0.21-0.36,0.45-0.57,0.71c-0.2,0.26-0.42,0.55-0.63,0.83
								c-0.43,0.57-0.87,1.12-1.17,1.56c-0.31,0.43-0.52,0.72-0.52,0.72"/>
						</g>
						<g>
							<path class="st2" d="M384.61,61.01c0,0-0.05,0.07-0.14,0.2c-0.09,0.13-0.22,0.31-0.36,0.53c-0.29,0.44-0.68,1.04-1.07,1.63
								c-0.39,0.59-0.76,1.2-1.05,1.64c-0.28,0.45-0.47,0.75-0.47,0.75"/>
						</g>
						<g>
							<path class="st2" d="M380.03,68.19c0,0-0.18,0.3-0.46,0.76c-0.27,0.46-0.64,1.06-1,1.67c-0.72,1.22-1.45,2.44-1.45,2.44"/>
						</g>
						<g>
							<path class="st2" d="M375.68,75.51c0,0-0.72,1.22-1.44,2.44c-0.73,1.22-1.46,2.44-1.46,2.44"/>
						</g>
						<g>
							<path class="st2" d="M371.3,82.81c0,0-0.19,0.3-0.47,0.75c-0.29,0.45-0.66,1.05-1.04,1.65c-0.39,0.59-0.77,1.19-1.06,1.64
								c-0.14,0.22-0.27,0.4-0.36,0.53c-0.09,0.13-0.14,0.2-0.14,0.2"/>
						</g>
						<g>
							<path class="st2" d="M366.62,89.91c0,0-0.21,0.29-0.51,0.72c-0.3,0.44-0.74,1-1.16,1.57c-0.21,0.28-0.43,0.57-0.62,0.83
								c-0.21,0.26-0.4,0.5-0.56,0.71c-0.33,0.42-0.55,0.7-0.55,0.7"/>
						</g>
						<g>
							<path class="st2" d="M361.39,96.63c0,0-0.06,0.07-0.16,0.19c-0.1,0.12-0.25,0.28-0.43,0.48c-0.36,0.39-0.83,0.92-1.31,1.44
								c-0.5,0.51-0.99,1.01-1.36,1.4c-0.09,0.1-0.18,0.18-0.25,0.26c-0.08,0.07-0.15,0.14-0.2,0.19c-0.11,0.11-0.18,0.17-0.18,0.17
								"/>
						</g>
						<g>
							<path class="st2" d="M355.4,102.67c0,0-0.27,0.23-0.67,0.58c-0.2,0.17-0.43,0.38-0.69,0.59c-0.26,0.21-0.53,0.43-0.81,0.66
								c-0.55,0.45-1.1,0.89-1.52,1.23c-0.42,0.33-0.7,0.55-0.7,0.55"/>
						</g>
						<g>
							<path class="st2" d="M348.78,108.02c0,0-0.28,0.21-0.71,0.54c-0.42,0.32-0.98,0.76-1.56,1.18c-1.14,0.84-2.28,1.68-2.28,1.68
								"/>
						</g>
						<g>
							<path class="st2" d="M341.92,113.06c0,0-0.29,0.21-0.73,0.51c-0.44,0.3-1.02,0.7-1.61,1.11c-0.58,0.41-1.18,0.79-1.62,1.09
								c-0.44,0.29-0.74,0.49-0.74,0.49"/>
						</g>
						<g>
							<path class="st2" d="M334.85,117.8c0,0-0.3,0.19-0.75,0.48c-0.45,0.29-1.05,0.66-1.66,1.03c-0.6,0.37-1.21,0.74-1.66,1.02
								c-0.46,0.27-0.76,0.45-0.76,0.45"/>
						</g>
						<g>
							<path class="st2" d="M327.57,122.21c0,0-1.24,0.7-2.47,1.39c-1.25,0.67-2.5,1.35-2.5,1.35"/>
						</g>
						<g>
							<path class="st2" d="M320.08,126.25c0,0-0.08,0.04-0.22,0.11c-0.14,0.07-0.33,0.17-0.57,0.29c-0.48,0.23-1.12,0.55-1.75,0.86
								c-0.32,0.16-0.64,0.31-0.94,0.46c-0.3,0.14-0.58,0.27-0.82,0.38c-0.48,0.22-0.8,0.37-0.8,0.37"/>
						</g>
						<g>
							<path class="st2" d="M312.38,129.89c0,0-0.32,0.14-0.81,0.36c-0.24,0.11-0.53,0.23-0.83,0.36c-0.31,0.13-0.64,0.26-0.96,0.4
								c-0.66,0.27-1.31,0.54-1.8,0.74c-0.5,0.19-0.83,0.32-0.83,0.32"/>
						</g>
						<g>
							<path class="st2" d="M304.48,133.07c0,0-0.33,0.12-0.84,0.3c-0.5,0.18-1.17,0.42-1.84,0.65c-1.35,0.44-2.7,0.89-2.7,0.89"/>
						</g>
						<g>
							<path class="st2" d="M296.4,135.73c0,0-0.34,0.11-0.85,0.24c-0.51,0.14-1.2,0.32-1.88,0.51c-0.68,0.19-1.38,0.35-1.89,0.48
								c-0.52,0.12-0.86,0.21-0.86,0.21"/>
						</g>
						<g>
							<path class="st2" d="M288.13,137.77c0,0-0.35,0.07-0.87,0.18c-0.26,0.06-0.57,0.11-0.89,0.17c-0.33,0.06-0.68,0.12-1.03,0.18
								c-0.7,0.12-1.4,0.26-1.92,0.32c-0.53,0.08-0.88,0.13-0.88,0.13"/>
						</g>
						<g>
							<path class="st2" d="M279.73,139.12c0,0-0.35,0.04-0.88,0.1c-0.26,0.03-0.57,0.06-0.9,0.1c-0.33,0.03-0.69,0.05-1.04,0.08
								c-0.71,0.05-1.41,0.11-1.95,0.15c-0.53,0.02-0.89,0.04-0.89,0.04"/>
						</g>
						<g>
							<path class="st2" d="M271.24,139.67c0,0-0.35,0-0.89,0c-0.27,0-0.58,0-0.91,0c-0.17,0-0.34,0-0.51,0
								c-0.17-0.01-0.35-0.01-0.53-0.02c-0.71-0.03-1.42-0.05-1.95-0.07c-0.27-0.01-0.49-0.02-0.64-0.03
								c-0.15-0.01-0.24-0.02-0.24-0.02"/>
						</g>
						<g>
							<line class="st2" x1="262.74" y1="139.32" x2="257.09" y2="138.77"/>
						</g>
						<g>
							<path class="st2" d="M254.27,138.48c0,0-1.41-0.14-2.82-0.3c-1.41-0.15-2.82-0.3-2.82-0.3"/>
						</g>
						<g>
							<path class="st2" d="M245.8,137.56c0,0-0.35-0.04-0.88-0.1c-0.53-0.06-1.23-0.14-1.94-0.23c-1.41-0.18-2.81-0.36-2.81-0.36"
								/>
						</g>
						<g>
							<path class="st2" d="M237.36,136.47c0,0-1.4-0.2-2.81-0.41c-1.4-0.23-2.8-0.45-2.8-0.45"/>
						</g>
						<g>
							<path class="st2" d="M228.95,135.13c0,0-1.4-0.26-2.79-0.51c-0.7-0.13-1.39-0.28-1.91-0.39c-0.52-0.11-0.87-0.18-0.87-0.18"
								/>
						</g>
						<g>
							<path class="st2" d="M220.6,133.46c0,0-1.38-0.32-2.76-0.64c-0.69-0.15-1.38-0.34-1.89-0.47c-0.51-0.13-0.86-0.22-0.86-0.22"
								/>
						</g>
						<g>
							<path class="st2" d="M212.34,131.4c0,0-1.36-0.39-2.73-0.79c-0.34-0.1-0.68-0.2-1-0.29c-0.32-0.09-0.61-0.19-0.87-0.27
								c-0.51-0.16-0.84-0.27-0.84-0.27"/>
						</g>
						<g>
							<path class="st2" d="M204.2,128.92c0,0-0.08-0.03-0.23-0.07c-0.15-0.05-0.36-0.12-0.61-0.21c-0.5-0.18-1.17-0.41-1.84-0.65
								c-0.67-0.23-1.34-0.47-1.84-0.65c-0.25-0.09-0.46-0.17-0.6-0.22c-0.15-0.06-0.23-0.09-0.23-0.09"/>
						</g>
						<g>
							<path class="st2" d="M196.2,126.02c0,0-0.33-0.13-0.83-0.32c-0.5-0.18-1.15-0.46-1.81-0.73c-1.31-0.54-2.62-1.09-2.62-1.09"
								/>
						</g>
						<g>
							<path class="st2" d="M188.33,122.76c0,0-0.32-0.14-0.81-0.36c-0.49-0.22-1.13-0.51-1.78-0.81c-1.29-0.59-2.57-1.21-2.57-1.21
								"/>
						</g>
						<g>
							<path class="st2" d="M180.63,119.13c0,0-1.27-0.63-2.53-1.28c-1.26-0.65-2.51-1.32-2.51-1.32"/>
						</g>
						<g>
							<path class="st2" d="M173.1,115.17c0,0-1.24-0.69-2.47-1.39c-1.23-0.7-2.45-1.43-2.45-1.43"/>
						</g>
						<g>
							<path class="st2" d="M165.74,110.88c0,0-1.21-0.74-2.41-1.51c-0.6-0.38-1.19-0.77-1.64-1.06c-0.44-0.29-0.74-0.49-0.74-0.49"
								/>
						</g>
						<g>
							<path class="st2" d="M158.6,106.24c0,0-1.17-0.8-2.32-1.63c-0.58-0.41-1.15-0.83-1.58-1.14c-0.43-0.32-0.71-0.53-0.71-0.53"
								/>
						</g>
						<g>
							<path class="st2" d="M151.73,101.21c0,0-1.12-0.87-2.22-1.77c-0.55-0.45-1.09-0.91-1.5-1.25c-0.4-0.35-0.67-0.58-0.67-0.58"
								/>
						</g>
						<g>
							<path class="st2" d="M145.21,95.75c0,0-0.27-0.24-0.65-0.6c-0.2-0.18-0.42-0.39-0.67-0.62c-0.24-0.23-0.5-0.47-0.75-0.72
								c-0.26-0.24-0.51-0.49-0.75-0.73c-0.24-0.23-0.46-0.45-0.65-0.64c-0.37-0.38-0.62-0.63-0.62-0.63"/>
						</g>
						<g>
							<path class="st2" d="M139.17,89.75c0,0-0.24-0.26-0.59-0.66c-0.18-0.2-0.38-0.43-0.6-0.68c-0.22-0.25-0.45-0.52-0.68-0.79
								c-0.23-0.27-0.45-0.54-0.67-0.8c-0.21-0.26-0.4-0.5-0.57-0.71c-0.17-0.21-0.31-0.38-0.4-0.5c-0.09-0.12-0.15-0.19-0.15-0.19"
								/>
						</g>
						<g>
							<path class="st2" d="M133.82,83.13c0,0-0.05-0.07-0.14-0.2c-0.09-0.13-0.22-0.31-0.36-0.53c-0.15-0.22-0.32-0.48-0.51-0.75
								c-0.18-0.28-0.37-0.58-0.56-0.88c-0.19-0.3-0.37-0.61-0.54-0.89c-0.17-0.28-0.33-0.55-0.46-0.78
								c-0.13-0.23-0.24-0.42-0.32-0.56c-0.08-0.13-0.12-0.21-0.12-0.21"/>
						</g>
						<g>
							<path class="st2" d="M129.52,75.8c0,0-0.04-0.08-0.1-0.22c-0.07-0.14-0.16-0.34-0.27-0.59c-0.11-0.24-0.23-0.53-0.36-0.83
								c-0.12-0.31-0.25-0.64-0.38-0.97c-0.25-0.66-0.49-1.33-0.65-1.84c-0.17-0.5-0.26-0.85-0.26-0.85"/>
						</g>
						<g>
							<path class="st2" d="M126.74,67.77c0,0-0.02-0.09-0.06-0.24c-0.04-0.15-0.1-0.36-0.16-0.62c-0.06-0.26-0.13-0.56-0.21-0.88
								c-0.08-0.32-0.17-0.67-0.23-1.02c-0.07-0.35-0.15-0.69-0.22-1.02c-0.03-0.16-0.07-0.32-0.1-0.47
								c-0.03-0.15-0.05-0.29-0.08-0.42c-0.1-0.52-0.16-0.87-0.16-0.87"/>
						</g>
						<g>
							<path class="st2" d="M125.06,59.43c0,0-0.04-0.35-0.11-0.88c-0.08-0.53-0.14-1.23-0.21-1.94c-0.02-0.18-0.04-0.35-0.05-0.53
								c-0.01-0.17-0.02-0.35-0.03-0.51c-0.02-0.33-0.04-0.64-0.06-0.91c-0.02-0.27-0.03-0.49-0.03-0.64
								c-0.01-0.16-0.01-0.24-0.01-0.24"/>
						</g>
						<g>
							<path class="st2" d="M124.51,50.94c0,0,0-0.09,0-0.24c0-0.16,0.01-0.38,0.02-0.64s0.02-0.58,0.03-0.91
								c0.01-0.33,0.04-0.69,0.06-1.04c0.03-0.35,0.04-0.71,0.07-1.04c0.03-0.33,0.06-0.64,0.09-0.9c0.03-0.26,0.05-0.49,0.06-0.64
								c0.02-0.15,0.03-0.24,0.03-0.24"/>
						</g>
						<g>
							<path class="st2" d="M125.32,42.47c0,0,0.02-0.09,0.04-0.24c0.02-0.15,0.07-0.37,0.13-0.63c0.12-0.52,0.25-1.22,0.44-1.9
								c0.09-0.34,0.18-0.69,0.26-1.01c0.1-0.32,0.19-0.61,0.27-0.87c0.08-0.25,0.14-0.47,0.19-0.61c0.05-0.15,0.07-0.23,0.07-0.23"
								/>
						</g>
						<g>
							<path class="st2" d="M127.73,34.33c0,0,0.03-0.08,0.09-0.23c0.06-0.14,0.14-0.35,0.25-0.59c0.11-0.24,0.24-0.52,0.38-0.83
								c0.07-0.15,0.14-0.31,0.21-0.47c0.08-0.16,0.16-0.31,0.24-0.47c0.16-0.32,0.32-0.63,0.48-0.93c0.15-0.3,0.32-0.56,0.45-0.79
								c0.26-0.46,0.44-0.77,0.44-0.77"/>
						</g>
						<g>
							<path class="st2" d="M131.83,26.89c0,0,0.05-0.07,0.14-0.2c0.09-0.13,0.21-0.31,0.37-0.52c0.16-0.21,0.35-0.46,0.56-0.72
								c0.1-0.13,0.21-0.27,0.31-0.4c0.05-0.07,0.11-0.14,0.16-0.21c0.06-0.07,0.11-0.14,0.17-0.2c0.23-0.27,0.46-0.54,0.68-0.79
								c0.11-0.13,0.21-0.25,0.31-0.36c0.1-0.11,0.2-0.22,0.29-0.32c0.36-0.39,0.61-0.65,0.61-0.65"/>
						</g>
						<g>
							<path class="st2" d="M137.47,20.53c0,0,0.27-0.24,0.66-0.59c0.1-0.09,0.21-0.18,0.32-0.29c0.06-0.05,0.12-0.1,0.18-0.16
								c0.06-0.05,0.13-0.1,0.19-0.15c0.26-0.21,0.53-0.43,0.81-0.66c0.54-0.46,1.12-0.87,1.54-1.19c0.21-0.16,0.4-0.28,0.52-0.37
								c0.13-0.09,0.2-0.14,0.2-0.14"/>
						</g>
						<g>
							<path class="st2" d="M144.26,15.41c0,0,0.3-0.19,0.75-0.47c0.23-0.13,0.5-0.29,0.78-0.46c0.14-0.08,0.29-0.17,0.44-0.26
								c0.15-0.08,0.31-0.17,0.46-0.25c0.31-0.17,0.62-0.35,0.92-0.5c0.3-0.15,0.57-0.29,0.81-0.42c0.24-0.12,0.44-0.22,0.58-0.29
								c0.14-0.07,0.22-0.11,0.22-0.11"/>
						</g>
						<g>
							<path class="st2" d="M151.81,11.5c0,0,0.33-0.14,0.82-0.34c0.25-0.1,0.54-0.21,0.85-0.33c0.16-0.06,0.32-0.12,0.48-0.18
								c0.16-0.06,0.33-0.12,0.5-0.18c1.33-0.49,2.69-0.89,2.69-0.89"/>
						</g>
						<g>
							<path class="st2" d="M159.88,8.82c0,0,0.34-0.08,0.86-0.21c0.52-0.11,1.21-0.28,1.91-0.4c0.7-0.14,1.4-0.25,1.92-0.34
								c0.26-0.05,0.48-0.07,0.64-0.1c0.15-0.02,0.24-0.03,0.24-0.03"/>
						</g>
						<g>
							<path class="st2" d="M168.27,7.41c0,0,1.41-0.14,2.83-0.18c0.35-0.02,0.71-0.02,1.04-0.03c0.33,0,0.64-0.02,0.91-0.01
								c0.53,0,0.89,0.01,0.89,0.01"/>
						</g>
						<g>
							<path class="st2" d="M176.77,7.33c0,0,0.35,0.03,0.88,0.08c0.13,0.01,0.28,0.02,0.43,0.04c0.15,0.02,0.31,0.04,0.48,0.05
								c0.33,0.04,0.68,0.07,1.03,0.13c0.35,0.05,0.7,0.1,1.03,0.15c0.33,0.06,0.63,0.11,0.9,0.15c0.26,0.04,0.48,0.09,0.63,0.12
								c0.15,0.03,0.24,0.05,0.24,0.05"/>
						</g>
						<g>
							<path class="st2" d="M185.16,8.73c0,0,0.09,0.02,0.24,0.06c0.15,0.04,0.36,0.11,0.62,0.18c0.51,0.14,1.19,0.37,1.86,0.59
								c1.34,0.46,2.64,1.04,2.64,1.04"/>
						</g>
						<g>
							<path class="st2" d="M193.05,11.87c0,0,0.08,0.04,0.21,0.12c0.13,0.08,0.33,0.19,0.56,0.32c0.23,0.13,0.49,0.3,0.77,0.47
								c0.14,0.09,0.29,0.18,0.43,0.27c0.14,0.1,0.29,0.2,0.44,0.3c0.15,0.1,0.29,0.2,0.44,0.3c0.14,0.1,0.28,0.21,0.41,0.31
								c0.27,0.2,0.52,0.38,0.72,0.55c0.21,0.17,0.38,0.31,0.5,0.41c0.12,0.1,0.19,0.16,0.19,0.16"/>
						</g>
						<g>
							<path class="st2" d="M199.76,17.05c0,0,0.06,0.06,0.17,0.18c0.11,0.11,0.25,0.29,0.42,0.49c0.09,0.1,0.18,0.21,0.28,0.33
								c0.1,0.12,0.19,0.25,0.3,0.38c0.2,0.26,0.42,0.54,0.62,0.84c0.2,0.29,0.41,0.58,0.58,0.87c0.09,0.14,0.17,0.28,0.25,0.41
								c0.04,0.06,0.08,0.13,0.12,0.19c0.03,0.06,0.07,0.12,0.1,0.18c0.13,0.23,0.24,0.43,0.31,0.56c0.04,0.07,0.07,0.12,0.09,0.16
								c0.02,0.04,0.03,0.06,0.03,0.06"/>
						</g>
						<g>
							<path class="st2" d="M204.14,24.28c0,0,0.13,0.33,0.28,0.84c0.08,0.25,0.18,0.55,0.25,0.87c0.04,0.16,0.08,0.33,0.12,0.5
								c0.02,0.08,0.04,0.17,0.06,0.26c0.02,0.09,0.03,0.17,0.05,0.26c0.03,0.17,0.07,0.35,0.1,0.52c0.03,0.17,0.07,0.34,0.09,0.5
								c0.05,0.33,0.09,0.64,0.13,0.9c0.05,0.53,0.08,0.88,0.08,0.88"/>
						</g>
						<g>
							<path class="st2" d="M205.37,32.65c0,0-0.02,0.35-0.06,0.88c-0.03,0.26-0.07,0.57-0.11,0.9c-0.01,0.08-0.02,0.17-0.03,0.25
								c-0.02,0.08-0.03,0.17-0.05,0.26c-0.03,0.17-0.06,0.35-0.1,0.52c-0.06,0.35-0.15,0.69-0.23,1.02
								c-0.04,0.16-0.07,0.32-0.12,0.46c-0.04,0.15-0.09,0.28-0.12,0.41c-0.08,0.25-0.14,0.47-0.19,0.61
								c-0.05,0.15-0.08,0.23-0.08,0.23"/>
						</g>
						<g>
							<path class="st2" d="M203.17,40.81c0,0-0.04,0.08-0.11,0.22c-0.08,0.14-0.18,0.33-0.31,0.56c-0.06,0.12-0.13,0.24-0.21,0.38
								c-0.08,0.13-0.17,0.27-0.25,0.41c-0.09,0.14-0.18,0.29-0.27,0.44c-0.09,0.15-0.2,0.29-0.3,0.44c-0.2,0.29-0.4,0.59-0.61,0.84
								c-0.1,0.13-0.2,0.26-0.29,0.38c-0.09,0.12-0.18,0.23-0.27,0.33c-0.35,0.4-0.58,0.67-0.58,0.67"/>
						</g>
						<g>
							<path class="st2" d="M197.93,47.44c0,0-0.07,0.06-0.19,0.16c-0.06,0.05-0.13,0.11-0.21,0.18s-0.18,0.14-0.29,0.22
								c-0.42,0.33-0.99,0.74-1.59,1.13c-0.3,0.18-0.6,0.38-0.89,0.54c-0.29,0.16-0.56,0.31-0.8,0.44c-0.48,0.23-0.8,0.38-0.8,0.38"
								/>
						</g>
						<g>
							<path class="st2" d="M190.51,51.49c0,0-0.09,0.02-0.23,0.07c-0.15,0.04-0.36,0.11-0.62,0.16c-0.26,0.06-0.56,0.12-0.89,0.2
								c-0.33,0.05-0.68,0.11-1.03,0.17c-0.35,0.04-0.71,0.07-1.04,0.1c-0.33,0.02-0.64,0.03-0.91,0.04c-0.27,0.02-0.49,0.01-0.64,0
								c-0.16,0-0.24-0.01-0.24-0.01"/>
						</g>
						<g>
							<path class="st2" d="M182.09,51.92c0,0-0.09-0.02-0.24-0.05c-0.08-0.01-0.17-0.04-0.27-0.06c-0.11-0.02-0.22-0.05-0.35-0.09
								c-0.51-0.14-1.19-0.35-1.85-0.63c-0.66-0.27-1.29-0.58-1.76-0.84c-0.23-0.13-0.43-0.24-0.56-0.32
								c-0.13-0.08-0.21-0.12-0.21-0.12"/>
						</g>
						<g>
							<path class="st2" d="M174.54,48.17c0,0-0.28-0.22-0.67-0.58c-0.39-0.36-0.9-0.85-1.38-1.38c-0.47-0.53-0.91-1.09-1.21-1.53
								c-0.15-0.22-0.27-0.4-0.36-0.53c-0.08-0.13-0.13-0.21-0.13-0.21"/>
						</g>
						<g>
							<path class="st2" d="M169.59,41.38c0,0-0.03-0.08-0.07-0.23c-0.02-0.07-0.05-0.16-0.08-0.27c-0.03-0.1-0.06-0.22-0.09-0.35
								c-0.12-0.52-0.23-1.22-0.23-1.93c0-0.71,0.1-1.42,0.23-1.93c0.03-0.13,0.07-0.25,0.09-0.35c0.03-0.1,0.06-0.19,0.09-0.27
								c0.05-0.15,0.08-0.23,0.08-0.23"/>
						</g>
						<g>
							<path class="st2" d="M171,33.35c0,0,0.01-0.02,0.04-0.05c0.02-0.03,0.06-0.08,0.11-0.14c0.1-0.12,0.24-0.29,0.42-0.48
								c0.36-0.39,0.87-0.89,1.43-1.32c0.56-0.44,1.17-0.8,1.65-1.03c0.12-0.06,0.23-0.11,0.33-0.15c0.1-0.04,0.19-0.08,0.26-0.11
								c0.15-0.05,0.23-0.08,0.23-0.08"/>
						</g>
						<g>
							<path class="st2" d="M178.27,29.59c0,0,0.02,0,0.06,0c0.04,0,0.1,0.01,0.18,0.02c0.15,0.01,0.37,0.04,0.64,0.09
								c0.52,0.09,1.21,0.28,1.86,0.56c0.65,0.28,1.27,0.63,1.72,0.92c0.22,0.15,0.4,0.27,0.53,0.37c0.13,0.09,0.2,0.14,0.2,0.14"/>
						</g>
						<g>
							<path class="st2" d="M185.56,33.6c0,0,0.24,0.26,0.59,0.66c0.34,0.41,0.78,0.97,1.18,1.55c0.4,0.58,0.77,1.19,1.03,1.66
								c0.26,0.46,0.42,0.78,0.42,0.78"/>
						</g>
						<g>
							<path class="st2" d="M189.86,40.87c0,0,0.03,0.08,0.07,0.23c0.05,0.15,0.11,0.36,0.18,0.62c0.14,0.51,0.3,1.21,0.39,1.91
								c0.04,0.35,0.08,0.71,0.11,1.04c0.02,0.17,0.03,0.33,0.04,0.48c0.01,0.15,0.02,0.3,0.02,0.43c0.01,0.27,0.03,0.49,0.03,0.64
								c0,0.16,0,0.24,0,0.24"/>
						</g>
						<g>
							<path class="st2" d="M190.64,49.3c0,0-0.01,0.09-0.02,0.24c-0.02,0.15-0.02,0.38-0.06,0.64c-0.03,0.26-0.07,0.57-0.11,0.9
								c-0.04,0.33-0.11,0.68-0.16,1.03c-0.03,0.17-0.05,0.35-0.09,0.52c-0.03,0.17-0.07,0.34-0.1,0.5
								c-0.07,0.33-0.12,0.63-0.19,0.89c-0.13,0.52-0.21,0.86-0.21,0.86"/>
						</g>
						<g>
							<path class="st2" d="M188.89,57.6c0,0-0.12,0.33-0.3,0.84c-0.04,0.13-0.09,0.26-0.15,0.4c-0.06,0.14-0.11,0.29-0.18,0.45
								c-0.12,0.31-0.25,0.64-0.39,0.97c-0.14,0.33-0.28,0.65-0.41,0.96c-0.14,0.3-0.27,0.58-0.38,0.83
								c-0.22,0.48-0.38,0.8-0.38,0.8"/>
						</g>
						<g>
							<path class="st2" d="M185.38,65.35c0,0-0.18,0.31-0.44,0.77c-0.27,0.46-0.63,1.07-1.02,1.66c-0.37,0.6-0.78,1.19-1.07,1.63
								c-0.3,0.44-0.51,0.73-0.51,0.73"/>
						</g>
						<g>
							<path class="st2" d="M180.66,72.43c0,0-0.05,0.07-0.15,0.19c-0.1,0.12-0.24,0.29-0.4,0.5c-0.17,0.21-0.36,0.45-0.57,0.71
								c-0.21,0.26-0.44,0.53-0.67,0.8c-0.46,0.54-0.93,1.07-1.29,1.47c-0.18,0.2-0.33,0.36-0.43,0.48
								c-0.11,0.11-0.17,0.18-0.17,0.18"/>
						</g>
						<g>
							<path class="st2" d="M175.01,78.78c0,0-0.25,0.25-0.64,0.62c-0.19,0.18-0.42,0.4-0.66,0.62c-0.24,0.23-0.51,0.46-0.78,0.69
								c-0.26,0.24-0.54,0.45-0.8,0.67c-0.13,0.1-0.25,0.21-0.37,0.3c-0.12,0.09-0.24,0.18-0.34,0.26
								c-0.21,0.16-0.39,0.29-0.51,0.39c-0.06,0.05-0.11,0.08-0.15,0.11c-0.03,0.02-0.05,0.04-0.05,0.04"/>
						</g>
						<g>
							<path class="st2" d="M168.35,84.05c0,0-0.08,0.05-0.21,0.13c-0.13,0.08-0.32,0.2-0.55,0.33c-0.46,0.26-1.07,0.63-1.7,0.96
								c-0.62,0.35-1.26,0.65-1.73,0.9c-0.48,0.23-0.8,0.39-0.8,0.39"/>
						</g>
						<g>
							<path class="st2" d="M160.78,87.93c0,0-0.08,0.04-0.22,0.1c-0.14,0.06-0.35,0.15-0.59,0.25c-0.49,0.2-1.15,0.48-1.81,0.73
								c-1.32,0.52-2.66,0.99-2.66,0.99"/>
						</g>
						<g>
							<path class="st2" d="M152.81,90.92c0,0-0.34,0.11-0.84,0.27c-0.51,0.17-1.19,0.37-1.86,0.58c-0.68,0.2-1.36,0.4-1.87,0.55
								c-0.51,0.14-0.85,0.24-0.85,0.24"/>
						</g>
						<g>
							<path class="st2" d="M144.63,93.3c0,0-0.34,0.09-0.86,0.22c-0.52,0.13-1.21,0.3-1.89,0.47c-0.69,0.16-1.38,0.32-1.9,0.45
								c-0.52,0.12-0.87,0.2-0.87,0.2"/>
						</g>
						<g>
							<path class="st2" d="M136.34,95.23c0,0-1.39,0.29-2.78,0.56c-0.7,0.13-1.39,0.27-1.92,0.37c-0.52,0.1-0.87,0.16-0.87,0.16"/>
						</g>
						<g>
							<path class="st2" d="M127.98,96.81c0,0-0.35,0.06-0.87,0.15c-0.52,0.09-1.23,0.2-1.93,0.31c-1.4,0.22-2.81,0.43-2.81,0.43"/>
						</g>
						<g>
							<path class="st2" d="M119.56,98.09c0,0-0.35,0.05-0.88,0.12c-0.53,0.07-1.23,0.16-1.94,0.25c-0.7,0.09-1.41,0.17-1.94,0.24
								c-0.53,0.06-0.88,0.1-0.88,0.1"/>
						</g>
						<g>
							<path class="st2" d="M111.11,99.1c0,0-1.41,0.15-2.82,0.28c-0.71,0.07-1.41,0.13-1.94,0.18c-0.53,0.05-0.88,0.08-0.88,0.08"
								/>
						</g>
						<g>
							<path class="st2" d="M102.63,99.87c0,0-1.41,0.11-2.83,0.2c-1.42,0.09-2.83,0.17-2.83,0.17"/>
						</g>
						<g>
							<path class="st2" d="M94.13,100.39c0,0-1.42,0.06-2.84,0.11c-1.42,0.05-2.84,0.08-2.84,0.08"/>
						</g>
						<g>
							<path class="st2" d="M85.62,100.62c0,0-1.42,0.01-2.84,0c-1.42-0.01-2.84-0.05-2.84-0.05"/>
						</g>
						<g>
							<path class="st2" d="M77.11,100.44c0,0-0.35-0.02-0.89-0.05c-0.53-0.05-1.24-0.12-1.94-0.19c-0.71-0.06-1.41-0.18-1.93-0.25
								c-0.53-0.08-0.88-0.13-0.88-0.13"/>
						</g>
					</g>
				</g>
			</g>
		</g>
		<g>
			<polygon class="st3" points="427.16,32.47 423.57,35.16 409.24,34.71 			"/>
			<polygon class="st4" points="409.24,34.71 421.68,36.83 423.49,40.16 			"/>
			<polygon class="st3" points="421.68,36.83 409.24,34.71 417.13,40.05 			"/>
			<polygon class="st5" points="423.57,35.16 423.49,40.16 421.68,36.83 409.24,34.71 			"/>
		</g>
	</g>
	<path class="st6" d="M328.28,86.21c-5.73,0-11.17,1.27-16.05,3.53c-0.43-39.41-32.51-71.23-72.02-71.23
		c-32.99,0-60.8,22.18-69.33,52.44c-2.76-0.52-5.61-0.79-8.52-0.79c-25.52,0-46.2,20.69-46.2,46.21c0,25.52,20.69,46.21,46.2,46.21
		c13.44,0,61.34,0,77.85,0c20.94,0,72.3,0,88.07,0c21.09,0,38.18-17.09,38.18-38.18C366.46,103.31,349.37,86.21,328.28,86.21z"/>
	<g>
		<g>
			<g>
				<path class="st7" d="M310.13,152.63h-74.72c-1.12,0-2.04-0.91-2.04-2.04v-0.95c0-1.12,0.91-2.04,2.04-2.04h74.72
					c1.12,0,2.04,0.91,2.04,2.04v0.95C312.17,151.72,311.25,152.63,310.13,152.63z"/>
				<rect x="262.25" y="100.03" class="st7" width="29.23" height="48.61"/>
				<path class="st7" d="M320.84,104.07h-98.25c-1.44,0-2.62-1.17-2.62-2.62V31.07c0-1.44,1.17-2.62,2.62-2.62h98.25
					c1.44,0,2.62,1.17,2.62,2.62v70.38C323.45,102.9,322.28,104.07,320.84,104.07z"/>
				<rect x="249.64" y="100.03" class="st8" width="39.27" height="48.61"/>
				<rect x="249.64" y="100.03" class="st9" width="39.27" height="6.68"/>
				<path class="st10" d="M318.45,104.13H220.2c-1.44,0-2.62-1.17-2.62-2.62V31.13c0-1.44,1.17-2.62,2.62-2.62h98.25
					c1.44,0,2.62,1.17,2.62,2.62v70.38C321.07,102.95,319.9,104.13,318.45,104.13z"/>
				<path class="st8" d="M319.24,80.45c-7.48,11.06-19.07,16.56-19.7,16.85c-4.29,1.98-0.79,2.87-3.61,3.43
					c-8.68,1.7-21.76,2.73-34.55,3.35h57.13c1.42,0,2.58-1.15,2.58-2.58V77.44C320.53,78.45,319.92,79.46,319.24,80.45z"/>
				<path class="st11" d="M221.18,90.9V33.66c0-0.9,0.73-1.63,1.63-1.63h93.08c0.9,0,1.63,0.73,1.63,1.63V90.9
					c0,0.9-0.73,1.63-1.63,1.63h-93.08C221.91,92.53,221.18,91.8,221.18,90.9z"/>
				<path class="st12" d="M305.44,96.81h-6.12c-0.34,0-0.63-0.28-0.63-0.63v0c0-0.34,0.28-0.63,0.63-0.63h6.12
					c0.34,0,0.63,0.28,0.63,0.63l0,0C306.07,96.52,305.79,96.81,305.44,96.81z"/>
				<path class="st12" d="M312.45,96.81h-3.76c-0.34,0-0.63-0.28-0.63-0.63l0,0c0-0.34,0.28-0.63,0.63-0.63h3.76
					c0.34,0,0.63,0.28,0.63,0.63l0,0C313.07,96.52,312.79,96.81,312.45,96.81z"/>
				<path class="st12" d="M295.81,96.81h-4c-0.28,0-0.51-0.23-0.51-0.51v-0.24c0-0.28,0.23-0.51,0.51-0.51h4
					c0.28,0,0.51,0.23,0.51,0.51v0.24C296.32,96.58,296.09,96.81,295.81,96.81z"/>
				<path class="st13" d="M305.48,95.55h-0.25c0.05,0.08,0.07,0.18,0.07,0.28v0.07c0,0.32-0.27,0.59-0.59,0.59h-5.94
					c0.1,0.18,0.3,0.31,0.52,0.31h6.19c0.32,0,0.59-0.27,0.59-0.59v-0.07C306.07,95.82,305.8,95.55,305.48,95.55z"/>
				<path class="st13" d="M312.45,95.55h-0.23c0.06,0.09,0.09,0.2,0.09,0.32c0,0.34-0.28,0.63-0.63,0.63h-3.53
					c0.11,0.18,0.31,0.31,0.54,0.31h3.76c0.34,0,0.63-0.28,0.63-0.63C313.07,95.83,312.79,95.55,312.45,95.55z"/>
				<path class="st13" d="M295.69,95.55h-0.23c0.06,0.09,0.09,0.2,0.09,0.32c0,0.34-0.28,0.63-0.63,0.63h-3.53
					c0.11,0.18,0.31,0.31,0.54,0.31h3.76c0.34,0,0.63-0.28,0.63-0.63C296.32,95.83,296.04,95.55,295.69,95.55z"/>
				<path class="st10" d="M306.63,152.63h-74.72c-1.12,0-2.04-0.91-2.04-2.04v-0.95c0-1.12,0.91-2.04,2.04-2.04h74.72
					c1.12,0,2.04,0.91,2.04,2.04v0.95C308.67,151.72,307.76,152.63,306.63,152.63z"/>
				<path class="st8" d="M306.16,147.61h-12.35c1.39,0,2.51,1.12,2.51,2.51l0,0c0,1.39-1.12,2.51-2.51,2.51h12.35
					c1.39,0,2.51-1.12,2.51-2.51l0,0C308.67,148.73,307.54,147.61,306.16,147.61z"/>
				<path class="st14" d="M262.47,149.88h-29.68c-0.34,0-0.62-0.28-0.62-0.62l0,0c0-0.34,0.28-0.62,0.62-0.62h29.68
					c0.34,0,0.62,0.28,0.62,0.62l0,0C263.1,149.6,262.82,149.88,262.47,149.88z"/>
				<polygon class="st15" points="247.22,32.03 221.18,61.26 221.18,76.4 253.46,32.03 				"/>
				<path class="st15" d="M315.92,32.03h-1.38c-1.4,11.01-3.68,19.94-5.73,26.49c-3.62,11.63-7.02,17.5-12.21,22.06
					c0,0,2.96,3.76-3.04,6.21c-6.57,2.68-18.64,4.66-34.87,5.74h57.23c0.89,0,1.6-0.72,1.6-1.6v-57.3
					C317.53,32.74,316.81,32.03,315.92,32.03z"/>
				<path class="st15" d="M315.92,32.03h-93.13c-0.89,0-1.6,0.72-1.6,1.6v0.13h92.35c0.89,0,1.6,0.72,1.6,1.6v57.17h0.79
					c0.89,0,1.6-0.72,1.6-1.6v-57.3C317.53,32.74,316.81,32.03,315.92,32.03z"/>
			</g>
		</g>
	</g>
	<g>
		<g>
			<path class="st16" d="M165.72,155.04c0,0,14.8-36.14-19.08-62.06C146.63,92.98,128.65,127.57,165.72,155.04z"/>
			<g>
				<path class="st17" d="M171.44,159c0,0-8.1-51-56.27-52.58C115.17,106.42,117.09,152.62,171.44,159z"/>
				<path class="st18" d="M171.44,159c0,0-35.29-42.79-56.27-52.58"/>
				<line class="st19" x1="133.97" y1="119.87" x2="133.57" y2="109.87"/>
				<line class="st20" x1="149.58" y1="134.64" x2="148.27" y2="118.23"/>
				<line class="st21" x1="138.71" y1="124.01" x2="119.49" y2="124.94"/>
				<line class="st22" x1="154.55" y1="140.12" x2="131.79" y2="141.67"/>
			</g>
		</g>
		<g>
			<path class="st23" d="M135.3,152.64c2.01,0,3.88,0.57,5.47,1.56c2.73-3.74,7.15-6.17,12.13-6.17c6.21,0,11.54,3.77,13.83,9.14
				c1.4-1.26,3.26-2.03,5.29-2.03c4.37,0,7.91,3.54,7.91,7.91h-12h-3.82h-18.4h-7.83h-13v0C124.89,157.3,129.55,152.64,135.3,152.64
				z"/>
			<path class="st20" d="M155.66,163.34c0,0-2.34-12.31-3.93-15.31"/>
			<line class="st20" x1="155.08" y1="160.43" x2="142.77" y2="151.97"/>
			<line class="st20" x1="161.53" y1="150.44" x2="154.15" y2="156.16"/>
			<line class="st20" x1="138.56" y1="163.34" x2="129.24" y2="154.58"/>
			<line class="st24" x1="136.74" y1="152.44" x2="134.31" y2="159.34"/>
			<line class="st24" x1="170.43" y1="163.05" x2="175.33" y2="155.54"/>
		</g>
	</g>
	<g>
		<g>
			<path class="st25" d="M302.33,152.04h138.03c3.21,0,5.81-2.6,5.81-5.81v-7.06c0-3.21-2.6-5.81-5.81-5.81H302.33
				c-3.21,0-5.81,2.6-5.81,5.81v7.06C296.53,149.44,299.13,152.04,302.33,152.04z"/>
			<path class="st25" d="M333.77,133.36h106.59c3.21,0,5.81-2.6,5.81-5.81v-23c0-3.21-2.6-5.81-5.81-5.81H333.77
				c-3.21,0-5.81,2.6-5.81,5.81v23C327.96,130.76,330.56,133.36,333.77,133.36z"/>
			<path class="st26" d="M438.08,133.36h2.28c3.21,0,5.81-2.6,5.81-5.81v-23c0-3.21-2.6-5.81-5.81-5.81h-2.28
				c-3.21,0-5.81,2.6-5.81,5.81v23C432.28,130.76,434.88,133.36,438.08,133.36z"/>
			<path class="st26" d="M440.36,133.36h-33.71c-3.21,0-5.81,2.6-5.81,5.81v7.06c0,3.21,2.6,5.81,5.81,5.81h33.71
				c3.21,0,5.81-2.6,5.81-5.81v-7.06C446.17,135.96,443.57,133.36,440.36,133.36z"/>
			<path class="st27" d="M354.49,152.04h40.54c3.21,0,5.81-2.6,5.81-5.81v-7.06c0-3.21-2.6-5.81-5.81-5.81h-40.54
				c-3.21,0-5.81,2.6-5.81,5.81v7.06C348.69,149.44,351.29,152.04,354.49,152.04z"/>
			<path class="st27" d="M302.33,152.04h40.54c3.21,0,5.81-2.6,5.81-5.81v-7.06c0-3.21-2.6-5.81-5.81-5.81h-40.54
				c-3.21,0-5.81,2.6-5.81,5.81v7.06C296.53,149.44,299.13,152.04,302.33,152.04z"/>
			<path class="st27" d="M385.93,133.36h40.54c3.21,0,5.81-2.6,5.81-5.81v-23c0-3.21-2.6-5.81-5.81-5.81h-40.54
				c-3.21,0-5.81,2.6-5.81,5.81v23C380.12,130.76,382.72,133.36,385.93,133.36z"/>
			<path class="st27" d="M333.77,133.36h40.54c3.21,0,5.81-2.6,5.81-5.81v-23c0-3.21-2.6-5.81-5.81-5.81h-40.54
				c-3.21,0-5.81,2.6-5.81,5.81v23C327.96,130.76,330.56,133.36,333.77,133.36z"/>
			
				<rect x="436.57" y="152.04" transform="matrix(-1 -4.400581e-11 4.400581e-11 -1 876.1222 314.8298)" class="st28" width="2.98" height="10.75"/>
			
				<rect x="433.17" y="152.04" transform="matrix(-1 -4.599222e-11 4.599222e-11 -1 869.7447 314.8298)" class="st29" width="3.4" height="10.75"/>
			
				<rect x="406.41" y="152.04" transform="matrix(-1 -4.522794e-11 4.522794e-11 -1 815.7944 314.8298)" class="st28" width="2.98" height="10.75"/>
			
				<rect x="403.01" y="152.04" transform="matrix(-1 -4.492241e-11 4.492241e-11 -1 809.4169 314.8298)" class="st30" width="3.4" height="10.75"/>
			
				<rect x="335.67" y="152.04" transform="matrix(-1 -4.522839e-11 4.522839e-11 -1 674.3208 314.8298)" class="st28" width="2.98" height="10.75"/>
			
				<rect x="332.27" y="152.04" transform="matrix(-1 -4.492241e-11 4.492241e-11 -1 667.9434 314.8298)" class="st29" width="3.4" height="10.75"/>
			
				<rect x="305.51" y="152.04" transform="matrix(-1 -4.522794e-11 4.522794e-11 -1 613.993 314.8298)" class="st28" width="2.98" height="10.75"/>
			
				<rect x="302.11" y="152.04" transform="matrix(-1 -4.492241e-11 4.492241e-11 -1 607.6155 314.8298)" class="st30" width="3.4" height="10.75"/>
			
				<rect x="406.41" y="152.04" transform="matrix(-1 -4.489843e-11 4.489843e-11 -1 845.9583 307.0363)" class="st28" width="33.14" height="2.96"/>
			
				<rect x="302.11" y="152.04" transform="matrix(-1 -4.488955e-11 4.488955e-11 -1 708.5162 307.0363)" class="st30" width="104.3" height="2.96"/>
		</g>
		<g>
			<path class="st31" d="M375.3,117.04c-1.65,4.21-3.93,1.26-4.56-2.64c-0.61-3.75-0.56-7.11,0-10.88
				c0.33-2.26,1.1-12.05,4.51-10.84c3.18,1.13,2.47,10.22,2.35,12.86C377.43,109.31,376.78,113.28,375.3,117.04z"/>
			<path class="st31" d="M350.18,110.9c0.09-0.12-2.72-0.9-2.05-1.38c0.39-0.28,2.42,0.4,3.45,1c2.09,1.21,4.65,1.68,7.84,1.83
				c3.98,0.18,5.87-0.07,9.42,0.31c2.77,0.3,3.04,0.14,5.41,1.74c1.93,1.3,0.87,4.64-1.42,5.05c-2.53,0.46-12.93-2.58-15.78-3.41
				c-2.51-0.73-5.14-1.09-7.74-1.47c-1.43-0.21-5.7-2-5.36-2.95c0.58-1.6,1.81-1.3,4.15-0.63
				C348.87,111.19,349.81,111.41,350.18,110.9z"/>
			<path class="st32" d="M367.67,102.01c0.26-4.09,1.92-7.86,5.43-10.37c2.99-2.14,4.17-2.45,7.19-1.43
				c6.96,2.34,7.8,27.52,7.51,33.56c-4.41,0.56-7.91,1.28-12.43,1.51c0.83-5.96-3.23-11.64-6.17-17.45
				C368.27,105.97,367.54,104.13,367.67,102.01z"/>
			<path class="st31" d="M372.9,94.73c0.58,0.8,2.45,0.45,4.18-0.79c1.73-1.24,2.67-2.9,2.1-3.7c-0.57-0.8-2.45-0.45-4.18,0.79
				C373.27,92.27,372.33,93.92,372.9,94.73z"/>
			<g>
				<g>
					<polygon class="st33" points="359.04,153.91 359.83,159.13 352.09,162.59 355.7,157.44 354.8,155.49 					"/>
					<path class="st34" d="M356.8,162.75l3.01-0.02c0,0,0.41-0.77,0.4-2.68c-0.01-1.92-0.01-1.8-0.01-1.8s-0.65-0.01-2.23,1.12
						c-1.26,0.9-4.28,0.84-5.28,1.14c-2.04,0.6-3.1,0.83-3.09,2.29l6.17-0.04c0,0,0.45-0.97,1.1-0.97
						C356.85,162.14,356.8,162.75,356.8,162.75z"/>
					<path class="st35" d="M372.76,122.39c0,0-22.03-0.78-25.45,2.88c-3.42,3.66,7.19,30.22,7.19,30.22l5.26,0.6
						c0,0-1.43-17.05-5.41-21.43c0,0,28.05-0.7,28.43-10.89L372.76,122.39z"/>
				</g>
				<g>
					<polygon class="st36" points="364.07,153.91 364.86,159.13 357.11,162.59 360.73,157.44 359.67,155.49 					"/>
					<path class="st37" d="M375.38,120.93c0,0-19.2,0.7-23.04,4.34c-3.63,3.45,7.04,30.22,7.04,30.22l5.41,0.6
						c0,0-1.06-19.02-5.41-21.43c0,0,30.36,4.55,28.43-10.89L375.38,120.93z"/>
					<path class="st38" d="M361.83,162.75l3.01-0.02c0,0,0.41-0.77,0.4-2.68c-0.01-1.92-0.01-1.8-0.01-1.8s-0.65-0.01-2.23,1.12
						c-1.26,0.9-4.28,0.84-5.28,1.14c-2.04,0.6-3.1,0.83-3.09,2.29l6.17-0.04c0,0,0.45-0.97,1.1-0.97
						C361.88,162.14,361.83,162.75,361.83,162.75z"/>
				</g>
			</g>
			<g>
				<path class="st39" d="M375.29,72.38c-1.86,0.09-4.42,0.59-5.87,1.88c-1.46,1.29-1.56,3.34-1.42,5.15
					c0.1,1.35,0.23,2.82,0.55,4.13c0.27,1.1,1.4,1.58,2.39,1.85c2.11,0.56,4.46,0.54,6.62,0.33c1.62-0.16,3.18-1.36,3.98-2.72
					c1.01-1.72,0.3-3.89-0.38-5.61c-0.59-1.48-1.4-2.84-2.62-3.9c-0.62-0.54-1.41-0.92-2.23-1.06
					C376.12,72.39,375.49,72.37,375.29,72.38z"/>
				
					<rect x="374.38" y="77.9" transform="matrix(0.9863 -0.165 0.165 0.9863 -8.7799 63.2294)" class="st33" width="3.56" height="13.12"/>
				<path class="st40" d="M376.04,74.79c-5.91-2.39-8.91,4.3-7.87,9.77c0.29,1.53,1.09,3.57,1.89,3.61
					c1.58,0.08,2.86-0.42,4.14-0.93c2.42-0.96,3.7-2.7,4.75-5.15C380.17,79.23,378.69,75.86,376.04,74.79z"/>
				<path class="st39" d="M371.53,72.69c-2.14,0.98-0.69,3,0.32,4.61c0.46,0.73,1.2,1.41,1.99,1.77c1.04,0.47,2.14-0.01,3.22,0
					c0.75,0.01,1.69,0.18,1.73,1.07c0.1,2.05-1.3,1.87-1.31,1.87c-0.01,0,0.03,1.54,0.05,1.68c0.08,0.54,0.25,1.13,0.74,1.43
					c1.28,0.8,2.51-0.73,3.25-1.55c0.71-0.78,1.29-2.05,1.41-3.13c0.45-3.98-0.72-6.69-3.49-8.04c-0.81-0.39-1.77-0.6-2.67-0.65
					C375.34,71.68,372.88,72.19,371.53,72.69z"/>
				<path class="st39" d="M379.2,72.45c0.06-1.36,0.66-2.25,2.06-2.49c1.09-0.19,2.43,0.11,3.14,1.08c1.37,1.87,0.94,3.71-0.26,4.68
					c-0.59,0.47-1.29,0.49-1.96,0.21L379.2,72.45z"/>
				<path class="st3" d="M372.07,84.69c0,0-1.62-0.76-2.95-1.12C369.12,83.57,369.47,87.58,372.07,84.69z"/>
			</g>
			<path class="st36" d="M379.3,117.29c-1.9,4.1-4,1.02-4.39-2.91c-0.38-3.78-0.35-7.07,0.44-10.8c0.47-2.23,2.05-12.02,5.38-10.61
				c3.11,1.32,1.85,10.35,1.57,12.98C381.89,109.7,381,113.62,379.3,117.29z"/>
			<path class="st36" d="M353.59,115.37c0.05-0.14-2.24-0.91-2.18-1.23c0.09-0.47,2.45-0.08,3.58,0.31
				c2.29,0.78,4.89,0.75,8.05,0.27c3.94-0.59,5.74-1.46,9.3-1.77c2.78-0.24,3.7-0.34,5.42,1.02c1.82,1.45,1.98,4.26-0.18,5.11
				c-2.39,0.94-2.54,0.55-6.29,0.32c-2.97-0.18-6.9-0.34-9.86-0.61c-2.61-0.23-5.26-0.08-7.88,0.06c-1.44,0.07-5.72,0.22-6.09-1.27
				c-0.23-0.94,1.79-2.21,4.2-2C352.45,115.65,353.52,115.56,353.59,115.37z"/>
		</g>
	</g>
	<g>
		
			<rect x="424.17" y="84.52" transform="matrix(-1 -4.506008e-11 4.506008e-11 -1 851.6788 243.347)" class="st41" width="3.33" height="74.3"/>
		
			<rect x="425.96" y="84.52" transform="matrix(-1 -4.571200e-11 4.571200e-11 -1 852.991 243.347)" class="st34" width="1.07" height="74.3"/>
		<polygon class="st38" points="439.97,161.36 427.5,158.82 424.17,158.82 411.71,161.36 411.71,162.95 439.97,162.95 		"/>
		
			<rect x="411.71" y="161.36" transform="matrix(-1 -4.480917e-11 4.480917e-11 -1 851.6789 324.3078)" class="st34" width="28.25" height="1.59"/>
		<polygon class="st42" points="409.71,84.52 441.72,84.52 437.92,52.51 413.51,52.51 		"/>
		<polygon class="st34" points="427.03,158.82 425.96,158.82 430.35,161.36 436.5,161.36 		"/>
		<polygon class="st43" points="437.11,84.52 430.01,84.52 428.43,52.51 433.9,52.51 		"/>
	</g>
	<g>
		<path class="st44" d="M462.55,129.32c-0.1,0.09-0.15,0.14-0.15,0.14C462.41,129.46,462.46,129.42,462.55,129.32z"/>
		<path class="st45" d="M494.87,132.95c-3.12-1.38-6.32-0.3-8.26,0.3c-9.86,3.03-18.75,3.08-18.91,2.52
			c-0.24-0.83,18.93-3.73,23.85-14.89c0.53-1.21,2.55-5.77,0.49-8.41c-1.21-1.55-3.3-1.77-3.94-1.84c-4.21-0.46-7.76,2.58-9.76,4.34
			c-5.59,4.91-14.54,13.19-15.79,14.36c-0.1,0.09-0.15,0.14-0.15,0.14c0,0,0.05-0.05,0.15-0.14c1.65-1.6,16.68-16.64,16.58-30.49
			c-0.01-1.29-0.04-5.29-2-6.13c-2.32-1-6.08,2.97-7.59,4.57c-4,4.22-5.84,8.58-6.72,10.76c-4.32,10.67-6.53,20.45-6.81,20.39
			c-0.21-0.05,1.51-5.28,0.32-11.8c-0.27-1.5-1.34-7.35-4.13-7.84c-0.68-0.12-2.01-0.07-3.97,2.24
			c-13.51,15.92-6.43,44.69-2.42,49.69c9.75,12.17,43.27,0.12,44.47-6c1.21-6.2-27.05-0.55-27.14-4.45
			c-0.01-0.57,16.16,0.51,28.46-5.59c1.66-0.82,7.49-3.72,7.23-7.27C498.68,135.33,496.52,133.68,494.87,132.95z"/>
		<path class="st44" d="M462.55,129.32c-0.1,0.09-0.15,0.14-0.15,0.14C462.41,129.46,462.46,129.42,462.55,129.32z"/>
		<path class="st46" d="M477.12,92.7c-2.32-1-6.08,2.97-7.59,4.57c-4,4.22-5.84,8.58-6.72,10.76c-4.32,10.67-6.53,20.45-6.81,20.39
			c-0.21-0.05,1.51-5.28,0.32-11.8c-0.27-1.5-1.34-7.35-4.13-7.84c-0.68-0.12-2.01-0.07-3.97,2.24
			c-13.51,15.92-6.43,44.69-2.42,49.69c2.09,2.61,5.29,4.11,9.02,4.79c2.79-4.94,5.33-11.48,2.68-16.09
			c-1.27-2.21-4.14-4.7-5.14-4.13c-1.32,0.76,1.25,6.57,0.81,6.74c-0.65,0.26-8.91-11.83-6-22.8c0.21-0.81,1.64-6.17,4.01-6.3
			c0.5-0.03,1.36,0.16,2.63,1.86c3.98,5.32,2.32,12.64,2.96,12.74c0.71,0.11,2.15-8.84,5.89-19.48c0.5-1.44,1.79-5.02,3.99-9.45
			c2.22-4.48,3.5-7.01,6.04-9.55c1.2-1.2,3.12-2.84,5.95-4.25C478.36,93.84,477.89,93.03,477.12,92.7z"/>
		<path class="st44" d="M472.83,105.24c-1.18,1.14-2.58,3-2.51,3.58c0.06,0.52,1.27-0.04,2.22-0.83c1.57-1.29,3.12-3.75,3-4.31
			C475.43,103.17,473.91,104.2,472.83,105.24z"/>
		<path class="st44" d="M466.95,114.51c-1.75,2.02-2.26,6.72-1.81,6.91c0.57,0.24,3.64-6.69,3.17-7.65
			C468.12,113.36,467.33,114.08,466.95,114.51z"/>
		<path class="st44" d="M480.96,116.17c-1.24,1.23-2.26,3.19-1.88,3.52c0.75,0.66,7.22-4.7,6.72-5.54
			C485.5,113.67,482.78,114.35,480.96,116.17z"/>
		<path class="st44" d="M480.5,123.46c-1.44,0.26-3.28,1.09-3.2,1.8c0.08,0.69,1.96,1.23,3.54,0.99c1.76-0.26,3.49-1.52,3.32-2.22
			C483.99,123.34,481.96,123.19,480.5,123.46z"/>
		<path class="st44" d="M474.3,121.5c-0.33-0.31-2.64,1.14-3.87,3.41c-0.64,1.17-1.2,2.95-0.87,3.13
			C470.24,128.41,474.86,122.03,474.3,121.5z"/>
		<path class="st44" d="M449.83,127.03c-0.58,0.15-0.61,2.92,0.33,5.26c0.42,1.04,1.3,2.65,1.77,2.52c0.55-0.16,0.49-2.68-0.24-4.79
			C451.26,128.77,450.34,126.9,449.83,127.03z"/>
		<path class="st44" d="M463.04,137.69c-1.78,0.85-2.73,2.91-2.3,3.4c0.75,0.85,6.36-2.13,6.08-3.25
			C466.66,137.22,464.62,136.93,463.04,137.69z"/>
		<path class="st44" d="M473.45,143.06c-1.38-0.44-3.21-0.58-3.3-0.25c-0.18,0.66,6.52,3.41,6.86,2.81
			C477.19,145.29,475.5,143.73,473.45,143.06z"/>
		<path class="st44" d="M479.61,138.71c-0.69,0.4-2.09,1.38-1.89,1.94c0.19,0.55,1.83,0.6,3.09,0.19c1.86-0.6,3.4-2.36,3.07-2.96
			C483.56,137.27,481.23,137.76,479.61,138.71z"/>
		<path class="st44" d="M491.65,138.25c-2.06,0.08-4.02,1.32-3.88,1.84c0.24,0.94,7.48,0.39,7.58-0.58
			C495.39,138.99,493.44,138.19,491.65,138.25z"/>
		<path class="st44" d="M462.94,154.96c-2.41,1.53-3.76,4.29-3.33,4.69c0.75,0.7,7.77-4.94,7.25-5.84
			C466.6,153.36,464.41,154.02,462.94,154.96z"/>
		<path class="st44" d="M470.22,159.47c-0.7-0.2-1.43-0.26-1.43-0.26c-0.62-0.05-1.61-0.13-1.67,0.07
			c-0.16,0.53,6.52,3.41,6.86,2.81C474.18,161.73,472.09,160,470.22,159.47z"/>
		<path class="st44" d="M476.46,154.02c-1.62,0.75-3.09,2.34-2.81,2.81c0.54,0.9,7.73-1.82,7.54-2.84
			C481.08,153.41,478.54,153.06,476.46,154.02z"/>
	</g>
	<g>
		<path class="st47" d="M186.09,93.89c-0.24,3.4,2.02,9.07,2.54,11.4c0.62,2.77,1.66,4.24,1.65,7.28c-0.01,1.84-0.4,3.14-0.6,3.9
			c-1.67,6.33-0.32,14.42,0,16.33c0.93,5.58,2.52,11.73,2.62,15.56c0.04,1.59-0.7,6-0.5,7.21c0.2,1.23,1.7,1.93,2.69,3.14
			c0.27,0.33,1.58,1.91,3.9,3.02c0.35,0.17,1.48-0.73,0.07-3.08c-0.47-0.78-1.95-6.87-2.17-8.46c-0.59-4.25-0.42-8.41-0.3-11.18
			c0.45-10.17,3.02-22.13,3.22-25.49c0.11-1.9-1.7-13.68-2.91-22.18c-1.61-11.29-5.83-12.44-6.21-12.5
			C188.24,78.57,186.66,85.91,186.09,93.89z"/>
		<path class="st48" d="M193.33,146.77c-0.18-2.21-0.82-5.49-1.48-8.89c-0.69-3.53-1.36-6.32-1.48-10.03
			c-0.07-2.2,0.07-3.94,0.11-4.44c0.13-1.47,0.32-2.56,0.57-3.99c0.64-3.62,1.01-4.26,1.03-6.15c0.01-1.19-0.13-2.15-0.34-3.3
			c-0.96-5.18-2.63-9.74-2.73-10.03c-0.77-2.12-1.7-4.98-2.57-8.6c-0.16,0.84-0.28,1.69-0.34,2.56c-0.24,3.4,2.02,9.07,2.54,11.4
			c0.62,2.77,1.66,4.24,1.65,7.28c-0.01,1.84-0.4,3.14-0.6,3.9c-1.67,6.33-0.32,14.42,0,16.33c0.93,5.58,2.52,11.73,2.62,15.56
			c0.04,1.59-0.7,6-0.5,7.21c0.03,0.18,0.09,0.35,0.17,0.52C193.33,152.27,193.52,149.15,193.33,146.77z"/>
		<path class="st47" d="M174.4,90.19c-1.51,3.49-2.23,13.16-2.29,16.17c-0.06,2.89,0.23,5.07-0.3,9.05
			c-0.26,1.93-0.62,3.65-0.75,4.26c-0.61,2.82-1.28,4.82-1.5,5.5c-1.36,4.18-3.45,10.58-4.05,17.75c-0.13,1.51-0.45,5.69-0.69,9.03
			c-0.07,0.96-0.79,2.05-0.97,2.94c-0.64,3.06-1.5,6.77-1.04,7.55c0.33,0.56,1.35,0.45,1.95,0.18c0.21-0.1,1.98,1.51,3.01-0.87
			c0.61-1.4,1.12-7.29,1.12-7.29c0.16-0.6,3.68-8.3,5.92-15.63c0.81-2.65,2.23-9.46,3.15-15.09c0.2-1.22,0.39-2.37,0.75-3.9
			c0.58-2.45,1.22-4.36,2.1-6.74c1.87-5.08,2-4.75,3-7.63c1.28-3.71,3.01-9.29,2.97-13.28c-0.03-2.68-0.76-3.06-2.21-4.11
			C182.1,86.27,176.81,84.6,174.4,90.19z"/>
		<path class="st48" d="M166.09,150.76c1.25-4.73,0.45-6.05,1.25-11.51c0.52-3.54,1.38-6.48,1.94-8.2c0.76-2.34,0.9-2.17,1.94-5.24
			c0.75-2.21,1.62-4.82,2.28-8.32c0.5-2.64,0.65-4.59,0.68-5.01c0.15-1.95,0.09-2.96,0.11-5.01c0.03-2.69,0.17-4.2,0.34-6.95
			c0.16-2.48,0.36-6.19,0.57-11.8c-0.3,0.42-0.57,0.91-0.81,1.47c-1.51,3.49-2.23,13.16-2.29,16.17c-0.06,2.89,0.23,5.07-0.3,9.05
			c-0.26,1.93-0.62,3.65-0.75,4.26c-0.61,2.82-1.28,4.82-1.5,5.5c-1.36,4.18-3.45,10.58-4.05,17.75c-0.13,1.51-0.45,5.69-0.69,9.03
			c-0.07,0.96-0.79,2.05-0.97,2.94c-0.64,3.06-1.5,6.77-1.04,7.55c0.05,0.09,0.12,0.16,0.2,0.21c0.39-2.1,1.03-5.06,2.07-8.58
			C165.7,151.93,165.75,152.05,166.09,150.76z"/>
		<path class="st8" d="M192.03,150.45c-0.47-0.06-1.05,1.47-1.11,1.62c-0.15,0.41-0.33,0.87-0.3,1.48c0.04,0.68,0.31,1.15,0.66,1.77
			c0.39,0.67,0.52,0.7,1.26,1.7c0.62,0.86,0.95,1.3,1.26,1.99c0.33,0.74,0.47,1.37,0.52,1.62c0.08,0.42,0.11,0.9,0.15,1.85
			c0.07,1.47,0.03,1.7,0.22,2.14c0.1,0.22-0.02,1.33,4.87,0.96c0.51-0.04,0.81-0.11,1.03-0.37c0.16-0.18,0.51-2.1,0.44-2.51
			c-0.05-0.28-0.2-0.56-0.52-1.11c-0.29-0.51-0.53-0.85-0.81-1.26c-0.9-1.3-1.18-1.74-1.26-1.7c-0.13,0.07,0.94,1.24,0.48,1.82
			c-0.34,0.43-1.49,0.15-2.1-0.1c-0.65-0.27-1.19-0.42-2.07-1.94c-1.32-2.28-1.83-4.42-1.92-4.8
			C192.39,151.67,192.43,150.5,192.03,150.45z"/>
		<path class="st9" d="M190.9,153.16c-0.14,0.09,0.11,0.46,0.81,3.25c0.21,0.84,0.33,1.37,0.42,2.04c0.11,0.84,0.12,1.53,0.12,1.87
			c0,1.98,0.07,2.98,0.07,3.25c0.01,0.24,0.71,0.29,0.71,0.05c0-0.22,0.13-1.07,0.07-3.27c-0.02-0.63,0-1.04,0.1-1.53
			c0.15-0.73,0.39-1.07,0.49-1.38C194.27,155.72,191.33,152.88,190.9,153.16z"/>
		<path class="st8" d="M163.92,154.51c-0.06-0.02-0.62,1.31-0.89,3c-0.1,0.67-0.08,0.86-0.25,1.87c-0.13,0.76-0.17,0.86-0.34,1.82
			c-0.18,1.03-0.27,1.54-0.3,2.12c-0.01,0.3,0.03,0.81,0.1,1.82c0.1,1.34,0.16,1.63,0.39,1.87c0.21,0.21,0.5,0.28,1.08,0.39
			c1,0.2,1.87,0.38,2.86,0c0.29-0.11,0.71-0.28,1.08-0.69c0.31-0.34,0.52-0.78,0.69-1.92c0.15-1.02,0.09-1.4,0.15-2.95
			c0.04-1,0.1-1.78,0.15-2.31c0.12-1.48,0.19-1.71,0.25-2.66c0.01-0.25,0.15-2.4,0-2.41c-0.09-0.01-0.24,0.69-0.32,1.18
			c-0.1,0.61-0.1,1.08-0.1,1.3c-0.01,0.51-0.02,1.82-0.34,3.13c-0.23,0.95-0.36,1.44-0.81,1.8c-0.6,0.48-1.36,0.42-1.97,0.37
			c-0.5-0.04-1.8-0.15-2.24-1.01c-0.2-0.4-0.2-0.9-0.2-1.01c0-0.4,0.1-0.7,0.15-0.84c0.22-0.69,0.13-0.92,0.32-2.22
			C163.62,155.49,163.96,154.52,163.92,154.51z"/>
		<path class="st49" d="M176.38,39.1c-0.73,1.65-0.46,1.9-1.1,2.61c-1.71,1.9-4.19,0.71-7.2,2.52c-1.58,0.95-2.43,2.21-2.72,2.65
			c-1.38,2.09-2.54,5.84-0.85,8.26c1.98,2.84,6.85,2.38,9.4,1.62c6.33-1.88,9.61-8.95,10.12-14.3c0.38-4.03-0.64-9.41-2.41-9.2
			C180.26,33.43,177.5,36.55,176.38,39.1z"/>
		<path class="st50" d="M192.56,52.66c5.65-2.27,13.25,8.98,14.07,10.05c1.73,2.23,5.58,5.01,4.34,7.93
			c-0.37,0.87-0.91,0.61-1.92,0.5c-1.84-0.2-4.06-1.9-5.92-3.47c-3.01-2.56-9.57-4.28-10.49-6.77
			C191.82,58.69,189.19,54.01,192.56,52.66z"/>
		<path class="st47" d="M180.03,51.52c-1.91,0.58-8.15,1.68-9.41,2.98c-1.53,1.59,0.1,5.82,0.87,8.7c0.44,1.64,1.24,3.34,2.54,6.21
			c2.46,5.44,2.55,7.1,2.64,9.13c0.32,7.22-4.57,8.37-5.18,26.3c-0.03,0.84,1.21,0.95,2.73,1.34c6.59,1.68,11.17,1.46,11.17,1.46
			c6.13-0.29,13.22-0.68,13.35-2.92c0.58-10.51-4.9-20.78-4.96-26.01c-0.05-4.22,0.98-5.27,2.06-14.89
			c0.66-5.88,1.17-8.61-0.4-11.01c-0.41-0.64-8.44-1.9-11.76-1.66C181.57,51.29,180.5,51.37,180.03,51.52z"/>
		<path class="st49" d="M190.78,34.65c-1.68-1.81-5.27-2.46-7.1-2.14c-4.34,0.75-6.21,4.16-6.62,7.58
			c-0.08,0.65-0.37,3.04,1.08,5.12c1.3,1.88,3.66,3.01,5.64,2.57C188.23,46.79,193.95,38.06,190.78,34.65z"/>
		<path class="st47" d="M187.33,46.88c0.08,0.99-0.53,2.32-0.23,3.43c0.26,0.96,1.99,2.88,2.59,3.35c0.58,0.44-0.03-0.76,0.19-0.53
			c1.2,1.2,0.68,5.51-1.24,5.92c-7.31,1.55-12.49-6.55-10.67-7.01c2.55-0.64,3.49-4.3,2.14-9.34
			C179.71,41.22,187.14,44.58,187.33,46.88z"/>
		<path class="st51" d="M187.42,50.98c-0.31-0.67-0.45-1.22-0.26-1.83c-1.79-0.4-3.34-1.12-4.17-1.91
			c-0.99-0.94-1.47-1.95-1.67-2.22c-0.05,0.05-0.09,0.1-0.12,0.16C181.95,50.21,187.15,50.93,187.42,50.98z"/>
		<path class="st47" d="M191.94,39.89c-0.04,0.8-0.26,2-0.78,3.57c-0.43,1.31-0.38,2.66-1.3,4.06c-0.69,1.05-1.42,1.67-2.55,2.02
			c-3.36,1.02-6.57-3.95-6.9-6.23c-0.11-0.72-0.46-3.46,1.24-6.12c0.48-0.76,1.7-2.66,4.05-3.27c0.54-0.14,2.6-0.59,4.37,0.64
			C192.46,36.22,191.97,39.35,191.94,39.89z"/>
		<path class="st49" d="M189.47,33.83c-0.14-0.07-0.27-0.14-0.41-0.2c-0.76-0.34-1.51-0.47-2.19-0.49
			c-1.13-0.03-2.04,0.24-2.39,0.36c-2.55,0.86-3.68,3.04-4.12,3.9c-0.61,1.19-0.82,1.67-0.89,2.71c1.99,0.55,10.55,1.71,11.38-2.87
			c0.07-0.4,1.45,2.41,0.55,5.44C191.88,41.72,194.4,36.21,189.47,33.83z"/>
		<g>
			<g>
				<path class="st47" d="M182.05,40.75c-0.02-0.04-0.41-0.87-1.01-0.83c-0.58,0.03-1,0.85-1.13,1.38c-0.32,1.29,0.5,2.84,1.13,2.8
					C181.75,44.05,182.62,41.99,182.05,40.75z"/>
			</g>
			<g>
				<path class="st51" d="M181.06,43.29c-0.18-0.04-0.32-0.32-0.38-0.49c-0.16-0.42-0.25-1.02,0.05-1.35
					c0.17-0.19,0.5-0.3,0.78-0.15c0.19,0.11,0.32,0.33,0.35,0.58c0.01,0.09-0.06,0.18-0.15,0.17l0,0c-0.07,0-0.11-0.06-0.12-0.13
					c-0.02-0.16-0.09-0.29-0.21-0.36c-0.16-0.09-0.36-0.02-0.46,0.09c-0.11,0.12-0.14,0.36-0.09,0.66c0.06,0.37,0.29,0.68,0.29,0.69
					c0,0-0.31-0.54,0,0C181.29,43.31,181.07,43.29,181.06,43.29z"/>
			</g>
			<g>
				<path class="st51" d="M181.09,44.62C181.09,44.62,181.09,44.62,181.09,44.62c-0.44-0.1-0.51-0.58-0.54-0.76c0,0,0-0.01,0-0.01
					c-0.36-0.22-0.73-1.08-0.71-2.02c0.01-0.67,0.23-1.12,0.4-1.38c0.1-0.15,0.26-0.39,0.56-0.49c0.31-0.1,0.58,0.03,0.67,0.08
					c0.37,0.19,0.54,0.54,0.62,0.78c0.03,0.08-0.02,0.17-0.09,0.2l0,0c-0.07,0.02-0.14-0.01-0.16-0.08
					c-0.06-0.19-0.2-0.48-0.49-0.63c-0.08-0.04-0.27-0.14-0.49-0.07c-0.2,0.06-0.32,0.24-0.41,0.37c-0.22,0.33-0.34,0.73-0.35,1.21
					c-0.02,0.88,0.35,1.67,0.6,1.77c0.08,0.03,0.09,0.11,0.1,0.2c0.04,0.25,0.1,0.48,0.33,0.53l0,0c0.12,0.03,0.17,0.01,0.23-0.17
					c0.03-0.07,0.1-0.12,0.17-0.1l0,0c0.08,0.02,0.11,0.11,0.09,0.19C181.56,44.45,181.42,44.69,181.09,44.62z M180.61,43.87
					C180.61,43.87,180.61,43.87,180.61,43.87C180.61,43.87,180.61,43.87,180.61,43.87z"/>
			</g>
			<path class="st51" d="M181.8,42.01c0.01,0.05-0.14,0.07-0.27,0.21c-0.26,0.27-0.21,0.69-0.27,0.69c-0.04,0-0.09-0.23-0.05-0.46
				c0.02-0.11,0.05-0.32,0.22-0.43C181.58,41.92,181.79,41.96,181.8,42.01z"/>
		</g>
		<path class="st52" d="M187.17,47.27c0.73,0.17,1.27-0.11,1.55-0.37c0.1-0.09,0-0.24-0.17-0.26l-0.38-0.05
			c-0.56-0.07-1.11-0.19-1.64-0.36l-0.69-0.22c-0.16-0.05-0.3,0.04-0.25,0.16C185.73,46.54,186.43,47.1,187.17,47.27z"/>
		<path class="st50" d="M194.61,77.43c0.02-2.38,0.63-4.74,1.48-11.05c0.12-0.83,0.24-1.75,0.36-2.75
			c0.66-5.88,1.14-8.87-0.98-10.97c-0.33-0.33-3.46-0.98-6.64-1.3c-0.07,0.5,0.13,4.85,0.14,7.51c0.01,2.13-1.01,12.03-1.33,11.14
			c-0.25-0.69-2.71-4.56-3.41-5.23c-1.97-3.36-2.58-4.19-2.93-4.64c-1.55-2.01-2.02-2.05-3.26-3.68c-0.69-0.9-1.52-2.17-2.26-3.88
			c-2.19,0.55-5.09,1.37-5.79,2.1c-1.53,1.59,0.74,5.65,1.51,8.53c0.44,1.64,0.97,2.28,1.82,5.32c2.76,9.97-0.79,20.67-1.72,24.94
			c-1.92,6.21-2.63,14.05-2.63,24.89c0,2.05,30.12,2.84,30.25,0.6C201.03,87.97,194.51,87.41,194.61,77.43z"/>
		<g>
			<path class="st53" d="M166.43,46.07l-0.26-0.23c0.69-0.79,1.49-1.41,2.38-1.86c0.91-0.46,1.75-0.66,2.06-0.72
				c0.14-0.03,0.22-0.04,0.53-0.09c0.29-0.04,0.77-0.12,1.69-0.26c0.38-0.06,0.67-0.14,1.08-0.26c1.26-0.37,1.47-1.08,1.83-2.27
				c0.47-1.56,1.11-3.7,4.49-6.48l0.22,0.26c-3.29,2.72-3.92,4.8-4.38,6.32c-0.36,1.21-0.63,2.08-2.06,2.5
				c-0.42,0.12-0.72,0.21-1.12,0.27c-0.91,0.14-1.4,0.22-1.69,0.26c-0.31,0.05-0.39,0.06-0.52,0.08c-0.24,0.05-1.08,0.24-1.98,0.69
				C167.86,44.72,167.09,45.32,166.43,46.07z"/>
		</g>
		<g>
			<path class="st53" d="M187.44,40.36l-0.07-0.33c0.6-0.13,1.16-0.36,1.66-0.68c0.29-0.18,0.61-0.38,0.92-0.76
				c0.34-0.41,0.57-0.92,0.66-1.47l0.34,0.06c-0.1,0.61-0.36,1.17-0.73,1.63c-0.35,0.42-0.71,0.65-1,0.83
				C188.67,39.98,188.08,40.22,187.44,40.36z"/>
		</g>
		<path class="st54" d="M173.1,97.63c0.81-4.99,1.06-6.13,1.96-10.68c0.77-3.88,1.64-8.45,0.7-13.94c-0.41-2.43-0.75-4.38-2.1-6.51
			c-0.67-1.06-1.46-1.94-2.29-2.68c0.43,1.49,0.95,2.21,1.76,5.12c2.76,9.97-0.79,20.67-1.72,24.94
			c-1.92,6.21-2.63,14.05-2.63,24.89c0,0.37,2.7,0.5,4.29,0.78C172.1,115.76,172.73,99.9,173.1,97.63z"/>
		<g>
			<path class="st55" d="M186.72,120.29L186.72,120.29c-0.17-0.01-0.3-0.16-0.29-0.34l0.04-0.51c0.31-4.46,0.56-7.98,0.73-12.79
				c0.48-13.62,0.61-24.02-0.12-36.7c-0.01-0.17,0.12-0.32,0.3-0.33l0,0c0.17-0.01,0.32,0.12,0.33,0.3
				c0.73,12.7,0.6,23.12,0.12,36.75c-0.17,4.82-0.42,8.35-0.73,12.81l-0.04,0.51C187.05,120.17,186.89,120.3,186.72,120.29z"/>
		</g>
		<g>
			<path class="st47" d="M167.43,73.83c0.79,0.17,0.82,0.62,2.57,1.96c0.15,0.11,1.43,1.09,3.1,2c2.41,1.31,2.45,0.73,5.26,2.12
				c0.66,0.33,1.41,0.73,2.49,0.77c0.55,0.02,0.52-0.07,1.87-0.24c2.38-0.3,3.09-0.09,3.42,0.04c0.5,0.19,0.38,0.27,1.02,0.53
				c1.09,0.44,1.77,0.35,2.04,0.86c0.01,0.02,0.16,0.32,0.04,0.57c-0.2,0.41-0.98,0.37-1.02,0.37c-0.51-0.03-0.66-0.28-1.63-0.73
				c-0.42-0.19-0.88-0.41-0.94-0.33c-0.06,0.1,0.4,0.57,0.9,0.9c0.62,0.41,1.21,0.54,1.51,0.61c0.68,0.15,1.35,0.3,2.08,0.04
				c0.32-0.11,0.57-0.28,0.86-0.16c0.22,0.09,0.44,0.34,0.41,0.57c-0.05,0.44-0.97,0.59-0.94,0.86c0.02,0.14,0.27,0.12,0.41,0.37
				c0.12,0.21,0.08,0.48,0,0.65c-0.15,0.32-0.55,0.51-0.98,0.45c0.19,0.3,0.15,0.47,0.12,0.53c-0.13,0.31-0.76,0.35-1.1,0.37
				c-0.45,0.02-0.79-0.04-0.82,0.04c-0.03,0.09,0.36,0.21,0.37,0.41c0.01,0.22-0.42,0.4-0.65,0.49c-1.4,0.55-2.74,0.5-2.89,0.49
				c-0.69-0.03-1.04-0.05-1.51-0.2c-0.88-0.29-0.99-0.68-2.24-1.59c-1.3-0.95-2.32-1.37-2.57-1.47c-0.78-0.31-1.39-0.44-1.63-0.49
				c-0.86-0.17-12.72-4.25-13.1-4.86C163.64,79.35,165.53,73.42,167.43,73.83z"/>
			<g>
				<path class="st51" d="M187.26,84.84c0.23,0.01,0.46,0,0.69,0c0.79-0.03,1.58-0.14,2.34-0.32c0.08-0.02,0.17,0.01,0.2,0.08h0
					c0.03,0.06-0.02,0.14-0.1,0.16c-0.79,0.19-1.61,0.3-2.43,0.33c-0.15,0.01-0.29,0.01-0.44,0.01c-0.09,0-0.18,0-0.28,0
					c-0.09,0-0.16-0.06-0.16-0.13v0C187.1,84.89,187.17,84.84,187.26,84.84z"/>
			</g>
			<g>
				<path class="st51" d="M186.75,85.99c0.49,0.02,0.99,0.01,1.49-0.01c0.48-0.02,0.96-0.05,1.43-0.1c0.09-0.01,0.17,0.04,0.19,0.1
					v0c0.01,0.07-0.05,0.13-0.14,0.14c-0.48,0.05-0.98,0.09-1.47,0.11c-0.28,0.01-0.56,0.02-0.84,0.02c-0.23,0-0.45,0-0.68-0.01
					c-0.09,0-0.16-0.06-0.16-0.13l0,0C186.58,86.03,186.66,85.98,186.75,85.99z"/>
			</g>
			<g>
				<path class="st51" d="M186.49,87.06c0.25-0.02,0.49-0.04,0.74-0.06c0.22-0.02,0.45-0.04,0.67-0.05c0.11-0.01,0.2,0.04,0.2,0.11
					v0c0,0.07-0.09,0.13-0.2,0.14c-0.22,0.02-0.45,0.04-0.67,0.05c-0.25,0.02-0.49,0.04-0.74,0.06c-0.11,0.01-0.2-0.04-0.2-0.11l0,0
					C186.29,87.13,186.38,87.07,186.49,87.06z"/>
			</g>
			<g>
				<path class="st51" d="M165.65,76.18c0.46-0.37,0.98-0.68,1.55-0.91c0.48-0.2,0.98-0.34,1.49-0.42c0.11-0.02,0.22,0.06,0.24,0.17
					l0,0c0.01,0.11-0.06,0.21-0.17,0.23c-0.49,0.08-0.96,0.21-1.41,0.39c-0.54,0.22-1.03,0.51-1.46,0.86
					c-0.08,0.07-0.21,0.06-0.28-0.03C165.55,76.39,165.56,76.26,165.65,76.18z"/>
			</g>
		</g>
		<path class="st56" d="M170.83,54.13c-1.76,0.64-2.92,2.73-3.87,4.58c-0.38,0.74-0.68,1.33-0.84,1.84c-2,6.22-2.79,9.2-3.75,14.87
			c-0.24,1.4-0.2,2.86,0.39,3.47c0.85,0.89,2.94,0.57,4.26-0.37c0.86-0.61,1.38-1.73,2.36-3.94c0.23-0.52,0.42-0.98,1.31-3.31
			c1.49-3.91,1.62-4.37,1.73-4.94c0.31-1.56,0.25-2.75,0.16-4.26C172.48,60.49,172.34,53.58,170.83,54.13z"/>
		<path class="st56" d="M166.95,73.26c0.88,0.08,1.14,0.59,2.99,1.94c0,0,1.94,1.42,3.94,2.47c3.73,1.95,5.15,2.1,6.25,2.52
			c1.29,0.49-0.55,5.55-1.89,5.2c-1.68-0.44-1.68-0.44-5.2-1.84c-3.61-1.43-5.61-2.25-5.61-2.25c-1.9-0.51-4-1.4-4.69-2.42
			c-0.76-1.12-0.17-1.64-0.11-1.94C163.07,74.84,165.18,73.09,166.95,73.26z"/>
		<g>
			<path class="st47" d="M225.56,63.98c0.8-0.1,2.8-0.65,3.64-1.74c0.17-0.22,0.14-0.43,0.17-0.94c0.06-1.13,0.31-1.31,0.13-1.96
				c-0.03-0.13-0.1-0.36-0.27-0.61c-0.27-0.4-0.62-0.59-1-0.78c-0.43-0.23-0.76-0.3-1.18-0.39c-0.6-0.13-0.73-0.07-0.79,0
				c-0.1,0.12,0.09,0.37-0.01,0.45c-0.06,0.05-0.14-0.03-0.35-0.01c-0.06,0.01-0.22,0.02-0.35,0.13c-0.13,0.12-0.1,0.23-0.2,0.28
				c-0.09,0.04-0.14-0.05-0.32-0.06c-0.04,0-0.28-0.02-0.43,0.13c-0.11,0.1-0.07,0.19-0.19,0.29c-0.09,0.07-0.15,0.06-0.25,0.11
				c-0.21,0.09-0.36,0.33-0.39,0.52c-0.02,0.21,0.11,0.26,0.23,0.57c0.05,0.14,0.46,2.1-2.79,3.62
				C220.84,63.76,222.15,64.42,225.56,63.98z"/>
			<g>
				<path class="st51" d="M228.75,59.35c-0.12-0.21-0.23-0.51-0.32-0.72c-0.03-0.07-0.06-0.14-0.07-0.17c0-0.01-0.01-0.01-0.01-0.02
					c-0.13-0.14-0.26-0.22-0.37-0.29c-0.37-0.21-0.82-0.4-1.05-0.5c-0.04-0.01-0.05-0.06-0.04-0.09l0,0
					c0.01-0.04,0.06-0.05,0.09-0.04c0.23,0.1,0.69,0.29,1.07,0.5c0.09,0.05,0.26,0.15,0.42,0.33c0.02,0.02,0.03,0.05,0.1,0.22
					c0.08,0.19,0.2,0.51,0.31,0.7c0.02,0.03,0.01,0.07-0.02,0.09l0,0C228.82,59.4,228.77,59.39,228.75,59.35z M228.36,58.45
					C228.36,58.45,228.36,58.45,228.36,58.45C228.36,58.45,228.36,58.45,228.36,58.45z"/>
			</g>
			<g>
				<path class="st51" d="M227.72,59.97L227.72,59.97c0.04-0.02,0.05-0.06,0.04-0.09c-0.15-0.32-0.58-1.12-0.66-1.24
					c-0.07-0.1-0.62-0.5-1-0.68c-0.04-0.02-0.08,0-0.09,0.04l0,0c-0.01,0.03,0,0.07,0.03,0.09c0.38,0.18,0.9,0.56,0.95,0.63
					c0.08,0.11,0.51,0.91,0.65,1.22C227.64,59.97,227.68,59.98,227.72,59.97z"/>
			</g>
			<g>
				<path class="st51" d="M226.38,60.35L226.38,60.35c0.03-0.02,0.04-0.07,0.02-0.1c-0.09-0.13-0.18-0.27-0.27-0.41
					c-0.17-0.28-0.29-0.49-0.39-0.78c-0.03-0.09-0.05-0.15-0.06-0.21c-0.03-0.11-0.05-0.19-0.13-0.29c-0.1-0.13-0.23-0.22-0.4-0.29
					c-0.04-0.02-0.08,0-0.09,0.04l0,0c-0.01,0.03,0.01,0.07,0.04,0.09c0.14,0.06,0.26,0.14,0.34,0.25c0.06,0.08,0.07,0.13,0.1,0.24
					c0.02,0.06,0.03,0.13,0.07,0.22c0.1,0.3,0.23,0.51,0.4,0.8c0.08,0.14,0.18,0.28,0.27,0.42
					C226.31,60.37,226.35,60.37,226.38,60.35z"/>
			</g>
		</g>
		<g>
			<path class="st55" d="M169.47,74.84c-0.07,0.15-0.25,0.22-0.4,0.16c-0.29-0.11-0.59-0.2-0.89-0.25
				c-0.69-0.11-1.39-0.05-2.08,0.19c-0.16,0.05-0.33-0.02-0.4-0.18l0,0c-0.07-0.17,0.02-0.36,0.19-0.42
				c0.78-0.27,1.6-0.35,2.39-0.22c0.35,0.06,0.69,0.15,1.03,0.28C169.47,74.48,169.55,74.68,169.47,74.84L169.47,74.84z"/>
		</g>
		<path class="st55" d="M194.93,59.12l-4.2-0.92l2.27,3.63c0.19,0.31,0.17,0.7-0.05,0.99l-5.29,8.59l-8.6-7.28
			c-0.35-0.3-0.46-0.79-0.27-1.2l1.12-2.4c0,0-0.8,1.06-3.59,1.27c-0.46,0.03-0.92-0.01-1.16-0.4c-0.67-1.06-1.86-3.85-2.24-8.05
			c1.37-0.38,2.7-1.03,2.97-0.94c0.4,0.12,0.45,1.2,0.65,1.47c1.43,1.94,1.91,3.11,2.95,4.34c0.55,0.65,0.5,0.42,1.28,1.27
			c1.21,1.33,1.91,2.52,2.24,3.09c3.07,5.28,4.62,7.4,4.62,7.4s0.13-2.36,0.92-7.23c0.72-4.43,1.58-5.1,1.13-7.59
			c-0.2-1.12-1.28-3.01-0.7-3.41c0.32-0.22,1.29-0.41,2.1-0.14c1.41,1.05,4.25,4.18,4.36,6.8
			C195.47,58.84,195.34,59.21,194.93,59.12z"/>
		<path class="st3" d="M187.65,70.29c0.37-0.37-4.44-8.76-5.39-10.01c-0.34-0.45-4.08-7.26-3.81-8.41c0.17-0.71-4.61,0.56-4.84,1.27
			c-0.06,0.2-0.08,1.2,0.19,2.72c0.44,2.43,2.29,5.19,2.29,5.19s2.78-0.15,4.22-1.19c0.55-0.4-0.93,3.45-0.93,3.45
			S186.9,71.06,187.65,70.29z"/>
		<path class="st3" d="M187.65,70.29c1.81-2.26,4.91-8.21,4.91-8.21c-1.52-2.31-2.19-4.16-2.19-4.16s0.31-0.16,1.15-0.04
			c2.12,0.3,3.09,0.52,3.09,0.52s0.06-1.7-1.65-3.9c-2.79-3.58-3.49-3.27-3.49-3.27s-1.55-0.23-1.39,0.02
			c0.99,1.55,1,5.24,0.69,8.61C188.45,63.14,187.33,70.69,187.65,70.29z"/>
		<g>
			<path class="st55" d="M172.39,66.63L172.39,66.63c-0.15-0.07-0.22-0.24-0.16-0.39c0.42-1.1,0.5-2.8,0.22-5.08
				c-0.02-0.17,0.1-0.33,0.27-0.35l0,0c0.17-0.02,0.33,0.1,0.35,0.28c0.29,2.4,0.21,4.17-0.26,5.38
				C172.76,66.63,172.56,66.71,172.39,66.63z"/>
		</g>
		<g>
			<path class="st55" d="M196.43,63.91L196.43,63.91c-0.16-0.06-0.23-0.24-0.18-0.4c0.37-1.06,0.43-2.14,0.43-2.82
				c0-0.17,0.14-0.31,0.32-0.31h0c0.18,0,0.32,0.14,0.32,0.32c-0.01,0.72-0.06,1.88-0.47,3.02C196.79,63.9,196.6,63.98,196.43,63.91
				z"/>
		</g>
		<path class="st56" d="M208.08,65.26c0.65-0.61,1.2-0.47,3.44-0.95c0,0,2.35-0.5,4.46-1.31c3.94-1.49,4.99-2.45,6.04-3
			c1.23-0.64,3.78,4.1,2.63,4.87c-1.45,0.97-1.45,0.97-4.83,2.67c-3.47,1.74-5.41,2.7-5.41,2.7c-1.64,1.08-3.7,2.06-4.92,1.9
			c-1.35-0.18-1.34-0.96-1.52-1.21C206.69,69.21,206.78,66.48,208.08,65.26z"/>
	</g>
	<g>
		<defs>
			<rect id="SVGID_1_" x="228.36" y="31.67" width="86.77" height="60.86"/>
		</defs>
		<clipPath id="SVGID_00000092427937862229336030000009895954872141120952_">
			<use xlink:href="#SVGID_1_"  style="overflow:visible;"/>
		</clipPath>
		<g style="clip-path:url(#SVGID_00000092427937862229336030000009895954872141120952_);">
			<g>
				<path class="st58" d="M275.49,107.98h-35.77c4.27-24.09,9.24-23.53,8.63-31.35c-0.12-1.51-1.66-4.97-2.33-5.9
					c-0.74-1.02-2.49-1.57-4.85-1.42c-2.36,0.15-2.96,0.1-3.49-0.5c-0.53-0.59-0.78-0.8-0.76-1.69c0.02-0.76,0.39-1.28,0.14-1.61
					c-0.24-0.33-0.8-0.63-0.93-0.9c-0.18-0.38-0.11-1.05,0.38-1.31c0,0-0.78-0.67-0.75-0.97c0.06-0.76,0.56-0.96,0.43-1.28
					c-0.13-0.32-0.14-0.86-0.93-0.92c-0.36-0.03-1.35-0.24-1.45-0.96c-0.07-0.58,0.3-1.25,0.51-1.52c0.21-0.27,0.9-1.3,1.16-1.76
					c0.26-0.46,0.92-1.3,1.29-1.79c0.42-0.55,0.38-1.31,0.38-1.75c-0.05-3.48,0.42-5.57,1.37-7.18c-0.46-0.83-0.81-1.72-0.97-2.52
					c-0.81-4.03,3.52-5.3,3.52-5.3s-0.05,2,2.44,0.17c3.79-2.78,11.94-1.43,13.85-0.89c1.91,0.54,4.9,2.33,6.19,3.57
					c0.28,0.26,0.49,0.54,0.65,0.82c0.6,1.01,0.52,1.97,0.52,1.97s2.44,1.66,2.68,3.91c1.05,10.07-2.75,13.24-4.88,14.21
					c-1.52,1.99-2.59,3.18-2.32,6.59c0.13,1.66,2.35,7.78,2.36,7.78c3.3,4.33,9.01,13.63,10.8,21.73c0.39,1.79,0.74,3.43,1.03,4.9
					c0.16,0.81,0.31,1.57,0.45,2.29c0.25,1.3,0.45,2.45,0.62,3.45C275.48,107.9,275.49,107.94,275.49,107.98z"/>
			</g>
			<g>
				<path class="st3" d="M311.61,70.7c0.03,0.8-1.17,1.5-1.79,1.58c-0.9,0.11-0.8,0.79-0.79,1.13c0,0.38,0.56,0.52,0.68,1.35
					c0.05,0.33-0.98,1.17-0.98,1.17c0.56,0.25,0.91,0.92,0.74,1.36c-0.12,0.31-0.71,0.67-0.95,1.05c-0.24,0.38,0.32,0.93,0.27,1.75
					c-0.01,0.24-0.17,1.22-0.71,1.91c-0.54,0.69-2.19,0.86-3.84,0.58c-0.4-0.07-0.79-0.13-1.17-0.18c-0.45-0.06-0.89-0.1-1.31-0.11
					c-1.94-0.07-3.48,0.39-4.13,2.09c-0.25,0.67-1.39,4.48-1.13,7.55c0.13,1.58,2.24,6.61,5.19,10.96c1.13,1.67,2.24,3.35,3.23,5.08
					h-32.65c0.37-1.47,0.99-3.47,2.14-5.85c1.23-2.56,3.06-5.57,5.81-8.85c3.21-3.84,3.11-9.5,3.13-10.89
					c0.04-2.35-0.44-3.71-1.24-4.9c-1.54,2.11-3.94,2.22-5.25-0.62c0,0-2.01,2.06-4.44,0.8c-5.17-2.69-2.29-6.83-2.29-6.83
					c-4.64-3.81-0.9-10.34,4.67-8.09c3.3-12.07,12.61-13.04,18.55-12.3c0.23,0.01,0.45,0.03,0.68,0.05v0
					c0.41,0.03,0.83,0.08,1.25,0.14c0.05,0.01,0.11,0.01,0.16,0.02c0.53,0.08,1.07,0.17,1.61,0.29c3.11,0.7,6.21,2.16,8.29,5.04
					c1.25,1.71,1.96,3.99,2.15,7.96c0.02,0.48-0.08,1.67,0.42,2.24c0.44,0.51,2.29,2.85,2.73,3.29
					C310.89,69.74,311.59,70.27,311.61,70.7z"/>
			</g>
		</g>
	</g>
	<g>
		<path class="st59" d="M261.04,49.69l-0.07-1.13l-1.14-0.35c-0.08-0.21-0.17-0.4-0.29-0.59l0.43-1.11l-0.85-0.75l-1.05,0.56
			c-0.2-0.09-0.4-0.16-0.62-0.21l-0.48-1.09l-1.13,0.07l-0.35,1.14c-0.21,0.08-0.4,0.17-0.59,0.29l-1.11-0.43l-0.75,0.85l0.56,1.05
			c-0.09,0.2-0.16,0.4-0.21,0.62l-1.09,0.48l0.07,1.13l1.14,0.35c0.08,0.21,0.17,0.4,0.29,0.59l-0.43,1.11l0.85,0.75l1.05-0.56
			c0.2,0.09,0.4,0.16,0.62,0.21l0.48,1.09l1.13-0.07l0.35-1.14c0.21-0.08,0.4-0.17,0.59-0.29l1.11,0.43l0.75-0.85l-0.56-1.05
			c0.09-0.2,0.16-0.4,0.21-0.62L261.04,49.69z M256.78,51.32c-1.07,0.06-1.99-0.75-2.06-1.82c-0.06-1.07,0.75-1.99,1.82-2.06
			c1.07-0.06,1.99,0.75,2.06,1.82C258.67,50.34,257.85,51.26,256.78,51.32z"/>
		<path class="st59" d="M265.08,45.74l-0.24-0.52l-0.6,0.05c-0.07-0.08-0.15-0.16-0.24-0.22v-0.6l-0.53-0.2l-0.39,0.45
			c-0.11-0.01-0.22,0-0.33,0.01l-0.42-0.42l-0.52,0.24l0.05,0.6c-0.08,0.07-0.16,0.15-0.22,0.24h-0.6l-0.2,0.53l0.45,0.39
			c-0.01,0.11,0,0.22,0.01,0.33l-0.42,0.42l0.24,0.52l0.6-0.05c0.07,0.08,0.15,0.16,0.24,0.22v0.6l0.53,0.2l0.39-0.45
			c0.11,0.01,0.22,0,0.33-0.01l0.42,0.42l0.52-0.24l-0.05-0.6c0.08-0.07,0.16-0.15,0.22-0.24h0.6l0.2-0.53l-0.45-0.39
			c0.01-0.11,0-0.22-0.01-0.33L265.08,45.74z M263.39,47.28c-0.49,0.23-1.07,0.01-1.29-0.48c-0.23-0.49-0.01-1.07,0.48-1.29
			c0.49-0.23,1.07-0.01,1.29,0.48C264.09,46.47,263.88,47.05,263.39,47.28z"/>
		<path class="st60" d="M265.29,51.38c0-0.02,0-0.04,0-0.06l0.42-0.12l-0.01-0.12l-0.44-0.03c-0.01-0.04-0.02-0.08-0.02-0.12
			l0.39-0.2l-0.04-0.11l-0.43,0.06c-0.02-0.04-0.03-0.07-0.05-0.11l0.34-0.28l-0.06-0.1l-0.41,0.15c-0.02-0.03-0.05-0.07-0.07-0.1
			l0.27-0.34l-0.08-0.09l-0.37,0.23c-0.03-0.03-0.06-0.05-0.09-0.08l0.19-0.39l-0.1-0.07l-0.31,0.31c-0.03-0.02-0.07-0.04-0.1-0.06
			l0.11-0.42l-0.11-0.05l-0.24,0.36c-0.04-0.01-0.08-0.03-0.12-0.04l0.02-0.44l-0.12-0.03l-0.16,0.41
			c-0.04-0.01-0.08-0.01-0.12-0.01l-0.07-0.43h-0.12l-0.07,0.43c-0.04,0-0.08,0.01-0.12,0.01l-0.16-0.41l-0.12,0.03l0.02,0.44
			c-0.04,0.01-0.08,0.02-0.12,0.04l-0.24-0.36l-0.11,0.05l0.11,0.42c-0.04,0.02-0.07,0.04-0.1,0.06l-0.31-0.31l-0.1,0.07l0.19,0.39
			c-0.03,0.03-0.06,0.05-0.09,0.08l-0.37-0.23l-0.08,0.09l0.27,0.34c-0.02,0.03-0.05,0.06-0.07,0.1l-0.41-0.15l-0.06,0.1l0.34,0.28
			c-0.02,0.04-0.03,0.07-0.05,0.11l-0.43-0.06l-0.04,0.11l0.39,0.2c-0.01,0.04-0.02,0.08-0.02,0.12l-0.44,0.03l-0.01,0.12l0.42,0.12
			c0,0.02,0,0.04,0,0.06s0,0.04,0,0.06l-0.42,0.12l0.01,0.12l0.44,0.03c0.01,0.04,0.02,0.08,0.02,0.12l-0.39,0.2l0.04,0.11
			l0.43-0.06c0.02,0.04,0.03,0.07,0.05,0.11l-0.34,0.28l0.06,0.1l0.41-0.15c0.02,0.03,0.05,0.07,0.07,0.1l-0.27,0.34l0.08,0.09
			l0.37-0.23c0.03,0.03,0.06,0.05,0.09,0.08l-0.19,0.39l0.1,0.07l0.31-0.31c0.03,0.02,0.07,0.04,0.1,0.06l-0.11,0.42l0.11,0.05
			l0.24-0.36c0.04,0.01,0.08,0.03,0.12,0.04l-0.02,0.44l0.12,0.03l0.16-0.41c0.04,0.01,0.08,0.01,0.12,0.01l0.07,0.43h0.12
			l0.07-0.43c0.04,0,0.08-0.01,0.12-0.01l0.16,0.41l0.12-0.03l-0.02-0.44c0.04-0.01,0.08-0.02,0.12-0.04l0.24,0.36l0.11-0.05
			l-0.11-0.42c0.04-0.02,0.07-0.04,0.1-0.06l0.31,0.31l0.1-0.07l-0.19-0.39c0.03-0.03,0.06-0.05,0.09-0.08l0.37,0.23l0.08-0.09
			l-0.27-0.34c0.02-0.03,0.05-0.06,0.07-0.1l0.41,0.15l0.06-0.1l-0.34-0.28c0.02-0.04,0.03-0.07,0.05-0.11l0.43,0.06l0.04-0.11
			l-0.39-0.2c0.01-0.04,0.02-0.08,0.02-0.12l0.44-0.03l0.01-0.12l-0.42-0.12C265.29,51.42,265.29,51.4,265.29,51.38z M264.93,51.38
			c0,0.41-0.16,0.77-0.42,1.04l-0.64-0.78c0.04-0.07,0.07-0.15,0.07-0.23l0.98-0.25C264.93,51.24,264.93,51.31,264.93,51.38z
			 M263.82,51.05c-0.05-0.06-0.12-0.11-0.2-0.14l0.07-1.01c0.46,0.08,0.85,0.37,1.07,0.77L263.82,51.05z M263.18,49.9l0.07,1.01
			c-0.08,0.03-0.14,0.08-0.2,0.14l-0.94-0.37C262.32,50.28,262.71,49.98,263.18,49.9z M261.95,51.17l0.98,0.25
			c0.01,0.08,0.03,0.16,0.07,0.23l-0.64,0.78c-0.26-0.27-0.42-0.64-0.42-1.04C261.94,51.31,261.94,51.24,261.95,51.17z
			 M263.31,51.87c0.04,0.01,0.08,0.02,0.12,0.02s0.08-0.01,0.12-0.02l0.54,0.85c-0.2,0.1-0.42,0.15-0.66,0.15s-0.46-0.06-0.66-0.15
			L263.31,51.87z"/>
		<path class="st59" d="M249.07,41.88c0-0.02,0-0.04,0-0.06l0.45-0.13l-0.01-0.13l-0.47-0.03c-0.01-0.04-0.02-0.08-0.03-0.13
			l0.41-0.22l-0.04-0.12l-0.46,0.07c-0.02-0.04-0.03-0.08-0.05-0.12l0.36-0.3l-0.06-0.11l-0.44,0.16c-0.02-0.04-0.05-0.07-0.08-0.1
			l0.29-0.37l-0.09-0.1l-0.4,0.25c-0.03-0.03-0.06-0.06-0.1-0.09l0.21-0.42l-0.1-0.08l-0.33,0.33c-0.04-0.02-0.07-0.04-0.11-0.06
			l0.12-0.45l-0.12-0.05l-0.26,0.39c-0.04-0.01-0.08-0.03-0.12-0.04l0.02-0.47l-0.13-0.03l-0.17,0.43
			c-0.04-0.01-0.09-0.01-0.13-0.01l-0.08-0.46h-0.13l-0.08,0.46c-0.04,0-0.09,0.01-0.13,0.01l-0.17-0.43l-0.13,0.03l0.02,0.47
			c-0.04,0.01-0.08,0.02-0.12,0.04l-0.26-0.39l-0.12,0.05l0.12,0.45c-0.04,0.02-0.08,0.04-0.11,0.06l-0.33-0.33l-0.1,0.08l0.21,0.42
			c-0.03,0.03-0.06,0.06-0.1,0.09l-0.4-0.25l-0.09,0.1l0.29,0.37c-0.03,0.03-0.05,0.07-0.08,0.1l-0.44-0.16l-0.06,0.11l0.36,0.3
			c-0.02,0.04-0.04,0.08-0.05,0.12l-0.46-0.07l-0.04,0.12l0.41,0.22c-0.01,0.04-0.02,0.08-0.03,0.13l-0.47,0.03l-0.01,0.13
			l0.45,0.13c0,0.02,0,0.04,0,0.06c0,0.02,0,0.04,0,0.06l-0.45,0.13l0.01,0.13l0.47,0.03c0.01,0.04,0.02,0.08,0.03,0.13l-0.41,0.22
			l0.04,0.12l0.46-0.07c0.02,0.04,0.03,0.08,0.05,0.12l-0.36,0.3l0.06,0.11l0.44-0.16c0.02,0.04,0.05,0.07,0.08,0.1l-0.29,0.37
			l0.09,0.1l0.4-0.25c0.03,0.03,0.06,0.06,0.1,0.09l-0.21,0.42l0.1,0.08l0.33-0.33c0.04,0.02,0.07,0.04,0.11,0.06l-0.12,0.45
			l0.12,0.05l0.26-0.39c0.04,0.01,0.08,0.03,0.12,0.04l-0.02,0.47l0.13,0.03l0.17-0.43c0.04,0.01,0.09,0.01,0.13,0.01l0.08,0.46
			h0.13l0.08-0.46c0.04,0,0.09-0.01,0.13-0.01l0.17,0.43l0.13-0.03l-0.02-0.47c0.04-0.01,0.08-0.02,0.12-0.04l0.26,0.39l0.12-0.05
			l-0.12-0.45c0.04-0.02,0.08-0.04,0.11-0.06l0.33,0.33l0.1-0.08l-0.21-0.42c0.03-0.03,0.06-0.06,0.1-0.09l0.4,0.25l0.09-0.1
			l-0.29-0.37c0.03-0.03,0.05-0.07,0.08-0.1l0.44,0.16l0.06-0.11l-0.36-0.3c0.02-0.04,0.04-0.08,0.05-0.12l0.46,0.07l0.04-0.12
			l-0.41-0.22c0.01-0.04,0.02-0.08,0.03-0.13l0.47-0.03l0.01-0.13l-0.45-0.13C249.07,41.92,249.07,41.9,249.07,41.88z M248.69,41.88
			c0,0.43-0.17,0.82-0.45,1.11l-0.69-0.83c0.04-0.07,0.07-0.16,0.08-0.25l1.04-0.26C248.68,41.73,248.69,41.8,248.69,41.88z
			 M247.5,41.53c-0.06-0.07-0.13-0.12-0.21-0.15l0.07-1.07c0.49,0.09,0.91,0.4,1.14,0.83L247.5,41.53z M246.81,40.31l0.07,1.07
			c-0.08,0.03-0.15,0.09-0.21,0.15l-1-0.4C245.9,40.7,246.32,40.39,246.81,40.31z M245.51,41.65l1.04,0.26
			c0.01,0.09,0.03,0.17,0.08,0.25l-0.69,0.83c-0.28-0.29-0.45-0.68-0.45-1.11C245.49,41.8,245.5,41.73,245.51,41.65z M246.96,42.4
			c0.04,0.01,0.08,0.02,0.13,0.02c0.04,0,0.09-0.01,0.13-0.02l0.57,0.91c-0.21,0.1-0.45,0.16-0.7,0.16c-0.25,0-0.49-0.06-0.7-0.16
			L246.96,42.4z"/>
		<path class="st59" d="M244.68,51.12c0.01-0.01,0.02-0.03,0.03-0.04l0.31,0.11l0.05-0.08l-0.26-0.21c0.01-0.03,0.03-0.06,0.04-0.08
			l0.33,0.05l0.03-0.09l-0.29-0.15c0.01-0.03,0.01-0.06,0.02-0.09l0.33-0.02l0.01-0.09l-0.32-0.09c0-0.03,0-0.06,0-0.09l0.32-0.09
			l-0.01-0.09l-0.33-0.02c-0.01-0.03-0.01-0.06-0.02-0.09l0.29-0.15l-0.03-0.09l-0.33,0.05c-0.01-0.03-0.02-0.06-0.04-0.08
			l0.25-0.21l-0.05-0.08l-0.31,0.12c-0.02-0.03-0.04-0.05-0.05-0.07l0.2-0.26l-0.06-0.07l-0.28,0.18c-0.02-0.02-0.04-0.04-0.07-0.06
			l0.15-0.3l-0.07-0.05l-0.24,0.23c-0.03-0.02-0.05-0.03-0.08-0.05l0.08-0.32l-0.08-0.04l-0.18,0.28c-0.03-0.01-0.06-0.02-0.09-0.03
			l0.01-0.33l-0.09-0.02l-0.12,0.31c-0.03,0-0.06-0.01-0.09-0.01l-0.06-0.33h-0.09l-0.05,0.33c-0.03,0-0.06,0.01-0.09,0.01
			l-0.12-0.31l-0.09,0.02l0.01,0.33c-0.03,0.01-0.06,0.02-0.09,0.03l-0.18-0.27l-0.08,0.04l0.08,0.32
			c-0.03,0.01-0.05,0.03-0.08,0.05l-0.24-0.23l-0.07,0.05l0.15,0.3c-0.02,0.02-0.05,0.04-0.07,0.06l-0.28-0.18l-0.06,0.07l0.21,0.26
			c-0.01,0.01-0.02,0.02-0.03,0.04c-0.01,0.01-0.02,0.03-0.03,0.04l-0.31-0.11l-0.05,0.08l0.26,0.21c-0.01,0.03-0.03,0.06-0.04,0.08
			l-0.33-0.05l-0.03,0.09l0.29,0.15c-0.01,0.03-0.01,0.06-0.02,0.09l-0.33,0.02l-0.01,0.09l0.32,0.09c0,0.03,0,0.06,0,0.09
			l-0.32,0.09l0.01,0.09l0.33,0.02c0.01,0.03,0.01,0.06,0.02,0.09l-0.29,0.15l0.03,0.09l0.33-0.05c0.01,0.03,0.02,0.06,0.04,0.08
			l-0.25,0.21l0.05,0.08l0.31-0.12c0.02,0.03,0.04,0.05,0.05,0.07l-0.2,0.26l0.06,0.07l0.28-0.18c0.02,0.02,0.04,0.04,0.07,0.06
			l-0.15,0.3l0.07,0.05l0.24-0.23c0.03,0.02,0.05,0.03,0.08,0.05l-0.08,0.32l0.08,0.04l0.18-0.28c0.03,0.01,0.06,0.02,0.09,0.03
			l-0.01,0.33l0.09,0.02l0.12-0.31c0.03,0,0.06,0.01,0.09,0.01l0.06,0.33h0.09l0.05-0.33c0.03,0,0.06-0.01,0.09-0.01l0.12,0.31
			l0.09-0.02l-0.01-0.33c0.03-0.01,0.06-0.02,0.09-0.03l0.18,0.27l0.08-0.04l-0.08-0.32c0.03-0.01,0.05-0.03,0.08-0.05l0.24,0.23
			l0.07-0.05l-0.15-0.3c0.02-0.02,0.05-0.04,0.07-0.06l0.28,0.18l0.06-0.07l-0.21-0.26C244.66,51.14,244.67,51.13,244.68,51.12z
			 M244.46,50.96c-0.18,0.25-0.44,0.4-0.72,0.45l-0.05-0.76c0.06-0.02,0.11-0.06,0.15-0.11l0.71,0.28
			C244.52,50.87,244.49,50.91,244.46,50.96z M243.93,50.26c0-0.06-0.02-0.12-0.06-0.17l0.48-0.59c0.25,0.25,0.36,0.61,0.31,0.95
			L243.93,50.26z M244.04,49.28l-0.4,0.64c-0.06-0.01-0.12-0.01-0.18,0l-0.41-0.64C243.35,49.13,243.72,49.12,244.04,49.28z
			 M242.73,49.51l0.49,0.58c-0.03,0.05-0.05,0.11-0.06,0.17l-0.74,0.19c-0.04-0.28,0.02-0.58,0.2-0.83
			C242.66,49.59,242.69,49.55,242.73,49.51z M243.25,50.54c0.02,0.02,0.04,0.04,0.07,0.06c0.03,0.02,0.05,0.03,0.08,0.04l-0.05,0.76
			c-0.17-0.03-0.33-0.09-0.47-0.2c-0.15-0.1-0.26-0.24-0.34-0.39L243.25,50.54z"/>
		<path class="st60" d="M255.49,43.67c0.02-0.02,0.03-0.05,0.05-0.08l0.63,0.23l0.09-0.16l-0.51-0.42c0.03-0.06,0.05-0.11,0.07-0.17
			l0.66,0.09l0.06-0.17l-0.59-0.31c0.01-0.06,0.03-0.12,0.04-0.18l0.66-0.04l0.02-0.18l-0.64-0.18c0-0.06,0-0.12,0-0.18l0.64-0.18
			l-0.02-0.18l-0.66-0.04c-0.01-0.06-0.02-0.12-0.04-0.18l0.59-0.31l-0.06-0.17l-0.66,0.1c-0.02-0.06-0.05-0.11-0.07-0.17l0.51-0.43
			l-0.09-0.16l-0.62,0.23c-0.03-0.05-0.07-0.1-0.11-0.15l0.41-0.52l-0.12-0.14l-0.56,0.36c-0.04-0.04-0.09-0.08-0.14-0.12l0.29-0.6
			l-0.15-0.11l-0.48,0.47c-0.05-0.03-0.11-0.06-0.16-0.09l0.16-0.65l-0.17-0.07l-0.37,0.55c-0.06-0.02-0.12-0.04-0.17-0.06
			l0.02-0.66l-0.18-0.04l-0.24,0.62c-0.06-0.01-0.12-0.01-0.18-0.02l-0.11-0.66h-0.18l-0.11,0.66c-0.06,0-0.12,0.01-0.18,0.02
			l-0.25-0.62l-0.18,0.04l0.03,0.67c-0.06,0.02-0.12,0.04-0.17,0.06l-0.37-0.55l-0.17,0.08l0.17,0.64
			c-0.05,0.03-0.11,0.06-0.16,0.09l-0.48-0.46l-0.15,0.11l0.3,0.6c-0.05,0.04-0.09,0.08-0.14,0.12l-0.56-0.35l-0.12,0.14l0.41,0.52
			c-0.02,0.02-0.04,0.05-0.06,0.07c-0.02,0.02-0.03,0.05-0.05,0.08l-0.63-0.23l-0.09,0.16l0.51,0.42c-0.03,0.06-0.05,0.11-0.07,0.17
			l-0.66-0.09l-0.06,0.17l0.59,0.31c-0.01,0.06-0.03,0.12-0.04,0.18l-0.66,0.04l-0.02,0.18l0.64,0.18c0,0.06,0,0.12,0,0.18
			l-0.64,0.18l0.02,0.18l0.66,0.04c0.01,0.06,0.02,0.12,0.04,0.18l-0.59,0.31l0.06,0.17l0.66-0.1c0.02,0.06,0.05,0.11,0.07,0.17
			l-0.51,0.43l0.09,0.16l0.62-0.23c0.03,0.05,0.07,0.1,0.11,0.15l-0.41,0.52l0.12,0.14l0.56-0.36c0.04,0.04,0.09,0.08,0.14,0.12
			l-0.29,0.6l0.15,0.11l0.48-0.47c0.05,0.03,0.11,0.06,0.16,0.09l-0.16,0.65l0.17,0.07l0.37-0.55c0.06,0.02,0.12,0.04,0.17,0.06
			l-0.02,0.66l0.18,0.04l0.24-0.62c0.06,0.01,0.12,0.01,0.18,0.02l0.11,0.66h0.18l0.11-0.66c0.06,0,0.12-0.01,0.18-0.02l0.25,0.62
			l0.18-0.04L254,44.73c0.06-0.02,0.12-0.04,0.17-0.06l0.37,0.55l0.17-0.08l-0.17-0.64c0.05-0.03,0.11-0.06,0.16-0.09l0.48,0.46
			l0.15-0.11l-0.3-0.6c0.05-0.04,0.09-0.08,0.14-0.12l0.56,0.35l0.12-0.14l-0.41-0.52C255.45,43.72,255.47,43.7,255.49,43.67z
			 M255.05,43.35c-0.36,0.5-0.89,0.81-1.45,0.91l-0.1-1.53c0.11-0.05,0.21-0.12,0.3-0.22l1.42,0.56
			C255.16,43.17,255.11,43.26,255.05,43.35z M253.97,41.96c-0.01-0.12-0.05-0.24-0.11-0.35l0.97-1.18c0.5,0.51,0.72,1.22,0.63,1.9
			L253.97,41.96z M254.2,39.98l-0.81,1.3c-0.12-0.03-0.25-0.03-0.37,0l-0.82-1.29C252.82,39.68,253.56,39.66,254.2,39.98z
			 M251.57,40.44l0.98,1.17c-0.07,0.11-0.1,0.23-0.11,0.35l-1.48,0.38c-0.08-0.56,0.05-1.16,0.41-1.66
			C251.42,40.6,251.49,40.52,251.57,40.44z M252.62,42.52c0.04,0.05,0.08,0.09,0.14,0.13c0.05,0.04,0.11,0.07,0.16,0.09l-0.1,1.53
			c-0.33-0.06-0.66-0.19-0.95-0.4c-0.29-0.21-0.52-0.48-0.67-0.78L252.62,42.52z"/>
		<path class="st61" d="M251.46,48.22c0-0.03,0-0.06,0-0.09l0.65-0.15l-0.01-0.18l-0.67-0.07c-0.01-0.06-0.02-0.12-0.03-0.18
			l0.61-0.28l-0.05-0.18l-0.67,0.07c-0.02-0.06-0.04-0.12-0.07-0.17l0.54-0.4l-0.08-0.16l-0.64,0.2c-0.03-0.05-0.07-0.1-0.1-0.15
			l0.44-0.51l-0.12-0.14l-0.58,0.33c-0.04-0.04-0.09-0.09-0.13-0.13l0.33-0.59l-0.14-0.12l-0.5,0.45c-0.05-0.04-0.1-0.07-0.16-0.1
			l0.2-0.64l-0.17-0.08l-0.4,0.54c-0.06-0.02-0.11-0.04-0.17-0.06l0.06-0.67l-0.18-0.05l-0.28,0.61c-0.06-0.01-0.12-0.02-0.18-0.03
			l-0.08-0.67l-0.18-0.01l-0.14,0.66c-0.06,0-0.12,0-0.18,0.01l-0.22-0.63l-0.18,0.03v0.67c-0.06,0.01-0.12,0.03-0.18,0.05
			l-0.35-0.57l-0.17,0.07l0.14,0.66c-0.06,0.03-0.11,0.06-0.16,0.09l-0.46-0.49l-0.15,0.1l0.27,0.61c-0.05,0.04-0.1,0.08-0.14,0.12
			l-0.55-0.39l-0.13,0.13l0.39,0.55c-0.04,0.05-0.08,0.09-0.12,0.14l-0.62-0.26l-0.1,0.16l0.5,0.45c-0.03,0.05-0.06,0.11-0.08,0.17
			l-0.66-0.13l-0.07,0.17l0.58,0.34c-0.02,0.06-0.03,0.12-0.05,0.18l-0.67,0.01l-0.03,0.18l0.64,0.21c0,0.03-0.01,0.06-0.01,0.09
			c0,0.03,0,0.06,0,0.09l-0.65,0.15l0.01,0.18l0.67,0.07c0.01,0.06,0.02,0.12,0.03,0.18l-0.61,0.28l0.05,0.18l0.67-0.07
			c0.02,0.06,0.04,0.12,0.07,0.17l-0.54,0.4l0.08,0.16l0.64-0.2c0.03,0.05,0.07,0.1,0.1,0.15l-0.44,0.51l0.12,0.14l0.58-0.33
			c0.04,0.04,0.09,0.09,0.13,0.13l-0.33,0.59l0.14,0.12l0.5-0.45c0.05,0.04,0.1,0.07,0.16,0.1l-0.2,0.64l0.17,0.08l0.4-0.54
			c0.06,0.02,0.11,0.04,0.17,0.06l-0.06,0.67l0.18,0.05l0.28-0.61c0.06,0.01,0.12,0.02,0.18,0.03l0.08,0.67l0.18,0.01l0.14-0.66
			c0.06,0,0.12,0,0.18-0.01l0.22,0.63l0.18-0.03v-0.67c0.06-0.01,0.12-0.03,0.18-0.05l0.35,0.57l0.17-0.07l-0.14-0.66
			c0.06-0.03,0.11-0.06,0.16-0.09l0.46,0.49l0.15-0.1l-0.27-0.61c0.05-0.04,0.1-0.08,0.14-0.12l0.55,0.39l0.13-0.13l-0.39-0.55
			c0.04-0.05,0.08-0.09,0.12-0.14l0.62,0.26l0.1-0.16l-0.5-0.45c0.03-0.05,0.06-0.11,0.08-0.17l0.66,0.13l0.07-0.17l-0.58-0.34
			c0.02-0.06,0.03-0.12,0.05-0.18l0.67-0.01l0.03-0.18l-0.64-0.21C251.46,48.28,251.46,48.25,251.46,48.22z M248.5,50.61
			c-1.39-0.07-2.47-1.25-2.4-2.64c0.07-1.39,1.25-2.47,2.64-2.4c1.39,0.07,2.47,1.25,2.4,2.64C251.07,49.6,249.89,50.67,248.5,50.61
			z M248.71,46.17c-1.06-0.05-1.95,0.77-2,1.82c-0.05,1.06,0.77,1.95,1.82,2c1.06,0.05,1.95-0.77,2-1.82
			C250.58,47.12,249.76,46.22,248.71,46.17z M248.7,46.4c0.15,0.01,0.26,0.13,0.26,0.28c-0.01,0.15-0.13,0.26-0.28,0.26
			c-0.15-0.01-0.26-0.13-0.26-0.28C248.42,46.51,248.55,46.39,248.7,46.4z M247.48,48.98c-0.13,0.07-0.29,0.02-0.36-0.12
			c-0.07-0.13-0.02-0.29,0.12-0.36c0.13-0.07,0.29-0.02,0.36,0.12C247.66,48.75,247.61,48.91,247.48,48.98z M247.65,47.47
			c-0.08,0.12-0.25,0.16-0.37,0.08c-0.12-0.08-0.16-0.25-0.08-0.37c0.08-0.12,0.25-0.16,0.37-0.08
			C247.69,47.17,247.73,47.34,247.65,47.47z M248.54,49.77c-0.15-0.01-0.26-0.13-0.26-0.28c0.01-0.15,0.13-0.26,0.28-0.26
			c0.15,0.01,0.26,0.13,0.26,0.28C248.81,49.67,248.69,49.78,248.54,49.77z M248.58,49.02c-0.52-0.02-0.92-0.46-0.89-0.98
			c0.02-0.52,0.46-0.92,0.98-0.89c0.52,0.02,0.92,0.46,0.89,0.98C249.53,48.65,249.09,49.05,248.58,49.02z M250.04,49
			c-0.08,0.12-0.25,0.16-0.37,0.08c-0.12-0.08-0.16-0.25-0.08-0.37c0.08-0.12,0.25-0.16,0.37-0.08
			C250.08,48.71,250.12,48.87,250.04,49z M250.12,47.31c0.07,0.13,0.02,0.29-0.12,0.36c-0.13,0.07-0.29,0.02-0.36-0.12
			c-0.07-0.13-0.02-0.29,0.12-0.36C249.89,47.13,250.05,47.18,250.12,47.31z"/>
		<path class="st60" d="M251.62,51.43c-0.69-0.03-1.27,0.5-1.3,1.18c-0.03,0.69,0.5,1.27,1.18,1.3c0.69,0.03,1.27-0.5,1.3-1.18
			C252.83,52.04,252.3,51.46,251.62,51.43z M251.61,51.58c0.1,0,0.17,0.09,0.17,0.18c0,0.1-0.09,0.17-0.18,0.17
			c-0.1,0-0.17-0.09-0.17-0.18C251.43,51.64,251.52,51.57,251.61,51.58z M250.82,53.25c-0.09,0.04-0.19,0.01-0.23-0.07
			c-0.04-0.09-0.01-0.19,0.07-0.23c0.09-0.04,0.19-0.01,0.23,0.07C250.94,53.1,250.91,53.2,250.82,53.25z M250.93,52.27
			c-0.05,0.08-0.16,0.1-0.24,0.05c-0.08-0.05-0.1-0.16-0.05-0.24c0.05-0.08,0.16-0.1,0.24-0.05
			C250.96,52.08,250.98,52.18,250.93,52.27z M251.51,53.76c-0.1,0-0.17-0.09-0.17-0.18c0-0.1,0.09-0.17,0.18-0.17
			c0.1,0,0.17,0.09,0.17,0.18C251.69,53.69,251.61,53.77,251.51,53.76z M251.53,53.28c-0.34-0.02-0.59-0.3-0.58-0.64
			c0.02-0.34,0.3-0.59,0.64-0.58c0.34,0.02,0.59,0.3,0.58,0.64C252.15,53.03,251.87,53.29,251.53,53.28z M252.48,53.26
			c-0.05,0.08-0.16,0.1-0.24,0.05c-0.08-0.05-0.1-0.16-0.05-0.24c0.05-0.08,0.16-0.1,0.24-0.05
			C252.51,53.07,252.53,53.18,252.48,53.26z M252.53,52.17c0.04,0.09,0.01,0.19-0.07,0.23c-0.09,0.04-0.19,0.01-0.23-0.07
			c-0.04-0.09-0.01-0.19,0.07-0.23C252.38,52.05,252.49,52.08,252.53,52.17z"/>
		<path class="st61" d="M240.22,50.32c-0.74-0.03-1.31-0.66-1.28-1.41c0.03-0.74,0.66-1.31,1.41-1.28c0.74,0.03,1.31,0.66,1.28,1.41
			C241.59,49.78,240.97,50.35,240.22,50.32z M240.33,47.96c-0.56-0.03-1.04,0.41-1.07,0.97c-0.03,0.56,0.41,1.04,0.97,1.07
			c0.56,0.03,1.04-0.41,1.07-0.97C241.33,48.46,240.9,47.98,240.33,47.96z M240.33,48.08c0.08,0,0.14,0.07,0.14,0.15
			c0,0.08-0.07,0.14-0.15,0.14c-0.08,0-0.14-0.07-0.14-0.15C240.18,48.13,240.25,48.07,240.33,48.08z M239.68,49.45
			c-0.07,0.04-0.16,0.01-0.19-0.06c-0.04-0.07-0.01-0.16,0.06-0.19c0.07-0.04,0.16-0.01,0.19,0.06
			C239.78,49.33,239.75,49.41,239.68,49.45z M239.77,48.64c-0.04,0.07-0.13,0.09-0.2,0.04c-0.07-0.04-0.09-0.13-0.04-0.2
			c0.04-0.07,0.13-0.09,0.2-0.04C239.79,48.49,239.81,48.58,239.77,48.64z M240.24,49.87c-0.08,0-0.14-0.07-0.14-0.15
			c0-0.08,0.07-0.14,0.15-0.14c0.08,0,0.14,0.07,0.14,0.15C240.39,49.82,240.32,49.88,240.24,49.87z M240.26,49.47
			c-0.28-0.01-0.49-0.25-0.48-0.52c0.01-0.28,0.25-0.49,0.52-0.48s0.49,0.25,0.48,0.52C240.77,49.27,240.54,49.49,240.26,49.47z
			 M241.04,49.46c-0.04,0.07-0.13,0.09-0.2,0.04c-0.07-0.04-0.09-0.13-0.04-0.2s0.13-0.09,0.2-0.04
			C241.07,49.31,241.09,49.39,241.04,49.46z M241.09,48.56c0.04,0.07,0.01,0.16-0.06,0.19c-0.07,0.04-0.16,0.01-0.19-0.06
			c-0.04-0.07-0.01-0.16,0.06-0.19C240.96,48.46,241.05,48.49,241.09,48.56z"/>
		<path class="st61" d="M259.5,55.85c-0.74-0.03-1.31-0.66-1.28-1.41c0.03-0.74,0.66-1.31,1.41-1.28c0.74,0.03,1.31,0.66,1.28,1.41
			C260.87,55.31,260.24,55.89,259.5,55.85z M259.61,53.49c-0.56-0.03-1.04,0.41-1.07,0.97c-0.03,0.56,0.41,1.04,0.97,1.07
			c0.56,0.03,1.04-0.41,1.07-0.97C260.61,53.99,260.18,53.52,259.61,53.49z M259.61,53.61c0.08,0,0.14,0.07,0.14,0.15
			c0,0.08-0.07,0.14-0.15,0.14c-0.08,0-0.14-0.07-0.14-0.15C259.46,53.67,259.53,53.61,259.61,53.61z M258.96,54.98
			c-0.07,0.04-0.16,0.01-0.19-0.06c-0.04-0.07-0.01-0.16,0.06-0.19c0.07-0.04,0.16-0.01,0.19,0.06
			C259.06,54.86,259.03,54.95,258.96,54.98z M259.05,54.18c-0.04,0.07-0.13,0.09-0.2,0.04c-0.07-0.04-0.09-0.13-0.04-0.2
			c0.04-0.07,0.13-0.09,0.2-0.04C259.07,54.02,259.09,54.11,259.05,54.18z M259.52,55.41c-0.08,0-0.14-0.07-0.14-0.15
			c0-0.08,0.07-0.14,0.15-0.14c0.08,0,0.14,0.07,0.14,0.15C259.67,55.35,259.6,55.41,259.52,55.41z M259.54,55.01
			c-0.28-0.01-0.49-0.25-0.48-0.52c0.01-0.28,0.25-0.49,0.52-0.48c0.28,0.01,0.49,0.25,0.48,0.52
			C260.05,54.81,259.82,55.02,259.54,55.01z M260.32,55c-0.04,0.07-0.13,0.09-0.2,0.04c-0.07-0.04-0.09-0.13-0.04-0.2
			c0.04-0.07,0.13-0.09,0.2-0.04C260.35,54.84,260.37,54.93,260.32,55z M260.36,54.1c0.04,0.07,0.01,0.16-0.06,0.19
			c-0.07,0.04-0.16,0.01-0.19-0.06c-0.04-0.07-0.01-0.16,0.06-0.19C260.24,54,260.33,54.03,260.36,54.1z"/>
		<path class="st60" d="M245.36,45.27v-0.52l-0.74-0.09c-0.02-0.13-0.05-0.25-0.1-0.37l0.6-0.45l-0.26-0.45l-0.68,0.29
			c-0.08-0.1-0.17-0.19-0.27-0.27l0.29-0.68l-0.45-0.26l-0.45,0.6c-0.12-0.04-0.24-0.08-0.37-0.1l-0.09-0.74h-0.52l-0.09,0.74
			c-0.13,0.02-0.25,0.05-0.37,0.1l-0.45-0.6l-0.45,0.26l0.29,0.68c-0.1,0.08-0.19,0.17-0.27,0.27l-0.68-0.29l-0.26,0.45l0.6,0.45
			c-0.04,0.12-0.08,0.24-0.1,0.37l-0.74,0.09v0.52l0.74,0.09c0.02,0.13,0.05,0.25,0.1,0.37l-0.6,0.45l0.26,0.45l0.68-0.29
			c0.08,0.1,0.17,0.19,0.27,0.27l-0.29,0.68l0.45,0.26l0.45-0.6c0.12,0.04,0.24,0.08,0.37,0.1l0.09,0.74h0.52l0.09-0.74
			c0.13-0.02,0.25-0.05,0.37-0.1l0.45,0.6l0.45-0.26l-0.29-0.68c0.1-0.08,0.19-0.17,0.27-0.27l0.68,0.29l0.26-0.45l-0.59-0.45
			c0.04-0.12,0.08-0.24,0.1-0.37L245.36,45.27z M243.8,45.01c0,0.68-0.55,1.23-1.23,1.23c-0.68,0-1.23-0.55-1.23-1.23
			c0-0.68,0.55-1.23,1.23-1.23C243.25,43.79,243.8,44.34,243.8,45.01z M243.24,45.01c0,0.37-0.3,0.67-0.67,0.67s-0.67-0.3-0.67-0.67
			s0.3-0.67,0.67-0.67S243.24,44.65,243.24,45.01z"/>
		<path class="st61" d="M262.07,42.65v-0.47l-0.66-0.08c-0.02-0.11-0.05-0.22-0.09-0.33l0.54-0.4l-0.23-0.41L261,41.22
			c-0.07-0.09-0.15-0.17-0.24-0.24l0.26-0.62l-0.41-0.23l-0.4,0.54c-0.11-0.04-0.22-0.07-0.33-0.09l-0.08-0.66h-0.47l-0.08,0.66
			c-0.11,0.02-0.22,0.05-0.33,0.09l-0.4-0.54l-0.41,0.23l0.26,0.62c-0.09,0.07-0.17,0.15-0.24,0.24l-0.62-0.26l-0.23,0.41l0.54,0.4
			c-0.04,0.11-0.07,0.22-0.09,0.33l-0.67,0.08v0.47l0.67,0.08c0.02,0.11,0.05,0.22,0.09,0.33l-0.54,0.4l0.23,0.41l0.62-0.26
			c0.07,0.09,0.15,0.17,0.24,0.24l-0.26,0.62l0.41,0.23l0.4-0.54c0.11,0.04,0.22,0.07,0.33,0.09l0.08,0.66h0.47l0.08-0.66
			c0.11-0.02,0.22-0.05,0.33-0.09l0.4,0.54l0.41-0.23l-0.26-0.62c0.09-0.07,0.17-0.15,0.24-0.24l0.62,0.26l0.23-0.41l-0.54-0.4
			c0.04-0.11,0.07-0.22,0.09-0.33L262.07,42.65z M260.67,42.41c0,0.61-0.49,1.1-1.1,1.1c-0.61,0-1.1-0.49-1.1-1.1
			c0-0.61,0.49-1.1,1.1-1.1C260.17,41.31,260.67,41.81,260.67,42.41z M260.17,42.41c0,0.33-0.27,0.6-0.6,0.6
			c-0.33,0-0.6-0.27-0.6-0.6c0-0.33,0.27-0.6,0.6-0.6C259.9,41.81,260.17,42.08,260.17,42.41z"/>
		<path class="st59" d="M259.46,61.03l0.09-0.33l-0.45-0.19c0.01-0.08,0.01-0.16,0-0.25l0.45-0.17l-0.08-0.33L259,59.83
			c-0.03-0.08-0.07-0.15-0.12-0.22l0.3-0.38l-0.24-0.24l-0.39,0.29c-0.07-0.05-0.14-0.09-0.21-0.13l0.07-0.48l-0.33-0.09l-0.19,0.45
			c-0.08-0.01-0.16-0.01-0.25,0l-0.17-0.45l-0.33,0.08l0.06,0.48c-0.08,0.03-0.15,0.07-0.22,0.12l-0.38-0.3l-0.24,0.24l0.29,0.39
			c-0.05,0.07-0.09,0.14-0.13,0.21l-0.48-0.07l-0.09,0.33l0.45,0.19c-0.01,0.08-0.01,0.16,0,0.25l-0.45,0.17l0.08,0.33l0.48-0.06
			c0.03,0.08,0.07,0.15,0.12,0.22l-0.3,0.38l0.24,0.24l0.39-0.29c0.07,0.05,0.14,0.09,0.21,0.13l-0.07,0.48l0.33,0.09l0.19-0.45
			c0.08,0.01,0.16,0.01,0.25,0l0.17,0.45l0.33-0.08l-0.06-0.48c0.08-0.03,0.15-0.07,0.22-0.12l0.38,0.3l0.24-0.24l-0.29-0.39
			c0.05-0.07,0.09-0.14,0.13-0.21L259.46,61.03z M258.54,60.59c-0.12,0.42-0.56,0.67-0.98,0.55c-0.42-0.12-0.67-0.56-0.55-0.98
			c0.12-0.42,0.56-0.67,0.98-0.55C258.41,59.73,258.66,60.17,258.54,60.59z"/>
		<path class="st60" d="M257.74,56.72l0.03-0.48l-0.67-0.13c-0.01-0.12-0.04-0.23-0.07-0.34l0.57-0.37l-0.21-0.43l-0.64,0.23
			c-0.07-0.09-0.15-0.18-0.23-0.26l0.31-0.61l-0.4-0.26l-0.44,0.52c-0.1-0.05-0.21-0.08-0.33-0.11l-0.04-0.68l-0.48-0.03l-0.13,0.67
			c-0.12,0.01-0.23,0.04-0.34,0.07l-0.37-0.57l-0.43,0.21l0.23,0.64c-0.09,0.07-0.18,0.15-0.26,0.23l-0.61-0.31l-0.26,0.4l0.52,0.44
			c-0.05,0.1-0.08,0.21-0.11,0.33l-0.68,0.04l-0.03,0.48l0.67,0.13c0.01,0.12,0.04,0.23,0.07,0.34l-0.57,0.37l0.21,0.43l0.64-0.23
			c0.07,0.09,0.15,0.18,0.23,0.26l-0.31,0.61l0.4,0.26l0.44-0.52c0.1,0.05,0.21,0.08,0.33,0.11l0.04,0.68l0.48,0.03l0.13-0.67
			c0.12-0.01,0.23-0.04,0.34-0.07l0.37,0.57l0.43-0.21l-0.23-0.64c0.09-0.07,0.18-0.15,0.26-0.23l0.61,0.31l0.26-0.4l-0.52-0.44
			c0.05-0.1,0.08-0.21,0.11-0.33L257.74,56.72z M256.33,56.39c-0.04,0.62-0.57,1.09-1.19,1.05c-0.62-0.04-1.09-0.57-1.05-1.19
			c0.04-0.62,0.57-1.09,1.19-1.05C255.9,55.24,256.37,55.77,256.33,56.39z M255.82,56.36c-0.02,0.34-0.31,0.59-0.65,0.57
			c-0.34-0.02-0.59-0.31-0.57-0.65c0.02-0.34,0.31-0.59,0.65-0.57C255.59,55.73,255.84,56.02,255.82,56.36z"/>
	</g>
	<g>
		<path class="st62" d="M285.88,66.41l0.49,7.22l-0.11,0.25l0.33,0.15l0.14-0.3l0.02,0l0-0.03l2.95-6.43l0.28,0.06l0.01-0.02
			l11.63,0.56l0.01-0.21l0.13-0.06l-3.42-7.21l0-0.03l0,0l0,0l0.04-0.22l-0.18-0.03l-0.02-0.04l-0.05,0.03l-0.02-0.02l-0.02,0.01
			l-4.74-0.8l2.85-6.22l-0.03-0.01l0.03-0.01l-0.16-0.33l-10.78,5.21l0.03,0.07l-6.64,6.48l0.13,0.13l-0.04,0.18L285.88,66.41z
			 M301.02,67.48l-10.87-0.52l4.21-3.39L301.02,67.48z M294.66,63.32l3.36-2.71l3.08,6.49L294.66,63.32z M289.98,66.62l2.03-4.43
			l2.01,1.18L289.98,66.62z M289.47,66.85l-3.25-0.73l-0.51-7.63l5.98,3.51L289.47,66.85z M286.45,58.5l6.36,1.07l-0.96,2.1
			L286.45,58.5z M285.85,66.03l-6.72-1.52l6.21-6.07L285.85,66.03z M292.96,59.23l-7.08-1.2l9.8-4.74L292.96,59.23z M293.18,59.64
			l4.52,0.76l-3.38,2.72l-2.16-1.27L293.18,59.64z M286.25,66.5l3.07,0.69l-2.64,5.75L286.25,66.5z"/>
		<g>
			<g>
				<circle class="st63" cx="278.78" cy="64.79" r="1.71"/>
			</g>
			<g>
				<circle class="st64" cx="286.58" cy="73.51" r="1.4"/>
			</g>
			<g>
				<circle class="st63" cx="289.68" cy="67.04" r="0.99"/>
			</g>
			<g>
				<circle class="st63" cx="298.05" cy="60.32" r="1.15"/>
			</g>
			<g>
				<circle class="st64" cx="296.1" cy="53.02" r="1.15"/>
			</g>
			<g>
				<circle class="st64" cx="301.45" cy="67.65" r="1.3"/>
			</g>
			<g>
				<circle class="st63" cx="285.43" cy="58.06" r="1.33"/>
			</g>
		</g>
	</g>
</g>
</svg>
