<?xml version="1.0" encoding="utf-8"?>
<!-- Generator: Adobe Illustrator 28.0.0, SVG Export Plug-In . SVG Version: 6.00 Build 0)  -->
<svg version="1.1" id="Layer_1" xmlns="http://www.w3.org/2000/svg" xmlns:xlink="http://www.w3.org/1999/xlink" x="0px" y="0px"
	 viewBox="0 0 595 170" style="enable-background:new 0 0 595 170;" xml:space="preserve">
<style type="text/css">
	.st0{fill:#CEECFB;}
	.st1{fill:#E6F5FC;}
	.st2{fill:#D6ECE6;}
	.st3{fill:#AEDCCE;}
	.st4{fill:#7DC9A9;}
	.st5{fill:#9BD4EE;}
	.st6{fill:#FFFFFF;}
	.st7{fill:#83C678;}
	.st8{fill:#B4D99A;}
	.st9{fill:#86C2E6;}
	.st10{fill:#2A3886;}
	.st11{fill:#283271;}
	.st12{fill:#2E4199;}
	.st13{fill:#6DC1E4;}
	.st14{fill:#6CA1D6;}
	.st15{fill:#568BC9;}
	.st16{fill:#3A4EA1;}
	.st17{fill:#16AFDA;}
	.st18{fill:#FFC906;}
	.st19{fill:#D9AE28;}
	.st20{fill:#FFDE56;}
	.st21{fill:#203E51;}
	.st22{fill:#345370;}
	.st23{fill:#446B8B;}
	.st24{fill-rule:evenodd;clip-rule:evenodd;fill:#EC9882;}
	.st25{fill:#EC9882;}
	.st26{fill-rule:evenodd;clip-rule:evenodd;fill:#203E51;}
	.st27{fill:#7ACEDB;}
	.st28{fill-rule:evenodd;clip-rule:evenodd;fill:#30BEC7;}
	.st29{fill-rule:evenodd;clip-rule:evenodd;fill:#4FC3CE;}
	.st30{fill-rule:evenodd;clip-rule:evenodd;fill:#0F385B;}
	.st31{fill-rule:evenodd;clip-rule:evenodd;fill:#F6BB9D;}
	.st32{fill:#1593B9;}
	.st33{fill:#77B8D2;}
	.st34{fill-rule:evenodd;clip-rule:evenodd;fill:#4E2F19;}
	.st35{fill-rule:evenodd;clip-rule:evenodd;fill:#B161A2;}
	.st36{fill-rule:evenodd;clip-rule:evenodd;fill:#874158;}
	.st37{fill:#F6BB9D;}
	.st38{fill-rule:evenodd;clip-rule:evenodd;fill:#B56179;}
	.st39{fill-rule:evenodd;clip-rule:evenodd;fill:#FFFFFF;}
	.st40{fill-rule:evenodd;clip-rule:evenodd;fill:#1D4B35;}
	.st41{fill-rule:evenodd;clip-rule:evenodd;fill:#306449;}
	.st42{fill-rule:evenodd;clip-rule:evenodd;fill:#345370;}
	.st43{fill-rule:evenodd;clip-rule:evenodd;fill:#C25519;}
	.st44{fill:#ED312F;}
	.st45{fill:#EF7524;}
	.st46{fill:#E35B25;}
	.st47{fill:#F2ECB2;}
	.st48{fill:#D6D6D6;}
	.st49{fill:#FCB813;}
	.st50{fill:#B86632;}
	.st51{fill:#FAAE49;}
	.st52{fill:#FFE000;}
</style>
<g>
	<rect class="st0" width="595" height="170"/>
	<path class="st1" d="M405.89,28.72C355.6,6.77,290.24,8.32,253.31,35.2c-18.95,13.8-48.19,25.09-72.92,16.2
		C87.12,17.88,46.36,135.9,118.81,160.08c1.93,0.64,309.16,1.99,312.72,0C480.55,132.83,479.62,60.91,405.89,28.72z"/>
	<g>
		<path class="st2" d="M120.94,127.72c0.1,0.09,0.15,0.14,0.15,0.14C121.08,127.86,121.03,127.81,120.94,127.72z"/>
		<path class="st3" d="M88.62,131.34c3.12-1.38,6.32-0.3,8.26,0.3c9.86,3.03,18.75,3.08,18.91,2.52
			c0.24-0.83-18.93-3.73-23.85-14.89c-0.53-1.21-2.55-5.77-0.49-8.41c1.21-1.55,3.3-1.77,3.94-1.84c4.21-0.46,7.76,2.58,9.76,4.34
			c5.59,4.91,14.54,13.19,15.79,14.36c0.1,0.09,0.15,0.14,0.15,0.14c0,0-0.05-0.05-0.15-0.14c-1.65-1.6-16.68-16.64-16.58-30.49
			c0.01-1.29,0.04-5.29,2-6.13c2.32-1,6.08,2.97,7.59,4.57c4,4.22,5.84,8.58,6.72,10.76c4.32,10.67,6.53,20.45,6.81,20.39
			c0.21-0.05-1.51-5.28-0.32-11.8c0.27-1.5,1.34-7.35,4.13-7.84c0.68-0.12,2.01-0.07,3.97,2.24c13.51,15.92,6.43,44.69,2.42,49.69
			c-9.75,12.17-43.27,0.12-44.47-6c-1.21-6.2,27.05-0.55,27.14-4.45c0.01-0.57-16.16,0.51-28.46-5.59
			c-1.66-0.82-7.49-3.72-7.23-7.27C84.81,133.73,86.97,132.07,88.62,131.34z"/>
		<path class="st2" d="M120.94,127.72c0.1,0.09,0.15,0.14,0.15,0.14C121.08,127.86,121.03,127.81,120.94,127.72z"/>
		<path class="st4" d="M106.36,91.09c2.32-1,6.08,2.97,7.59,4.57c4,4.22,5.84,8.58,6.72,10.76c4.32,10.67,6.53,20.45,6.81,20.39
			c0.21-0.05-1.51-5.28-0.32-11.8c0.27-1.5,1.34-7.35,4.13-7.84c0.68-0.12,2.01-0.07,3.97,2.24c13.51,15.92,6.43,44.69,2.42,49.69
			c-2.09,2.61-5.29,4.11-9.02,4.79c-2.79-4.94-5.33-11.48-2.68-16.09c1.27-2.21,4.14-4.7,5.14-4.13c1.32,0.76-1.25,6.57-0.81,6.74
			c0.65,0.26,8.91-11.83,6-22.8c-0.21-0.81-1.64-6.17-4.01-6.3c-0.5-0.03-1.36,0.16-2.63,1.86c-3.98,5.32-2.32,12.64-2.96,12.74
			c-0.71,0.11-2.15-8.84-5.89-19.48c-0.5-1.44-1.79-5.02-3.99-9.45c-2.22-4.48-3.5-7.01-6.04-9.55c-1.2-1.2-3.12-2.84-5.95-4.25
			C105.13,92.23,105.6,91.42,106.36,91.09z"/>
		<path class="st2" d="M110.66,103.63c1.18,1.14,2.58,3,2.51,3.58c-0.06,0.52-1.27-0.04-2.22-0.83c-1.57-1.29-3.12-3.75-3-4.31
			C108.06,101.57,109.58,102.6,110.66,103.63z"/>
		<path class="st2" d="M116.54,112.91c1.75,2.02,2.26,6.72,1.81,6.91c-0.57,0.24-3.64-6.69-3.17-7.65
			C115.37,111.76,116.16,112.47,116.54,112.91z"/>
		<path class="st2" d="M102.53,114.56c1.24,1.23,2.26,3.19,1.88,3.52c-0.75,0.66-7.22-4.7-6.72-5.54
			C97.99,112.06,100.71,112.74,102.53,114.56z"/>
		<path class="st2" d="M102.99,121.85c1.44,0.26,3.28,1.09,3.2,1.8c-0.08,0.69-1.96,1.23-3.54,0.99c-1.76-0.26-3.49-1.52-3.32-2.22
			C99.5,121.73,101.53,121.58,102.99,121.85z"/>
		<path class="st2" d="M109.19,119.89c0.33-0.31,2.64,1.14,3.87,3.41c0.64,1.17,1.2,2.95,0.87,3.13
			C113.25,126.8,108.62,120.42,109.19,119.89z"/>
		<path class="st2" d="M133.66,125.43c0.58,0.15,0.61,2.92-0.33,5.26c-0.42,1.04-1.3,2.65-1.77,2.52c-0.55-0.16-0.49-2.68,0.24-4.79
			C132.23,127.16,133.15,125.3,133.66,125.43z"/>
		<path class="st2" d="M120.45,136.08c1.78,0.85,2.73,2.91,2.3,3.4c-0.75,0.85-6.36-2.13-6.08-3.25
			C116.83,135.62,118.87,135.33,120.45,136.08z"/>
		<path class="st2" d="M110.04,141.46c1.38-0.44,3.21-0.58,3.3-0.25c0.18,0.66-6.52,3.41-6.86,2.81
			C106.3,143.69,107.99,142.12,110.04,141.46z"/>
		<path class="st2" d="M103.88,137.11c0.69,0.4,2.09,1.38,1.89,1.94c-0.19,0.55-1.83,0.6-3.09,0.19c-1.86-0.6-3.4-2.36-3.07-2.96
			C99.93,135.67,102.26,136.16,103.88,137.11z"/>
		<path class="st2" d="M91.84,136.65c2.06,0.08,4.02,1.32,3.88,1.84c-0.24,0.94-7.48,0.39-7.58-0.58
			C88.09,137.39,90.05,136.58,91.84,136.65z"/>
		<path class="st2" d="M120.55,153.36c2.41,1.53,3.76,4.29,3.33,4.69c-0.75,0.7-7.77-4.94-7.25-5.84
			C116.89,151.75,119.08,152.42,120.55,153.36z"/>
		<path class="st2" d="M113.27,157.86c0.7-0.2,1.43-0.26,1.43-0.26c0.62-0.05,1.61-0.13,1.67,0.07c0.16,0.53-6.52,3.41-6.86,2.81
			C109.31,160.12,111.4,158.4,113.27,157.86z"/>
		<path class="st2" d="M107.03,152.41c1.62,0.75,3.09,2.34,2.81,2.81c-0.54,0.9-7.73-1.82-7.54-2.84
			C102.41,151.81,104.94,151.45,107.03,152.41z"/>
	</g>
	<path class="st5" d="M196.86,81.68c5.96,0,11.62,1.32,16.7,3.67c0.45-41.01,33.82-74.11,74.93-74.11
		c34.32,0,63.26,23.07,72.14,54.56c2.87-0.54,5.84-0.82,8.87-0.82c26.55,0,48.07,21.52,48.07,48.07c0,26.55-21.52,48.07-48.07,48.07
		c-13.99,0-63.82,0-81,0c-21.78,0-75.23,0-91.63,0c-21.94,0-39.72-17.79-39.72-39.72C157.14,99.47,174.92,81.68,196.86,81.68z"/>
	<g>
		<path class="st6" d="M246.02,37.19c0,0-2.28,1.12-2.87,1c-0.71-0.15-2.33-2.09-2.33-2.09s0.87,2.21,0.74,2.8
			c-0.15,0.71-1.83,2.4-1.83,2.4s2.09-0.89,2.81-0.74c0.59,0.12,2.39,1.83,2.39,1.83s-0.91-2.1-0.77-2.78
			C244.29,39,246.02,37.19,246.02,37.19z"/>
		<path class="st6" d="M183.26,50.4c0,0-2.28,1.12-2.87,1c-0.71-0.15-2.33-2.09-2.33-2.09s0.87,2.21,0.74,2.8
			c-0.15,0.71-1.83,2.4-1.83,2.4s2.09-0.89,2.81-0.74c0.59,0.12,2.39,1.83,2.39,1.83s-0.91-2.1-0.77-2.78
			C181.53,52.2,183.26,50.4,183.26,50.4z"/>
		<path class="st6" d="M137.61,72.05c0,0-2.28,1.12-2.87,1c-0.71-0.15-2.33-2.09-2.33-2.09s0.87,2.21,0.74,2.8
			c-0.15,0.71-1.83,2.4-1.83,2.4s2.09-0.89,2.81-0.74c0.59,0.12,2.39,1.83,2.39,1.83s-0.91-2.1-0.77-2.78
			C135.88,73.85,137.61,72.05,137.61,72.05z"/>
		<path class="st6" d="M262.34,44.63c0,0-1.42,0.7-1.78,0.62c-0.44-0.09-1.44-1.29-1.44-1.29s0.54,1.37,0.46,1.73
			c-0.09,0.44-1.13,1.49-1.13,1.49s1.3-0.55,1.74-0.46c0.36,0.08,1.48,1.13,1.48,1.13s-0.57-1.3-0.48-1.72
			C261.27,45.75,262.34,44.63,262.34,44.63z"/>
		<path class="st6" d="M278.4,75.27c0,0-0.67,0.33-0.84,0.29c-0.21-0.04-0.68-0.61-0.68-0.61s0.25,0.64,0.22,0.82
			c-0.04,0.21-0.53,0.7-0.53,0.7s0.61-0.26,0.82-0.22c0.17,0.04,0.7,0.53,0.7,0.53s-0.27-0.61-0.22-0.81
			C277.89,75.8,278.4,75.27,278.4,75.27z"/>
		<path class="st6" d="M255.39,25.75c0,0-0.67,0.33-0.84,0.29c-0.21-0.04-0.68-0.61-0.68-0.61s0.25,0.64,0.22,0.82
			c-0.04,0.21-0.53,0.7-0.53,0.7s0.61-0.26,0.82-0.22c0.17,0.04,0.7,0.53,0.7,0.53s-0.27-0.61-0.22-0.81
			C254.89,26.27,255.39,25.75,255.39,25.75z"/>
		<path class="st6" d="M277.48,51.29c0,0-0.67,0.33-0.84,0.29c-0.21-0.04-0.68-0.61-0.68-0.61s0.25,0.64,0.22,0.82
			c-0.04,0.21-0.53,0.7-0.53,0.7s0.61-0.26,0.82-0.22c0.17,0.04,0.7,0.53,0.7,0.53s-0.27-0.61-0.22-0.81
			C276.98,51.81,277.48,51.29,277.48,51.29z"/>
		<path class="st6" d="M157.65,44.16c0,0-0.67,0.33-0.84,0.29c-0.21-0.04-0.68-0.61-0.68-0.61s0.25,0.64,0.22,0.82
			c-0.04,0.21-0.53,0.7-0.53,0.7s0.61-0.26,0.82-0.22c0.17,0.04,0.7,0.53,0.7,0.53s-0.27-0.61-0.22-0.81
			C157.14,44.69,157.65,44.16,157.65,44.16z"/>
		<path class="st6" d="M154.71,29.63c0,0-0.67,0.33-0.84,0.29c-0.21-0.04-0.68-0.61-0.68-0.61s0.25,0.64,0.22,0.82
			c-0.04,0.21-0.53,0.7-0.53,0.7s0.61-0.26,0.82-0.22c0.17,0.04,0.7,0.53,0.7,0.53s-0.27-0.61-0.22-0.81
			C154.21,30.16,154.71,29.63,154.71,29.63z"/>
		<path class="st6" d="M126.84,76.93c0,0-0.67,0.33-0.84,0.29c-0.21-0.04-0.68-0.61-0.68-0.61s0.25,0.64,0.22,0.82
			c-0.04,0.21-0.53,0.7-0.53,0.7s0.61-0.26,0.82-0.22c0.17,0.04,0.7,0.53,0.7,0.53s-0.27-0.61-0.22-0.81
			C126.33,77.45,126.84,76.93,126.84,76.93z"/>
		<path class="st6" d="M129.52,60.64c0,0-1.42,0.7-1.78,0.62c-0.44-0.09-1.44-1.29-1.44-1.29s0.54,1.37,0.46,1.73
			c-0.09,0.44-1.13,1.49-1.13,1.49s1.3-0.55,1.74-0.46c0.36,0.08,1.48,1.13,1.48,1.13s-0.57-1.3-0.48-1.72
			C128.45,61.76,129.52,60.64,129.52,60.64z"/>
		<path class="st6" d="M136.97,44.41c0,0-1.42,0.7-1.78,0.62c-0.44-0.09-1.44-1.29-1.44-1.29s0.54,1.37,0.46,1.73
			c-0.09,0.44-1.13,1.49-1.13,1.49s1.3-0.55,1.74-0.46c0.36,0.08,1.48,1.13,1.48,1.13s-0.57-1.3-0.48-1.72
			C135.9,45.52,136.97,44.41,136.97,44.41z"/>
		<path class="st6" d="M204.31,31.7c0,0-1.42,0.7-1.78,0.62c-0.44-0.09-1.44-1.29-1.44-1.29s0.54,1.37,0.46,1.73
			c-0.09,0.44-1.13,1.49-1.13,1.49s1.3-0.55,1.74-0.46c0.36,0.08,1.48,1.13,1.48,1.13s-0.57-1.3-0.48-1.72
			C203.24,32.82,204.31,31.7,204.31,31.7z"/>
		<path class="st6" d="M185.74,28.96c0,0-1.42,0.7-1.78,0.62c-0.44-0.09-1.44-1.29-1.44-1.29s0.54,1.37,0.46,1.73
			c-0.09,0.44-1.13,1.49-1.13,1.49s1.3-0.55,1.74-0.46c0.36,0.08,1.48,1.13,1.48,1.13s-0.57-1.3-0.48-1.72
			C184.67,30.07,185.74,28.96,185.74,28.96z"/>
		<path class="st6" d="M222.48,66.73c0,0-1.42,0.7-1.78,0.62c-0.44-0.09-1.44-1.29-1.44-1.29s0.54,1.37,0.46,1.73
			c-0.09,0.44-1.13,1.49-1.13,1.49s1.3-0.55,1.74-0.46c0.36,0.08,1.48,1.13,1.48,1.13s-0.57-1.3-0.48-1.72
			C221.41,67.85,222.48,66.73,222.48,66.73z"/>
		<path class="st6" d="M228.23,25.07c0,0-1.42,0.7-1.78,0.62c-0.44-0.09-1.44-1.29-1.44-1.29s0.54,1.37,0.46,1.73
			c-0.09,0.44-1.13,1.49-1.13,1.49s1.3-0.55,1.74-0.46c0.36,0.08,1.48,1.13,1.48,1.13s-0.57-1.3-0.48-1.72
			C227.16,26.19,228.23,25.07,228.23,25.07z"/>
		<path class="st6" d="M277.48,117.5c0,0-0.67,0.33-0.84,0.29c-0.21-0.04-0.68-0.61-0.68-0.61s0.25,0.64,0.22,0.82
			c-0.04,0.21-0.53,0.7-0.53,0.7s0.61-0.26,0.82-0.22c0.17,0.04,0.7,0.53,0.7,0.53s-0.27-0.61-0.22-0.81
			C276.98,118.02,277.48,117.5,277.48,117.5z"/>
	</g>
	<g>
		<ellipse class="st7" cx="425.57" cy="155.39" rx="63.4" ry="6.3"/>
		<g>
			<path class="st6" d="M513.45,96.45c-0.55-0.22-1.96-2.11-1.96-2.11s0.68,2.3,0.48,2.83c-0.25,0.64-2.31,1.84-2.31,1.84
				s2.2-0.46,2.72-0.25c0.64,0.25,1.95,2.08,1.95,2.08s-0.5-2.09-0.25-2.73c0.21-0.53,2.08-1.94,2.08-1.94
				S514.07,96.69,513.45,96.45z"/>
			<path class="st6" d="M386.91,62.29c-0.55-0.22-1.96-2.11-1.96-2.11s0.68,2.3,0.48,2.83c-0.25,0.64-2.31,1.84-2.31,1.84
				s2.2-0.46,2.72-0.25c0.64,0.25,1.95,2.08,1.95,2.08s-0.5-2.09-0.25-2.73c0.21-0.53,2.08-1.94,2.08-1.94
				S387.52,62.54,386.91,62.29z"/>
			<path class="st6" d="M458.09,72.24c-0.55-0.22-1.96-2.11-1.96-2.11s0.68,2.3,0.48,2.83c-0.25,0.64-2.31,1.84-2.31,1.84
				s2.2-0.46,2.72-0.25c0.64,0.25,1.95,2.08,1.95,2.08s-0.5-2.09-0.25-2.73c0.21-0.53,2.08-1.94,2.08-1.94S458.7,72.48,458.09,72.24
				z"/>
			<path class="st6" d="M504.24,60.23c-0.55-0.22-1.96-2.11-1.96-2.11s0.68,2.3,0.48,2.83c-0.25,0.64-2.31,1.84-2.31,1.84
				s2.2-0.46,2.72-0.25c0.64,0.25,1.95,2.08,1.95,2.08s-0.5-2.09-0.25-2.73c0.21-0.53,2.08-1.94,2.08-1.94
				S504.85,60.47,504.24,60.23z"/>
			<path class="st6" d="M519.8,28.89c0,0-2.64,1.3-3.32,1.16c-0.83-0.17-2.7-2.42-2.7-2.42s1,2.56,0.86,3.24
				c-0.17,0.82-2.12,2.78-2.12,2.78s2.42-1.03,3.25-0.86c0.68,0.14,2.77,2.12,2.77,2.12s-1.06-2.43-0.89-3.22
				C517.8,30.98,519.8,28.89,519.8,28.89z"/>
			<path class="st6" d="M363.11,90.41c0,0-2.64,1.3-3.32,1.16c-0.83-0.17-2.7-2.42-2.7-2.42s1,2.56,0.86,3.24
				c-0.17,0.82-2.12,2.78-2.12,2.78s2.42-1.03,3.25-0.86c0.68,0.14,2.77,2.12,2.77,2.12s-1.06-2.43-0.89-3.22
				C361.11,92.5,363.11,90.41,363.11,90.41z"/>
			<path class="st6" d="M403.07,45.71c0,0-1.43,0.7-1.8,0.63c-0.45-0.09-1.46-1.31-1.46-1.31s0.54,1.38,0.47,1.75
				c-0.09,0.45-1.15,1.5-1.15,1.5s1.31-0.56,1.76-0.46c0.37,0.08,1.5,1.15,1.5,1.15s-0.57-1.31-0.48-1.74
				C401.99,46.84,403.07,45.71,403.07,45.71z"/>
			<path class="st6" d="M438.98,37.81c0,0-1.43,0.7-1.8,0.63c-0.45-0.09-1.46-1.31-1.46-1.31s0.54,1.38,0.47,1.75
				c-0.09,0.45-1.15,1.5-1.15,1.5s1.31-0.56,1.76-0.46c0.37,0.08,1.5,1.15,1.5,1.15s-0.57-1.31-0.48-1.74
				C437.89,38.94,438.98,37.81,438.98,37.81z"/>
			<path class="st6" d="M366.29,45.96c0,0-1.16,0.57-1.45,0.51c-0.36-0.08-1.18-1.06-1.18-1.06s0.44,1.12,0.38,1.42
				c-0.08,0.36-0.93,1.22-0.93,1.22s1.06-0.45,1.42-0.38c0.3,0.06,1.21,0.93,1.21,0.93s-0.46-1.06-0.39-1.41
				C365.42,46.87,366.29,45.96,366.29,45.96z"/>
			<path class="st6" d="M360.41,122.4c0,0-1.16,0.57-1.45,0.51c-0.36-0.08-1.18-1.06-1.18-1.06s0.44,1.12,0.38,1.42
				c-0.08,0.36-0.93,1.22-0.93,1.22s1.06-0.45,1.42-0.38c0.3,0.06,1.21,0.93,1.21,0.93s-0.46-1.06-0.39-1.41
				C359.54,123.31,360.41,122.4,360.41,122.4z"/>
			<path class="st6" d="M349.1,84.84c0,0-1.16,0.57-1.45,0.51c-0.36-0.08-1.18-1.06-1.18-1.06s0.44,1.12,0.38,1.42
				c-0.08,0.36-0.93,1.22-0.93,1.22s1.06-0.45,1.42-0.38c0.3,0.06,1.21,0.93,1.21,0.93s-0.46-1.06-0.39-1.41
				C348.23,85.75,349.1,84.84,349.1,84.84z"/>
			<path class="st6" d="M421.34,32.82c0,0-1.16,0.57-1.45,0.51c-0.36-0.08-1.18-1.06-1.18-1.06s0.44,1.12,0.38,1.42
				c-0.08,0.36-0.93,1.22-0.93,1.22s1.06-0.45,1.42-0.38c0.3,0.06,1.21,0.93,1.21,0.93s-0.46-1.06-0.39-1.41
				C420.46,33.73,421.34,32.82,421.34,32.82z"/>
			<path class="st6" d="M366.58,27.29c0,0-1.16,0.57-1.45,0.51c-0.36-0.08-1.18-1.06-1.18-1.06s0.44,1.12,0.38,1.42
				c-0.08,0.36-0.93,1.22-0.93,1.22s1.06-0.45,1.42-0.38c0.3,0.06,1.21,0.93,1.21,0.93s-0.46-1.06-0.39-1.41
				C365.71,28.2,366.58,27.29,366.58,27.29z"/>
			<path class="st6" d="M477.39,77.88c0,0-1.16,0.57-1.45,0.51c-0.36-0.08-1.18-1.06-1.18-1.06s0.44,1.12,0.38,1.42
				c-0.08,0.36-0.93,1.22-0.93,1.22s1.06-0.45,1.42-0.38c0.3,0.06,1.21,0.93,1.21,0.93s-0.46-1.06-0.39-1.41
				C476.51,78.79,477.39,77.88,477.39,77.88z"/>
			<path class="st6" d="M520.73,68.52c0,0-1.16,0.57-1.45,0.51c-0.36-0.08-1.18-1.06-1.18-1.06s0.44,1.12,0.38,1.42
				c-0.08,0.36-0.93,1.22-0.93,1.22s1.06-0.45,1.42-0.38c0.3,0.06,1.21,0.93,1.21,0.93s-0.46-1.06-0.39-1.41
				C519.85,69.43,520.73,68.52,520.73,68.52z"/>
			<path class="st6" d="M520.15,111.46c0,0-1.16,0.57-1.45,0.51c-0.36-0.08-1.18-1.06-1.18-1.06s0.44,1.12,0.38,1.42
				c-0.08,0.36-0.93,1.22-0.93,1.22s1.06-0.45,1.42-0.38c0.3,0.06,1.21,0.93,1.21,0.93s-0.46-1.06-0.39-1.41
				C519.28,112.38,520.15,111.46,520.15,111.46z"/>
			<path class="st6" d="M499.65,106.5c0,0-1.16,0.57-1.45,0.51c-0.36-0.08-1.18-1.06-1.18-1.06s0.44,1.12,0.38,1.42
				c-0.08,0.36-0.93,1.22-0.93,1.22s1.06-0.45,1.42-0.38c0.3,0.06,1.21,0.93,1.21,0.93s-0.46-1.06-0.39-1.41
				C498.77,107.41,499.65,106.5,499.65,106.5z"/>
			<path class="st6" d="M502.04,36.37c0,0-1.16,0.57-1.45,0.51c-0.36-0.08-1.18-1.06-1.18-1.06s0.44,1.12,0.38,1.42
				c-0.08,0.36-0.93,1.22-0.93,1.22s1.06-0.45,1.42-0.38c0.3,0.06,1.21,0.93,1.21,0.93s-0.46-1.06-0.39-1.41
				C501.16,37.29,502.04,36.37,502.04,36.37z"/>
			<path class="st6" d="M416.9,43.72c0,0-1.16,0.57-1.45,0.51c-0.36-0.08-1.18-1.06-1.18-1.06s0.44,1.12,0.38,1.42
				c-0.08,0.36-0.93,1.22-0.93,1.22s1.06-0.45,1.42-0.38c0.3,0.06,1.21,0.93,1.21,0.93s-0.46-1.06-0.39-1.41
				C416.02,44.63,416.9,43.72,416.9,43.72z"/>
			<path class="st6" d="M355.69,58.77c0,0-1.16,0.57-1.45,0.51c-0.36-0.08-1.18-1.06-1.18-1.06s0.44,1.12,0.38,1.42
				c-0.08,0.36-0.93,1.22-0.93,1.22s1.06-0.45,1.42-0.38c0.3,0.06,1.21,0.93,1.21,0.93s-0.46-1.06-0.39-1.41
				C354.82,59.68,355.69,58.77,355.69,58.77z"/>
			<path class="st6" d="M493.78,70.11c0,0-1.16,0.57-1.45,0.51c-0.36-0.08-1.18-1.06-1.18-1.06s0.44,1.12,0.38,1.42
				c-0.08,0.36-0.93,1.22-0.93,1.22s1.06-0.45,1.42-0.38c0.3,0.06,1.21,0.93,1.21,0.93s-0.46-1.06-0.39-1.41
				C492.9,71.02,493.78,70.11,493.78,70.11z"/>
			<path class="st6" d="M378.08,58.33c0,0-1.16,0.57-1.45,0.51c-0.36-0.08-1.18-1.06-1.18-1.06s0.44,1.12,0.38,1.42
				c-0.08,0.36-0.93,1.22-0.93,1.22s1.06-0.45,1.42-0.38c0.3,0.06,1.21,0.93,1.21,0.93s-0.46-1.06-0.39-1.41
				C377.2,59.24,378.08,58.33,378.08,58.33z"/>
			<path class="st6" d="M382.36,99.8c0,0-1.16,0.57-1.45,0.51c-0.36-0.08-1.18-1.06-1.18-1.06s0.44,1.12,0.38,1.42
				c-0.08,0.36-0.93,1.22-0.93,1.22s1.06-0.45,1.42-0.38c0.3,0.06,1.21,0.93,1.21,0.93s-0.46-1.06-0.39-1.41
				C381.49,100.71,382.36,99.8,382.36,99.8z"/>
			<path class="st6" d="M355.69,106.9c0,0-1.16,0.57-1.45,0.51c-0.36-0.08-1.18-1.06-1.18-1.06s0.44,1.12,0.38,1.42
				c-0.08,0.36-0.93,1.22-0.93,1.22s1.06-0.45,1.42-0.38c0.3,0.06,1.21,0.93,1.21,0.93s-0.46-1.06-0.39-1.41
				C354.82,107.82,355.69,106.9,355.69,106.9z"/>
			<path class="st6" d="M491.55,137.44c0,0-1.16,0.57-1.45,0.51c-0.36-0.08-1.18-1.06-1.18-1.06s0.44,1.12,0.38,1.42
				c-0.08,0.36-0.93,1.22-0.93,1.22s1.06-0.45,1.42-0.38c0.3,0.06,1.21,0.93,1.21,0.93s-0.46-1.06-0.39-1.41
				C490.68,138.36,491.55,137.44,491.55,137.44z"/>
			<path class="st6" d="M508.29,126.15c0,0-1.16,0.57-1.45,0.51c-0.36-0.08-1.18-1.06-1.18-1.06s0.44,1.12,0.38,1.42
				c-0.08,0.36-0.93,1.22-0.93,1.22s1.06-0.45,1.42-0.38c0.3,0.06,1.21,0.93,1.21,0.93s-0.46-1.06-0.39-1.41
				C507.41,127.06,508.29,126.15,508.29,126.15z"/>
			<g>
				<path class="st8" d="M482.09,41.92c-1.57,0.06-3.81,0.63-4.68,1.71c-1.69,2.11,3.26,4.36,6.39,8.36
					c5.67,7.25,1.3,15.04,2.86,15.02c1.67-0.02,7.58-8.92,4.8-16.96C491.15,49.18,488.41,41.66,482.09,41.92z"/>
				<path class="st7" d="M482.09,41.92c-0.2,0.01-0.41,0.02-0.63,0.05c1.24,0.35,2.63,0.87,3.96,1.66c4.22,2.51,4.87,6.01,5.17,7.63
					c0.15,0.78,0.8,4.79-2.35,9.68c-0.47,0.74-0.99,1.43-1.53,2.07c-0.24,2.42-0.76,4.02-0.05,4.01c1.67-0.02,7.58-8.92,4.8-16.96
					C491.15,49.18,488.41,41.66,482.09,41.92z"/>
				<g>
					<path class="st7" d="M483.44,45.97c-0.09,0-0.15,0-0.24,0c-0.08,0.05-0.09,0.12-0.04,0.17c1.89,1.56,3.35,3.32,4.35,5.25
						c2.1,4.06,1.7,8,0.98,10.63c-0.02,0.07,0.04,0.12,0.14,0.12c0.09,0,0.19-0.05,0.2-0.11c0.73-2.66,1.13-6.65-0.99-10.75
						C486.83,49.33,485.35,47.55,483.44,45.97z"/>
				</g>
			</g>
			<g>
				<path class="st8" d="M465.29,50.4c-1.74-0.18-4.34,0.29-5.58,1.82c-2.4,2.98,2.42,7.39,4.8,14.18
					c4.31,12.32-2.54,23.66-0.83,23.91c1.83,0.26,10.66-12.53,9.72-25.54C473.31,63.34,472.29,51.13,465.29,50.4z"/>
				<path class="st7" d="M465.29,50.4c-0.22-0.02-0.46-0.04-0.7-0.04c1.27,0.77,2.65,1.84,3.9,3.3c3.96,4.68,3.75,10.24,3.66,12.81
					c-0.05,1.25-0.39,7.6-5.13,14.65c-0.71,1.06-1.46,2.04-2.22,2.94c-0.91,3.73-1.89,6.13-1.11,6.24
					c1.83,0.26,10.66-12.53,9.72-25.54C473.31,63.34,472.29,51.13,465.29,50.4z"/>
				<g>
					<path class="st7" d="M465.71,56.96c-0.1-0.02-0.16-0.03-0.27-0.04c-0.1,0.06-0.13,0.17-0.08,0.25
						c1.66,2.76,2.79,5.78,3.38,8.96c1.23,6.7-0.24,12.77-1.73,16.74c-0.04,0.1,0.02,0.19,0.12,0.22c0.1,0.02,0.22-0.04,0.25-0.14
						c1.5-4.01,2.99-10.15,1.75-16.93C468.54,62.8,467.39,59.76,465.71,56.96z"/>
				</g>
			</g>
			<g>
				<path class="st8" d="M494.67,79.68c-48.51,12.13-51.2,61.61-51.3,70.12c0,0.19,0.22,0.23,0.27,0.05
					c1.36-5.71,8.5-30.46,32.99-45.17c12-7.21,29.97-11.04,34.15-13.09C518.79,87.63,518.82,73.64,494.67,79.68z"/>
				<path class="st7" d="M494.67,79.68c-48.41,12.1-52.12,65.83-51.3,70.06c0.04,0.19,0.23,0.24,0.28,0.05
					c0.65-2.72,2.57-9.55,6.92-17.56c1.09-8.22,3.52-16.94,8.41-24.5c3.22-4.97,9.22-12.11,17.42-17.7c4.4-3,7.9-4.51,12.56-6.52
					c6.64-2.86,11.94-4.28,17.33-3.91c2.11,0.14,4.17,0.55,6.19,2.1c1.39,1.07,2.37,2.38,3.06,3.56
					C516.02,80.43,510.61,75.69,494.67,79.68z"/>
				<g>
					<path class="st7" d="M496.91,87.85c-0.03-0.17-0.17-0.28-0.31-0.24c-5.87,1.35-11.56,3.58-16.93,6.63
						c-6.86,3.9-13.25,9.2-18.48,15.34c-7.25,8.51-11.43,17.3-13.66,23.18c-0.71,1.88-1.37,3.82-1.95,5.77
						c-0.05,0.16,0.03,0.34,0.16,0.39c0.14,0.06,0.28-0.03,0.33-0.19c0.57-1.93,1.22-3.85,1.93-5.72c2.21-5.83,6.36-14.56,13.55-23
						c5.19-6.09,11.53-11.35,18.34-15.22c5.32-3.02,10.97-5.24,16.8-6.58C496.85,88.18,496.94,88.02,496.91,87.85L496.91,87.85z"/>
				</g>
				<g>
					<path class="st8" d="M467.79,116.91c-17.14,9.4-26.07,30.9-24.25,32.99c0.04,0.04,0.08,0.07,0.12,0.1l0.84-0.21
						c3.05-2.12,11.8-16.33,28.46-20.35c10.48-2.53,19.95-0.04,21.74-5.48c0.92-2.8-0.59-6.46-2.23-8.5
						C485.85,107.25,469.66,115.89,467.79,116.91z"/>
					<path class="st7" d="M467.79,116.91c-17.14,9.4-26.07,30.9-24.25,32.99c0.04,0.04,0.07,0.07,0.12,0.1l0.84-0.22
						c1.15-0.8,3.11-3.31,5.99-6.35c0.52-1.69,1.14-3.43,1.9-5.19c5.02-11.7,12.74-17.29,14.27-18.36c3.17-2.22,9.99-6.99,19.1-5.81
						c2.86,0.37,5.33,1.25,7.33,2.22c-0.2-0.31-0.41-0.59-0.61-0.85C485.85,107.25,469.66,115.89,467.79,116.91z"/>
					<g>
						<path class="st7" d="M469.68,123.33c-9.54,3.94-16.05,10.8-19.89,15.95c-0.09,0.13-0.08,0.32,0.03,0.43
							c0.11,0.11,0.27,0.1,0.37-0.03c3.79-5.1,10.24-11.88,19.67-15.78c4.48-1.85,9.2-2.87,14.03-3.03c0.14,0,0.26-0.14,0.25-0.31
							c-0.11-0.12-0.16-0.18-0.27-0.3C478.98,120.42,474.21,121.46,469.68,123.33z"/>
					</g>
				</g>
			</g>
			<g>
				<path class="st8" d="M448.64,67.09c22.32,44.74-13.53,78.95-19.93,84.56c-0.14,0.12-0.32-0.02-0.21-0.17
					c3.46-4.75,17.62-26.26,12.88-54.43c-2.32-13.81-11.09-29.95-12.25-34.46C426.92,53.92,437.53,44.81,448.64,67.09z"/>
				<path class="st7" d="M448.64,67.09c22.27,44.65-16.14,82.4-19.89,84.53c-0.17,0.1-0.33-0.02-0.22-0.18
					c1.64-2.26,5.59-8.16,8.85-16.68c5.54-6.17,10.59-13.69,13.15-22.32c1.69-5.68,3.21-14.88,2.12-24.74
					c-0.58-5.29-1.71-8.93-3.21-13.78c-2.14-6.9-4.51-11.85-8.29-15.72c-1.48-1.51-3.13-2.81-5.62-3.34
					c-1.71-0.36-3.35-0.26-4.69-0.01C434.19,51.35,441.31,52.38,448.64,67.09z"/>
				<g>
					<path class="st7" d="M440.97,70.69c0.15-0.09,0.32-0.05,0.39,0.08c2.79,5.34,4.79,11.12,5.96,17.17
						c1.5,7.75,1.62,16.05,0.36,24.01c-1.75,11.04-5.72,19.93-8.74,25.45c-0.97,1.77-2.02,3.53-3.12,5.23
						c-0.09,0.14-0.27,0.2-0.4,0.13c-0.13-0.07-0.16-0.23-0.07-0.37c1.09-1.69,2.13-3.44,3.09-5.19c2.99-5.47,6.93-14.29,8.67-25.25
						c1.25-7.9,1.13-16.14-0.36-23.83c-1.16-6.01-3.15-11.74-5.92-17.04C440.77,70.95,440.83,70.78,440.97,70.69L440.97,70.69z"/>
				</g>
				<g>
					<path class="st8" d="M437.82,111.72c4,19.14-6.53,39.9-9.31,39.88c-0.05,0-0.1-0.01-0.15-0.03l-0.38-0.78
						c-0.37-3.7,4.73-19.58-3.04-34.86c-4.89-9.61-12.94-15.18-9.97-20.09c1.53-2.52,5.29-3.75,7.91-3.83
						C433.42,91.71,437.38,109.63,437.82,111.72z"/>
					<path class="st7" d="M437.82,111.72c4,19.14-6.53,39.9-9.31,39.88c-0.05,0-0.1-0.01-0.15-0.03l-0.38-0.78
						c-0.14-1.39,0.5-4.51,0.93-8.68c0.95-1.49,1.86-3.1,2.71-4.82c5.63-11.43,4.86-20.92,4.68-22.78c-0.37-3.85-1.18-12.14-8-18.29
						c-2.14-1.93-4.42-3.23-6.45-4.12c0.36-0.05,0.71-0.08,1.04-0.08C433.42,91.71,437.38,109.63,437.82,111.72z"/>
					<g>
						<path class="st7" d="M431.72,114.45c3.21,9.8,2.23,19.22,0.81,25.48c-0.04,0.15-0.19,0.27-0.35,0.26
							c-0.16-0.01-0.25-0.14-0.22-0.3c1.41-6.19,2.37-15.51-0.8-25.2c-1.51-4.61-3.8-8.86-6.82-12.63
							c-0.09-0.11-0.06-0.29,0.07-0.39c0.16,0,0.25,0.01,0.4,0.01C427.88,105.49,430.19,109.79,431.72,114.45z"/>
					</g>
				</g>
			</g>
			<g>
				<path class="st8" d="M402.4,114.77c-2.07-1.42-19.99-13.34-28.44-4.27c-2.1,2.26-4.21,6.46-3.41,9.88
					c1.56,6.66,12.76,4.67,24.65,8.75c17.4,5.98,26.21,21.52,30.1,26.17l2.36-0.81C427.32,147.63,418.92,126.05,402.4,114.77z"/>
				<path class="st7" d="M402.4,114.77c-2.07-1.41-19.99-13.34-28.44-4.27c-0.27,0.29-0.53,0.6-0.79,0.95
					c2.41-0.95,5.35-1.74,8.7-1.89c10.67-0.48,18.1,5.9,21.56,8.86c1.67,1.43,10.07,8.87,14.76,23.3c0.71,2.17,1.26,4.3,1.7,6.37
					c2.4,3.08,4.17,5.72,5.43,7.22l2.36-0.81C427.32,147.63,418.92,126.05,402.4,114.77z"/>
				<path class="st8" d="M374.85,67.74c-27.39-9.66-28.7,6.98-19.79,12.5c4.64,2.87,25.08,9.27,38.28,19.07
					c25.18,18.7,31.96,46.26,33.58,55.44l0.68-0.23C428.23,140.49,427.14,86.18,374.85,67.74z"/>
				<path class="st7" d="M374.85,67.74c-18.08-6.37-24.79-1.29-24.71,4.48c0.91-1.33,2.17-2.79,3.89-3.91
					c2.49-1.64,4.92-1.91,7.37-1.86c6.28,0.12,12.29,2.35,19.7,6.43c5.2,2.87,9.12,5.03,13.92,9.04
					c8.96,7.49,15.23,16.59,18.47,22.83c4.93,9.49,6.91,20.11,7.38,29.99c3.7,8.64,5.36,16.04,6.06,20.01l0.84-0.29
					C428.72,142.69,425.95,85.76,374.85,67.74z"/>
				<g>
					<path class="st7" d="M424.31,135.68c-2.01-7.22-6.01-18.1-13.58-28.96c-5.46-7.83-12.35-14.79-19.92-20.13
						c-5.92-4.17-12.29-7.41-18.96-9.62c-0.16-0.05-0.33,0.06-0.38,0.26l0,0c-0.05,0.19,0.04,0.39,0.2,0.45
						c6.62,2.19,12.95,5.4,18.82,9.55c7.52,5.3,14.35,12.21,19.77,19.98c7.52,10.78,11.48,21.57,13.48,28.74
						c0.64,2.3,1.21,4.65,1.69,7c0.04,0.19,0.2,0.31,0.36,0.25c0.16-0.05,0.26-0.25,0.23-0.45
						C425.53,140.37,424.96,138,424.31,135.68z"/>
				</g>
				<g>
					<path class="st7" d="M399.59,122.2c-5.07-2.69-10.5-4.41-16.13-5.1c-0.13,0.13-0.21,0.2-0.34,0.33
						c-0.02,0.2,0.09,0.38,0.26,0.4c5.57,0.69,10.94,2.38,15.95,5.04c10.54,5.59,17.36,14.33,21.26,20.78
						c0.1,0.16,0.28,0.19,0.42,0.07c0.14-0.12,0.17-0.35,0.07-0.51C417.14,136.69,410.25,127.86,399.59,122.2z"/>
				</g>
				<path class="st8" d="M397.15,37.35c-8.78,3.22-5.73,19.17-5.35,21.03c3.01,14.79,15.56,26.95,20.23,29.2l1.25-1.41
					c-2.09-4.06-10.33-14.74-9.39-28.59c0.64-9.46,5.3-16.67,1.13-19.7C402.87,36.31,399.33,36.55,397.15,37.35z"/>
				<path class="st7" d="M391.79,58.38c3.01,14.79,15.56,26.95,20.23,29.2l1.25-1.41c-0.68-1.31-1.99-3.31-3.43-5.88
					c-1.31-0.91-2.63-1.92-3.93-3.04c-8.66-7.49-11.38-15.5-11.88-17.08c-1.05-3.27-3.31-10.31,0.14-17.58
					c1.08-2.29,2.5-4.1,3.86-5.5c-0.31,0.08-0.61,0.17-0.89,0.27C388.36,40.57,391.42,56.52,391.79,58.38z"/>
				<g>
					<path class="st7" d="M398.96,45.89c-1.17,4.12-1.56,8.39-1.17,12.71c0.81,9.07,4.94,16.44,8.32,21.09
						c0.08,0.11,0.25,0.16,0.38,0.1c0.12-0.06,0.16-0.2,0.07-0.31c-3.34-4.6-7.42-11.89-8.23-20.86c-0.38-4.27,0.01-8.49,1.16-12.57
						c0.03-0.12-0.05-0.25-0.2-0.3C399.16,45.8,399.09,45.83,398.96,45.89z"/>
				</g>
			</g>
			<g>
				<path class="st8" d="M518.68,44.74c-3.49-4.3-11.98,0.28-12.97,0.82c-8.99,4.98-13.63,16.3-12.67,17.39
					c0.02,0.02,0.04,0.04,0.06,0.05l0.44-0.11c1.6-1.12,6.17-8.61,14.91-10.76c5.5-1.35,10.48-0.06,11.42-2.93
					C520.35,47.73,519.55,45.81,518.68,44.74z"/>
				<path class="st7" d="M518.68,44.74c-3.49-4.3-11.98,0.28-12.97,0.82c-8.99,4.98-13.63,16.3-12.67,17.39
					c0.02,0.02,0.04,0.04,0.06,0.05l0.44-0.11c0.6-0.42,1.63-1.75,3.13-3.35c0.27-0.89,0.59-1.81,0.99-2.73
					c2.61-6.16,6.66-9.12,7.46-9.68c1.66-1.17,5.23-3.7,10.02-3.09c1.5,0.19,2.8,0.65,3.86,1.15
					C518.89,45.02,518.79,44.88,518.68,44.74z"/>
				<g>
					<path class="st7" d="M514.16,47.29c-2.56,0.1-5.07,0.65-7.45,1.64c-5,2.09-8.41,5.71-10.42,8.43
						c-0.05,0.07-0.04,0.17,0.02,0.23c0.06,0.06,0.14,0.05,0.19-0.02c1.98-2.69,5.35-6.27,10.3-8.34c2.35-0.98,4.83-1.53,7.36-1.62
						c0.08,0,0.13-0.08,0.13-0.16C514.25,47.38,514.22,47.35,514.16,47.29z"/>
				</g>
			</g>
		</g>
	</g>
	<g>
		<g>
			<g>
				<path class="st9" d="M354.56,150.97h-74.72c-1.12,0-2.04-0.91-2.04-2.04v-0.95c0-1.12,0.91-2.04,2.04-2.04h74.72
					c1.12,0,2.04,0.91,2.04,2.04v0.95C356.59,150.06,355.68,150.97,354.56,150.97z"/>
				<rect x="306.68" y="98.38" class="st9" width="29.23" height="48.61"/>
				<path class="st9" d="M365.26,102.42h-98.25c-1.44,0-2.62-1.17-2.62-2.62V29.42c0-1.44,1.17-2.62,2.62-2.62h98.25
					c1.44,0,2.62,1.17,2.62,2.62V99.8C367.88,101.24,366.71,102.42,365.26,102.42z"/>
				<rect x="294.07" y="98.38" class="st10" width="39.27" height="48.61"/>
				<rect x="294.07" y="98.38" class="st11" width="39.27" height="6.68"/>
				<path class="st12" d="M362.88,102.47h-98.25c-1.44,0-2.62-1.17-2.62-2.62V29.47c0-1.44,1.17-2.62,2.62-2.62h98.25
					c1.44,0,2.62,1.17,2.62,2.62v70.38C365.5,101.3,364.33,102.47,362.88,102.47z"/>
				<path class="st10" d="M363.67,78.79c-7.48,11.06-19.07,16.56-19.7,16.85c-4.29,1.98-0.79,2.87-3.61,3.43
					c-8.68,1.7-21.76,2.73-34.55,3.35h57.13c1.42,0,2.58-1.15,2.58-2.58V75.78C364.96,76.8,364.34,77.8,363.67,78.79z"/>
				<path class="st13" d="M265.61,89.25V32c0-0.9,0.73-1.63,1.63-1.63h93.08c0.9,0,1.63,0.73,1.63,1.63v57.25
					c0,0.9-0.73,1.63-1.63,1.63h-93.08C266.34,90.88,265.61,90.15,265.61,89.25z"/>
				<path class="st14" d="M349.87,95.15h-6.12c-0.34,0-0.63-0.28-0.63-0.63v0c0-0.34,0.28-0.63,0.63-0.63h6.12
					c0.34,0,0.63,0.28,0.63,0.63l0,0C350.5,94.87,350.22,95.15,349.87,95.15z"/>
				<path class="st14" d="M356.87,95.15h-3.76c-0.34,0-0.63-0.28-0.63-0.63l0,0c0-0.34,0.28-0.63,0.63-0.63h3.76
					c0.34,0,0.63,0.28,0.63,0.63l0,0C357.5,94.87,357.22,95.15,356.87,95.15z"/>
				<path class="st14" d="M340.24,95.15h-4c-0.28,0-0.51-0.23-0.51-0.51V94.4c0-0.28,0.23-0.51,0.51-0.51h4
					c0.28,0,0.51,0.23,0.51,0.51v0.24C340.75,94.92,340.52,95.15,340.24,95.15z"/>
				<path class="st15" d="M349.91,93.9h-0.25c0.05,0.08,0.07,0.18,0.07,0.28v0.07c0,0.32-0.27,0.59-0.59,0.59h-5.94
					c0.1,0.18,0.3,0.31,0.52,0.31h6.19c0.32,0,0.59-0.27,0.59-0.59v-0.07C350.5,94.16,350.23,93.9,349.91,93.9z"/>
				<path class="st15" d="M356.87,93.9h-0.23c0.06,0.09,0.09,0.2,0.09,0.32c0,0.34-0.28,0.63-0.63,0.63h-3.53
					c0.11,0.18,0.31,0.31,0.54,0.31h3.76c0.34,0,0.63-0.28,0.63-0.63C357.5,94.18,357.22,93.9,356.87,93.9z"/>
				<path class="st15" d="M340.12,93.9h-0.23c0.06,0.09,0.09,0.2,0.09,0.32c0,0.34-0.28,0.63-0.63,0.63h-3.53
					c0.11,0.18,0.31,0.31,0.54,0.31h3.76c0.34,0,0.63-0.28,0.63-0.63C340.75,94.18,340.46,93.9,340.12,93.9z"/>
				<path class="st12" d="M351.06,150.97h-74.72c-1.12,0-2.04-0.91-2.04-2.04v-0.95c0-1.12,0.91-2.04,2.04-2.04h74.72
					c1.12,0,2.04,0.91,2.04,2.04v0.95C353.1,150.06,352.18,150.97,351.06,150.97z"/>
				<path class="st10" d="M350.58,145.95h-12.35c1.39,0,2.51,1.12,2.51,2.51l0,0c0,1.39-1.12,2.51-2.51,2.51h12.35
					c1.39,0,2.51-1.12,2.51-2.51l0,0C353.1,147.07,351.97,145.95,350.58,145.95z"/>
				<path class="st16" d="M306.9,148.23h-29.68c-0.34,0-0.62-0.28-0.62-0.62l0,0c0-0.34,0.28-0.62,0.62-0.62h29.68
					c0.34,0,0.62,0.28,0.62,0.62l0,0C307.53,147.95,307.25,148.23,306.9,148.23z"/>
				<polygon class="st17" points="291.65,30.37 265.61,59.6 265.61,74.75 297.89,30.37 				"/>
				<path class="st17" d="M360.35,30.37h-1.38c-1.4,11.01-3.68,19.94-5.73,26.49c-3.62,11.63-7.02,17.5-12.21,22.06
					c0,0,2.96,3.76-3.04,6.21c-6.57,2.68-18.64,4.66-34.87,5.74h57.23c0.89,0,1.6-0.72,1.6-1.6v-57.3
					C361.96,31.09,361.24,30.37,360.35,30.37z"/>
				<path class="st17" d="M360.35,30.37h-93.13c-0.89,0-1.6,0.72-1.6,1.6v0.13h92.35c0.89,0,1.6,0.72,1.6,1.6v57.17h0.79
					c0.89,0,1.6-0.72,1.6-1.6v-57.3C361.96,31.09,361.24,30.37,360.35,30.37z"/>
			</g>
		</g>
	</g>
	<g>
		<path class="st18" d="M281.21,152.67H142.28c-3.23,0-5.85-2.62-5.85-5.85v-7.11c0-3.23,2.62-5.85,5.85-5.85h138.93
			c3.23,0,5.85,2.62,5.85,5.85v7.11C287.06,150.06,284.44,152.67,281.21,152.67z"/>
		<path class="st18" d="M249.57,133.87h-107.3c-3.23,0-5.85-2.62-5.85-5.85v-23.16c0-3.23,2.62-5.85,5.85-5.85h107.3
			c3.23,0,5.85,2.62,5.85,5.85v23.16C255.42,131.26,252.8,133.87,249.57,133.87z"/>
		<path class="st19" d="M144.57,133.87h-2.29c-3.23,0-5.85-2.62-5.85-5.85v-23.16c0-3.23,2.62-5.85,5.85-5.85h2.29
			c3.23,0,5.85,2.62,5.85,5.85v23.16C150.42,131.26,147.8,133.87,144.57,133.87z"/>
		<path class="st19" d="M142.28,133.87h33.93c3.23,0,5.85,2.62,5.85,5.85v7.11c0,3.23-2.62,5.85-5.85,5.85h-33.93
			c-3.23,0-5.85-2.62-5.85-5.85v-7.11C136.43,136.49,139.05,133.87,142.28,133.87z"/>
		<path class="st20" d="M228.71,152.67H187.9c-3.23,0-5.85-2.62-5.85-5.85v-7.11c0-3.23,2.62-5.85,5.85-5.85h40.81
			c3.23,0,5.85,2.62,5.85,5.85v7.11C234.56,150.06,231.94,152.67,228.71,152.67z"/>
		<path class="st20" d="M281.21,152.67H240.4c-3.23,0-5.85-2.62-5.85-5.85v-7.11c0-3.23,2.62-5.85,5.85-5.85h40.81
			c3.23,0,5.85,2.62,5.85,5.85v7.11C287.06,150.06,284.44,152.67,281.21,152.67z"/>
		<path class="st20" d="M197.07,133.87h-40.81c-3.23,0-5.85-2.62-5.85-5.85v-23.16c0-3.23,2.62-5.85,5.85-5.85h40.81
			c3.23,0,5.85,2.62,5.85,5.85v23.16C202.92,131.26,200.3,133.87,197.07,133.87z"/>
		<path class="st20" d="M249.57,133.87h-40.81c-3.23,0-5.85-2.62-5.85-5.85v-23.16c0-3.23,2.62-5.85,5.85-5.85h40.81
			c3.23,0,5.85,2.62,5.85,5.85v23.16C255.42,131.26,252.8,133.87,249.57,133.87z"/>
		<rect x="143.1" y="152.67" class="st21" width="3" height="10.83"/>
		<rect x="146.09" y="152.67" class="st22" width="3.42" height="10.83"/>
		<rect x="173.46" y="152.67" class="st21" width="3" height="10.83"/>
		<rect x="176.45" y="152.67" class="st23" width="3.42" height="10.83"/>
		<rect x="244.66" y="152.67" class="st21" width="3" height="10.83"/>
		<rect x="247.66" y="152.67" class="st22" width="3.42" height="10.83"/>
		<rect x="275.02" y="152.67" class="st21" width="3" height="10.83"/>
		<rect x="278.02" y="152.67" class="st23" width="3.42" height="10.83"/>
		<rect x="143.1" y="152.67" class="st21" width="33.36" height="2.98"/>
		<rect x="176.45" y="152.67" class="st23" width="104.99" height="2.98"/>
	</g>
	<g>
		<g>
			<g>
				<path class="st24" d="M355.88,60.43c0.18-0.01,0.35-0.02,0.52-0.02c0.28,0,0.57,0,0.85,0c1.63,0,13.4,0.12,16.61,0.19
					c2.5,0.05,5.58,0.2,7.83,1.41c2.24,1.2,1.6,3.5-0.39,4.13c-3.33,1.05-6.91-0.07-10.23-0.64c-2.63-0.45-6.12-0.97-8.74-1.5
					c-2.3-0.46-4.53-0.94-6.89-1.07c-0.66-0.04-6.34,0.37-6.34-1.14c0-0.46,0.35-1.97,3.74-1.72c0.54,0.04,1.05,0.06,1.55,0.25
					C354.83,60.49,355.37,60.45,355.88,60.43z"/>
				<path class="st24" d="M382.93,64.59c-2.62,4.03-4.77,0.77-4.58-3.43c0.19-4.05,0.89-7.99,2.33-11.78
					c0.86-2.27,2.87-6.83,6.23-4.76c3.14,1.93,1.42,6.2,0.7,8.92C386.59,57.42,385.58,60.53,382.93,64.59z"/>
				<path class="st6" d="M384.76,43.38c1.53-0.25,4.49-0.07,4.32,4.88c-0.04,1.27-0.24,2.52-0.51,3.76
					c-0.52,2.38-1.32,4.7-2.28,6.93c-0.43,0.99-0.89,1.97-1.41,2.91c-0.22,0.4-1.37,2.44-1.74,3.04c-0.68,1.11-1.45,2.17-2.74,2.15
					c-1.65-0.03-2.57-1.32-2.52-2.84C378.15,55.72,381.2,43.95,384.76,43.38z"/>
				<path class="st6" d="M372.29,60.35c5.37,0.25,8.4,0.98,9.09,1.36c0.5,0.27,0.79,0.62,1.11,1.06c0.43,0.59,0.52,1.52,0.3,2.31
					c-0.23,0.82-1.55,1.8-2.64,1.84c-4.25,0.13-11.78-1.14-13.94-1.67c-1.42-0.34-2.84-0.66-4.27-0.98l1.17-3.98
					C366.17,60.24,369.24,60.2,372.29,60.35z"/>
				<path class="st25" d="M359.19,60.62c-1.2-0.74-1.44-0.78-2.49-1.04c-0.37-0.09-4.12-0.64-4.43-0.17
					c-0.65,0.97,2.1,0.79,2.32,1.18c1.09,1.92,4,0.94,3.59,0.97L359.19,60.62z"/>
			</g>
			<g>
				<path class="st26" d="M389.03,22.06c1.91,3.57,5.79,4.71,9.29,5.08c3.5,0.37,7.23,0.38,10.19,2.71
					c1.93,1.52,3.34,3.99,3.82,6.68c0.26,1.45,0.6,5.1-0.4,5.93c-0.59,0.49-1.36,0.72-2.08,0.57c-10.32-2.02-6.57,3.05-15.05,1.37
					c-3.79-0.75-8.85-2.56-11.96-10.23"/>
			</g>
			<path class="st27" d="M378.31,53.45c0.21-4.32,1.91-8.31,5.57-11.02c3.12-2.3,7.07-2.8,10.53-0.61c3.62,2.28,3.89,6.77,3.6,10.56
				c-0.36,4.63-0.53,8.87-0.63,13.53c-0.09,4.06-0.19,8.16,0.16,12.2c-4.64,0.66-8.96,1.15-13.72,1.46
				c-1.31-6.5-0.61-13.94-3.8-20.03C379,57.62,378.2,55.69,378.31,53.45z"/>
			<path class="st25" d="M383.71,45.7c0.62,0.84,2.59,0.44,4.39-0.89c1.81-1.33,2.77-3.09,2.15-3.93c-0.62-0.84-2.59-0.44-4.39,0.89
				C384.06,43.1,383.1,44.86,383.71,45.7z"/>
			<polygon class="st24" points="412.57,154.68 413.12,160.98 406,165.33 409.23,159.39 408.85,155.01 			"/>
			<polygon class="st24" points="390.32,155.85 390.24,162.2 383.12,166.55 386.35,160.61 386.76,156 			"/>
			<path class="st28" d="M383.81,79.58c0,0,0.68,38.02,1.98,43.33c1.25,5.13-0.34,36.17-0.34,36.17l4.84-0.42
				c0,0,8.93-31.95,4.01-37.69c0,0,7.57-30.27,3.22-42.85L383.81,79.58z"/>
			<path class="st29" d="M383.81,79.58c0,0,10.24,38.47,13.89,42.29c3.64,3.82,10.71,35.2,10.71,35.2l4.65-0.41
				c0,0-0.43-31.14-5.34-36.87c0,0-2.79-36.19-10.19-41.68L383.81,79.58z"/>
			<path class="st30" d="M387.52,166.98l3.16-0.28c0,0,0.37-0.84,0.19-2.85c-0.18-2.01-0.17-1.89-0.17-1.89s-1.81,0.12-3.38,1.44
				c-1.25,1.05-3.3,1.17-4.32,1.57c-2.09,0.81-3.18,1.14-3.05,2.67l6.48-0.57c0,0,0.39-1.06,1.07-1.12
				C387.53,166.75,387.52,166.98,387.52,166.98z"/>
			<path class="st6" d="M389.8,40.37c0.45,1.4,0.5,0.96-0.37,2.69c-0.93,1.84-3.9,6.01-4.57,8.16c-1.25,4-0.84,7.94,0.54,12.28
				c3.05,9.57,5.87,18.14,10.49,27.08c2.62,5.07,6.36,14.72,12,15.92c3.55,0.75,6.38-0.49,9.8-1.7c2.38-0.85,6.28-1.97,6.54-5.01
				c0.26-3.08-5.4-9.85-6.93-12.27c-2.01-3.18-10.61-12.24-13.87-26.29c-0.98-4.21-1.36-8.54-2.1-12.78
				C400.08,41.32,392.34,40.44,389.8,40.37z"/>
			<path class="st30" d="M410.45,164.97l3.16-0.28c0,0,0.37-0.84,0.19-2.85c-0.18-2.01-0.17-1.89-0.17-1.89s-1.81,0.12-3.38,1.44
				c-1.25,1.05-3.3,1.17-4.32,1.57c-2.09,0.81-3.18,1.14-3.05,2.67l6.48-0.57c0,0,0.39-1.06,1.07-1.12
				C410.46,164.6,410.45,164.97,410.45,164.97z"/>
			<g>
				<g>
					<path class="st26" d="M380.96,20.8c-1.8,0.66-4.17,1.94-5.2,3.66c-1.04,1.72-0.51,3.77,0.19,5.51c0.52,1.29,1.09,2.71,1.81,3.9
						c0.6,1,1.86,1.13,2.92,1.08c2.26-0.09,4.56-0.84,6.62-1.72c1.54-0.66,2.71-2.32,3.08-3.91c0.47-2.01-0.9-3.92-2.1-5.41
						c-1.03-1.28-2.25-2.36-3.77-3.03c-0.78-0.34-1.67-0.47-2.52-0.36C381.78,20.56,381.15,20.73,380.96,20.8z"/>
					
						<rect x="384.63" y="28.62" transform="matrix(0.9622 -0.2725 0.2725 0.9622 4.9816 106.6411)" class="st24" width="3.68" height="13.54"/>
					<path class="st31" d="M382.53,23.15c-6.55-0.54-7.45,6.97-4.75,12.04c0.76,1.42,2.18,3.18,2.97,2.98
						c1.58-0.41,2.69-1.29,3.79-2.19c2.09-1.69,2.81-3.8,3.09-6.54C387.96,26.26,385.47,23.4,382.53,23.15z"/>
					<path class="st26" d="M377.44,22.48c-1.8,1.62,0.25,3.16,1.74,4.44c0.67,0.58,1.61,1.02,2.5,1.13c1.17,0.14,2.1-0.67,3.17-0.99
						c0.74-0.22,1.72-0.35,2.04,0.52c0.73,1.99-0.7,2.24-0.72,2.24c-0.01,0,0.51,1.51,0.57,1.64c0.24,0.51,0.59,1.03,1.17,1.18
						c1.5,0.39,2.24-1.49,2.73-2.52c0.46-0.99,0.64-2.42,0.43-3.51c-0.78-4.05-2.76-6.36-5.91-6.84c-0.92-0.14-1.93-0.05-2.83,0.18
						C380.88,20.31,378.61,21.57,377.44,22.48z"/>
					<path class="st6" d="M378.27,34.28c0,0,1.24,0.41,3.04-0.48C381.32,33.8,380.68,38.38,378.27,34.28z"/>
					<path class="st26" d="M384.92,19.88c-0.36-1.35-0.04-2.42,1.27-3.09c1.02-0.52,2.42-0.64,3.42,0.1
						c1.93,1.42,2.07,3.37,1.18,4.69c-0.43,0.65-1.12,0.88-1.87,0.81L384.92,19.88z"/>
				</g>
			</g>
			<path class="st6" d="M385.78,41.3c-5.43,5.01-5.64,12.73-4.22,18.45c1.1,4.46,1.43,13.45,1.43,13.45s-1.59-7.61-1.78-8.72
				c-0.77-4.48-0.79-3.51-2.48-7.9C376.99,52.08,379.28,44.41,385.78,41.3z"/>
			<g>
				<g>
					<path class="st21" d="M388.95,54.21l-0.58-0.16c0.95-3.42,2.76-10.16,2.83-11.23c0.05-0.81-0.15-1.46-0.57-1.88
						c-0.34-0.33-0.66-0.41-0.78-0.4l-0.16-0.58l0.05,0c0.32-0.03,0.87,0.11,1.32,0.55c0.39,0.38,0.83,1.09,0.75,2.34
						C391.71,44.25,389.06,53.8,388.95,54.21z"/>
				</g>
				<g>
					<path class="st32" d="M386.82,54.74c-0.24,0.87,0.26,1.78,1.14,2.03c0.87,0.25,1.78-0.26,2.03-1.14
						c0.25-0.87-0.26-1.78-1.14-2.03C387.97,53.36,387.07,53.87,386.82,54.74z"/>
					<path class="st21" d="M387.54,54.94c-0.13,0.48,0.14,0.97,0.62,1.11c0.48,0.13,0.98-0.14,1.11-0.62
						c0.13-0.48-0.15-0.98-0.62-1.11C388.17,54.19,387.67,54.47,387.54,54.94z"/>
				</g>
				<g>
					<g>
						<path class="st32" d="M379.91,58.58c-0.25-0.04-0.53-0.19-0.94-0.77c-0.8-1.13-0.85-3.39-0.16-6.9
							c0.19-0.95,0.43-1.81,0.71-2.56l0.3,0.11c-0.28,0.73-0.51,1.57-0.69,2.51c-0.66,3.38-0.63,5.62,0.11,6.66
							c0.44,0.62,0.6,0.62,1.09,0.69c0.1,0.01,0.09,0.01,0.17,0.03l-0.06,0.31c-0.08-0.02-0.16-0.03-0.26-0.04
							C380.06,58.6,380.03,58.6,379.91,58.58z"/>
					</g>
					<g>
						<path class="st21" d="M379.91,48.5l-0.5-0.19c1.54-4.04,3.49-4.13,4.5-3.93l0,0c1.02,0.2,2.81,1.02,2.69,5.34l-0.53-0.01
							c0.1-3.78-1.16-4.59-2.26-4.81l0,0C382.94,44.73,381.31,44.83,379.91,48.5z"/>
					</g>
					<g>
						<path class="st32" d="M382.18,59.02c-0.12-0.02-0.06-0.01-0.17-0.04c-0.09-0.02-0.17-0.04-0.25-0.06l0.06-0.31
							c0.08,0.02,0.17,0.04,0.27,0.06c0.48,0.12,0.71,0.05,1.18-0.25c1.07-0.69,1.95-2.74,2.62-6.12c0.18-0.94,0.29-1.8,0.31-2.58
							l0.32,0.01c-0.02,0.8-0.13,1.68-0.31,2.64c-0.69,3.52-1.6,5.58-2.76,6.33C382.88,59.05,382.71,59.12,382.18,59.02z"/>
					</g>
					<path class="st21" d="M380.06,58.45c-0.04,0.21,0.1,0.42,0.32,0.47c0.22,0.04,0.43-0.1,0.47-0.31c0.04-0.21-0.1-0.42-0.32-0.47
						C380.31,58.09,380.1,58.23,380.06,58.45z"/>
					<path class="st21" d="M381.39,58.71c-0.04,0.21,0.1,0.42,0.32,0.47c0.22,0.04,0.43-0.1,0.47-0.31c0.04-0.21-0.1-0.42-0.32-0.47
						C381.64,58.35,381.43,58.49,381.39,58.71z"/>
				</g>
				<g>
					<path class="st21" d="M384.32,44.61l-0.6-0.03c0-0.11,0.21-2.58,2.42-3.63l0.15,0.52C384.49,42.4,384.32,44.59,384.32,44.61z"
						/>
				</g>
			</g>
			<g>
				<path class="st31" d="M391.78,65.14c-2.92,3.76-4.21,0.17-3.68-3.96c0.5-3.97,1.43-7.5,3.12-11.15
					c1.01-2.18,3.63-7.73,6.72-5.49c2.88,2.09,0.5,7.03-0.41,9.66C396.23,57.95,394.4,61.77,391.78,65.14z"/>
				<path class="st31" d="M368.88,72.96c0-0.16-3.48-2.22,0.63-1.02c2.01,0.59,4.09-1.29,6.36-2.87c2.84-1.97,5.19-3.58,7.84-5.19
					c2.07-1.25,4.77-2.48,7.23-2.66c2.45-0.18,2.52,2.01,1.22,3.55c-2.17,2.57-5.08,3.53-8.08,4.79c-2.38,0.99-5.5,2.37-7.9,3.3
					c-2.12,0.82-3.99,2.22-6.11,3.06c-2.17,0.86-5.79,0.74-5.95-0.46c-0.19-1.37,2.03-1.54,3.36-1.76
					C368.02,73.62,368.89,73.51,368.88,72.96z"/>
				<path class="st6" d="M395.66,43.59c1.54-0.15,4.49,0.22,4,5.15c-0.12,1.26-0.4,2.5-0.75,3.72c-0.67,2.34-1.61,4.61-2.72,6.77
					c-0.49,0.96-1.01,1.91-1.59,2.82c-0.24,0.38-1.52,2.34-1.93,2.92c-0.74,1.07-1.58,2.08-2.87,1.97
					c-1.65-0.14-2.48-1.48-2.33-2.99C388.29,55.48,392.08,43.93,395.66,43.59z"/>
				<path class="st6" d="M380.46,65.51c1.25-0.9,2.56-1.84,3.91-2.59c0.48-0.26,0.96-0.57,1.45-0.81c0.7-0.34,1.83-0.55,2.6-0.65
					c0.56-0.07,0.99,0.02,1.51,0.17c0.69,0.21,1.33,0.86,1.64,1.58c0.32,0.75,0.53,2.79-0.32,3.41c-3.89,2.87-10.46,5.3-12.46,6.13
					c-1.31,0.54-2.61,1.11-3.91,1.68l-1.52-3.69C375.71,68.96,378.08,67.23,380.46,65.51z"/>
			</g>
			<g>
				
					<rect x="394.49" y="73.65" transform="matrix(0.9676 -0.2526 0.2526 0.9676 -6.2296 102.9052)" class="st33" width="6.33" height="4.13"/>
				
					<rect x="396.77" y="72.56" transform="matrix(0.9676 -0.2526 0.2526 0.9676 -5.7164 102.6985)" class="st33" width="0.69" height="2.1"/>
			</g>
		</g>
	</g>
	<g>
		<path class="st25" d="M194.58,115.52c2.27,4.13,4.23,0.77,4.36-3.34c0.12-3.96-0.38-7.43-1.46-11.25
			c-0.65-2.29-2.76-12.31-6.12-10.6c-3.14,1.59-1.18,10.9-0.7,13.61C191.34,107.82,192.54,111.82,194.58,115.52z"/>
		<path class="st25" d="M214.38,113.15c-0.06-0.14,2.97-0.32,2.39-0.96c-0.33-0.37-2.55-0.13-3.74,0.25
			c-2.4,0.77-5.11,0.68-8.39,0.12c-4.09-0.7-6.22-1.7-10.85-1.27c-2.42,0.22-3.4,4.62-1.16,5.56c2.47,1.03,10.52,0.21,13.61-0.01
			c2.72-0.19,5.48,0.03,8.21,0.22c1.5,0.11,6.21-1.1,5.6-2.77c-0.61-1.67-1.05-0.77-3.57-0.61
			C215.65,113.74,214.64,113.75,214.38,113.15z"/>
		<g>
			<path class="st34" d="M211.16,90.06c-1.65,0.26-3.09,1.56-3.51,3.18c-0.35,1.35-0.04,2.77,0.09,4.16
				c0.15,1.58,0.06,3.18-0.27,4.74c0.87-0.23,1.58-0.56,2.08-0.9c1-0.68,1.01-2.03,1.2-3.22c0.07-0.46,0.15-1.03,0.58-1.19
				c0.2-0.07,0.42-0.03,0.62,0c1.31,0.19,2.75-0.11,3.67-1.06C218.35,92.95,213.95,89.62,211.16,90.06z"/>
			<g>
				<path class="st25" d="M227.05,121.43c2,1.91,2.51-0.31,1.86-2.64c-0.63-2.24-1.37-4.11-2.65-6.06c-0.77-1.17-3.4-5.75-5.43-4.86
					c-2.86,1.26,1.25,6.32,1.99,7.75C223.88,117.68,225.26,119.72,227.05,121.43z"/>
				<path class="st25" d="M239.63,127.19c0.01-0.1,1.64,0.65,1.51,0.13c-0.07-0.3-1.29-0.78-2.02-0.9
					c-1.46-0.24-2.85-1.04-4.41-2.26c-1.95-1.53-2.69-2.11-4.51-3.36c-1.43-0.97-1.67-1.08-3.41-1.23
					c-1.42-0.12-2.15,1.65-1.19,2.75c0.57,0.65,1.21,1.08,3.29,2.07c1.65,0.79,3.81,1.87,5.49,2.61c1.47,0.65,2.85,1.54,4.23,2.4
					c0.75,0.48,3.41,1.11,4.2-0.27c0.31-0.54-0.87-0.45-2.23-1.06C240.14,127.88,239.6,127.6,239.63,127.19z"/>
				<path class="st35" d="M224.98,113.17c-0.17-2.65-1.24-5.09-3.52-6.72c-1.94-1.39-5.9-0.77-7.27,1.68
					c-2.21,3.96-3.67,14.96-3.49,18.87c2.86,0.36,9.46-0.17,12.39-0.03c-0.54-3.87,1.14-6.03,1.89-9.96
					C225.24,115.7,225.07,114.55,224.98,113.17z"/>
				<path class="st36" d="M231.11,133.93c4.4,0,5.75-13.11,4.4-15.91c-0.85-1.75-5.17-0.41-5.12,5.82
					C230.44,130.06,225.11,133.93,231.11,133.93z"/>
				
					<rect x="215.35" y="99.6" transform="matrix(0.2212 -0.9752 0.9752 0.2212 72.5732 294.2045)" class="st24" width="10.3" height="4.12"/>
				<path class="st25" d="M222.41,109.35c-0.45,0.63-1.92,0.35-3.28-0.62c-1.36-0.97-2.1-2.27-1.64-2.9
					c0.45-0.63,1.92-0.35,3.28,0.62C222.12,107.42,222.86,108.72,222.41,109.35z"/>
				<path class="st24" d="M220.01,126.16c0,0,11.99-11.47,14.1-9.2c2.11,2.26,10.76,14.04,10.76,14.04l-2.45,0
					c0,0-10.99-5.01-10.02-7.19c0,0-16.41,19.99-18.58,3.2L220.01,126.16z"/>
				<path class="st31" d="M217.11,125.26c0,0,11.52-10.55,13.9-8.3c2.25,2.13,11.42,14.04,11.42,14.04l-4.55,0
					c0,0-7.24-4.19-7.49-7.16c0,0-17.51,19.96-19.68,3.17L217.11,125.26z"/>
				<g>
					<path class="st34" d="M221.1,91.27c1.45,0.2,3.62,0.94,4.68,2.37c0.91,1.23,0.98,2.72,0.74,4.13
						c-0.18,1.04-0.38,2.19-0.73,3.19c-0.29,0.84-1.21,1.13-2,1.27c-1.69,0.29-3.53,0.1-5.2-0.23c-1.25-0.24-2.39-1.29-2.92-2.42
						c-0.67-1.42,0.04-3.06,0.7-4.36c0.57-1.11,1.3-2.12,2.33-2.85c0.53-0.38,1.17-0.62,1.82-0.67
						C220.69,91.7,220.94,91.25,221.1,91.27z"/>
					<path class="st37" d="M218.86,92.26c5.86-1.5,8.26,4.59,6.88,9.23c-0.39,1.3-1.31,2.99-2.07,2.94
						c-1.52-0.09-2.72-0.64-3.92-1.21c-2.26-1.07-3.37-2.7-4.2-4.93C214.57,95.71,216.23,92.93,218.86,92.26z"/>
					<path class="st34" d="M224.25,92.26c1.6,0.92,0.32,2.39-0.59,3.58c-0.41,0.54-1.04,1.02-1.68,1.24
						c-0.85,0.29-2.37,0.62-3.22,0.55c-0.58-0.05-0.91,0.55-1.01,1.25c-0.21,1.52,1.64,1.05,0.94,2.71
						c-0.12,0.29-0.2,1.26-0.48,1.41c-0.52,0.28-1.85-0.69-2.23-1.15c-1.83-2.21-2.17-3.9-1.75-6.24c0.25-1.41,0.91-2.83,2.13-3.6
						C218.66,90.57,221.95,91.15,224.25,92.26z"/>
					<path class="st6" d="M222.91,101.9c0,0,1.16-0.57,2-1.12C224.92,100.79,224.22,104.63,222.91,101.9z"/>
				</g>
				<path class="st35" d="M210.71,127c0,0-0.88,6.92,6.44,6.92c7.33,0,13.96,0,13.96,0s-3.02-17.7,4.4-15.91c0,0-1.03-1.6-2.31-1.78
					c-6.56-0.94-14.19,7.16-14.19,7.16L210.71,127z"/>
				<path class="st24" d="M216.24,123.24c1.15,2.6,2.5,0.69,2.8-1.78c0.28-2.38,0.3-4.45-0.15-6.81c-0.27-1.41-1.08-7.38-3.26-6.75
					c-3.08,0.9-2.05,6.1-1.82,7.75C214.13,117.99,215.21,120.91,216.24,123.24z"/>
				<path class="st24" d="M231.19,121.25c-0.05-0.1,1.34-0.73,1.26-0.96c-0.11-0.34-1.58,0.01-2.27,0.33
					c-1.38,0.63-3.06,0.69-5.15,0.43c-2.6-0.32-6.43-0.93-7.99-0.05c-1.28,0.72-0.76,2.79,0.72,3.36c1.65,0.62,6.9-0.09,8.77-0.37
					c1.65-0.25,3.38-0.21,5.08-0.18c0.94,0.01,3.63-0.01,3.77-1.11c0.19-1.5-1.4-1.56-2.93-1.35
					C231.95,121.42,231.25,121.39,231.19,121.25z"/>
				<g>
					<path class="st36" d="M239.64,133.37c0,0,2.57,0,3.43,0c1.34,0,1.78,0.51,2.48,0.51h4.09l0,0c0-1.57-1.27-2.88-2.85-2.88h-6.67
						c-0.26,0-0.48,0.21-0.48,0.47V133.37z"/>
					<rect x="239.64" y="133.36" class="st36" width="3.43" height="0.52"/>
				</g>
				<path class="st34" d="M224.87,88.93c-0.12-1.9-2.42-2.17-2.79-2.18c-1.24-0.05-2.01,0.58-2.42,1.37
					c-0.57,1.1-0.24,2.69-1.56,3.79c1.08-0.33,1.23-1.26,1.81-1.35c0.39-0.06,0.43,0.82,0.64,1.24c0.37,0.73,1.27,1.11,2.07,0.98
					C224.36,92.51,224.96,90.44,224.87,88.93z"/>
				<g>
					<path class="st35" d="M217.8,95.61l-0.47,0.65c-0.11,0.16-0.33,0.19-0.48,0.08l-0.65-0.47c-0.16-0.11-0.19-0.33-0.08-0.48
						l0.47-0.65c0.11-0.16,0.33-0.19,0.48-0.08l0.65,0.47C217.87,95.24,217.91,95.46,217.8,95.61z"/>
					<path class="st35" d="M216.98,96.31l-0.02,1.1c-0.01,0.41-0.47,0.65-0.81,0.41l-1.12-0.8c-0.33-0.24-0.26-0.75,0.12-0.89
						l1.03-0.37L216.98,96.31z"/>
					<path class="st35" d="M217.72,95.27l1.03-0.37c0.39-0.14,0.46-0.66,0.12-0.89l-1.12-0.8c-0.33-0.24-0.8,0-0.81,0.41l-0.02,1.1
						L217.72,95.27z"/>
				</g>
				<g>
					<path class="st38" d="M237.35,133.37c0,0,2.57,0,3.43,0c1.34,0,1.78,0.51,2.48,0.51h4.09l0,0c0-1.57-1.27-2.88-2.85-2.88h-6.67
						c-0.26,0-0.48,0.21-0.48,0.47V133.37z"/>
					<rect x="237.35" y="133.37" class="st38" width="3.43" height="0.51"/>
				</g>
			</g>
		</g>
		<g>
			<path class="st39" d="M201.39,100.13c-0.27-4.26-2-8.19-5.66-10.81c-3.12-2.23-4.35-2.56-7.5-1.5
				c-7.26,2.44-8.13,28.69-7.83,34.99c4.6,0.58,8.25,1.34,12.96,1.58c-0.87-6.22,3.37-12.13,6.44-18.2
				C200.77,104.27,201.53,102.35,201.39,100.13z"/>
			<path class="st25" d="M195.94,92.54c-0.6,0.84-2.55,0.47-4.36-0.82c-1.81-1.29-2.78-3.02-2.18-3.86c0.6-0.84,2.55-0.47,4.36,0.82
				C195.56,89.98,196.54,91.7,195.94,92.54z"/>
			<g>
				<g>
					<polygon class="st24" points="210.39,154.24 209.57,159.68 217.64,163.29 213.87,157.92 214.82,155.89 					"/>
					<path class="st26" d="M212.72,163.45l-3.13-0.02c0,0-0.43-0.8-0.42-2.8c0.01-2,0.01-1.88,0.01-1.88s0.67-0.01,2.33,1.16
						c1.31,0.94,4.46,0.87,5.5,1.18c2.12,0.63,3.23,0.87,3.22,2.39l-6.43-0.04c0,0-0.47-1.01-1.14-1.02
						C212.68,162.82,212.72,163.45,212.72,163.45z"/>
					<path class="st40" d="M193.55,119.87c0,0,25.51,0.7,29.07,4.52c3.56,3.82-7.5,31.5-7.5,31.5l-5.48,0.62
						c0,0,1.49-17.77,5.64-22.34c0,0-29.65-1.83-30.05-12.45L193.55,119.87z"/>
				</g>
				<g>
					<polygon class="st31" points="205.15,154.24 204.33,159.68 212.4,163.29 208.63,157.92 209.73,155.89 					"/>
					<path class="st41" d="M191.95,120.22c0,0,21.43,0.37,25.43,4.16c3.79,3.59-7.34,31.5-7.34,31.5l-5.64,0.62
						c0,0,1.6-20.35,6.13-22.86c0,0-7.24,0.43-14.81,0.43c-7.93,0-15.99-1.95-15.32-11.27L191.95,120.22z"/>
					<path class="st42" d="M207.49,163.45l-3.13-0.02c0,0-0.43-0.8-0.42-2.8c0.01-2,0.01-1.88,0.01-1.88s0.67-0.01,2.33,1.16
						c1.31,0.94,4.46,0.87,5.5,1.18c2.12,0.63,3.23,0.87,3.22,2.39l-6.43-0.04c0,0-0.47-1.01-1.14-1.02
						C207.44,162.82,207.49,163.45,207.49,163.45z"/>
				</g>
			</g>
			<g>
				<path class="st43" d="M193.45,69.24c1.94,0.09,4.61,0.62,6.12,1.96c1.52,1.35,1.62,3.48,1.48,5.37c-0.11,1.4-0.24,2.94-0.57,4.3
					c-0.28,1.14-1.46,1.65-2.49,1.92c-2.2,0.59-4.65,0.56-6.91,0.34c-1.68-0.17-3.32-1.42-4.15-2.84c-1.06-1.8-0.32-4.05,0.39-5.85
					c0.61-1.54,1.46-2.96,2.73-4.06c0.65-0.56,1.47-0.96,2.32-1.1C192.59,69.26,193.24,69.23,193.45,69.24z"/>
				
					<rect x="185.71" y="79.98" transform="matrix(0.165 -0.9863 0.9863 0.165 80.0625 258.2392)" class="st24" width="13.68" height="3.71"/>
				<path class="st37" d="M192.67,71.75c6.16-2.5,9.28,4.48,8.21,10.18c-0.3,1.6-1.14,3.72-1.97,3.77
					c-1.64,0.08-2.98-0.44-4.31-0.97c-2.53-1-3.86-2.82-4.95-5.37C188.37,76.39,189.9,72.87,192.67,71.75z"/>
				<path class="st43" d="M197.37,69.57c2.23,1.02,0.71,3.13-0.34,4.8c-0.48,0.76-1.25,1.47-2.07,1.85c-1.09,0.49-2.23-0.01-3.36,0
					c-0.78,0.01-1.76,0.19-1.81,1.12c-0.1,2.14,1.35,1.95,1.37,1.95c0.01,0-0.03,1.61-0.06,1.75c-0.08,0.56-0.26,1.18-0.77,1.5
					c-1.33,0.83-2.61-0.76-3.39-1.61c-0.74-0.81-1.34-2.14-1.47-3.26c-0.47-4.15,0.75-6.97,3.64-8.38c0.84-0.41,1.85-0.63,2.78-0.68
					C193.4,68.51,195.96,69.04,197.37,69.57z"/>
				<path class="st43" d="M189.37,69.32c-0.07-1.41-0.69-2.35-2.15-2.6c-1.14-0.2-2.53,0.11-3.27,1.13
					c-1.43,1.95-0.98,3.87,0.28,4.88c0.61,0.49,1.34,0.51,2.04,0.22L189.37,69.32z"/>
				<path class="st6" d="M196.81,82.08c0,0,1.69-0.79,3.08-1.17C199.89,80.91,199.52,85.09,196.81,82.08z"/>
			</g>
			<path class="st31" d="M187.8,116.09c1.69,4.4,4.09,1.34,4.77-2.72c0.66-3.91,0.86-7.33,0.31-11.26
				c-0.33-2.36-1.29-12.65-4.85-11.42c-3.32,1.15-2.65,10.64-2.54,13.39C185.64,108.01,186.29,112.15,187.8,116.09z"/>
			<path class="st31" d="M213.76,108.7c-0.08-0.13,2.05-1.46,1.91-1.78c-0.2-0.45-2.5,0.52-3.56,1.18
				c-2.13,1.35-4.78,1.95-8.09,2.23c-4.14,0.36-6.17-0.08-9.86,0.47c-2.87,0.43-3.84,0.55-5.24,2.36c-1.49,1.91-0.73,4.64,0.92,5.02
				c2.61,0.6,13.87-3.11,16.8-4.1c2.59-0.87,5.31-1.36,8-1.86c1.48-0.28,3.88-2.28,3.88-3.88c0-1.01-0.37-0.7-2.77,0.1
				C214.98,108.7,213.87,108.87,213.76,108.7z"/>
		</g>
	</g>
	<g>
		<g>
			<g>
				<path class="st44" d="M337.27,66.49c-7.68,0-13.93-6.25-13.93-13.93s6.25-13.93,13.93-13.93s13.93,6.25,13.93,13.93
					S344.96,66.49,337.27,66.49z M337.27,41.09c-6.32,0-11.47,5.14-11.47,11.47c0,6.32,5.14,11.47,11.47,11.47
					c6.32,0,11.47-5.14,11.47-11.47C348.74,46.23,343.6,41.09,337.27,41.09z"/>
				
					<rect x="324.57" y="51.33" transform="matrix(0.7071 -0.7071 0.7071 0.7071 61.6219 253.883)" class="st44" width="25.4" height="2.46"/>
			</g>
		</g>
		<g>
			<g>
				<path class="st6" d="M346.14,54.36c0.01-0.05,0.02-0.09,0.04-0.14c0.01-0.05,0.02-0.1,0.04-0.14c0.01-0.05,0.02-0.1,0.03-0.15
					c0.01-0.04,0.02-0.09,0.03-0.13c0.01-0.05,0.02-0.11,0.03-0.16c0.01-0.04,0.01-0.08,0.02-0.13c0.01-0.06,0.02-0.11,0.02-0.17
					c0-0.04,0.01-0.08,0.01-0.12c0.01-0.06,0.01-0.12,0.02-0.18c0-0.03,0-0.07,0.01-0.1c0-0.06,0.01-0.13,0.01-0.19
					c0-0.03,0-0.05,0-0.08c0.01-0.35-0.01-0.7-0.04-1.04c0,0,0-0.01,0-0.01c-0.01-0.08-0.02-0.17-0.03-0.25c0-0.01,0-0.03-0.01-0.04
					c-0.01-0.08-0.03-0.16-0.04-0.24c0-0.01-0.01-0.03-0.01-0.04c0-0.01,0-0.02-0.01-0.03c0.02,0,0.03,0.01,0.03,0.01
					c0.38-0.92-0.42-1.42-0.42-1.42c0,0-0.01,0.01-0.01,0.01c-0.3-0.76-0.72-1.49-1.25-2.14c-0.21-0.26-0.43-0.49-0.67-0.7
					c0.04-0.01,0.06-0.01,0.06-0.01s-0.09-0.84-1.02-1.25c-0.93-0.41-1.39-0.18-1.39-0.18c0,0.01,0,0.01,0,0.02
					c-0.76-0.29-1.46-0.42-1.94-0.47c-0.27-0.51-0.81-0.84-1.4-0.79c-0.24,0.02-0.51,0.1-0.79,0.28c-1.93,1.22-0.73,3.97-0.73,3.97
					s-0.72,2.87,0.12,3.22c0.83,0.36,1.67-0.48,1.67-0.48c0,0,0,0,0,0c0.05-0.01,0.11-0.03,0.16-0.04c0.02,0,0.03-0.01,0.05-0.01
					c0.04-0.01,0.08-0.02,0.11-0.02c0.02,0,0.04-0.01,0.06-0.01c0.04-0.01,0.08-0.01,0.11-0.02c0.02,0,0.03,0,0.05-0.01
					c0.05-0.01,0.11-0.01,0.16-0.02c0,0,0,0,0,0c0.05,0,0.11-0.01,0.16-0.01c0.01,0,0.03,0,0.04,0c0.04,0,0.08,0,0.11,0
					c0.02,0,0.03,0,0.05,0c0.04,0,0.08,0,0.11,0c0.01,0,0.03,0,0.04,0c0.1,0.01,0.2,0.02,0.29,0.04c0.01,0,0.02,0,0.03,0.01
					c0.04,0.01,0.07,0.02,0.11,0.03c0.01,0,0.02,0.01,0.04,0.01c0.04,0.01,0.07,0.02,0.1,0.03c0.01,0,0.02,0.01,0.03,0.01
					c0.09,0.03,0.17,0.07,0.25,0.12c0.01,0,0.01,0.01,0.02,0.01c0.03,0.02,0.06,0.04,0.1,0.06c0.01,0.01,0.02,0.01,0.03,0.02
					c0.03,0.02,0.06,0.04,0.08,0.07c0.01,0.01,0.02,0.01,0.02,0.02c0.03,0.03,0.07,0.06,0.1,0.1c0.32,0.36,0.5,0.92,0.43,1.74
					c-0.18,2.18-2.01,2.95-2.01,2.95c-2.26-0.48-4.71,0.74-4.71,0.74s-3.44-3.49-4.09-3.26c-0.65,0.23,0.42,1.71,0.42,1.71
					s-2.81-1.97-3.36-1.1c-0.55,0.87,3,3.15,3,3.15s-0.83-0.22-0.91,0.23c-0.08,0.45,2.21,1.87,4.68,1.75
					c0.2,0.12,0.4,0.22,0.59,0.31c0.96,0.45,1.84,0.58,2.58,0.55c0.07,0,0.15-0.01,0.22-0.01c0.21-0.02,0.42-0.05,0.6-0.09
					c0.56-0.12,1-0.31,1.27-0.46c0.21-0.11,0.33-0.2,0.33-0.2c0.48,0.41,0.69-0.09,0.69-0.09s0,0,0,0c0.51-0.11,1.27-0.33,2.1-0.82
					c0,0.01,0,0.01,0,0.01s0.18,0.09,0.52-0.11c0.34-0.2,0.36-0.5,0.36-0.5s0,0,0,0c0.05-0.04,0.1-0.07,0.14-0.11
					c0.07-0.06,0.14-0.12,0.22-0.18c0.14-0.13,0.29-0.26,0.43-0.41c0.14-0.14,0.28-0.3,0.42-0.46c0.07-0.08,0.13-0.16,0.19-0.24
					c0.02-0.03,0.04-0.05,0.06-0.08c0.04-0.05,0.08-0.11,0.12-0.16c0.02-0.03,0.04-0.07,0.07-0.1c0.03-0.05,0.07-0.1,0.1-0.15
					c0.02-0.04,0.04-0.07,0.07-0.11c0.01-0.02,0.03-0.04,0.04-0.06c0.02,0.06,0,0.09,0,0.09s1.37-0.74,0.65-1.39
					c-0.02-0.02-0.04-0.03-0.06-0.05c0-0.01,0-0.01,0.01-0.02C346.1,54.49,346.12,54.43,346.14,54.36z"/>
				<path class="st6" d="M337.32,60.82c-0.87,0-1.75-0.2-2.61-0.61c-0.16-0.08-0.33-0.16-0.49-0.25c-2.12,0.04-4.18-0.94-4.82-1.67
					c-0.22-0.24-0.3-0.49-0.26-0.73c0.02-0.14,0.08-0.26,0.16-0.37c-0.24-0.18-0.51-0.38-0.77-0.6c-0.94-0.78-1.95-1.78-1.41-2.63
					c0.15-0.24,0.39-0.4,0.68-0.45c0.54-0.11,1.29,0.16,1.97,0.49c0-0.11,0.01-0.22,0.04-0.33c0.08-0.26,0.27-0.46,0.53-0.55
					c0.29-0.1,0.95-0.34,4.4,3.12c0.78-0.33,2.66-0.98,4.51-0.66c0.38-0.21,1.41-0.91,1.54-2.41c0.05-0.61-0.05-1.06-0.29-1.33
					c-0.02-0.02-0.04-0.04-0.06-0.06c0,0-0.01-0.01-0.01-0.01c-0.02-0.01-0.03-0.03-0.05-0.04l-0.02-0.01
					c-0.02-0.02-0.04-0.03-0.06-0.04c0,0-0.01-0.01-0.02-0.01c-0.05-0.03-0.1-0.05-0.16-0.08c0,0-0.02-0.01-0.02-0.01
					c-0.02-0.01-0.05-0.02-0.07-0.02L340,51.55c-0.02-0.01-0.05-0.01-0.08-0.02l-0.02,0c-0.07-0.01-0.14-0.02-0.22-0.03l-0.03,0
					c-0.03,0-0.06,0-0.09,0l-0.04,0c-0.03,0-0.06,0-0.09,0c0,0-0.01,0-0.02,0l-0.02,0c-0.04,0-0.08,0-0.13,0.01c0,0-0.01,0-0.01,0
					l0,0c-0.04,0-0.09,0.01-0.13,0.02l-0.03,0c-0.04,0.01-0.08,0.01-0.11,0.02l-0.05,0.01c-0.03,0.01-0.07,0.01-0.1,0.02l-0.04,0.01
					c0,0-0.01,0-0.01,0c-0.45,0.39-1.31,0.85-2.16,0.49c-1.05-0.45-0.78-2.43-0.48-3.69c-0.44-1.16-0.73-3.37,1.02-4.48
					c0.33-0.21,0.68-0.34,1.04-0.37c0.69-0.06,1.36,0.26,1.77,0.83c0.42,0.06,0.98,0.18,1.59,0.39c0.3-0.07,0.84-0.1,1.63,0.25
					c0.87,0.39,1.23,1.11,1.33,1.57c0.18,0.18,0.35,0.36,0.51,0.56c0.52,0.63,0.94,1.34,1.26,2.1c0.39,0.31,0.87,1,0.55,1.9
					c0.01,0.04,0.01,0.08,0.02,0.12l0.01,0.04c0.01,0.09,0.02,0.18,0.04,0.26c0,0,0,0.02,0,0.02c0.04,0.36,0.06,0.74,0.05,1.11
					l0,0.08c0,0.07-0.01,0.14-0.01,0.21l0,0.01c0,0.03,0,0.06-0.01,0.1c0,0.06-0.01,0.13-0.02,0.19c0,0.04-0.01,0.08-0.01,0.13
					c-0.01,0.06-0.02,0.12-0.02,0.18c-0.01,0.05-0.01,0.09-0.02,0.13c-0.01,0.06-0.02,0.12-0.03,0.17
					c-0.01,0.04-0.02,0.09-0.03,0.13l0,0.02c-0.01,0.06-0.02,0.11-0.03,0.16c-0.01,0.04-0.02,0.09-0.03,0.13l-0.02,0.07
					c0,0.01,0,0.02-0.01,0.02c0.16,0.22,0.23,0.48,0.19,0.74c-0.09,0.69-0.86,1.18-1.1,1.32c-0.02,0.02-0.03,0.05-0.05,0.07
					l-0.02,0.03c-0.02,0.03-0.03,0.05-0.05,0.08c-0.04,0.06-0.09,0.12-0.13,0.18l-0.02,0.03c-0.01,0.02-0.03,0.04-0.04,0.06
					c-0.07,0.09-0.14,0.17-0.21,0.26c-0.15,0.17-0.3,0.34-0.45,0.49c-0.15,0.15-0.3,0.29-0.46,0.43c-0.08,0.07-0.15,0.13-0.23,0.2
					c0,0,0,0,0,0c-0.09,0.23-0.26,0.49-0.57,0.67c-0.29,0.17-0.54,0.21-0.72,0.2c-0.71,0.39-1.36,0.6-1.84,0.72
					c-0.1,0.12-0.26,0.24-0.47,0.3c-0.14,0.03-0.33,0.04-0.55-0.04c-0.02,0.01-0.05,0.03-0.07,0.04c-0.3,0.16-0.79,0.38-1.42,0.51
					c-0.22,0.05-0.45,0.08-0.67,0.1c-0.08,0.01-0.16,0.01-0.24,0.02C337.48,60.82,337.4,60.82,337.32,60.82z M334.36,58.85
					c0.1,0,0.2,0.03,0.28,0.08c0.18,0.11,0.36,0.2,0.54,0.29c0.77,0.36,1.55,0.53,2.33,0.5c0.07,0,0.13-0.01,0.19-0.01
					c0.18-0.02,0.36-0.04,0.54-0.08c0.5-0.11,0.89-0.28,1.13-0.4c0.17-0.09,0.26-0.16,0.26-0.16c0.18-0.13,0.43-0.14,0.61-0.03
					c0.08-0.08,0.18-0.14,0.29-0.16c0.45-0.09,1.15-0.3,1.93-0.76c0.13-0.08,0.29-0.1,0.44-0.05c0.02-0.01,0.05-0.02,0.08-0.04
					c0.06-0.04,0.08-0.07,0.09-0.09c0.02-0.15,0.09-0.28,0.21-0.38l0.02-0.01c0.04-0.03,0.08-0.06,0.12-0.09
					c0.07-0.06,0.13-0.11,0.2-0.17c0.14-0.12,0.27-0.25,0.4-0.38c0.13-0.14,0.27-0.28,0.4-0.43c0.06-0.07,0.12-0.14,0.18-0.22
					l0.05-0.07c0.04-0.05,0.07-0.1,0.11-0.15c0.01-0.02,0.03-0.04,0.04-0.06l0.02-0.03c0.03-0.05,0.06-0.09,0.09-0.14
					c0.02-0.03,0.04-0.06,0.05-0.09l0.04-0.07c0.1-0.16,0.27-0.27,0.46-0.27c0.15-0.12,0.28-0.24,0.32-0.32
					c-0.01-0.01-0.01-0.01-0.02-0.02c-0.01-0.01-0.01-0.01-0.02-0.02c-0.18-0.14-0.26-0.38-0.19-0.6l0.01-0.04
					c0.02-0.05,0.03-0.1,0.05-0.16c0,0,0,0,0,0c0.01-0.03,0.01-0.06,0.02-0.08l0.02-0.07c0.01-0.04,0.02-0.07,0.03-0.11
					c0.01-0.04,0.02-0.08,0.03-0.13c0,0,0-0.01,0-0.01l0-0.02c0.01-0.04,0.01-0.07,0.02-0.11c0.01-0.05,0.02-0.1,0.03-0.15
					c0.01-0.04,0.01-0.08,0.02-0.12c0.01-0.05,0.01-0.1,0.02-0.15c0-0.04,0.01-0.07,0.01-0.11c0.01-0.05,0.01-0.11,0.01-0.16
					l0.01-0.1c0-0.06,0.01-0.12,0.01-0.18l0-0.07c0.01-0.32-0.01-0.65-0.04-0.97c0,0,0-0.02,0-0.02c-0.01-0.07-0.02-0.14-0.03-0.22
					l-0.01-0.04c-0.01-0.07-0.02-0.15-0.04-0.22l-0.01-0.06c-0.03-0.15,0.01-0.31,0.1-0.44c0.07-0.27-0.06-0.45-0.17-0.56
					c-0.14-0.06-0.26-0.17-0.31-0.32c-0.29-0.73-0.68-1.4-1.16-1.99c-0.19-0.23-0.39-0.44-0.61-0.65c-0.15-0.13-0.21-0.33-0.17-0.53
					c-0.07-0.18-0.25-0.46-0.64-0.64c-0.45-0.2-0.73-0.2-0.86-0.19c-0.15,0.09-0.33,0.11-0.49,0.05c-0.73-0.27-1.39-0.39-1.81-0.44
					c-0.18-0.02-0.34-0.13-0.42-0.29c-0.17-0.33-0.51-0.53-0.86-0.5c-0.18,0.01-0.36,0.08-0.54,0.2c-1.51,0.96-0.53,3.26-0.52,3.28
					c0.05,0.11,0.06,0.24,0.03,0.36c-0.27,1.09-0.35,2.33-0.18,2.59c0.46,0.17,1.03-0.37,1.03-0.37c0.07-0.07,0.16-0.12,0.25-0.14
					l0,0c0.06-0.02,0.12-0.03,0.18-0.04l0.06-0.01c0.04-0.01,0.08-0.02,0.12-0.02l0.06-0.01c0.04-0.01,0.08-0.01,0.13-0.02
					l0.06-0.01c0.06-0.01,0.11-0.01,0.17-0.02c0,0,0.01,0,0.01,0l0,0c0.06-0.01,0.12-0.01,0.18-0.01l0.04,0c0.05,0,0.1,0,0.14,0
					l0.06,0c0.04,0,0.09,0,0.13,0l-0.01,0.55l0.03-0.55l0.03,0c0.12,0.01,0.25,0.02,0.36,0.05l0.03,0.01
					c0.05,0.01,0.1,0.02,0.15,0.03l0.05,0.01c0.05,0.01,0.09,0.03,0.13,0.04l0.04,0.01c0.12,0.05,0.23,0.1,0.34,0.16
					c0.01,0,0.02,0.01,0.03,0.02l-0.01-0.01c0.05,0.03,0.1,0.06,0.14,0.09c0.01,0.01,0.03,0.02,0.04,0.03
					c0.04,0.03,0.07,0.06,0.11,0.09c0.01,0.01,0.03,0.02,0.04,0.03c0.05,0.04,0.09,0.09,0.13,0.13c0.45,0.51,0.64,1.23,0.57,2.16
					c-0.21,2.49-2.26,3.38-2.35,3.41c-0.1,0.04-0.22,0.05-0.33,0.03c-2.05-0.43-4.33,0.69-4.35,0.7c-0.21,0.11-0.47,0.06-0.64-0.11
					c-1.1-1.11-2.44-2.32-3.19-2.85c0.1,0.19,0.22,0.4,0.35,0.59c0.16,0.22,0.13,0.52-0.06,0.71c-0.19,0.19-0.49,0.22-0.71,0.06
					c-0.96-0.67-2.07-1.21-2.5-1.23c0.24,0.47,1.47,1.53,2.77,2.36c0.23,0.15,0.32,0.44,0.21,0.69c-0.07,0.16-0.2,0.27-0.36,0.31
					c0.74,0.44,2.12,0.97,3.6,0.9C334.34,58.85,334.35,58.85,334.36,58.85z M345,55.75c-0.01,0.02-0.02,0.03-0.02,0.05
					C344.98,55.78,344.99,55.77,345,55.75z M345,55.75C345,55.75,345,55.75,345,55.75C345,55.75,345,55.75,345,55.75z M345.8,55.07
					L345.8,55.07L345.8,55.07z"/>
			</g>
			<g>
				<path class="st45" d="M338.5,51.08l0.45-6.25c0,0,3.43-0.05,5.63,2.65c2.21,2.7,2.49,6.72,0.25,9.35
					c-2.24,2.62-4.88,2.68-4.88,2.68s-2.4,1.78-5.59-0.1l0.26-2.49c0,0,2.45-1.22,4.71-0.74c0,0,1.83-0.77,2.01-2.95
					C341.53,51.04,340.01,50.69,338.5,51.08z"/>
				<g>
					<path class="st46" d="M340.92,51.47c-0.31-1.05-1.3-1.29-2.36-1.1l-0.05,0.71C339.44,50.84,340.38,50.88,340.92,51.47z"/>
					<path class="st46" d="M345.25,48.42c1.23,2.53,1.09,5.62-0.75,7.77c-2.24,2.62-4.88,2.68-4.88,2.68s-2.21,1.64-5.21,0.11
						l-0.04,0.42c3.19,1.88,5.59,0.1,5.59,0.1s2.64-0.06,4.88-2.68C346.83,54.49,346.83,51.06,345.25,48.42z"/>
				</g>
				<g>
					<path class="st47" d="M338.8,48.6c0,0,1.03,1.08-0.3,2.48c0,0-0.83,0.84-1.67,0.48c-0.83-0.36-0.12-3.22-0.12-3.22
						s-1.2-2.74,0.73-3.97c0.28-0.18,0.55-0.26,0.79-0.28c0.61-0.05,1.19,0.31,1.44,0.87C340.04,45.76,340.5,47.43,338.8,48.6z"/>
					<path class="st47" d="M340.84,50.3c0,0,1.44-2.38,0.74-4.96c0,0,0.46-0.24,1.39,0.18c0.93,0.41,1.02,1.25,1.02,1.25
						s-0.72,0.06-1.32,1.36C342.07,49.43,341.26,50.25,340.84,50.3z"/>
					<path class="st47" d="M342.31,51.76c0,0,2.9-1.35,3.54-2.16c0,0,0.81,0.51,0.42,1.42c0,0-0.59-0.14-1.59,0.23
						C343.68,51.64,343.14,51.99,342.31,51.76z"/>
					<path class="st47" d="M342.51,53.75c0,0,2.91,0.21,3.63,0.87c0.71,0.66-0.65,1.39-0.65,1.39s0.16-0.29-1.18-1.24
						C342.96,53.83,342.51,53.75,342.51,53.75z"/>
					<path class="st47" d="M341.58,56.28c0,0,0.87,0.24,1.41,0.82c0.54,0.58,0.64,0.9,0.64,0.9s-0.02,0.3-0.36,0.5
						c-0.34,0.2-0.52,0.11-0.52,0.11S342.75,57.62,341.58,56.28z"/>
					<path class="st47" d="M339.54,56.54c0,0,0.5,0.54,0.79,1.3c0.29,0.75,0.32,1.58,0.32,1.58s-0.21,0.5-0.69,0.09
						C339.95,59.5,340.15,58.2,339.54,56.54z"/>
				</g>
				<path class="st46" d="M334.62,56.91c0,0-3.44-3.49-4.09-3.26c-0.65,0.23,0.42,1.71,0.42,1.71s-2.81-1.97-3.36-1.1
					c-0.55,0.87,3,3.15,3,3.15s-0.83-0.22-0.91,0.23c-0.08,0.45,2.21,1.87,4.68,1.75C334.36,59.4,335.09,57.95,334.62,56.91z"/>
			</g>
		</g>
	</g>
	<g>
		<g>
			<path class="st44" d="M283.66,77.88c-7.68,0-13.93-6.25-13.93-13.93s6.25-13.93,13.93-13.93c7.68,0,13.93,6.25,13.93,13.93
				S291.34,77.88,283.66,77.88z M283.66,52.48c-6.32,0-11.47,5.14-11.47,11.47c0,6.32,5.14,11.47,11.47,11.47
				c6.32,0,11.47-5.14,11.47-11.47C295.13,57.63,289.98,52.48,283.66,52.48z"/>
			
				<rect x="270.96" y="62.72" transform="matrix(0.7071 -0.7071 0.7071 0.7071 37.8608 219.3064)" class="st44" width="25.4" height="2.46"/>
		</g>
		<g>
			<g>
				<path class="st6" d="M291.08,57.96c-0.5-0.68-1.17-1.05-1.96-1.08c-0.82-0.03-1.59,0.16-2.31,0.58c0.4-0.77,0.94-1.34,1.1-1.51
					c0.04-0.04,0.06-0.06,0.07-0.06c0.05-0.05,0.05-0.12,0.02-0.17c-0.01-0.83-4.74-0.84-4.95-0.84c-0.2,0-4.95,0.01-4.95,0.84
					c0,0.04,0.01,0.07,0.03,0.11c0.01,0.02,0.02,0.04,0.04,0.06c0,0,0.02,0.02,0.07,0.07c0.26,0.27,1.58,1.69,1.58,3.21
					c0,0.75-0.51,1.88-1.06,3.08c-0.72,1.59-1.54,3.4-1.54,5.04c0,1.72,1.07,3.49,1.96,4.66c0.72,0.95,1.82,1.54,3,1.62
					c0.28,0.02,0.57,0.03,0.85,0.03c0.35,0,0.7-0.01,1.04-0.04c1.13-0.1,2.19-0.68,2.9-1.61c0.65-0.85,1.38-2.01,1.74-3.24
					c0.03-0.01,0.05-0.02,0.07-0.04c0.4-0.52,2.44-3.23,2.97-5.21C292.2,61.81,292.1,59.34,291.08,57.96z M290.44,63.08
					c-0.26,0.98-1.03,2.01-1.69,2.75c-0.28-1.22-0.85-2.46-1.36-3.6c-0.34-0.74-0.66-1.45-0.86-2.07c0.34-0.62,1.23-1.97,2.53-1.92
					c0.37,0.02,0.66,0.19,0.91,0.53C290.71,59.76,290.79,61.78,290.44,63.08z"/>
				<path class="st6" d="M283.04,74.14c-0.3,0-0.6-0.01-0.89-0.03c-1.35-0.1-2.59-0.77-3.41-1.84c-0.95-1.24-2.07-3.12-2.07-5
					c0-1.76,0.85-3.62,1.59-5.27c0.49-1.09,1.01-2.22,1.01-2.85c0-1.33-1.27-2.67-1.42-2.82c-0.03-0.03-0.05-0.05-0.05-0.05
					c-0.07-0.07-0.13-0.15-0.16-0.25c-0.05-0.1-0.07-0.21-0.07-0.32c0-0.86,1.16-1.13,2.9-1.29c1.23-0.11,2.46-0.11,2.6-0.11
					c0.14,0,1.37,0,2.59,0.11c1.65,0.14,2.77,0.4,2.9,1.15c0.08,0.25,0.01,0.52-0.18,0.71c-0.01,0.01-0.03,0.03-0.05,0.05
					c-0.01,0.01-0.02,0.02-0.03,0.03c0.28-0.04,0.57-0.05,0.87-0.04c0.96,0.04,1.78,0.49,2.38,1.31l0,0
					c1.13,1.54,1.24,4.16,0.77,5.95c-0.56,2.09-2.65,4.87-3.07,5.41c-0.01,0.01-0.02,0.03-0.03,0.04c-0.41,1.29-1.19,2.46-1.78,3.24
					c-0.8,1.05-2,1.72-3.29,1.83C283.77,74.12,283.4,74.14,283.04,74.14z M278.86,55.8c0.54,0.6,1.51,1.9,1.51,3.36
					c0,0.87-0.54,2.06-1.11,3.31c-0.7,1.54-1.49,3.29-1.49,4.81c0,1.57,1,3.22,1.85,4.33c0.63,0.82,1.57,1.33,2.6,1.41
					c0.59,0.04,1.21,0.04,1.81-0.01c0.98-0.08,1.89-0.59,2.5-1.4c0.56-0.74,1.3-1.86,1.65-3.06c0.04-0.13,0.12-0.24,0.23-0.31
					c1.08-1.4,2.43-3.5,2.82-4.94c0.4-1.52,0.29-3.8-0.59-5c-0.4-0.54-0.92-0.83-1.54-0.86c-0.71-0.03-1.38,0.14-2.01,0.5
					c-0.21,0.12-0.48,0.09-0.66-0.08c-0.18-0.17-0.22-0.44-0.11-0.66c0.32-0.6,0.71-1.09,0.96-1.38c-0.67-0.22-2.43-0.39-4.23-0.39
					C281.28,55.42,279.55,55.58,278.86,55.8z M288.35,68.3C288.35,68.3,288.35,68.3,288.35,68.3
					C288.35,68.3,288.35,68.3,288.35,68.3z M287.6,55.48C287.59,55.48,287.59,55.48,287.6,55.48
					C287.59,55.48,287.6,55.48,287.6,55.48z M288.76,66.38c-0.05,0-0.09-0.01-0.14-0.02c-0.2-0.05-0.36-0.21-0.4-0.41
					c-0.27-1.17-0.83-2.4-1.33-3.49c-0.35-0.76-0.67-1.48-0.88-2.13c-0.05-0.14-0.03-0.3,0.04-0.43c0.37-0.69,1.42-2.28,3.04-2.21
					c0.54,0.02,0.99,0.28,1.34,0.75c0.84,1.14,0.94,3.33,0.55,4.78c-0.24,0.89-0.84,1.89-1.81,2.97
					C289.06,66.32,288.91,66.38,288.76,66.38z M287.14,60.22c0.19,0.53,0.47,1.14,0.76,1.78c0.38,0.83,0.79,1.73,1.1,2.65
					c0.47-0.63,0.78-1.22,0.91-1.72l0,0c0.32-1.18,0.24-3.01-0.37-3.84c-0.19-0.26-0.35-0.3-0.49-0.3
					C288.16,58.75,287.45,59.71,287.14,60.22z"/>
			</g>
			<g>
				<g>
					<path class="st48" d="M283.04,73.58c-0.29,0-0.57-0.01-0.85-0.03c-1.19-0.08-2.28-0.68-3-1.62c-0.89-1.17-1.96-2.94-1.96-4.66
						c0-1.64,0.82-3.44,1.54-5.04c0.54-1.2,1.06-2.33,1.06-3.08c0-1.52-1.31-2.94-1.58-3.21c-0.04-0.04-0.06-0.06-0.07-0.07
						c-0.05-0.05-0.06-0.14-0.01-0.19c0.05-0.05,0.14-0.06,0.19-0.01c0,0,0.03,0.02,0.07,0.07c0.39,0.4,1.66,1.81,1.66,3.4
						c0,0.81-0.5,1.92-1.08,3.19c-0.71,1.57-1.52,3.35-1.52,4.92c0,1.65,1.04,3.35,1.91,4.5c0.67,0.88,1.7,1.44,2.81,1.52
						c0.61,0.04,1.23,0.04,1.85-0.01c1.06-0.09,2.04-0.64,2.7-1.51c0.87-1.14,1.9-2.84,1.9-4.49c0-1.58-0.81-3.36-1.52-4.92
						c-0.58-1.28-1.08-2.38-1.08-3.19c0-1.59,1.27-3,1.66-3.4c0.05-0.05,0.07-0.07,0.07-0.07c0.05-0.05,0.14-0.05,0.19,0.01
						c0.05,0.05,0.05,0.14-0.01,0.19c0,0-0.02,0.02-0.07,0.07c-0.26,0.27-1.58,1.69-1.58,3.21c0,0.75,0.51,1.88,1.06,3.08
						c0.72,1.59,1.54,3.4,1.54,5.04c0,1.72-1.06,3.48-1.96,4.66c-0.71,0.93-1.76,1.52-2.9,1.61
						C283.73,73.57,283.39,73.58,283.04,73.58z"/>
					<path class="st48" d="M283.06,56.55c-0.2,0-4.95-0.01-4.95-0.84c0-0.83,4.74-0.84,4.95-0.84c0.2,0,4.95,0.01,4.95,0.84
						C288,56.54,283.26,56.55,283.06,56.55z M278.39,55.71c0.13,0.21,1.77,0.57,4.67,0.57c2.9,0,4.54-0.36,4.67-0.57
						c-0.13-0.21-1.77-0.57-4.67-0.57C280.16,55.14,278.52,55.5,278.39,55.71z M287.73,55.72L287.73,55.72L287.73,55.72z"/>
					<path class="st48" d="M288.7,66.23c-0.03,0-0.07-0.01-0.09-0.04c-0.06-0.05-0.06-0.14-0.01-0.19c0.68-0.75,1.56-1.86,1.84-2.92
						c0.35-1.3,0.27-3.32-0.46-4.31c-0.25-0.34-0.55-0.51-0.91-0.53c-0.03,0-0.05,0-0.08,0c-1.29,0-2.16,1.36-2.47,1.95
						c-0.04,0.07-0.12,0.09-0.19,0.06c-0.07-0.04-0.09-0.12-0.06-0.19c0.35-0.65,1.32-2.16,2.8-2.1c0.45,0.02,0.82,0.23,1.12,0.64
						c0.78,1.06,0.87,3.18,0.5,4.54c-0.3,1.12-1.2,2.27-1.91,3.04C288.77,66.22,288.74,66.23,288.7,66.23z"/>
					<path class="st48" d="M288.68,68.7c-0.03,0-0.06-0.01-0.08-0.03c-0.06-0.05-0.07-0.13-0.02-0.19c0.4-0.51,2.41-3.18,2.92-5.11
						c0.42-1.56,0.33-3.92-0.64-5.24c-0.45-0.61-1.05-0.94-1.75-0.97c-0.9-0.04-1.74,0.22-2.51,0.76c-0.06,0.04-0.15,0.03-0.19-0.03
						c-0.04-0.06-0.03-0.15,0.03-0.19c0.82-0.58,1.72-0.85,2.68-0.81c0.78,0.03,1.46,0.41,1.96,1.08c1.02,1.39,1.11,3.86,0.68,5.47
						c-0.53,1.98-2.57,4.69-2.97,5.21C288.76,68.68,288.72,68.7,288.68,68.7z"/>
					<path class="st47" d="M282.12,62.03c-0.93-0.21-1.65-0.34-2.21-0.42c-0.66,1.64-1.9,3.79-1.9,5.66c0,1.5,0.94,3.04,1.71,4.06
						c0.62,0.81,1.56,1.32,2.58,1.39c0.55,0.04,1.1,0.03,1.66-0.01c0.98-0.08,1.88-0.6,2.48-1.38c0.77-1.01,1.71-2.56,1.71-4.05
						c0-1.83-1.19-3.93-1.86-5.55C284.97,62.07,283.43,62.32,282.12,62.03z"/>
				</g>
				<path class="st6" d="M279.03,68.31c0,0-0.6-0.97-0.43-2.13c0.07-0.45,0.27-0.88,0.46-1.21c0.15-0.27,0.53-0.28,0.7-0.02l0,0
					c0.1,0.15,0.09,0.33-0.02,0.47C279.43,65.82,278.89,66.78,279.03,68.31z"/>
				<path class="st6" d="M286.45,63.98c0,0,0.82,0.79,0.94,1.96c0.05,0.45-0.04,0.92-0.15,1.28c-0.08,0.3-0.45,0.4-0.67,0.19l0,0
					c-0.13-0.12-0.17-0.3-0.1-0.46C286.66,66.5,286.96,65.44,286.45,63.98z"/>
			</g>
		</g>
	</g>
	<g>
		<g>
			<g>
				<path class="st44" d="M313.17,86.96c-7.68,0-13.93-6.25-13.93-13.93s6.25-13.93,13.93-13.93s13.93,6.25,13.93,13.93
					S320.86,86.96,313.17,86.96z M313.17,61.56c-6.32,0-11.47,5.14-11.47,11.47s5.14,11.47,11.47,11.47
					c6.32,0,11.47-5.14,11.47-11.47S319.5,61.56,313.17,61.56z"/>
				
					<rect x="300.47" y="71.8" transform="matrix(0.7071 -0.7071 0.7071 0.7071 40.0882 242.8369)" class="st44" width="25.4" height="2.46"/>
			</g>
		</g>
		<g>
			<g>
				<path class="st6" d="M320.87,68.87c-0.54-0.5-1.62-1.17-2.25-1.54c-0.09-0.05-0.16-0.13-0.2-0.22c0,0,0,0,0,0
					c0.06-0.01,0.1-0.08,0.09-0.14c-0.01-0.06-0.08-0.11-0.14-0.09c0,0,0,0-0.01,0c0-0.09,0.02-0.17,0.06-0.25
					c0.18-0.33,0.34-0.8,0.08-1.16c-0.67-0.96-10.22-0.86-10.81,0.02c-0.29,0.44-0.09,0.96,0.14,1.32c0.04,0.06,0.07,0.13,0.08,0.2
					c-0.08-0.01-0.13-0.01-0.13-0.01c-0.06-0.01-0.12,0.04-0.13,0.11c-0.01,0.06,0.04,0.12,0.11,0.13c0,0,0.05,0,0.13,0.01
					c-0.04,0.12-0.12,0.23-0.24,0.3c-0.98,0.55-2.96,1.7-2.86,1.98c0.11,0.31,0.77,0.71,1.26,0.84c-0.25,0.86-0.4,2-0.16,3.36
					c0.43,2.37,1.9,5.3,2.51,6.45c0.17,0.32,0.47,0.56,0.83,0.64c2.68,0.65,5.31,0.63,7.9,0c0.36-0.09,0.66-0.32,0.83-0.64
					c0.61-1.15,2.08-4.08,2.51-6.45c0.27-1.5,0.05-2.75-0.24-3.63c0.07-0.01,0.15-0.03,0.23-0.04
					C322.01,69.69,321.66,69.59,320.87,68.87z"/>
				<path class="st6" d="M313.2,81.84c-1.36,0-2.73-0.17-4.09-0.5c-0.51-0.12-0.94-0.46-1.19-0.92c-0.62-1.17-2.13-4.16-2.57-6.61
					c-0.19-1.06-0.18-2.1,0.04-3.12c-0.47-0.22-0.97-0.58-1.12-0.99c-0.21-0.56,0.36-0.97,1.24-1.55c0.51-0.33,1.11-0.68,1.6-0.96
					c-0.01-0.05-0.01-0.11,0-0.16c0.01-0.1,0.04-0.19,0.09-0.27c-0.27-0.58-0.26-1.14,0.04-1.6c0.18-0.27,0.57-0.55,2.18-0.75
					c0.95-0.12,2.2-0.19,3.5-0.2c1.38-0.01,2.69,0.04,3.7,0.15c1.72,0.19,2.14,0.48,2.34,0.77c0.3,0.43,0.31,0.98,0.04,1.57
					c0.02,0.05,0.04,0.09,0.05,0.15c0.01,0.03,0.01,0.06,0.01,0.09c0.74,0.45,1.67,1.04,2.18,1.52l0,0
					c0.08,0.08,0.16,0.15,0.24,0.21c0.36,0.32,0.71,0.63,0.59,1.09c-0.1,0.41-0.5,0.58-1.13,0.74c0.26,1.07,0.29,2.2,0.09,3.31
					c-0.44,2.45-1.95,5.44-2.57,6.61c-0.25,0.46-0.68,0.8-1.19,0.92C315.93,81.67,314.56,81.84,313.2,81.84z M305.54,69.5
					c0.17,0.12,0.43,0.26,0.67,0.32c0.14,0.04,0.27,0.13,0.34,0.26c0.07,0.13,0.09,0.28,0.05,0.43c-0.29,1-0.34,2.04-0.14,3.11
					c0.42,2.29,1.86,5.16,2.46,6.29c0.1,0.18,0.27,0.32,0.47,0.37c2.54,0.62,5.11,0.62,7.64,0c0.21-0.05,0.38-0.18,0.48-0.37
					c0.6-1.13,2.04-3.99,2.46-6.29c0.21-1.15,0.14-2.28-0.22-3.35c-0.05-0.15-0.03-0.32,0.05-0.46c0.08-0.14,0.22-0.23,0.38-0.26
					c0.06-0.01,0.13-0.02,0.19-0.04c0.12-0.03,0.22-0.05,0.31-0.08c-0.05-0.05-0.11-0.1-0.17-0.16c0,0,0,0,0,0
					c-0.37-0.35-1.14-0.87-2.15-1.47c-0.18-0.11-0.33-0.27-0.42-0.46c-0.04-0.08-0.05-0.16-0.05-0.24
					c-0.03-0.07-0.05-0.15-0.05-0.23c0-0.19,0.05-0.36,0.13-0.52c0.05-0.09,0.2-0.39,0.13-0.55c-0.33-0.21-2.05-0.49-4.96-0.47
					c-2.85,0.01-4.61,0.3-4.97,0.49c-0.09,0.21,0.06,0.51,0.17,0.68c0.08,0.13,0.13,0.27,0.16,0.41c0.01,0.08,0.01,0.17-0.02,0.25
					c0.01,0.08,0,0.16-0.02,0.24c-0.08,0.27-0.26,0.49-0.5,0.62C306.6,68.76,305.88,69.24,305.54,69.5z M321.04,69.78L321.04,69.78
					L321.04,69.78z M318.1,65.81L318.1,65.81L318.1,65.81z"/>
			</g>
			<g>
				<path class="st48" d="M313.2,81.42c-1.33,0-2.66-0.16-3.99-0.48c-0.39-0.1-0.73-0.36-0.92-0.71c-0.62-1.15-2.09-4.1-2.53-6.49
					c-0.35-1.91,0.08-3.42,0.5-4.35c0.23-0.5,0.73-0.83,1.29-0.83h11.28c0.56,0,1.06,0.33,1.29,0.83l0,0
					c0.42,0.93,0.85,2.44,0.5,4.35c-0.43,2.39-1.91,5.33-2.53,6.49c-0.19,0.36-0.53,0.62-0.92,0.71
					C315.86,81.26,314.53,81.42,313.2,81.42z M307.56,68.83c-0.45,0-0.86,0.26-1.04,0.67c-0.4,0.9-0.82,2.35-0.48,4.19
					c0.43,2.35,1.89,5.26,2.5,6.41c0.15,0.29,0.42,0.5,0.74,0.57c2.6,0.63,5.24,0.64,7.84,0c0.32-0.08,0.59-0.29,0.75-0.58
					c0.61-1.14,2.07-4.06,2.5-6.41c0.33-1.84-0.08-3.3-0.48-4.19l0,0c-0.18-0.41-0.59-0.67-1.04-0.67H307.56z"/>
				<path class="st49" d="M319.28,70.03c-0.18-0.41-0.59-0.67-1.04-0.67h-10.08c-0.45,0-0.86,0.26-1.04,0.67
					c-0.34,0.75-0.75,2.1-0.44,3.82c0.39,2.12,1.7,4.74,2.25,5.76c0.15,0.29,0.42,0.5,0.74,0.57c2.39,0.58,4.75,0.57,7.06,0
					c0.32-0.08,0.59-0.29,0.75-0.58c0.55-1.03,1.86-3.64,2.25-5.76C320.03,72.13,319.62,70.78,319.28,70.03z"/>
				<g>
					<path class="st47" d="M320.87,68.87c-0.54-0.5-1.62-1.17-2.25-1.54c-0.24-0.15-0.33-0.46-0.19-0.71
						c0.18-0.33,0.34-0.8,0.08-1.16c-0.67-0.96-10.22-0.86-10.81,0.02c-0.29,0.44-0.09,0.96,0.14,1.32
						c0.16,0.25,0.08,0.59-0.19,0.74c-0.98,0.55-2.96,1.7-2.86,1.98c0.14,0.37,1.06,0.88,1.53,0.88c0.47,0,0.96-0.27,1.41,0.47
						c0.45,0.75,3.28,0.57,3.53,0.26s0.2-0.86,1.29-0.51c1.1,0.35,3.51,0.39,4.69,0.14c1.18-0.26-0.08-0.75,0.31-0.94
						c0.39-0.2,1.37,0.59,2.9,0.24C322.01,69.69,321.66,69.59,320.87,68.87z"/>
					<path class="st6" d="M308.46,68.08c0,0-1.59,1.63-1.14,1.82C307.77,70.1,308.46,68.08,308.46,68.08z"/>
					<path class="st6" d="M311.61,68.28c0,0-0.14,1.45,0.04,1.71c0.18,0.26,0.96,0.39,1.06,0.22
						C312.81,70.02,311.61,68.28,311.61,68.28z"/>
					<path class="st6" d="M316.93,68.42c0,0,0.41,1,0.84,1.08c0.43,0.08,0.94,0.27,1.08,0.2S316.93,68.42,316.93,68.42z"/>
					<path class="st6" d="M311.67,65.1c0,0,4.85-0.08,5.96,0.35C318.75,65.88,312.07,65.47,311.67,65.1z"/>
					<path class="st50" d="M313.37,67.52c-2.34,0-5.56-0.3-5.59-0.3c-0.06-0.01-0.11-0.06-0.11-0.13c0.01-0.06,0.06-0.11,0.13-0.11
						c0.04,0,3.86,0.36,6.19,0.29c2.74-0.08,4.38-0.41,4.39-0.41c0.06-0.01,0.13,0.03,0.14,0.09c0.01,0.06-0.03,0.13-0.09,0.14
						c-0.02,0-1.67,0.34-4.43,0.41C313.79,67.52,313.59,67.52,313.37,67.52z"/>
					<path class="st50" d="M313.71,67.5c-0.04,0-0.08-0.02-0.1-0.05c-0.03-0.04-0.03-0.09,0-0.14c0.21-0.29,1.29-1.73,1.86-1.55
						c0.13,0.04,0.2,0.14,0.2,0.26c-0.01,0.43-1.12,1.26-1.93,1.47C313.73,67.5,313.72,67.5,313.71,67.5z M315.35,65.98
						c-0.28,0-0.86,0.6-1.31,1.16c0.69-0.29,1.39-0.9,1.4-1.13c0-0.01,0-0.02-0.04-0.03C315.39,65.98,315.37,65.98,315.35,65.98z"/>
					<path class="st50" d="M313.65,67.53c-0.02,0-0.03,0-0.05-0.01c-0.36-0.15-2.13-0.92-2.18-1.55c-0.01-0.1,0.02-0.25,0.22-0.37
						c0.17-0.1,0.35-0.13,0.55-0.07c0.79,0.23,1.53,1.76,1.56,1.82c0.02,0.04,0.01,0.1-0.02,0.13
						C313.72,67.52,313.69,67.53,313.65,67.53z M311.99,65.74c-0.08,0-0.15,0.02-0.22,0.06c-0.11,0.07-0.11,0.13-0.11,0.15
						c0.02,0.31,0.94,0.85,1.73,1.21c-0.25-0.45-0.77-1.26-1.26-1.4C312.08,65.75,312.04,65.74,311.99,65.74z"/>
					<path class="st50" d="M314.52,68.98c-0.05,0-0.09-0.03-0.11-0.08c-0.25-0.71-0.6-1.34-0.75-1.34c0,0-0.01,0-0.01,0
						c-0.2,0.03-0.45,0.63-0.55,1.03c-0.02,0.06-0.08,0.1-0.14,0.08c-0.06-0.02-0.1-0.08-0.08-0.14c0.05-0.19,0.32-1.14,0.74-1.21
						c0.42-0.06,0.85,1.02,1.01,1.49c0.02,0.06-0.01,0.13-0.07,0.15C314.54,68.98,314.53,68.98,314.52,68.98z"/>
				</g>
				<path class="st51" d="M318.74,74.86c0,0-1.2,4.34-2.14,4.71c-0.94,0.37-2.67,0.42-2.67,0.42S316.8,79.05,318.74,74.86z"/>
				<path class="st52" d="M308.89,77.42c0,0-1.98-4.06-1.18-5.04c0.8-0.98,1.92,0.02,1.84,1.8
					C309.48,75.97,308.89,77.42,308.89,77.42z"/>
			</g>
		</g>
	</g>
</g>
</svg>
