<?xml version="1.0" encoding="utf-8"?>
<!-- Generator: Adobe Illustrator 28.0.0, SVG Export Plug-In . SVG Version: 6.00 Build 0)  -->
<svg version="1.1" id="Layer_1" xmlns="http://www.w3.org/2000/svg" xmlns:xlink="http://www.w3.org/1999/xlink" x="0px" y="0px"
	 viewBox="0 0 595 170" style="enable-background:new 0 0 595 170;" xml:space="preserve">
<style type="text/css">
	.st0{fill:#CEECFB;}
	.st1{fill:#E6F5FC;}
	.st2{fill:none;stroke:#FFFFFF;stroke-width:1.0383;stroke-miterlimit:10;}
	.st3{fill:#FFFFFF;}
	.st4{fill:#B2DAF0;}
	.st5{fill:#C6E5F8;}
	.st6{fill:#9BD4EE;}
	.st7{fill:#30BEC7;}
	.st8{fill:none;stroke:#FFFFFF;stroke-width:0.9012;stroke-linecap:round;stroke-linejoin:round;stroke-miterlimit:10;}
	.st9{fill:#02ADB5;}
	.st10{fill:none;stroke:#FFFFFF;stroke-width:0.8719;stroke-linecap:round;stroke-linejoin:round;stroke-miterlimit:10;}
	.st11{fill:#4FC3CE;}
	.st12{fill:none;stroke:#FFFFFF;stroke-width:0.9108;stroke-linecap:round;stroke-linejoin:round;stroke-miterlimit:10;}
	.st13{fill:none;stroke:#FFFFFF;stroke-width:0.9048;stroke-linecap:round;stroke-linejoin:round;stroke-miterlimit:10;}
	.st14{fill:none;stroke:#FFFFFF;stroke-width:0.9066;stroke-linecap:round;stroke-linejoin:round;stroke-miterlimit:10;}
	.st15{fill:none;stroke:#FFFFFF;stroke-width:0.9106;stroke-linecap:round;stroke-linejoin:round;stroke-miterlimit:10;}
	.st16{fill:#86C2E6;}
	.st17{fill:#2A3886;}
	.st18{fill:#283271;}
	.st19{fill:#2E4199;}
	.st20{fill:#6DC1E4;}
	.st21{fill:#6CA1D6;}
	.st22{fill:#568BC9;}
	.st23{fill:#3A4EA1;}
	.st24{fill:#16AFDA;}
	.st25{fill:#04A7A7;}
	.st26{fill:none;stroke:#FFFFFF;stroke-width:0.9164;stroke-linecap:round;stroke-linejoin:round;stroke-miterlimit:10;}
	.st27{fill:none;stroke:#FFFFFF;stroke-width:0.9573;stroke-linecap:round;stroke-linejoin:round;stroke-miterlimit:10;}
	.st28{fill:none;stroke:#FFFFFF;stroke-width:0.9511;stroke-linecap:round;stroke-linejoin:round;stroke-miterlimit:10;}
	.st29{fill:none;stroke:#FFFFFF;stroke-width:0.953;stroke-linecap:round;stroke-linejoin:round;stroke-miterlimit:10;}
	.st30{fill:none;stroke:#FFFFFF;stroke-width:0.9572;stroke-linecap:round;stroke-linejoin:round;stroke-miterlimit:10;}
	.st31{fill:none;stroke:#FFFFFF;stroke-width:0.9507;stroke-linecap:round;stroke-linejoin:round;stroke-miterlimit:10;}
	.st32{fill:#FFC906;}
	.st33{fill:#D9AE28;}
	.st34{fill:#FFDE56;}
	.st35{fill:#203E51;}
	.st36{fill:#345370;}
	.st37{fill:#446B8B;}
	.st38{fill-rule:evenodd;clip-rule:evenodd;fill:#446B8B;}
	.st39{fill-rule:evenodd;clip-rule:evenodd;fill:#203E51;}
	.st40{fill-rule:evenodd;clip-rule:evenodd;fill:#345370;}
	.st41{fill-rule:evenodd;clip-rule:evenodd;fill:#FFDE56;}
	.st42{fill-rule:evenodd;clip-rule:evenodd;fill:#F3DB77;}
	.st43{fill:#EC9882;}
	.st44{fill-rule:evenodd;clip-rule:evenodd;fill:#B56179;}
	.st45{fill-rule:evenodd;clip-rule:evenodd;fill:#874158;}
	.st46{fill-rule:evenodd;clip-rule:evenodd;fill:#EC9882;}
	.st47{fill-rule:evenodd;clip-rule:evenodd;fill:#F6BB9D;}
	.st48{fill:#F6BB9D;}
	.st49{fill-rule:evenodd;clip-rule:evenodd;fill:#FBCEBB;}
	.st50{fill:#A56357;}
	
		.st51{fill-rule:evenodd;clip-rule:evenodd;fill:none;stroke:#FDE6DA;stroke-width:0.1313;stroke-linecap:round;stroke-miterlimit:10;}
	.st52{fill:#D1EDFB;}
	.st53{fill:#F26D40;}
	.st54{fill:#E6F3FC;}
	.st55{fill:#0C3D5F;}
	.st56{fill:#1593B9;}
	.st57{fill:#77B8D2;}
	.st58{fill:#86B3DF;}
	.st59{opacity:0.09;fill:#273F96;}
	.st60{opacity:0.31;fill:#FFFFFF;}
	.st61{fill:#FFDD14;}
	.st62{fill:#F2766D;}
	.st63{opacity:0.15;fill:#AB1E23;}
</style>
<g>
	<rect class="st0" width="595" height="170"/>
	<path class="st1" d="M433.1,29.54C382.81,7.59,317.45,9.13,280.52,36.02c-18.95,13.8-48.19,25.09-72.92,16.2
		C114.33,18.7,73.57,136.71,146.01,160.9c1.93,0.64,309.16,1.99,312.72,0C507.76,133.65,506.83,61.72,433.1,29.54z"/>
	<g>
		<g>
			<g>
				<g>
					<g>
						<g>
							<path class="st2" d="M508.02,48.17c0,0-0.35,0.04-0.88,0.09c-0.26,0.02-0.57,0.06-0.9,0.09c-0.33,0.02-0.69,0.04-1.04,0.06
								c-0.35,0.02-0.71,0.04-1.04,0.05c-0.33,0-0.64,0-0.91,0c-0.53,0-0.89,0-0.89,0"/>
						</g>
						<g>
							<path class="st2" d="M499.52,48.33c0,0-0.35-0.03-0.88-0.08c-0.13-0.01-0.28-0.02-0.43-0.04c-0.15-0.01-0.31-0.03-0.48-0.05
								c-0.33-0.05-0.68-0.09-1.03-0.14c-0.18-0.02-0.35-0.05-0.52-0.07c-0.09-0.01-0.17-0.02-0.26-0.04
								c-0.08-0.02-0.17-0.03-0.25-0.04c-0.33-0.06-0.63-0.12-0.89-0.16c-0.26-0.05-0.48-0.09-0.63-0.12
								c-0.15-0.03-0.24-0.05-0.24-0.05"/>
						</g>
						<g>
							<path class="st2" d="M491.14,46.88c0,0-0.34-0.09-0.86-0.23c-0.51-0.15-1.19-0.37-1.86-0.58c-0.67-0.22-1.34-0.47-1.84-0.64
								c-0.25-0.09-0.46-0.17-0.6-0.23c-0.14-0.06-0.23-0.09-0.23-0.09"/>
						</g>
						<g>
							<path class="st2" d="M483.13,44.03c0,0-0.33-0.13-0.81-0.36c-0.24-0.11-0.52-0.24-0.83-0.38c-0.15-0.07-0.31-0.14-0.47-0.21
								c-0.16-0.08-0.32-0.15-0.48-0.23c-0.64-0.31-1.28-0.62-1.75-0.87c-0.47-0.24-0.79-0.41-0.79-0.41"/>
						</g>
						<g>
							<path class="st2" d="M475.51,40.23c0,0-0.31-0.17-0.77-0.43c-0.23-0.13-0.5-0.28-0.79-0.44c-0.29-0.17-0.6-0.34-0.9-0.52
								c-0.62-0.35-1.23-0.71-1.68-0.98c-0.46-0.27-0.76-0.45-0.76-0.45"/>
						</g>
						<g>
							<line class="st2" x1="468.16" y1="35.94" x2="463.31" y2="33"/>
						</g>
						<g>
							<path class="st2" d="M460.87,31.54c0,0-0.31-0.18-0.76-0.45c-0.46-0.27-1.07-0.62-1.69-0.98c-0.62-0.35-1.24-0.7-1.7-0.96
								c-0.23-0.13-0.43-0.24-0.56-0.31c-0.14-0.07-0.21-0.12-0.21-0.12"/>
						</g>
						<g>
							<path class="st2" d="M453.44,27.39c0,0-0.31-0.16-0.79-0.41c-0.48-0.24-1.11-0.55-1.75-0.87c-1.28-0.62-2.57-1.2-2.57-1.2"/>
						</g>
						<g>
							<path class="st2" d="M445.72,23.8c0,0-1.31-0.54-2.64-1.04c-1.33-0.5-2.67-0.96-2.67-0.96"/>
						</g>
						<g>
							<path class="st2" d="M437.71,20.93c0,0-1.36-0.41-2.73-0.77c-0.69-0.18-1.38-0.35-1.89-0.46c-0.26-0.06-0.48-0.11-0.63-0.14
								c-0.15-0.03-0.24-0.05-0.24-0.05"/>
						</g>
						<g>
							<path class="st2" d="M429.43,18.97c0,0-0.35-0.06-0.88-0.14c-0.26-0.04-0.57-0.09-0.9-0.13c-0.33-0.05-0.68-0.09-1.03-0.13
								c-0.35-0.04-0.71-0.08-1.04-0.12c-0.33-0.03-0.64-0.06-0.91-0.08c-0.53-0.04-0.88-0.07-0.88-0.07"/>
						</g>
						<g>
							<path class="st2" d="M420.96,18.2c0,0-1.42-0.01-2.84,0.09c-0.71,0.04-1.41,0.12-1.94,0.18c-0.53,0.07-0.88,0.11-0.88,0.11"
								/>
						</g>
						<g>
							<path class="st2" d="M412.51,19.1c0,0-0.09,0.02-0.24,0.06c-0.08,0.02-0.17,0.04-0.27,0.06c-0.1,0.03-0.22,0.06-0.35,0.09
								c-0.13,0.03-0.27,0.07-0.42,0.11c-0.15,0.04-0.3,0.09-0.46,0.13c-0.32,0.09-0.66,0.2-0.99,0.31
								c-0.34,0.11-0.67,0.24-0.98,0.35c-0.31,0.12-0.6,0.23-0.85,0.33c-0.24,0.1-0.45,0.19-0.59,0.25
								c-0.07,0.03-0.13,0.06-0.16,0.07c-0.04,0.02-0.06,0.03-0.06,0.03"/>
						</g>
						<g>
							<path class="st2" d="M404.62,22.21c0,0-0.31,0.17-0.76,0.46c-0.45,0.28-1.04,0.68-1.61,1.1c-0.28,0.21-0.56,0.43-0.82,0.64
								c-0.25,0.21-0.5,0.41-0.7,0.58c-0.2,0.18-0.36,0.32-0.48,0.43c-0.06,0.05-0.1,0.09-0.13,0.12c-0.03,0.03-0.05,0.04-0.05,0.04
								"/>
						</g>
						<g>
							<path class="st2" d="M398.1,27.62c0,0-0.23,0.27-0.58,0.67c-0.08,0.1-0.18,0.21-0.28,0.33c-0.09,0.12-0.19,0.25-0.29,0.38
								c-0.2,0.26-0.42,0.55-0.63,0.83c-0.2,0.3-0.39,0.59-0.58,0.87c-0.09,0.14-0.18,0.27-0.27,0.4c-0.08,0.13-0.15,0.26-0.22,0.37
								c-0.27,0.46-0.45,0.77-0.45,0.77"/>
						</g>
						<g>
							<path class="st2" d="M393.6,34.8c0,0-0.03,0.08-0.1,0.22c-0.07,0.14-0.13,0.35-0.22,0.6c-0.09,0.25-0.19,0.54-0.3,0.86
								c-0.09,0.32-0.19,0.66-0.29,1c-0.05,0.17-0.1,0.34-0.14,0.51c-0.04,0.17-0.07,0.34-0.11,0.5c-0.07,0.33-0.15,0.63-0.19,0.89
								c-0.08,0.53-0.14,0.88-0.14,0.88"/>
						</g>
						<g>
							<path class="st2" d="M391.86,43.08c0,0,0,0.09-0.01,0.24c-0.01,0.16,0,0.38,0,0.64c0,0.27,0.01,0.58,0.01,0.91
								c0.02,0.33,0.05,0.69,0.07,1.04c0.02,0.35,0.07,0.71,0.1,1.04c0.04,0.33,0.07,0.64,0.12,0.9c0.09,0.52,0.15,0.87,0.15,0.87"
								/>
						</g>
						<g>
							<path class="st2" d="M392.95,51.49c0,0,0.02,0.09,0.06,0.24c0.04,0.15,0.11,0.36,0.19,0.61c0.08,0.25,0.18,0.55,0.28,0.87
								c0.11,0.31,0.24,0.64,0.36,0.98c0.06,0.17,0.12,0.33,0.19,0.5c0.07,0.16,0.13,0.32,0.2,0.47c0.13,0.31,0.25,0.59,0.35,0.84
								c0.23,0.48,0.38,0.8,0.38,0.8"/>
						</g>
						<g>
							<path class="st2" d="M396.27,59.31c0,0,0.04,0.08,0.12,0.21c0.08,0.13,0.18,0.33,0.32,0.56c0.14,0.23,0.3,0.49,0.48,0.77
								c0.09,0.14,0.18,0.29,0.27,0.43c0.1,0.14,0.2,0.29,0.3,0.44c0.2,0.29,0.39,0.59,0.59,0.86c0.2,0.27,0.38,0.52,0.54,0.73
								c0.16,0.22,0.29,0.39,0.39,0.51c0.1,0.12,0.15,0.19,0.15,0.19"/>
						</g>
						<g>
							<path class="st2" d="M401.23,66.2c0,0,0.24,0.26,0.6,0.66c0.09,0.1,0.18,0.21,0.29,0.32c0.11,0.11,0.22,0.22,0.33,0.34
								c0.23,0.24,0.48,0.49,0.73,0.74c0.52,0.49,1.02,0.99,1.42,1.34c0.4,0.35,0.66,0.59,0.66,0.59"/>
						</g>
						<g>
							<path class="st2" d="M407.48,71.97c0,0,0.07,0.05,0.19,0.15c0.13,0.09,0.31,0.22,0.52,0.37c0.22,0.15,0.47,0.33,0.74,0.53
								c0.28,0.18,0.57,0.38,0.87,0.57c0.29,0.2,0.6,0.38,0.88,0.55c0.28,0.17,0.55,0.34,0.78,0.47c0.46,0.26,0.77,0.43,0.77,0.43"
								/>
						</g>
						<g>
							<path class="st2" d="M414.77,76.32c0,0,0.08,0.04,0.22,0.1c0.14,0.06,0.34,0.16,0.59,0.26c0.25,0.1,0.53,0.22,0.84,0.34
								c0.08,0.03,0.16,0.06,0.23,0.1c0.08,0.03,0.16,0.06,0.24,0.09c0.16,0.06,0.33,0.12,0.5,0.18c0.66,0.25,1.35,0.44,1.86,0.6
								c0.25,0.08,0.47,0.12,0.62,0.17c0.15,0.04,0.24,0.06,0.24,0.06"/>
						</g>
						<g>
							<path class="st2" d="M422.9,78.77c0,0,0.09,0.01,0.24,0.04c0.15,0.02,0.37,0.06,0.64,0.08c0.26,0.03,0.57,0.06,0.9,0.09
								c0.17,0.02,0.34,0.03,0.51,0.04c0.17,0.01,0.35,0.02,0.53,0.03c0.18,0.01,0.35,0.02,0.53,0.03c0.17,0,0.35,0,0.51,0
								c0.33,0,0.64,0,0.91-0.01c0.53-0.03,0.88-0.06,0.88-0.06"/>
						</g>
						<g>
							<path class="st2" d="M431.36,78.62c0,0,0.09-0.02,0.24-0.04c0.15-0.02,0.37-0.09,0.62-0.15c0.26-0.07,0.56-0.14,0.88-0.23
								c0.32-0.1,0.65-0.21,0.99-0.32c0.08-0.03,0.17-0.05,0.25-0.08c0.08-0.03,0.16-0.06,0.25-0.09c0.16-0.06,0.32-0.13,0.48-0.19
								c0.31-0.13,0.6-0.23,0.84-0.35c0.48-0.23,0.8-0.38,0.8-0.38"/>
						</g>
						<g>
							<path class="st2" d="M439.18,75.37c0,0,0.07-0.05,0.21-0.13c0.13-0.08,0.31-0.22,0.52-0.37c0.21-0.16,0.47-0.34,0.73-0.54
								c0.26-0.2,0.53-0.44,0.81-0.66c0.14-0.11,0.27-0.23,0.41-0.34c0.13-0.11,0.25-0.23,0.38-0.35c0.24-0.23,0.47-0.44,0.66-0.62
								c0.2-0.18,0.35-0.34,0.45-0.46c0.11-0.11,0.17-0.18,0.17-0.18"/>
						</g>
						<g>
							<path class="st2" d="M445.35,69.57c0,0,0.05-0.07,0.14-0.2c0.05-0.06,0.1-0.14,0.16-0.23c0.03-0.04,0.07-0.09,0.1-0.14
								c0.03-0.05,0.07-0.11,0.1-0.16c0.14-0.23,0.31-0.49,0.49-0.77c0.17-0.29,0.33-0.6,0.5-0.91c0.09-0.15,0.16-0.32,0.23-0.48
								c0.07-0.16,0.14-0.32,0.21-0.47c0.15-0.3,0.24-0.59,0.34-0.84c0.09-0.25,0.18-0.45,0.22-0.6c0.04-0.15,0.07-0.23,0.07-0.23"
								/>
						</g>
						<g>
							<path class="st2" d="M448.55,61.78c0,0,0-0.02,0.01-0.06c0.01-0.04,0.02-0.1,0.02-0.18c0.01-0.15,0.04-0.38,0.06-0.64
								c0.01-0.13,0.03-0.28,0.04-0.43c0.01-0.15,0.01-0.31,0.02-0.48c0.01-0.17,0.01-0.34,0.02-0.51c0-0.17-0.01-0.35-0.01-0.53
								c0-0.18-0.01-0.35-0.01-0.53c-0.01-0.17-0.03-0.35-0.04-0.51c-0.03-0.33-0.05-0.64-0.09-0.9c-0.04-0.26-0.07-0.48-0.09-0.64
								c-0.01-0.08-0.02-0.14-0.03-0.18c-0.01-0.04-0.01-0.06-0.01-0.06"/>
						</g>
						<g>
							<path class="st2" d="M447.74,53.38c0,0-0.03-0.08-0.07-0.23c-0.02-0.07-0.05-0.16-0.09-0.27c-0.04-0.1-0.08-0.22-0.13-0.34
								c-0.05-0.12-0.1-0.26-0.15-0.4c-0.05-0.14-0.11-0.29-0.18-0.45c-0.13-0.3-0.27-0.63-0.42-0.95
								c-0.16-0.32-0.31-0.64-0.46-0.94c-0.16-0.29-0.31-0.56-0.44-0.8c-0.12-0.24-0.25-0.42-0.33-0.55
								c-0.08-0.13-0.13-0.21-0.13-0.21"/>
						</g>
						<g>
							<path class="st2" d="M443.74,45.91c0,0-0.22-0.27-0.56-0.69c-0.04-0.05-0.09-0.11-0.13-0.16c-0.05-0.05-0.1-0.11-0.15-0.17
								c-0.1-0.11-0.21-0.23-0.32-0.36c-0.11-0.12-0.22-0.25-0.34-0.38c-0.12-0.12-0.25-0.25-0.37-0.38
								c-0.12-0.13-0.25-0.25-0.37-0.38c-0.13-0.12-0.25-0.24-0.37-0.35c-0.25-0.22-0.46-0.44-0.67-0.61
								c-0.41-0.34-0.68-0.57-0.68-0.57"/>
						</g>
						<g>
							<path class="st2" d="M437.47,40.21c0,0-0.07-0.05-0.21-0.13c-0.13-0.08-0.31-0.21-0.55-0.34c-0.23-0.13-0.5-0.29-0.79-0.45
								c-0.3-0.15-0.61-0.32-0.92-0.48c-0.32-0.15-0.64-0.3-0.94-0.44c-0.31-0.13-0.59-0.25-0.84-0.35c-0.25-0.1-0.46-0.17-0.6-0.23
								c-0.15-0.05-0.23-0.09-0.23-0.09"/>
						</g>
						<g>
							<path class="st2" d="M429.68,36.88c0,0-0.09-0.02-0.24-0.06c-0.15-0.04-0.37-0.08-0.63-0.14c-0.26-0.05-0.56-0.12-0.89-0.17
								c-0.33-0.05-0.68-0.12-1.03-0.15c-0.18-0.02-0.35-0.04-0.53-0.07c-0.17-0.02-0.34-0.03-0.51-0.05
								c-0.33-0.03-0.64-0.06-0.91-0.07c-0.27-0.01-0.49-0.02-0.64-0.03c-0.16,0-0.24,0-0.24,0"/>
						</g>
						<g>
							<path class="st2" d="M421.22,36.23c0,0-0.35,0.03-0.88,0.09c-0.26,0.03-0.57,0.07-0.9,0.12c-0.33,0.04-0.68,0.11-1.03,0.17
								c-0.35,0.06-0.7,0.14-1.02,0.2c-0.32,0.07-0.63,0.15-0.89,0.21c-0.26,0.06-0.47,0.12-0.62,0.16
								c-0.15,0.04-0.24,0.06-0.24,0.06"/>
						</g>
						<g>
							<path class="st2" d="M412.95,38.1c0,0-0.08,0.03-0.23,0.09c-0.07,0.03-0.16,0.06-0.26,0.1c-0.1,0.04-0.21,0.09-0.34,0.14
								c-0.49,0.2-1.15,0.48-1.79,0.78c-0.64,0.3-1.27,0.63-1.74,0.88c-0.47,0.26-0.78,0.43-0.78,0.43"/>
						</g>
						<g>
							<path class="st2" d="M405.41,42.01c0,0-0.29,0.2-0.73,0.5c-0.22,0.15-0.48,0.32-0.75,0.51c-0.27,0.2-0.55,0.41-0.83,0.63
								c-0.56,0.43-1.14,0.85-1.54,1.2c-0.41,0.34-0.68,0.57-0.68,0.57"/>
						</g>
						<g>
							<path class="st2" d="M398.75,47.31c0,0-0.07,0.06-0.18,0.16c-0.11,0.11-0.28,0.25-0.47,0.44c-0.38,0.38-0.88,0.88-1.38,1.38
								c-0.13,0.12-0.25,0.25-0.37,0.38c-0.12,0.13-0.24,0.25-0.35,0.38c-0.23,0.24-0.44,0.47-0.62,0.67
								c-0.18,0.19-0.33,0.36-0.44,0.47c-0.1,0.11-0.16,0.18-0.16,0.18"/>
						</g>
						<g>
							<path class="st2" d="M392.95,53.53c0,0-0.22,0.28-0.56,0.69c-0.17,0.21-0.36,0.45-0.57,0.71c-0.2,0.26-0.42,0.55-0.63,0.83
								c-0.43,0.57-0.87,1.12-1.17,1.56c-0.31,0.43-0.52,0.72-0.52,0.72"/>
						</g>
						<g>
							<path class="st2" d="M387.88,60.36c0,0-0.05,0.07-0.14,0.2c-0.09,0.13-0.22,0.31-0.36,0.53c-0.29,0.44-0.68,1.04-1.07,1.63
								c-0.39,0.59-0.76,1.2-1.05,1.64c-0.28,0.45-0.47,0.75-0.47,0.75"/>
						</g>
						<g>
							<path class="st2" d="M383.3,67.54c0,0-0.18,0.3-0.46,0.76c-0.27,0.46-0.64,1.06-1,1.67c-0.72,1.22-1.45,2.44-1.45,2.44"/>
						</g>
						<g>
							<path class="st2" d="M378.95,74.86c0,0-0.72,1.22-1.44,2.44c-0.73,1.22-1.46,2.44-1.46,2.44"/>
						</g>
						<g>
							<path class="st2" d="M374.57,82.16c0,0-0.19,0.3-0.47,0.75c-0.29,0.45-0.66,1.05-1.04,1.65c-0.39,0.59-0.77,1.19-1.06,1.64
								c-0.14,0.22-0.27,0.4-0.36,0.53c-0.09,0.13-0.14,0.2-0.14,0.2"/>
						</g>
						<g>
							<path class="st2" d="M369.88,89.26c0,0-0.21,0.29-0.51,0.72c-0.3,0.44-0.74,1-1.16,1.57c-0.21,0.28-0.43,0.57-0.62,0.83
								c-0.21,0.26-0.4,0.5-0.56,0.71c-0.33,0.42-0.55,0.7-0.55,0.7"/>
						</g>
						<g>
							<path class="st2" d="M364.66,95.98c0,0-0.06,0.07-0.16,0.19c-0.1,0.12-0.25,0.28-0.43,0.48c-0.36,0.39-0.83,0.92-1.31,1.44
								c-0.5,0.51-0.99,1.01-1.36,1.4c-0.09,0.1-0.18,0.18-0.25,0.26c-0.08,0.07-0.15,0.14-0.2,0.19c-0.11,0.11-0.18,0.17-0.18,0.17
								"/>
						</g>
						<g>
							<path class="st2" d="M358.67,102.02c0,0-0.27,0.23-0.67,0.58c-0.2,0.17-0.43,0.38-0.69,0.59c-0.26,0.21-0.53,0.43-0.81,0.66
								c-0.55,0.45-1.1,0.89-1.52,1.23c-0.42,0.33-0.7,0.55-0.7,0.55"/>
						</g>
						<g>
							<path class="st2" d="M352.04,107.37c0,0-0.28,0.21-0.71,0.54c-0.42,0.32-0.98,0.76-1.56,1.18c-1.14,0.84-2.28,1.68-2.28,1.68
								"/>
						</g>
						<g>
							<path class="st2" d="M345.19,112.41c0,0-0.29,0.21-0.73,0.51c-0.44,0.3-1.02,0.7-1.61,1.11c-0.58,0.41-1.18,0.79-1.62,1.09
								c-0.44,0.29-0.74,0.49-0.74,0.49"/>
						</g>
						<g>
							<path class="st2" d="M338.11,117.15c0,0-0.3,0.19-0.75,0.48c-0.45,0.29-1.05,0.66-1.66,1.03c-0.6,0.37-1.21,0.74-1.66,1.02
								c-0.46,0.27-0.76,0.45-0.76,0.45"/>
						</g>
						<g>
							<path class="st2" d="M330.83,121.56c0,0-1.24,0.7-2.47,1.39c-1.25,0.67-2.5,1.35-2.5,1.35"/>
						</g>
						<g>
							<path class="st2" d="M323.34,125.6c0,0-0.08,0.04-0.22,0.11c-0.14,0.07-0.33,0.17-0.57,0.29c-0.48,0.23-1.11,0.55-1.75,0.86
								c-0.32,0.16-0.64,0.31-0.94,0.46c-0.3,0.14-0.58,0.27-0.82,0.38c-0.48,0.22-0.8,0.37-0.8,0.37"/>
						</g>
						<g>
							<path class="st2" d="M315.64,129.24c0,0-0.32,0.14-0.81,0.36c-0.24,0.11-0.53,0.23-0.83,0.36c-0.31,0.13-0.64,0.26-0.96,0.4
								c-0.66,0.27-1.31,0.54-1.8,0.74c-0.5,0.19-0.83,0.32-0.83,0.32"/>
						</g>
						<g>
							<path class="st2" d="M307.75,132.42c0,0-0.33,0.12-0.84,0.3c-0.5,0.18-1.17,0.42-1.84,0.65c-1.35,0.44-2.7,0.89-2.7,0.89"/>
						</g>
						<g>
							<path class="st2" d="M299.66,135.08c0,0-0.34,0.11-0.85,0.24c-0.51,0.14-1.2,0.32-1.88,0.51c-0.68,0.19-1.38,0.35-1.89,0.48
								c-0.52,0.12-0.86,0.21-0.86,0.21"/>
						</g>
						<g>
							<path class="st2" d="M291.4,137.12c0,0-0.35,0.07-0.87,0.18c-0.26,0.06-0.57,0.11-0.89,0.17c-0.33,0.06-0.68,0.12-1.03,0.18
								c-0.7,0.12-1.4,0.26-1.92,0.32c-0.53,0.08-0.88,0.13-0.88,0.13"/>
						</g>
						<g>
							<path class="st2" d="M283,138.47c0,0-0.35,0.04-0.88,0.1c-0.26,0.03-0.57,0.06-0.9,0.1c-0.33,0.03-0.69,0.05-1.04,0.08
								c-0.71,0.05-1.41,0.11-1.95,0.15c-0.53,0.02-0.89,0.04-0.89,0.04"/>
						</g>
						<g>
							<path class="st2" d="M274.51,139.02c0,0-0.35,0-0.89,0c-0.27,0-0.58,0-0.91,0c-0.17,0-0.34,0-0.51,0
								c-0.17-0.01-0.35-0.01-0.53-0.02c-0.71-0.03-1.42-0.05-1.95-0.07c-0.27-0.01-0.49-0.02-0.64-0.03
								c-0.15-0.01-0.24-0.02-0.24-0.02"/>
						</g>
						<g>
							<line class="st2" x1="266" y1="138.67" x2="260.35" y2="138.12"/>
						</g>
						<g>
							<path class="st2" d="M257.53,137.83c0,0-1.41-0.14-2.82-0.3c-1.41-0.15-2.82-0.3-2.82-0.3"/>
						</g>
						<g>
							<path class="st2" d="M249.07,136.91c0,0-0.35-0.04-0.88-0.1c-0.53-0.06-1.23-0.14-1.94-0.23c-1.41-0.18-2.81-0.36-2.81-0.36"
								/>
						</g>
						<g>
							<path class="st2" d="M240.62,135.82c0,0-1.4-0.2-2.81-0.41c-1.4-0.23-2.8-0.45-2.8-0.45"/>
						</g>
						<g>
							<path class="st2" d="M232.22,134.48c0,0-1.4-0.26-2.79-0.51c-0.7-0.13-1.39-0.28-1.91-0.39c-0.52-0.11-0.87-0.18-0.87-0.18"
								/>
						</g>
						<g>
							<path class="st2" d="M223.87,132.81c0,0-1.38-0.32-2.76-0.64c-0.69-0.15-1.38-0.34-1.89-0.47c-0.51-0.13-0.86-0.22-0.86-0.22
								"/>
						</g>
						<g>
							<path class="st2" d="M215.61,130.75c0,0-1.36-0.39-2.73-0.79c-0.34-0.1-0.68-0.2-1-0.29c-0.32-0.09-0.61-0.19-0.87-0.27
								c-0.51-0.16-0.84-0.27-0.84-0.27"/>
						</g>
						<g>
							<path class="st2" d="M207.46,128.27c0,0-0.08-0.03-0.23-0.07c-0.15-0.05-0.36-0.12-0.61-0.21c-0.5-0.18-1.17-0.41-1.84-0.65
								c-0.67-0.23-1.34-0.47-1.84-0.65c-0.25-0.09-0.46-0.17-0.6-0.22c-0.15-0.06-0.23-0.09-0.23-0.09"/>
						</g>
						<g>
							<path class="st2" d="M199.46,125.37c0,0-0.33-0.13-0.83-0.32c-0.5-0.18-1.15-0.46-1.81-0.73c-1.31-0.54-2.62-1.09-2.62-1.09"
								/>
						</g>
						<g>
							<path class="st2" d="M191.6,122.11c0,0-0.32-0.14-0.81-0.36c-0.49-0.22-1.13-0.51-1.78-0.81c-1.29-0.59-2.57-1.21-2.57-1.21"
								/>
						</g>
						<g>
							<path class="st2" d="M183.89,118.48c0,0-1.27-0.63-2.53-1.28c-1.26-0.65-2.51-1.32-2.51-1.32"/>
						</g>
						<g>
							<path class="st2" d="M176.36,114.52c0,0-1.24-0.69-2.47-1.39c-1.23-0.7-2.45-1.43-2.45-1.43"/>
						</g>
						<g>
							<path class="st2" d="M169.01,110.23c0,0-1.21-0.74-2.41-1.51c-0.6-0.38-1.19-0.77-1.64-1.06c-0.44-0.29-0.74-0.49-0.74-0.49"
								/>
						</g>
						<g>
							<path class="st2" d="M161.87,105.59c0,0-1.17-0.8-2.32-1.63c-0.58-0.41-1.15-0.83-1.58-1.14c-0.43-0.32-0.71-0.53-0.71-0.53"
								/>
						</g>
						<g>
							<path class="st2" d="M155,100.57c0,0-1.12-0.87-2.22-1.77c-0.55-0.45-1.09-0.91-1.5-1.25c-0.4-0.35-0.67-0.58-0.67-0.58"/>
						</g>
						<g>
							<path class="st2" d="M148.48,95.1c0,0-0.27-0.24-0.65-0.6c-0.2-0.18-0.42-0.39-0.67-0.62c-0.24-0.23-0.5-0.47-0.75-0.72
								c-0.26-0.24-0.51-0.49-0.75-0.73c-0.24-0.23-0.46-0.45-0.65-0.64c-0.37-0.38-0.62-0.63-0.62-0.63"/>
						</g>
						<g>
							<path class="st2" d="M142.43,89.1c0,0-0.24-0.26-0.59-0.66c-0.18-0.2-0.38-0.43-0.6-0.68c-0.22-0.25-0.45-0.52-0.68-0.79
								c-0.23-0.27-0.45-0.54-0.67-0.8c-0.21-0.26-0.4-0.5-0.57-0.71c-0.17-0.21-0.31-0.38-0.4-0.5c-0.09-0.12-0.15-0.19-0.15-0.19"
								/>
						</g>
						<g>
							<path class="st2" d="M137.09,82.48c0,0-0.05-0.07-0.14-0.2c-0.09-0.13-0.22-0.31-0.36-0.53c-0.15-0.22-0.32-0.48-0.51-0.75
								c-0.18-0.28-0.37-0.58-0.56-0.88c-0.19-0.3-0.37-0.61-0.54-0.89c-0.17-0.28-0.33-0.55-0.46-0.78
								c-0.13-0.23-0.24-0.42-0.32-0.56c-0.08-0.13-0.12-0.21-0.12-0.21"/>
						</g>
						<g>
							<path class="st2" d="M132.79,75.15c0,0-0.04-0.08-0.1-0.22c-0.07-0.14-0.16-0.34-0.27-0.59c-0.11-0.24-0.23-0.53-0.36-0.83
								c-0.12-0.31-0.25-0.64-0.38-0.97c-0.25-0.66-0.49-1.33-0.65-1.84c-0.17-0.5-0.26-0.85-0.26-0.85"/>
						</g>
						<g>
							<path class="st2" d="M130,67.12c0,0-0.02-0.09-0.06-0.24c-0.04-0.15-0.1-0.36-0.16-0.62c-0.06-0.26-0.13-0.56-0.21-0.88
								c-0.08-0.32-0.17-0.67-0.23-1.02c-0.07-0.35-0.15-0.69-0.22-1.02c-0.03-0.16-0.07-0.32-0.1-0.47
								c-0.03-0.15-0.05-0.29-0.08-0.42c-0.1-0.52-0.16-0.87-0.16-0.87"/>
						</g>
						<g>
							<path class="st2" d="M128.33,58.78c0,0-0.04-0.35-0.11-0.88c-0.08-0.53-0.14-1.23-0.21-1.94c-0.02-0.18-0.04-0.35-0.05-0.53
								c-0.01-0.17-0.02-0.35-0.03-0.51c-0.02-0.33-0.04-0.64-0.06-0.91c-0.02-0.27-0.03-0.49-0.03-0.64
								c-0.01-0.16-0.01-0.24-0.01-0.24"/>
						</g>
						<g>
							<path class="st2" d="M127.77,50.29c0,0,0-0.09,0-0.24c0-0.16,0.01-0.38,0.02-0.64c0.01-0.27,0.02-0.58,0.03-0.91
								c0.01-0.33,0.04-0.69,0.06-1.04c0.03-0.35,0.04-0.71,0.07-1.04c0.03-0.33,0.06-0.64,0.09-0.9c0.03-0.26,0.05-0.49,0.06-0.64
								c0.02-0.15,0.03-0.24,0.03-0.24"/>
						</g>
						<g>
							<path class="st2" d="M128.59,41.83c0,0,0.02-0.09,0.04-0.24c0.02-0.15,0.07-0.37,0.13-0.63c0.12-0.52,0.25-1.22,0.44-1.9
								c0.09-0.34,0.18-0.69,0.26-1.01c0.1-0.32,0.19-0.61,0.27-0.87c0.08-0.25,0.14-0.47,0.19-0.61c0.05-0.15,0.07-0.23,0.07-0.23"
								/>
						</g>
						<g>
							<path class="st2" d="M130.99,33.68c0,0,0.03-0.08,0.09-0.23c0.06-0.14,0.14-0.35,0.25-0.59c0.11-0.24,0.24-0.52,0.38-0.83
								c0.07-0.15,0.14-0.31,0.21-0.47c0.08-0.16,0.16-0.31,0.24-0.47c0.16-0.32,0.32-0.63,0.48-0.93c0.15-0.3,0.32-0.56,0.45-0.79
								c0.26-0.46,0.44-0.77,0.44-0.77"/>
						</g>
						<g>
							<path class="st2" d="M135.1,26.24c0,0,0.05-0.07,0.14-0.2c0.09-0.13,0.21-0.31,0.37-0.52c0.16-0.21,0.35-0.46,0.56-0.72
								c0.1-0.13,0.21-0.27,0.31-0.4c0.05-0.07,0.11-0.14,0.16-0.21c0.06-0.07,0.11-0.14,0.17-0.2c0.23-0.27,0.46-0.54,0.68-0.79
								c0.11-0.13,0.21-0.25,0.31-0.36c0.1-0.11,0.2-0.22,0.29-0.32c0.36-0.39,0.61-0.65,0.61-0.65"/>
						</g>
						<g>
							<path class="st2" d="M140.73,19.88c0,0,0.27-0.24,0.66-0.59c0.1-0.09,0.21-0.18,0.32-0.29c0.06-0.05,0.12-0.1,0.18-0.16
								c0.06-0.05,0.13-0.1,0.19-0.15c0.26-0.21,0.53-0.43,0.81-0.66c0.54-0.46,1.12-0.87,1.54-1.19c0.21-0.16,0.4-0.28,0.52-0.37
								c0.13-0.09,0.2-0.14,0.2-0.14"/>
						</g>
						<g>
							<path class="st2" d="M147.52,14.76c0,0,0.3-0.19,0.75-0.47c0.23-0.13,0.5-0.29,0.78-0.46c0.14-0.08,0.29-0.17,0.44-0.26
								c0.15-0.08,0.31-0.17,0.46-0.25c0.31-0.17,0.62-0.35,0.92-0.5c0.3-0.15,0.57-0.29,0.81-0.42c0.24-0.12,0.44-0.22,0.58-0.29
								c0.14-0.07,0.22-0.11,0.22-0.11"/>
						</g>
						<g>
							<path class="st2" d="M155.07,10.85c0,0,0.33-0.14,0.82-0.34c0.25-0.1,0.54-0.21,0.85-0.33c0.16-0.06,0.32-0.12,0.48-0.18
								c0.16-0.06,0.33-0.12,0.5-0.18c1.33-0.49,2.69-0.89,2.69-0.89"/>
						</g>
						<g>
							<path class="st2" d="M163.15,8.17c0,0,0.34-0.08,0.86-0.21c0.52-0.11,1.21-0.28,1.91-0.4c0.7-0.14,1.4-0.25,1.92-0.34
								c0.26-0.05,0.48-0.07,0.64-0.1c0.15-0.02,0.24-0.03,0.24-0.03"/>
						</g>
						<g>
							<path class="st2" d="M171.53,6.76c0,0,1.41-0.14,2.83-0.18c0.35-0.02,0.71-0.02,1.04-0.03c0.33,0,0.64-0.02,0.91-0.01
								c0.53,0,0.89,0.01,0.89,0.01"/>
						</g>
						<g>
							<path class="st2" d="M180.04,6.68c0,0,0.35,0.03,0.88,0.08c0.13,0.01,0.28,0.02,0.43,0.04c0.15,0.02,0.31,0.04,0.48,0.05
								c0.33,0.04,0.68,0.07,1.03,0.13c0.35,0.05,0.7,0.1,1.03,0.15c0.33,0.06,0.63,0.11,0.9,0.15c0.26,0.04,0.48,0.09,0.63,0.12
								c0.15,0.03,0.24,0.05,0.24,0.05"/>
						</g>
						<g>
							<path class="st2" d="M188.42,8.09c0,0,0.09,0.02,0.24,0.06c0.15,0.04,0.36,0.11,0.62,0.18c0.51,0.14,1.19,0.37,1.86,0.59
								c1.34,0.46,2.64,1.04,2.64,1.04"/>
						</g>
						<g>
							<path class="st2" d="M196.32,11.22c0,0,0.08,0.04,0.21,0.12c0.13,0.08,0.33,0.19,0.56,0.32c0.23,0.13,0.49,0.3,0.77,0.47
								c0.14,0.09,0.29,0.18,0.43,0.27c0.14,0.1,0.29,0.2,0.44,0.3c0.15,0.1,0.29,0.2,0.44,0.3c0.14,0.1,0.28,0.21,0.41,0.31
								c0.27,0.2,0.52,0.38,0.72,0.55c0.21,0.17,0.38,0.31,0.5,0.41c0.12,0.1,0.19,0.16,0.19,0.16"/>
						</g>
						<g>
							<path class="st2" d="M203.02,16.4c0,0,0.06,0.06,0.17,0.18c0.11,0.11,0.25,0.29,0.42,0.49c0.09,0.1,0.18,0.21,0.28,0.33
								c0.1,0.12,0.19,0.25,0.3,0.38c0.2,0.26,0.42,0.54,0.62,0.84c0.2,0.29,0.41,0.58,0.58,0.87c0.09,0.14,0.17,0.28,0.25,0.41
								c0.04,0.06,0.08,0.13,0.12,0.19c0.03,0.06,0.07,0.12,0.1,0.18c0.13,0.23,0.24,0.43,0.31,0.56c0.04,0.07,0.07,0.12,0.09,0.16
								c0.02,0.04,0.03,0.06,0.03,0.06"/>
						</g>
						<g>
							<path class="st2" d="M207.41,23.63c0,0,0.13,0.33,0.28,0.84c0.08,0.25,0.18,0.55,0.25,0.87c0.04,0.16,0.08,0.33,0.12,0.5
								c0.02,0.08,0.04,0.17,0.06,0.26c0.02,0.09,0.03,0.17,0.05,0.26c0.03,0.17,0.07,0.35,0.1,0.52c0.03,0.17,0.07,0.34,0.09,0.5
								c0.05,0.33,0.09,0.64,0.13,0.9c0.05,0.53,0.08,0.88,0.08,0.88"/>
						</g>
						<g>
							<path class="st2" d="M208.64,32c0,0-0.02,0.35-0.06,0.88c-0.03,0.26-0.07,0.57-0.11,0.9c-0.01,0.08-0.02,0.17-0.03,0.25
								c-0.02,0.08-0.03,0.17-0.05,0.26c-0.03,0.17-0.06,0.35-0.1,0.52c-0.06,0.35-0.15,0.69-0.23,1.02
								c-0.04,0.16-0.07,0.32-0.12,0.46c-0.04,0.15-0.09,0.28-0.12,0.41c-0.08,0.25-0.14,0.47-0.19,0.61
								c-0.05,0.15-0.08,0.23-0.08,0.23"/>
						</g>
						<g>
							<path class="st2" d="M206.44,40.16c0,0-0.04,0.08-0.11,0.22c-0.08,0.14-0.18,0.33-0.31,0.56c-0.06,0.12-0.13,0.24-0.21,0.38
								c-0.08,0.13-0.17,0.27-0.25,0.41c-0.09,0.14-0.18,0.29-0.27,0.44c-0.09,0.15-0.2,0.29-0.3,0.44c-0.2,0.29-0.4,0.59-0.61,0.84
								c-0.1,0.13-0.2,0.26-0.29,0.38c-0.09,0.12-0.18,0.23-0.27,0.33c-0.35,0.4-0.58,0.67-0.58,0.67"/>
						</g>
						<g>
							<path class="st2" d="M201.19,46.8c0,0-0.07,0.06-0.19,0.16c-0.06,0.05-0.13,0.11-0.21,0.18c-0.09,0.07-0.18,0.14-0.29,0.22
								c-0.42,0.33-0.99,0.74-1.59,1.13c-0.3,0.18-0.6,0.38-0.89,0.54c-0.29,0.16-0.56,0.31-0.8,0.44c-0.48,0.23-0.8,0.38-0.8,0.38"
								/>
						</g>
						<g>
							<path class="st2" d="M193.78,50.84c0,0-0.09,0.02-0.23,0.07c-0.15,0.04-0.36,0.11-0.62,0.16c-0.26,0.06-0.56,0.12-0.89,0.2
								c-0.33,0.05-0.68,0.11-1.03,0.17c-0.35,0.04-0.71,0.07-1.04,0.1c-0.33,0.02-0.64,0.03-0.91,0.04c-0.27,0.02-0.49,0.01-0.64,0
								c-0.16,0-0.24-0.01-0.24-0.01"/>
						</g>
						<g>
							<path class="st2" d="M185.35,51.28c0,0-0.09-0.02-0.24-0.05c-0.08-0.01-0.17-0.04-0.27-0.06c-0.11-0.02-0.22-0.05-0.35-0.09
								c-0.51-0.14-1.19-0.35-1.85-0.63c-0.66-0.27-1.29-0.58-1.76-0.84c-0.23-0.13-0.43-0.24-0.56-0.32
								c-0.13-0.08-0.21-0.12-0.21-0.12"/>
						</g>
						<g>
							<path class="st2" d="M177.81,47.52c0,0-0.28-0.22-0.67-0.58c-0.39-0.36-0.9-0.85-1.38-1.38c-0.47-0.53-0.91-1.09-1.21-1.53
								c-0.15-0.22-0.27-0.4-0.36-0.53c-0.08-0.13-0.13-0.21-0.13-0.21"/>
						</g>
						<g>
							<path class="st2" d="M172.86,40.73c0,0-0.03-0.08-0.07-0.23c-0.02-0.07-0.05-0.16-0.08-0.27c-0.03-0.1-0.06-0.22-0.09-0.35
								c-0.12-0.52-0.23-1.22-0.23-1.93c0-0.71,0.1-1.42,0.23-1.93c0.03-0.13,0.07-0.25,0.09-0.35c0.03-0.1,0.06-0.19,0.09-0.27
								c0.05-0.15,0.08-0.23,0.08-0.23"/>
						</g>
						<g>
							<path class="st2" d="M174.27,32.7c0,0,0.01-0.02,0.04-0.05c0.02-0.03,0.06-0.08,0.11-0.14c0.1-0.12,0.24-0.29,0.42-0.48
								c0.36-0.39,0.87-0.89,1.43-1.32c0.56-0.44,1.17-0.8,1.65-1.03c0.12-0.06,0.23-0.11,0.33-0.15c0.1-0.04,0.19-0.08,0.26-0.11
								c0.15-0.05,0.23-0.08,0.23-0.08"/>
						</g>
						<g>
							<path class="st2" d="M181.54,28.95c0,0,0.02,0,0.06,0c0.04,0,0.1,0.01,0.18,0.02c0.15,0.01,0.37,0.04,0.64,0.09
								c0.52,0.09,1.21,0.28,1.86,0.56c0.65,0.28,1.27,0.63,1.72,0.92c0.22,0.15,0.4,0.27,0.53,0.37c0.13,0.09,0.2,0.14,0.2,0.14"/>
						</g>
						<g>
							<path class="st2" d="M188.82,32.95c0,0,0.24,0.26,0.59,0.66c0.34,0.41,0.78,0.97,1.18,1.55c0.4,0.58,0.77,1.19,1.03,1.66
								c0.26,0.46,0.42,0.78,0.42,0.78"/>
						</g>
						<g>
							<path class="st2" d="M193.13,40.23c0,0,0.03,0.08,0.07,0.23c0.05,0.15,0.11,0.36,0.18,0.62c0.14,0.51,0.3,1.21,0.39,1.91
								c0.04,0.35,0.08,0.71,0.11,1.04c0.02,0.17,0.03,0.33,0.04,0.48c0.01,0.15,0.02,0.3,0.02,0.43c0.01,0.27,0.03,0.49,0.03,0.64
								c0,0.16,0,0.24,0,0.24"/>
						</g>
						<g>
							<path class="st2" d="M193.91,48.65c0,0-0.01,0.09-0.02,0.24c-0.02,0.15-0.02,0.38-0.06,0.64c-0.03,0.26-0.07,0.57-0.11,0.9
								c-0.04,0.33-0.11,0.68-0.16,1.03c-0.03,0.17-0.05,0.35-0.09,0.52c-0.03,0.17-0.07,0.34-0.1,0.5
								c-0.07,0.33-0.12,0.63-0.19,0.89c-0.13,0.52-0.21,0.86-0.21,0.86"/>
						</g>
						<g>
							<path class="st2" d="M192.15,56.96c0,0-0.12,0.33-0.3,0.84c-0.04,0.13-0.09,0.26-0.15,0.4c-0.06,0.14-0.11,0.29-0.18,0.45
								c-0.12,0.31-0.25,0.64-0.39,0.97c-0.14,0.33-0.28,0.65-0.41,0.96c-0.14,0.3-0.27,0.58-0.38,0.83
								c-0.22,0.48-0.38,0.8-0.38,0.8"/>
						</g>
						<g>
							<path class="st2" d="M188.65,64.7c0,0-0.18,0.31-0.44,0.77c-0.27,0.46-0.63,1.07-1.02,1.66c-0.37,0.6-0.78,1.19-1.07,1.63
								c-0.3,0.44-0.51,0.73-0.51,0.73"/>
						</g>
						<g>
							<path class="st2" d="M183.93,71.78c0,0-0.05,0.07-0.15,0.19c-0.1,0.12-0.24,0.29-0.4,0.5c-0.17,0.21-0.36,0.45-0.57,0.71
								c-0.21,0.26-0.44,0.53-0.67,0.8c-0.46,0.54-0.93,1.07-1.29,1.47c-0.18,0.2-0.33,0.36-0.43,0.48
								c-0.11,0.11-0.17,0.18-0.17,0.18"/>
						</g>
						<g>
							<path class="st2" d="M178.27,78.13c0,0-0.25,0.25-0.64,0.62c-0.19,0.18-0.42,0.4-0.66,0.62c-0.24,0.23-0.51,0.46-0.78,0.69
								c-0.26,0.24-0.54,0.45-0.8,0.67c-0.13,0.1-0.25,0.21-0.37,0.3c-0.12,0.09-0.24,0.18-0.34,0.26
								c-0.21,0.16-0.39,0.29-0.51,0.39c-0.06,0.05-0.11,0.08-0.15,0.11c-0.03,0.02-0.05,0.04-0.05,0.04"/>
						</g>
						<g>
							<path class="st2" d="M171.61,83.4c0,0-0.08,0.05-0.21,0.13c-0.13,0.08-0.32,0.2-0.55,0.33c-0.46,0.26-1.07,0.63-1.7,0.96
								c-0.62,0.35-1.26,0.65-1.73,0.9c-0.48,0.23-0.8,0.39-0.8,0.39"/>
						</g>
						<g>
							<path class="st2" d="M164.04,87.28c0,0-0.08,0.04-0.22,0.1c-0.14,0.06-0.35,0.15-0.59,0.25c-0.49,0.2-1.15,0.48-1.81,0.73
								c-1.32,0.52-2.66,0.99-2.66,0.99"/>
						</g>
						<g>
							<path class="st2" d="M156.07,90.27c0,0-0.34,0.11-0.84,0.27c-0.51,0.17-1.19,0.37-1.86,0.58c-0.68,0.2-1.36,0.4-1.87,0.55
								c-0.51,0.14-0.85,0.24-0.85,0.24"/>
						</g>
						<g>
							<path class="st2" d="M147.9,92.65c0,0-0.34,0.09-0.86,0.22c-0.52,0.13-1.21,0.3-1.89,0.47c-0.69,0.16-1.38,0.32-1.9,0.45
								c-0.52,0.12-0.87,0.2-0.87,0.2"/>
						</g>
						<g>
							<path class="st2" d="M139.61,94.58c0,0-1.39,0.29-2.78,0.56c-0.7,0.13-1.39,0.27-1.92,0.37c-0.52,0.1-0.87,0.16-0.87,0.16"/>
						</g>
						<g>
							<path class="st2" d="M131.24,96.16c0,0-0.35,0.06-0.87,0.15c-0.52,0.09-1.23,0.2-1.93,0.31c-1.4,0.22-2.81,0.43-2.81,0.43"/>
						</g>
						<g>
							<path class="st2" d="M122.83,97.44c0,0-0.35,0.05-0.88,0.12c-0.53,0.07-1.23,0.16-1.94,0.25c-0.7,0.09-1.41,0.17-1.94,0.24
								c-0.53,0.06-0.88,0.1-0.88,0.1"/>
						</g>
						<g>
							<path class="st2" d="M114.37,98.46c0,0-1.41,0.15-2.82,0.28c-0.71,0.07-1.41,0.13-1.94,0.18c-0.53,0.05-0.88,0.08-0.88,0.08"
								/>
						</g>
						<g>
							<path class="st2" d="M105.89,99.22c0,0-1.41,0.11-2.83,0.2c-1.42,0.09-2.83,0.17-2.83,0.17"/>
						</g>
						<g>
							<path class="st2" d="M97.4,99.74c0,0-1.42,0.06-2.84,0.11c-1.42,0.05-2.84,0.08-2.84,0.08"/>
						</g>
						<g>
							<path class="st2" d="M88.89,99.97c0,0-1.42,0.01-2.84,0c-1.42-0.01-2.84-0.05-2.84-0.05"/>
						</g>
						<g>
							<path class="st2" d="M80.38,99.79c0,0-0.35-0.02-0.89-0.05c-0.53-0.05-1.24-0.12-1.94-0.19c-0.71-0.06-1.41-0.18-1.93-0.25
								c-0.53-0.08-0.88-0.13-0.88-0.13"/>
						</g>
					</g>
				</g>
			</g>
		</g>
		<g>
			<polygon class="st3" points="430.43,31.82 426.84,34.51 412.51,34.06 			"/>
			<polygon class="st4" points="412.51,34.06 424.95,36.18 426.76,39.51 			"/>
			<polygon class="st3" points="424.95,36.18 412.51,34.06 420.39,39.4 			"/>
			<polygon class="st5" points="426.84,34.51 426.76,39.51 424.95,36.18 412.51,34.06 			"/>
		</g>
	</g>
	<path class="st6" d="M335.28,85.59c-5.73,0-11.17,1.27-16.05,3.53c-0.43-39.41-32.51-71.23-72.02-71.23
		c-32.99,0-60.8,22.18-69.33,52.44c-2.76-0.52-5.61-0.79-8.52-0.79c-25.52,0-46.2,20.69-46.2,46.21c0,25.52,20.69,46.21,46.2,46.21
		c13.44,0,61.34,0,77.85,0c20.94,0,72.3,0,88.07,0c21.09,0,38.18-17.09,38.18-38.18C373.46,102.68,356.36,85.59,335.28,85.59z"/>
	<g>
		<g>
			<path class="st7" d="M133.78,162.67h31.76c0-8.77-7.11-15.88-15.88-15.88C140.89,146.79,133.78,153.9,133.78,162.67z"/>
			<path class="st8" d="M143.82,147.9c0,0,7,9.13,8.52,14.77"/>
			<path class="st8" d="M156.4,148.29c0,0-1.53,5.45-7.23,7.54"/>
			<path class="st8" d="M151.22,159.69c0,0-9.23-0.25-15.41-5.08"/>
		</g>
		<g>
			<path class="st9" d="M179.99,166.46c0,0,9.74-48.15-32.66-65.58C147.33,100.88,133.67,142.7,179.99,166.46z"/>
			<path class="st10" d="M147.33,100.88c0,0,27.59,38.14,32.07,66.27"/>
			<g>
				<path class="st11" d="M173.29,165.21c0,0-7.7-48.52-53.53-50.02C119.76,115.19,121.59,159.14,173.29,165.21z"/>
				<path class="st10" d="M173.29,165.21c0,0-33.57-40.71-53.53-50.02"/>
				<line class="st12" x1="142.14" y1="131.95" x2="141.76" y2="119.82"/>
				<line class="st13" x1="155.2" y1="144.94" x2="154.31" y2="128.64"/>
				<line class="st14" x1="137.94" y1="128.14" x2="122.28" y2="128.59"/>
				<line class="st15" x1="150.61" y1="140.2" x2="128.38" y2="140.74"/>
				<line class="st8" x1="163.2" y1="153.59" x2="144.65" y2="156.19"/>
			</g>
		</g>
	</g>
	<g>
		<g>
			<g>
				<path class="st16" d="M317.13,152H242.4c-1.12,0-2.04-0.91-2.04-2.04v-0.95c0-1.12,0.91-2.04,2.04-2.04h74.72
					c1.12,0,2.04,0.91,2.04,2.04v0.95C319.16,151.09,318.25,152,317.13,152z"/>
				<rect x="269.25" y="99.4" class="st16" width="29.23" height="48.61"/>
				<path class="st16" d="M327.83,103.44h-98.25c-1.44,0-2.62-1.17-2.62-2.62V30.44c0-1.44,1.17-2.62,2.62-2.62h98.25
					c1.44,0,2.62,1.17,2.62,2.62v70.38C330.45,102.27,329.28,103.44,327.83,103.44z"/>
				<rect x="256.64" y="99.4" class="st17" width="39.27" height="48.61"/>
				<rect x="256.64" y="99.4" class="st18" width="39.27" height="6.68"/>
				<path class="st19" d="M325.45,103.5H227.2c-1.44,0-2.62-1.17-2.62-2.62V30.5c0-1.44,1.17-2.62,2.62-2.62h98.25
					c1.44,0,2.62,1.17,2.62,2.62v70.38C328.07,102.33,326.89,103.5,325.45,103.5z"/>
				<path class="st17" d="M326.24,79.82c-7.48,11.06-19.07,16.56-19.7,16.85c-4.29,1.98-0.79,2.87-3.61,3.43
					c-8.68,1.7-21.76,2.73-34.55,3.35h57.13c1.42,0,2.58-1.15,2.58-2.58V76.81C327.53,77.82,326.91,78.83,326.24,79.82z"/>
				<path class="st20" d="M228.18,90.27V33.03c0-0.9,0.73-1.63,1.63-1.63h93.08c0.9,0,1.63,0.73,1.63,1.63v57.25
					c0,0.9-0.73,1.63-1.63,1.63h-93.08C228.91,91.9,228.18,91.17,228.18,90.27z"/>
				<path class="st21" d="M312.44,96.18h-6.12c-0.34,0-0.63-0.28-0.63-0.63v0c0-0.34,0.28-0.63,0.63-0.63h6.12
					c0.34,0,0.63,0.28,0.63,0.63l0,0C313.07,95.89,312.78,96.18,312.44,96.18z"/>
				<path class="st21" d="M319.44,96.18h-3.76c-0.34,0-0.63-0.28-0.63-0.63l0,0c0-0.34,0.28-0.63,0.63-0.63h3.76
					c0.34,0,0.63,0.28,0.63,0.63l0,0C320.07,95.89,319.79,96.18,319.44,96.18z"/>
				<path class="st21" d="M302.81,96.18h-4c-0.28,0-0.51-0.23-0.51-0.51v-0.24c0-0.28,0.23-0.51,0.51-0.51h4
					c0.28,0,0.51,0.23,0.51,0.51v0.24C303.31,95.95,303.09,96.18,302.81,96.18z"/>
				<path class="st22" d="M312.48,94.92h-0.25c0.05,0.08,0.07,0.18,0.07,0.28v0.07c0,0.32-0.27,0.59-0.59,0.59h-5.94
					c0.1,0.18,0.3,0.31,0.52,0.31h6.19c0.32,0,0.59-0.27,0.59-0.59v-0.07C313.07,95.19,312.8,94.92,312.48,94.92z"/>
				<path class="st22" d="M319.44,94.92h-0.23c0.06,0.09,0.09,0.2,0.09,0.32c0,0.34-0.28,0.63-0.63,0.63h-3.53
					c0.11,0.18,0.31,0.31,0.54,0.31h3.76c0.34,0,0.63-0.28,0.63-0.63C320.07,95.21,319.79,94.92,319.44,94.92z"/>
				<path class="st22" d="M302.69,94.92h-0.23c0.06,0.09,0.09,0.2,0.09,0.32c0,0.34-0.28,0.63-0.63,0.63h-3.53
					c0.11,0.18,0.31,0.31,0.54,0.31h3.76c0.34,0,0.63-0.28,0.63-0.63C303.31,95.21,303.03,94.92,302.69,94.92z"/>
				<path class="st19" d="M313.63,152h-74.72c-1.12,0-2.04-0.91-2.04-2.04v-0.95c0-1.12,0.91-2.04,2.04-2.04h74.72
					c1.12,0,2.04,0.91,2.04,2.04v0.95C315.66,151.09,314.75,152,313.63,152z"/>
				<path class="st17" d="M313.15,146.98h-12.35c1.39,0,2.51,1.12,2.51,2.51l0,0c0,1.39-1.12,2.51-2.51,2.51h12.35
					c1.39,0,2.51-1.12,2.51-2.51l0,0C315.66,148.1,314.54,146.98,313.15,146.98z"/>
				<path class="st23" d="M269.47,149.25h-29.68c-0.34,0-0.62-0.28-0.62-0.62l0,0c0-0.34,0.28-0.62,0.62-0.62h29.68
					c0.34,0,0.62,0.28,0.62,0.62l0,0C270.09,148.97,269.81,149.25,269.47,149.25z"/>
				<polygon class="st24" points="254.22,31.4 228.18,60.63 228.18,75.77 260.45,31.4 				"/>
				<path class="st24" d="M322.92,31.4h-1.38c-1.4,11.01-3.68,19.94-5.73,26.49c-3.62,11.63-7.02,17.5-12.21,22.06
					c0,0,2.96,3.76-3.04,6.21c-6.57,2.68-18.64,4.66-34.87,5.74h57.23c0.89,0,1.6-0.72,1.6-1.6V33
					C324.52,32.11,323.8,31.4,322.92,31.4z"/>
				<path class="st24" d="M322.92,31.4h-93.13c-0.89,0-1.6,0.72-1.6,1.6v0.13h92.35c0.89,0,1.6,0.72,1.6,1.6V91.9h0.79
					c0.89,0,1.6-0.72,1.6-1.6V33C324.52,32.11,323.8,31.4,322.92,31.4z"/>
			</g>
		</g>
	</g>
	<g>
		<g>
			<path class="st25" d="M449.75,154.41c0,0-14.8-36.14,19.08-62.06C468.83,92.35,486.81,126.94,449.75,154.41z"/>
			<g>
				<path class="st7" d="M444.03,158.37c0,0,8.1-51,56.27-52.58C500.29,105.79,498.37,152,444.03,158.37z"/>
				<path class="st26" d="M444.03,158.37c0,0,35.29-42.79,56.27-52.58"/>
				<line class="st27" x1="481.49" y1="119.24" x2="481.89" y2="109.24"/>
				<line class="st28" x1="465.88" y1="134.01" x2="467.2" y2="117.6"/>
				<line class="st29" x1="476.75" y1="123.38" x2="495.97" y2="124.31"/>
				<line class="st30" x1="460.92" y1="139.49" x2="483.67" y2="141.04"/>
			</g>
		</g>
		<g>
			<path class="st11" d="M480.16,152.01c-2.01,0-3.88,0.57-5.47,1.56c-2.73-3.74-7.15-6.17-12.13-6.17
				c-6.21,0-11.54,3.77-13.83,9.14c-1.4-1.26-3.26-2.03-5.29-2.03c-4.37,0-7.91,3.54-7.91,7.91h12h3.82h18.4h7.83h13v0
				C490.57,156.67,485.91,152.01,480.16,152.01z"/>
			<path class="st28" d="M459.8,162.71c0,0,2.34-12.31,3.93-15.31"/>
			<line class="st28" x1="460.38" y1="159.8" x2="472.69" y2="151.34"/>
			<line class="st28" x1="453.94" y1="149.81" x2="461.32" y2="155.53"/>
			<line class="st28" x1="476.91" y1="162.71" x2="486.22" y2="153.95"/>
			<line class="st31" x1="478.72" y1="151.81" x2="481.15" y2="158.71"/>
			<line class="st31" x1="445.03" y1="162.42" x2="440.13" y2="154.91"/>
		</g>
	</g>
	<g>
		<g>
			<path class="st32" d="M309.33,151.41h138.03c3.21,0,5.81-2.6,5.81-5.81v-7.06c0-3.21-2.6-5.81-5.81-5.81H309.33
				c-3.21,0-5.81,2.6-5.81,5.81v7.06C303.52,148.81,306.12,151.41,309.33,151.41z"/>
			<path class="st32" d="M340.76,132.73h106.59c3.21,0,5.81-2.6,5.81-5.81v-23c0-3.21-2.6-5.81-5.81-5.81H340.76
				c-3.21,0-5.81,2.6-5.81,5.81v23C334.96,130.13,337.56,132.73,340.76,132.73z"/>
			<path class="st33" d="M445.08,132.73h2.28c3.21,0,5.81-2.6,5.81-5.81v-23c0-3.21-2.6-5.81-5.81-5.81h-2.28
				c-3.21,0-5.81,2.6-5.81,5.81v23C439.27,130.13,441.87,132.73,445.08,132.73z"/>
			<path class="st33" d="M447.36,132.73h-33.71c-3.21,0-5.81,2.6-5.81,5.81v7.06c0,3.21,2.6,5.81,5.81,5.81h33.71
				c3.21,0,5.81-2.6,5.81-5.81v-7.06C453.17,135.33,450.57,132.73,447.36,132.73z"/>
			<path class="st34" d="M361.49,151.41h40.54c3.21,0,5.81-2.6,5.81-5.81v-7.06c0-3.21-2.6-5.81-5.81-5.81h-40.54
				c-3.21,0-5.81,2.6-5.81,5.81v7.06C355.68,148.81,358.28,151.41,361.49,151.41z"/>
			<path class="st34" d="M309.33,151.41h40.54c3.21,0,5.81-2.6,5.81-5.81v-7.06c0-3.21-2.6-5.81-5.81-5.81h-40.54
				c-3.21,0-5.81,2.6-5.81,5.81v7.06C303.52,148.81,306.12,151.41,309.33,151.41z"/>
			<path class="st34" d="M392.92,132.73h40.54c3.21,0,5.81-2.6,5.81-5.81v-23c0-3.21-2.6-5.81-5.81-5.81h-40.54
				c-3.21,0-5.81,2.6-5.81,5.81v23C387.11,130.13,389.71,132.73,392.92,132.73z"/>
			<path class="st34" d="M340.76,132.73h40.54c3.21,0,5.81-2.6,5.81-5.81v-23c0-3.21-2.6-5.81-5.81-5.81h-40.54
				c-3.21,0-5.81,2.6-5.81,5.81v23C334.96,130.13,337.56,132.73,340.76,132.73z"/>
			
				<rect x="443.57" y="151.41" transform="matrix(-1 -4.461688e-11 4.461688e-11 -1 890.1157 313.5709)" class="st35" width="2.98" height="10.75"/>
			
				<rect x="440.17" y="151.41" transform="matrix(-1 -4.545709e-11 4.545709e-11 -1 883.7382 313.5709)" class="st36" width="3.4" height="10.75"/>
			
				<rect x="413.41" y="151.41" transform="matrix(-1 -4.522794e-11 4.522794e-11 -1 829.7879 313.5709)" class="st35" width="2.98" height="10.75"/>
			
				<rect x="410" y="151.41" transform="matrix(-1 -4.492241e-11 4.492241e-11 -1 823.4104 313.5709)" class="st37" width="3.4" height="10.75"/>
			
				<rect x="342.67" y="151.41" transform="matrix(-1 -4.522839e-11 4.522839e-11 -1 688.3143 313.5709)" class="st35" width="2.98" height="10.75"/>
			
				<rect x="339.27" y="151.41" transform="matrix(-1 -4.492241e-11 4.492241e-11 -1 681.9369 313.5709)" class="st36" width="3.4" height="10.75"/>
			
				<rect x="312.51" y="151.41" transform="matrix(-1 -4.461688e-11 4.461688e-11 -1 627.9865 313.5709)" class="st35" width="2.98" height="10.75"/>
			
				<rect x="309.1" y="151.41" transform="matrix(-1 -4.492241e-11 4.492241e-11 -1 621.609 313.5709)" class="st37" width="3.4" height="10.75"/>
			
				<rect x="413.41" y="151.41" transform="matrix(-1 -4.489843e-11 4.489843e-11 -1 859.9518 305.7774)" class="st35" width="33.14" height="2.96"/>
			
				<rect x="309.1" y="151.41" transform="matrix(-1 -4.490731e-11 4.490731e-11 -1 722.5097 305.7774)" class="st37" width="104.3" height="2.96"/>
		</g>
	</g>
	<g>
		
			<rect x="431.17" y="83.89" transform="matrix(-1 -4.506008e-11 4.506008e-11 -1 865.6724 242.0881)" class="st38" width="3.33" height="74.3"/>
		
			<rect x="432.96" y="83.89" transform="matrix(-1 -4.571200e-11 4.571200e-11 -1 866.9845 242.0881)" class="st39" width="1.07" height="74.3"/>
		<polygon class="st40" points="446.96,160.73 434.5,158.2 431.17,158.2 418.71,160.73 418.71,162.32 446.96,162.32 		"/>
		
			<rect x="418.71" y="160.73" transform="matrix(-1 -4.493795e-11 4.493795e-11 -1 865.6724 323.049)" class="st39" width="28.25" height="1.59"/>
		<polygon class="st41" points="416.7,83.89 448.71,83.89 444.92,51.88 420.5,51.88 		"/>
		<polygon class="st39" points="434.03,158.2 432.96,158.2 437.35,160.73 443.5,160.73 		"/>
		<polygon class="st42" points="444.1,83.89 437.01,83.89 435.43,51.88 440.89,51.88 		"/>
	</g>
	<g>
		<path class="st43" d="M370.95,122.41c-2,1.91-2.51-0.31-1.86-2.64c0.63-2.24,1.37-4.11,2.65-6.06c0.77-1.17,3.4-5.75,5.43-4.86
			c2.86,1.26-1.25,6.32-1.99,7.75C374.12,118.66,372.74,120.69,370.95,122.41z"/>
		<path class="st43" d="M358.38,128.17c-0.01-0.1-1.64,0.65-1.51,0.13c0.07-0.3,1.29-0.78,2.02-0.9c1.46-0.24,2.85-1.04,4.41-2.26
			c1.95-1.53,2.69-2.11,4.51-3.36c1.43-0.97,1.67-1.08,3.41-1.23c1.42-0.12,2.15,1.65,1.19,2.75c-0.57,0.65-1.21,1.08-3.29,2.07
			c-1.65,0.79-3.81,1.87-5.49,2.61c-1.47,0.65-2.85,1.54-4.23,2.4c-0.75,0.48-3.41,1.11-4.2-0.27c-0.31-0.54,0.87-0.45,2.23-1.06
			C357.87,128.85,358.4,128.58,358.38,128.17z"/>
		<path class="st44" d="M373.02,114.14c0.17-2.65,1.24-5.09,3.52-6.72c1.94-1.39,5.9-0.77,7.27,1.68
			c2.21,3.96,3.67,14.96,3.49,18.87c-2.86,0.36-9.46-0.17-12.39-0.03c0.54-3.87-1.14-6.03-1.89-9.96
			C372.76,116.68,372.93,115.52,373.02,114.14z"/>
		<path class="st45" d="M366.89,134.9c-4.4,0-5.75-13.11-4.4-15.91c0.85-1.75,5.17-0.41,5.12,5.82
			C367.57,131.04,372.89,134.9,366.89,134.9z"/>
		
			<rect x="375.45" y="97.49" transform="matrix(0.9752 -0.2212 0.2212 0.9752 -13.353 86.0625)" class="st46" width="4.12" height="10.3"/>
		<path class="st43" d="M375.6,110.33c0.45,0.63,1.92,0.35,3.28-0.62c1.36-0.97,2.1-2.27,1.64-2.9c-0.45-0.63-1.92-0.35-3.28,0.62
			C375.88,108.4,375.14,109.7,375.6,110.33z"/>
		<path class="st46" d="M377.99,127.14c0,0-11.99-11.47-14.1-9.2c-2.11,2.26-10.76,14.04-10.76,14.04l2.45,0
			c0,0,10.99-5.01,10.02-7.19c0,0,16.41,19.99,18.58,3.2L377.99,127.14z"/>
		<path class="st47" d="M380.89,126.23c0,0-11.52-10.55-13.9-8.3c-2.25,2.13-11.42,14.04-11.42,14.04l4.55,0
			c0,0,7.24-4.19,7.49-7.16c0,0,17.51,19.96,19.68,3.17L380.89,126.23z"/>
		<g>
			<path class="st39" d="M376.9,92.25c-1.45,0.2-3.62,0.94-4.68,2.37c-0.91,1.23-0.98,2.72-0.74,4.13c0.18,1.04,0.38,2.19,0.73,3.19
				c0.29,0.84,1.21,1.13,2,1.27c1.69,0.29,3.53,0.1,5.2-0.23c1.25-0.24,2.39-1.29,2.92-2.42c0.67-1.42-0.04-3.06-0.7-4.36
				c-0.57-1.11-1.3-2.12-2.33-2.85c-0.53-0.38-1.17-0.62-1.82-0.67C377.32,92.68,377.06,92.23,376.9,92.25z"/>
			<path class="st48" d="M379.14,93.24c-5.86-1.5-8.26,4.59-6.88,9.23c0.39,1.3,1.31,2.99,2.07,2.94c1.52-0.09,2.72-0.64,3.92-1.21
				c2.26-1.07,3.37-2.7,4.2-4.93C383.43,96.68,381.77,93.91,379.14,93.24z"/>
			<path class="st39" d="M373.76,93.24c-1.6,0.92-0.32,2.39,0.59,3.58c0.41,0.54,1.04,1.02,1.68,1.24c0.85,0.29,2.37,0.62,3.22,0.55
				c0.58-0.05,0.91,0.55,1.01,1.25c0.21,1.52-1.64,1.05-0.94,2.71c0.12,0.29,0.2,1.26,0.48,1.41c0.52,0.28,1.85-0.69,2.23-1.15
				c1.83-2.21,2.17-3.9,1.75-6.24c-0.25-1.41-0.91-2.83-2.13-3.6C379.34,91.55,376.06,92.13,373.76,93.24z"/>
			<path class="st3" d="M375.09,102.88c0,0-1.16-0.57-2-1.12C373.09,101.77,373.79,105.61,375.09,102.88z"/>
		</g>
		<path class="st44" d="M387.29,127.98c0,0,0.88,6.92-6.44,6.92s-13.96,0-13.96,0s3.02-17.7-4.4-15.91c0,0,1.04-1.6,2.31-1.78
			c6.56-0.94,14.19,7.16,14.19,7.16L387.29,127.98z"/>
		<path class="st46" d="M381.76,124.22c-1.15,2.6-2.5,0.69-2.8-1.78c-0.28-2.38-0.3-4.45,0.15-6.81c0.27-1.41,1.08-7.38,3.26-6.75
			c3.08,0.9,2.05,6.1,1.82,7.75C383.87,118.96,382.79,121.89,381.76,124.22z"/>
		<g>
			<circle class="st49" cx="372.18" cy="118.39" r="4"/>
			<path class="st49" d="M371.46,125.95L371.46,125.95c-0.84,0.11-1.61-0.48-1.72-1.32l-0.47-3.55l3.04-0.41l0.47,3.55
				C372.89,125.07,372.3,125.84,371.46,125.95z"/>
			<circle class="st43" cx="371.25" cy="124.41" r="1.25"/>
			<path class="st49" d="M376.19,125.23L376.19,125.23c-0.75,0.39-1.68,0.09-2.07-0.66l-1.64-3.18l2.73-1.4l1.64,3.18
				C377.24,123.92,376.94,124.84,376.19,125.23z"/>
			<circle class="st43" cx="375.48" cy="123.85" r="1.25"/>
			<path class="st49" d="M377.82,119.63L377.82,119.63c-0.51,0.67-1.48,0.8-2.15,0.29l-2.85-2.18l1.86-2.44l2.85,2.18
				C378.2,117.99,378.33,118.95,377.82,119.63z"/>
			<path class="st43" d="M375.82,119.67c-0.55-0.42-0.65-1.2-0.23-1.75c0.42-0.55,1.2-0.65,1.75-0.23c0.55,0.42,0.65,1.2,0.23,1.75
				C377.15,119.98,376.37,120.09,375.82,119.67z"/>
			<path class="st49" d="M366.99,121.07L366.99,121.07c0.67,0.51,1.64,0.39,2.15-0.29l2.18-2.85l-2.44-1.86l-2.18,2.85
				C366.19,119.6,366.32,120.56,366.99,121.07z"/>
			<path class="st43" d="M368.93,120.59c0.42-0.55,0.31-1.33-0.23-1.75c-0.55-0.42-1.33-0.31-1.75,0.23
				c-0.42,0.55-0.31,1.33,0.23,1.75C367.73,121.24,368.51,121.14,368.93,120.59z"/>
			
				<ellipse transform="matrix(0.9729 -0.2313 0.2313 0.9729 -17.2902 89.3147)" class="st43" cx="372.2" cy="118.38" rx="2.65" ry="2.65"/>
			<g>
				<path class="st50" d="M372.53,121.15l-2.2-0.26c-0.2-0.02-0.34-0.2-0.32-0.4l0.26-2.2c0.02-0.2,0.2-0.34,0.4-0.32l2.2,0.26
					c0.2,0.02,0.34,0.2,0.32,0.4l-0.26,2.2C372.91,121.03,372.73,121.18,372.53,121.15z"/>
				<line class="st51" x1="370.71" y1="117.59" x2="370.78" y2="118.52"/>
				<line class="st51" x1="372.35" y1="117.78" x2="372.41" y2="118.72"/>
				<line class="st51" x1="371.46" y1="117.68" x2="371.42" y2="118.57"/>
				<line class="st51" x1="372.54" y1="117.81" x2="372.6" y2="118.74"/>
				<line class="st51" x1="372.01" y1="117.75" x2="371.24" y2="118.48"/>
				<line class="st51" x1="370.74" y1="120.48" x2="370.44" y2="121.37"/>
				<line class="st51" x1="371.14" y1="120.7" x2="371.19" y2="121.46"/>
				<line class="st51" x1="372.37" y1="120.77" x2="371.99" y2="121.55"/>
				<line class="st51" x1="371.67" y1="120.59" x2="371.68" y2="121.51"/>
				<line class="st51" x1="373.49" y1="118.81" x2="372.55" y2="118.88"/>
				<line class="st51" x1="373.4" y1="119.56" x2="372.52" y2="119.69"/>
				<line class="st51" x1="373.27" y1="120.64" x2="372.6" y2="120.24"/>
				<line class="st51" x1="373.33" y1="120.11" x2="372.44" y2="120.43"/>
				<line class="st51" x1="370.6" y1="118.84" x2="369.71" y2="118.54"/>
				<line class="st51" x1="370.58" y1="119.03" x2="369.62" y2="119.29"/>
				<line class="st51" x1="370.31" y1="120.46" x2="369.53" y2="120.09"/>
				<line class="st51" x1="370.31" y1="119.86" x2="369.56" y2="119.77"/>
			</g>
			<g>
				
					<ellipse transform="matrix(0.95 -0.3123 0.3123 0.95 -15.505 120.6159)" class="st49" cx="368.76" cy="108.71" rx="1.66" ry="1.66"/>
				<path class="st49" d="M376.81,108.71c0,0.92-0.74,1.66-1.66,1.66s-1.66-0.74-1.66-1.66c0-0.92,0.74-1.66,1.66-1.66
					C376.07,107.05,376.81,107.8,376.81,108.71z"/>
				<path class="st43" d="M367.88,109.59c-0.49-0.49-0.49-1.28,0-1.76c0.49-0.49,1.28-0.49,1.76,0s0.49,1.28,0,1.76
					S368.37,110.08,367.88,109.59z"/>
				<path class="st43" d="M374.27,109.59c-0.49-0.49-0.49-1.28,0-1.76s1.28-0.49,1.76,0c0.49,0.49,0.49,1.28,0,1.76
					C375.54,110.08,374.75,110.08,374.27,109.59z"/>
				<circle class="st49" cx="372" cy="112.55" r="4.1"/>
				<path class="st43" d="M372.9,115.39c0.59-0.59,0.59-1.54,0-2.13c-0.59-0.59-1.54-0.59-2.13,0c-0.59,0.59-0.59,1.54,0,2.13
					C371.36,115.98,372.31,115.98,372.9,115.39z"/>
				<g>
					<path class="st50" d="M371.21,112.39c0,0.4-0.32,0.72-0.72,0.72c-0.4,0-0.72-0.32-0.72-0.72c0-0.4,0.32-0.72,0.72-0.72
						C370.89,111.68,371.21,112,371.21,112.39z"/>
					<line class="st51" x1="370.27" y1="112.15" x2="370.74" y2="112.68"/>
					<line class="st51" x1="370.77" y1="112.15" x2="370.27" y2="112.61"/>
				</g>
				<g>
					<path class="st50" d="M374.27,112.8c0,0.4-0.32,0.72-0.72,0.72c-0.4,0-0.72-0.32-0.72-0.72c0-0.4,0.32-0.72,0.72-0.72
						C373.95,112.08,374.27,112.4,374.27,112.8z"/>
					<path class="st50" d="M372.74,114.04c0,0.4-0.32,0.72-0.72,0.72c-0.4,0-0.72-0.32-0.72-0.72c0-0.4,0.32-0.72,0.72-0.72
						C372.42,113.33,372.74,113.65,372.74,114.04z"/>
					<line class="st51" x1="373.33" y1="112.55" x2="373.85" y2="113.11"/>
					<line class="st51" x1="373.83" y1="112.55" x2="373.33" y2="113.11"/>
				</g>
			</g>
		</g>
		<path class="st46" d="M366.82,122.23c0.05-0.1-1.34-0.73-1.26-0.96c0.11-0.34,1.58,0.01,2.27,0.33c1.38,0.63,3.06,0.69,5.15,0.43
			c2.6-0.32,6.43-0.93,7.99-0.05c1.28,0.72,0.76,2.79-0.72,3.36c-1.65,0.62-6.9-0.09-8.77-0.37c-1.65-0.25-3.38-0.21-5.08-0.18
			c-0.94,0.01-3.63-0.01-3.77-1.11c-0.19-1.5,1.4-1.56,2.93-1.35C366.05,122.4,366.75,122.37,366.82,122.23z"/>
		<g>
			<path class="st45" d="M358.36,134.34c0,0-2.57,0-3.43,0c-1.34,0-1.78,0.51-2.48,0.51h-4.09l0,0c0-1.57,1.27-2.88,2.85-2.88h6.67
				c0.26,0,0.48,0.21,0.48,0.47V134.34z"/>
			
				<rect x="354.94" y="134.33" transform="matrix(-1 -4.458979e-11 4.458979e-11 -1 713.2977 269.1855)" class="st45" width="3.43" height="0.52"/>
		</g>
		<path class="st39" d="M373.13,89.91c0.12-1.9,2.42-2.17,2.79-2.18c1.24-0.05,2.01,0.58,2.42,1.37c0.57,1.1,0.24,2.69,1.56,3.79
			c-1.08-0.33-1.23-1.26-1.81-1.35c-0.39-0.06-0.43,0.82-0.64,1.24c-0.37,0.73-1.27,1.11-2.07,0.98
			C373.64,93.48,373.04,91.42,373.13,89.91z"/>
		<g>
			<path class="st44" d="M380.21,96.59l0.47,0.65c0.11,0.16,0.33,0.19,0.48,0.08l0.65-0.47c0.16-0.11,0.19-0.33,0.08-0.48
				l-0.47-0.65c-0.11-0.16-0.33-0.19-0.48-0.08l-0.65,0.47C380.13,96.22,380.09,96.43,380.21,96.59z"/>
			<path class="st44" d="M381.02,97.29l0.02,1.1c0.01,0.41,0.47,0.65,0.81,0.41l1.12-0.8c0.33-0.24,0.26-0.75-0.12-0.89l-1.03-0.37
				L381.02,97.29z"/>
			<path class="st44" d="M380.28,96.25l-1.03-0.37c-0.39-0.14-0.46-0.66-0.12-0.89l1.12-0.8c0.33-0.24,0.8,0,0.81,0.41l0.02,1.1
				L380.28,96.25z"/>
		</g>
		<g>
			<path class="st44" d="M360.65,134.34c0,0-2.57,0-3.43,0c-1.34,0-1.78,0.51-2.48,0.51h-4.09l0,0c0-1.57,1.27-2.88,2.85-2.88h6.67
				c0.26,0,0.48,0.21,0.48,0.47V134.34z"/>
			
				<rect x="357.22" y="134.34" transform="matrix(-1 -4.512047e-11 4.512047e-11 -1 717.8738 269.1959)" class="st44" width="3.43" height="0.51"/>
		</g>
	</g>
	<g>
		<g>
			<g>
				<polygon class="st43" points="208.25,160.35 203.81,160.13 203.98,156.82 207.92,157.02 				"/>
				<path class="st35" d="M203.94,157.51l3.98-0.5l3.4-37.68l4.83-38.72l-16.26-0.82c0,0,1.79,31.17,3.17,38.57
					C201.15,124.08,203.94,157.51,203.94,157.51z"/>
				<polygon class="st43" points="195.18,159.69 190.83,159.47 191,156.16 194.94,156.36 				"/>
				<g>
					<g>
						<path class="st3" d="M214.28,62.66c-0.68,0.32-1.67,0.81-2.19,1.37c-1.18,1.27-1.05,2.87-0.26,4.53
							c0.37,0.77,1.59,2.27,2.62,2.31c0.77,0.03,5.1-0.68,6.39-1.01c1.44-0.38,2.84-0.9,4.28-1.28c1.57-0.41,3.16-0.73,4.72-1.19
							c1.46-0.43,2.89-0.94,4.35-1.38c0.93-0.28,1.86-0.53,2.79-0.79l-2.18-5.14C228.29,60.5,216.96,61.39,214.28,62.66z"/>
						<path class="st52" d="M236.98,65.22c0.32-0.09,0.63-0.18,0.94-0.28c0.86-0.26,1.71-0.56,2.57-0.84
							c0.04-0.01,0.91-0.32,0.93-0.28c-0.01-0.01-1.95-4.01-1.95-4.01s-1.9,0.09-4.67,0.27L236.98,65.22z"/>
					</g>
					<path class="st43" d="M239.47,59.81c0.47-0.26,0.92-0.54,1.36-0.83c0.42-0.28,0.83-0.69,1.29-0.9c1.06-0.48,2.19-0.8,3.34-0.95
						c0.33-0.04,1.24-0.26,1.37-0.3c0.19-0.06,2.21-0.4,3.02-0.54c0.58-0.1,1.16-0.2,1.75-0.2c0.25,0,0.51,0.03,0.71,0.18
						c0.31,0.23,0.38,0.66,0.41,1.05c0.05,0.71,0.04,1.48-0.38,2.06c-0.12,0.17-0.27,0.31-0.43,0.45c-0.38,0.35-1.6,1.46-4.83,2.79
						c-0.43,0.18-0.89,0.28-1.34,0.39c-1.2,0.28-2.38,0.33-3.67,0.67c-0.18,0.05-0.47,0.14-0.65,0.15L239.47,59.81z"/>
					<path class="st3" d="M209.65,41.73c0,0,5.37-4.28,7.75,1.57c0.6,1.47,0.99,3.02,1.26,4.58c0.5,2.88,0.59,5.84,0.42,8.76
						c-0.08,1.3-0.21,2.59-0.42,3.87c-0.09,0.55-0.23,1.1-0.33,1.64c-0.15,0.81-0.37,1.67-0.63,2.44c-0.68,2.02-1.24,3.69-2.47,4.07
						c-1.37,0.43-2.17,1.04-2.99-1.2c-0.47-1.28-0.83-2.59-1.28-3.88c-0.63-1.81-1.24-3.63-1.84-5.45
						c-0.59-1.78-1.11-3.59-1.58-5.41c-0.31-1.19-0.66-2.56-0.55-3.8C207.25,45.93,207.34,44.5,209.65,41.73z"/>
				</g>
				<path class="st36" d="M195.78,79.59c0,0-0.14,23.8,0.43,36.78c-5.75,8.66-5.26,40.57-5.26,40.57l3.97-0.45l10.28-39.91
					l6.42-36.19L195.78,79.59z"/>
				<path class="st52" d="M194.12,43.01c0,0,2.28-7.66,10.62-6.92c8.34,0.74,12.79,4.45,14.53,10.79c1.74,6.34-2.56,9.95-3.06,17.32
					c-0.5,7.37-0.05,16.42-0.05,16.42s-21.01,4.03-20.37-1.03C196.74,71.95,191.54,49.52,194.12,43.01z"/>
				
					<rect x="202.72" y="30.83" transform="matrix(0.0504 -0.9987 0.9987 0.0504 162.5027 238.3378)" class="st43" width="7.72" height="5.77"/>
				<path class="st48" d="M203.03,28.62c0,0,2.53,4.42,7.43,5.1c2.77,0.38,2.99-0.19,3.21-1c0.67-2.47,1.81-6.57,0.27-10.98
					c0,0-3.11-6.46-8.63-2.58C200.64,22.43,202.57,27.47,203.03,28.62z"/>
				<path class="st35" d="M205.44,21.54c3.3,1.11,14.41,1.57,11.01-4.84c-0.49-0.92-1.36-1.92-2.48-1.96
					c-0.98-0.04-1.69,0.68-2.33,1.31c-0.6,0.59-1.14,1.08-2.03,1.06c-1.11-0.02-2.22-0.49-3.32-0.64c-2.17-0.29-4.64,0.12-5.35,2.45
					c-2.04,0.32-2.48,2.58-2.07,4.34c0.41,1.8,1.97,3.73,3.27,4.99c0.59,0.57,1.2,1.11,1.82,1.65c0.05-0.57-0.06-1.11-0.01-1.66
					c-0.68-0.4-1.36-1.76-1.15-2.6c0.38-1.47,1.92-1.03,2.26-0.3C205.22,24.11,205.28,22.79,205.44,21.54z"/>
				<path class="st53" d="M206.11,37.77l4.62-0.42l0.55,3.3c0,0,6.94,18.66-3.02,34.36l-4.09,1.35c0,0,0.11-3.52-0.68-4.85
					c0,0,10.93-10.7,6.14-31.09L206.11,37.77z"/>
				<g>
					<g>
						<path class="st4" d="M211.4,39.59l-1.45-2.32c0,0.02-0.17-0.2-0.65-0.35l0.14-2.7c1.21,0.87,1.12,1.07,1.49,2.51
							C211.24,37.89,211.01,37.57,211.4,39.59z"/>
					</g>
				</g>
				<g>
					<path class="st54" d="M208.27,38.57c-2.13-0.38-4.07-0.65-5.57-2.97"/>
					<path class="st5" d="M208.52,39.96l-0.71-0.06c-2.11-0.37-4.64-0.88-6.42-3.63l2.29-2.25c1.12,1.73,2.69,2.82,4.61,3.16
						l0.77,0.1L208.52,39.96z"/>
				</g>
				<path class="st36" d="M190.87,158.73c2.47,1.16,3.45-0.46,4.48-0.23c0.98,0.22,0.79,0.73,1.61,1.26
					c0.91,0.58,3.95,1.49,4.21,1.58c1.08,0.39,0.83,1.53,0.59,1.55c-1.11,0.1-3.44,0.2-4.55,0.08c-0.73-0.08-1.99-0.85-2.72-0.89
					c-0.88-0.05-1.19,0.7-2.07,0.75c-0.77,0.04-1.64-0.05-2.12-0.74c-0.39-0.55-0.38-1.25-0.26-1.88
					C190.06,160.07,190.19,159.27,190.87,158.73z"/>
				<path class="st55" d="M197.25,162.19c-0.85-0.04-1.38-0.25-1.89-0.45c-0.44-0.17-0.85-0.33-1.39-0.36l-4.15-0.21l-0.09,1.69
					l4.35,0.22l0.03-0.63c0.28,0.04,0.54,0.14,0.86,0.27c0.53,0.21,1.2,0.47,2.22,0.52l4.77,0.24l0.05-1.04L197.25,162.19z"/>
				<path class="st36" d="M203.85,159.38c2.47,1.16,3.45-0.46,4.48-0.23c0.98,0.22,0.79,0.73,1.61,1.26
					c0.91,0.58,3.95,1.49,4.21,1.58c1.08,0.39,0.83,1.53,0.59,1.55c-1.11,0.1-3.44,0.2-4.55,0.08c-0.73-0.08-1.99-0.85-2.73-0.89
					c-0.88-0.05-1.19,0.7-2.07,0.75c-0.77,0.04-1.64-0.05-2.12-0.74c-0.39-0.55-0.38-1.25-0.26-1.88
					C203.05,160.72,203.17,159.92,203.85,159.38z"/>
				<path class="st55" d="M210.23,162.85c-0.85-0.04-1.38-0.25-1.89-0.45c-0.44-0.17-0.85-0.33-1.39-0.36l-4.15-0.21l-0.09,1.69
					l4.35,0.22l0.03-0.63c0.28,0.04,0.54,0.14,0.86,0.27c0.53,0.21,1.2,0.47,2.22,0.52l4.77,0.24l0.05-1.04L210.23,162.85z"/>
				<path class="st3" d="M209.95,29.95c0,0,2.42,0.17,3.57-0.82C213.51,29.13,212.42,33.73,209.95,29.95z"/>
				<path class="st3" d="M202.77,34.82c0.12,2.14,0.31,3.2,1.97,4.33c1.7,1.17,4.77,4.88,5,6.92c0.47,4.16,1.22,8.03,1.52,12.21
					c0.72,10.03-2.75,18.88-5.82,28.48c-1.74,5.44-3.81,15.59-9.18,17.72c-3.37,1.34-6.38,0.59-9.95-0.04
					c-2.49-0.44-6.53-0.9-7.29-3.85c-0.77-2.99,3.68-10.63,4.79-13.27c1.45-3.48,8.43-13.86,9.3-28.27
					c0.26-4.31-0.09-8.65-0.07-12.97C193.06,38.83,198.64,37.28,202.77,34.82z"/>
				<path class="st3" d="M211.43,37.6c2.48,5.23,5.06,10.54,5.15,16.44c0.08,4.6-0.99,9.22-0.47,13.82
					c0.08,0.68,0.01,2.08,0.67,1.38c0.85-0.89,0.55-4.48,0.63-5.61c0.36-4.72,2.11-8.62,2.62-13.3
					C220.57,45.53,217.23,39.59,211.43,37.6z"/>
				<g>
					<g>
						<path class="st35" d="M208.04,47l0.52-0.3c-1.79-3.06-5.27-9.13-5.61-10.14c-0.26-0.78-0.23-1.45,0.07-1.96
							c0.25-0.41,0.53-0.56,0.66-0.58l0.03-0.6l-0.07,0.01c-0.32,0.06-0.81,0.33-1.14,0.87c-0.28,0.46-0.52,1.26-0.13,2.46
							C202.82,38.08,207.83,46.64,208.04,47z"/>
					</g>
					<g>
						<path class="st56" d="M210.24,46.97c0.46,0.78,0.2,1.79-0.58,2.25c-0.78,0.46-1.79,0.2-2.25-0.58
							c-0.46-0.78-0.2-1.79,0.58-2.25C208.77,45.93,209.78,46.19,210.24,46.97z"/>
						<path class="st35" d="M209.59,47.35c0.25,0.43,0.11,0.98-0.32,1.23c-0.43,0.25-0.98,0.11-1.23-0.32
							c-0.25-0.43-0.11-0.98,0.32-1.23C208.79,46.78,209.34,46.92,209.59,47.35z"/>
					</g>
					<g>
						<g>
							<path class="st56" d="M218.39,54.12c0.45-0.13,0.43-0.21,0.78-0.83c0.69-1.2,0.54-3.45-0.47-6.9
								c-0.27-0.93-0.59-1.77-0.94-2.49l-0.29,0.14c0.34,0.7,0.65,1.52,0.92,2.44c0.97,3.31,1.14,5.55,0.5,6.65
								c-0.38,0.66-0.44,0.65-0.93,0.77c-0.1,0.02-0.19,0.04-0.27,0.07l0.09,0.31c0.08-0.02,0.16-0.04,0.25-0.06
								C218.15,54.19,218.26,54.16,218.39,54.12z"/>
						</g>
						<g>
							<path class="st35" d="M217.37,44.1l0.48-0.23c-1.9-3.89-3.86-3.79-4.85-3.5l0,0c-1,0.29-2.7,1.27-2.2,5.57l0.53-0.06
								c-0.44-3.75,0.74-4.68,1.81-5l0,0C214.01,40.62,215.65,40.58,217.37,44.1z"/>
						</g>
						<g>
							<path class="st56" d="M215.9,54.85c0.12-0.04,0.24-0.08,0.34-0.11c0.09-0.03,0.17-0.06,0.25-0.08l-0.09-0.31
								c-0.08,0.02-0.17,0.05-0.26,0.09c-0.47,0.16-0.52,0.21-1.2-0.14c-1.13-0.58-2.2-2.56-3.17-5.86
								c-0.27-0.92-0.45-1.77-0.54-2.55l-0.32,0.04c0.09,0.79,0.28,1.67,0.55,2.6c1.01,3.44,2.1,5.43,3.33,6.06
								C215.43,54.91,215.44,54.99,215.9,54.85z"/>
						</g>
						<path class="st35" d="M218.13,54.03c0.06,0.21-0.06,0.43-0.28,0.49c-0.21,0.06-0.44-0.06-0.5-0.27
							c-0.06-0.21,0.06-0.43,0.28-0.49C217.85,53.7,218.07,53.82,218.13,54.03z"/>
						<path class="st35" d="M216.83,54.41c0.06,0.21-0.06,0.43-0.28,0.49c-0.21,0.06-0.44-0.06-0.5-0.27
							c-0.06-0.21,0.06-0.43,0.28-0.49C216.55,54.08,216.77,54.2,216.83,54.41z"/>
					</g>
					<g>
						<path class="st35" d="M212.64,40.71l0.57-0.18c-0.03-0.1-0.91-2.99-2.31-3.91l0.2,0.96
							C211.99,38.66,212.64,40.69,212.64,40.71z"/>
					</g>
				</g>
				<path class="st48" d="M240.59,59.36c1.39-0.81,1.67-0.85,2.87-1.13c0.43-0.1,4.73-0.63,5.07-0.09c0.72,1.13-2.42,0.85-2.68,1.29
					c-1.29,2.18-4.59,0.98-4.13,1.02L240.59,59.36z"/>
			</g>
			<g>
				
					<rect x="199.75" y="69.85" transform="matrix(1 -3.026672e-03 3.026672e-03 1 -0.2167 0.6145)" class="st57" width="6.34" height="4.13"/>
				
					<rect x="202.57" y="68.68" transform="matrix(1 -3.026828e-03 3.026828e-03 1 -0.2101 0.6145)" class="st57" width="0.69" height="2.11"/>
			</g>
		</g>
		<g>
			<path class="st3" d="M197.57,41.64c0,0-6.7,1.49-3.65,7.01c0.78,1.41,1.73,2.73,2.75,3.98c1.96,2.4,4.21,4.58,6.59,6.56
				c1.06,0.88,2.15,1.73,3.28,2.5c0.47,0.32,2.97,1.98,3.73,2.45c1.41,0.87,2.9,1.64,4.35,0.86c1.86-0.99,2.28-3.05,1.22-4.68
				c-1.82-2.82-3.5-5.73-5.3-8.57c-1.61-2.53-3.27-5.82-5.71-7.68C202.46,42.27,201.18,41.58,197.57,41.64z"/>
			<path class="st48" d="M236.3,50.98c0.96-0.79,2.15-2.04,2.81-3.08c0.18-0.28,1.39-2.63,2.25-3.73c0,0,0.59-1.1,1.28-0.28
				c0.22,0.26-1.08,3.08-0.99,3.17c0.53,0.52,1.77-0.75,2.13-1.05c0.6-0.5,0.98-1.54,1.86-1.08c0.6,0.31,1.22,0.73,1.37,1.45
				c0.37,1.78-0.07,3.87-1.49,5.05c-0.8,0.66-1.69,1.21-2.64,1.62c-1.13,0.49-2.27,1.02-3.47,1.33c-0.18,0.04-0.35,0.09-0.53,0.12
				L236.3,50.98z"/>
			<g>
				<path class="st3" d="M220.91,54.2c-2,0.45-4.07,0.93-6,1.61c-0.68,0.24-1.4,0.45-2.07,0.72c-0.95,0.39-2.12,1.32-2.87,1.98
					c-0.55,0.48-0.82,0.99-1.1,1.62c-0.37,0.85-0.24,2.04,0.25,2.96c0.51,0.95,2.42,2.8,3.8,2.61c0.81-0.11,1.58-0.5,2.39-0.77
					c1.15-0.38,2.07-0.81,3.1-1.24c1.21-0.5,2.47-0.88,3.67-1.41c2.58-1.16,5.19-2.26,7.73-3.5c1.67-0.82,3.36-1.6,5.05-2.38
					l-2.54-4.64C228.51,52.51,224.71,53.35,220.91,54.2z"/>
				<path class="st52" d="M236.3,50.99c-0.93,0.17-1.87,0.35-2.8,0.53c-0.39,0.08-0.78,0.16-1.17,0.23l2.54,4.64
					c1.34-0.62,2.67-1.25,4-1.89L236.3,50.99z"/>
			</g>
		</g>
	</g>
	<g>
		<path class="st3" d="M276.93,46.37l-12.8-4.89c-1.86-0.71-3.96,0.23-4.67,2.09v0c-0.71,1.86,0.23,3.96,2.09,4.67l12.8,4.89
			c1.86,0.71,3.96-0.23,4.67-2.09v0C279.73,49.18,278.79,47.08,276.93,46.37z"/>
		<path class="st58" d="M276.93,46.37l-6.4-2.44l-2.58,6.76l6.4,2.44c1.86,0.71,3.96-0.23,4.67-2.09
			C279.73,49.18,278.79,47.08,276.93,46.37z"/>
		<path class="st59" d="M274.98,51.48l-12.8-4.89c-1.57-0.6-2.49-2.2-2.3-3.81c-0.17,0.24-0.31,0.5-0.42,0.79
			c-0.71,1.86,0.23,3.96,2.09,4.67l12.8,4.89c1.86,0.71,3.96-0.23,4.67-2.09c0.11-0.29,0.18-0.58,0.21-0.87
			C278.31,51.5,276.56,52.08,274.98,51.48z"/>
		<path class="st60" d="M275.21,46.77l-10.57-4.04c-0.29-0.11-0.63,0.04-0.74,0.33c-0.11,0.29,0.04,0.63,0.33,0.74l10.57,4.04
			c0.29,0.11,0.63-0.04,0.74-0.33C275.65,47.21,275.5,46.88,275.21,46.77z"/>
	</g>
	<g>
		<path class="st61" d="M280.61,84.83c1.66-1.59,1.72-4.24,0.13-5.9L269.81,67.5c-1.59-1.66-4.24-1.72-5.9-0.13v0
			c-1.66,1.59-1.72,4.24-0.13,5.9l10.93,11.42C276.3,86.36,278.95,86.41,280.61,84.83L280.61,84.83z"/>
		<path class="st62" d="M280.74,78.92l-5.46-5.71l-6.03,5.77l5.46,5.71c1.59,1.66,4.24,1.72,5.9,0.13
			C282.27,83.24,282.33,80.58,280.74,78.92z"/>
		<path class="st63" d="M281.26,84.03c-1.62,0.92-3.73,0.66-5.08-0.74l-10.93-11.42c-1.34-1.4-1.51-3.52-0.52-5.11
			c-0.29,0.17-0.57,0.37-0.83,0.61c-1.66,1.59-1.72,4.24-0.13,5.9l10.93,11.42c1.59,1.66,4.24,1.72,5.9,0.13
			C280.87,84.58,281.08,84.31,281.26,84.03z"/>
		<path class="st60" d="M278.74,78.48l-9.03-9.43c-0.25-0.26-0.67-0.27-0.93-0.02c-0.26,0.25-0.27,0.67-0.02,0.93l9.03,9.43
			c0.25,0.26,0.67,0.27,0.93,0.02C278.99,79.17,278.99,78.75,278.74,78.48z"/>
	</g>
	<g>
		<g>
			<path class="st3" d="M308.86,75.14l5.36-4.81c0.16-0.15,0.42-0.13,0.56,0.03v0c0.15,0.16,0.13,0.42-0.03,0.56l-5.36,4.81
				c-0.16,0.15-0.42,0.13-0.56-0.03v0C308.68,75.54,308.69,75.29,308.86,75.14z"/>
		</g>
		<g>
			<path class="st3" d="M308.98,77.65L308.98,77.65c0.06-0.21,0.29-0.33,0.5-0.27l4.49,1.37c0.21,0.06,0.33,0.29,0.27,0.5l0,0
				c-0.06,0.21-0.29,0.33-0.5,0.27l-4.49-1.37C309.03,78.09,308.91,77.86,308.98,77.65z"/>
		</g>
		<g>
			<path class="st3" d="M304.13,82.91l1.71-4.34c0.08-0.21,0.31-0.31,0.52-0.23l0,0c0.21,0.08,0.31,0.31,0.23,0.52l-1.71,4.34
				c-0.08,0.21-0.31,0.31-0.52,0.23l0,0C304.15,83.35,304.05,83.12,304.13,82.91z"/>
		</g>
		<g>
			<path class="st3" d="M306.82,73.71l0.53-4.2c0.03-0.22,0.23-0.37,0.45-0.35l0,0c0.22,0.03,0.37,0.23,0.35,0.45l-0.53,4.2
				c-0.03,0.22-0.23,0.37-0.45,0.35l0,0C306.94,74.13,306.79,73.93,306.82,73.71z"/>
		</g>
		<g>
			<path class="st3" d="M300.09,72.48L300.09,72.48c0.12-0.19,0.36-0.24,0.55-0.13l4.49,2.8c0.19,0.12,0.24,0.36,0.13,0.55l0,0
				c-0.12,0.19-0.36,0.24-0.55,0.13l-4.49-2.8C300.03,72.91,299.97,72.67,300.09,72.48z"/>
		</g>
		<path class="st3" d="M308.93,78.09c0.01-0.01,0.02-0.02,0.03-0.03c0.02-0.02,0.04-0.05,0.06-0.07c0.01-0.01,0.02-0.03,0.03-0.04
			c0.01-0.02,0.03-0.03,0.04-0.05c0.01-0.01,0.02-0.03,0.03-0.04c0.01-0.02,0.03-0.04,0.04-0.06c0.01-0.02,0.03-0.05,0.04-0.07
			c0.01-0.02,0.02-0.03,0.03-0.05c0.01-0.02,0.02-0.04,0.03-0.05c0.01-0.01,0.01-0.03,0.02-0.04c0.04-0.07,0.07-0.14,0.1-0.21
			c0-0.01,0.01-0.02,0.01-0.03c0.01-0.02,0.02-0.05,0.03-0.07c0-0.01,0.01-0.02,0.01-0.02c0.03-0.08,0.05-0.16,0.07-0.24
			c0-0.01,0-0.01,0-0.02c0.03-0.12,0.05-0.23,0.06-0.35c0,0,0,0,0-0.01c0.01-0.09,0.01-0.18,0.02-0.27c0,0,0,0,0,0
			c0-0.4-0.09-0.81-0.28-1.2c-0.65-1.31-2.25-1.85-3.55-1.2c-0.55,0.28-0.97,0.72-1.21,1.25c0,0,0,0,0,0.01
			c-0.01,0.03-0.02,0.05-0.04,0.08c0,0,0,0,0,0.01c-0.03,0.08-0.06,0.16-0.09,0.25c0,0.01,0,0.02-0.01,0.02
			c-0.01,0.03-0.01,0.05-0.02,0.08c0,0.01,0,0.01-0.01,0.02c-0.01,0.05-0.02,0.1-0.03,0.14c0,0.01,0,0.02-0.01,0.03
			c0,0.02-0.01,0.05-0.01,0.07c0,0.01,0,0.03-0.01,0.04c0,0.02-0.01,0.04-0.01,0.06c0,0.02,0,0.03-0.01,0.05
			c0,0.03-0.01,0.06-0.01,0.1c0,0.02,0,0.04,0,0.06c0,0.02,0,0.04,0,0.06c0,0.02,0,0.04,0,0.06c0,0.02,0,0.03,0,0.05
			c0,0.03,0,0.07,0,0.1c0,0.01,0,0.03,0,0.04c0,0.03,0,0.05,0.01,0.08c0,0.02,0,0.03,0.01,0.05c0,0.03,0.01,0.05,0.01,0.08
			c0,0.01,0,0.02,0.01,0.04c0.01,0.04,0.01,0.07,0.02,0.11c0,0.01,0.01,0.02,0.01,0.03c0.01,0.03,0.01,0.06,0.02,0.08
			c0,0.01,0.01,0.02,0.01,0.04c0.01,0.03,0.02,0.06,0.03,0.1c0,0.01,0,0.01,0.01,0.02c0.01,0.04,0.03,0.07,0.04,0.11
			c0,0.01,0.01,0.02,0.01,0.03c0.01,0.03,0.02,0.06,0.03,0.08c0,0.01,0.01,0.02,0.01,0.03c0.02,0.04,0.03,0.07,0.05,0.11
			c0.04,0.08,0.09,0.16,0.13,0.24c0.24,0.38,0.56,0.68,0.93,0.89c0.15,0.08,0.3,0.15,0.46,0.21c0.07,0.02,0.15,0.05,0.22,0.06
			c0.13,0.03,0.27,0.06,0.41,0.07c0.08,0.01,0.17,0.01,0.25,0.01c0.04,0,0.09,0,0.13,0c0.34-0.02,0.69-0.11,1.01-0.27c0,0,0,0,0,0
			c0.04-0.02,0.07-0.04,0.11-0.06c0.01-0.01,0.02-0.01,0.03-0.02c0.03-0.02,0.05-0.03,0.08-0.05c0.01-0.01,0.02-0.01,0.03-0.02
			c0.03-0.02,0.07-0.04,0.1-0.07c0.01,0,0.01-0.01,0.02-0.01c0.03-0.02,0.05-0.04,0.08-0.06c0.01-0.01,0.02-0.02,0.03-0.02
			c0.02-0.02,0.05-0.04,0.07-0.06c0.01-0.01,0.02-0.01,0.02-0.02c0.03-0.02,0.06-0.05,0.08-0.08c0.01-0.01,0.02-0.02,0.03-0.03
			c0.02-0.02,0.04-0.04,0.06-0.06c0.01-0.01,0.02-0.02,0.03-0.03C308.89,78.13,308.91,78.11,308.93,78.09z"/>
		<g>
			<path class="st3" d="M300.57,72.98c0,0,0.01-0.01,0.01-0.01c0.03-0.03,0.05-0.07,0.07-0.1c0,0,0-0.01,0.01-0.01
				c0.02-0.03,0.04-0.06,0.06-0.1c0,0,0.01-0.01,0.01-0.01c0.04-0.07,0.08-0.15,0.11-0.23c0,0,0-0.01,0-0.01
				c0.03-0.08,0.06-0.16,0.08-0.24c0,0,0,0,0-0.01c0.02-0.08,0.04-0.17,0.05-0.26c0,0,0,0,0,0c0.01-0.09,0.01-0.18,0.01-0.27v0l0,0
				c-0.01-0.27-0.07-0.54-0.2-0.79c-0.47-0.94-1.61-1.33-2.55-0.86c-0.42,0.21-0.73,0.55-0.9,0.96c0,0,0,0,0,0
				c-0.03,0.08-0.06,0.17-0.09,0.25c0,0,0,0,0,0.01c-0.01,0.04-0.02,0.08-0.03,0.12c0,0,0,0,0,0.01c-0.01,0.04-0.01,0.09-0.02,0.13
				c0,0,0,0.01,0,0.01c0,0.04-0.01,0.08-0.01,0.12c0,0.01,0,0.01,0,0.02c0,0.04,0,0.08,0,0.13c0,0,0,0.01,0,0.01
				c0,0.04,0,0.07,0.01,0.11c0,0.01,0,0.02,0,0.02c0,0.04,0.01,0.08,0.02,0.12c0,0,0,0.01,0,0.01c0.01,0.04,0.01,0.07,0.02,0.11
				c0,0.01,0,0.02,0.01,0.03c0.01,0.04,0.02,0.08,0.03,0.12c0,0,0,0.01,0,0.01c0.01,0.04,0.03,0.07,0.04,0.11
				c0,0.01,0.01,0.02,0.01,0.03c0.02,0.04,0.03,0.08,0.05,0.12c0.19,0.38,0.49,0.67,0.85,0.85c0.05,0.03,0.11,0.05,0.17,0.07
				c0.06,0.02,0.11,0.04,0.17,0.06c0.09,0.03,0.18,0.04,0.27,0.06c0.03,0,0.06,0.01,0.09,0.01c0.03,0,0.06,0,0.09,0.01
				c0.31,0.01,0.62-0.05,0.91-0.2c0.04-0.02,0.07-0.04,0.11-0.06c0.01-0.01,0.02-0.01,0.03-0.02c0.03-0.02,0.06-0.04,0.09-0.06
				c0,0,0.01,0,0.01-0.01c0.03-0.02,0.07-0.05,0.1-0.07c0.01-0.01,0.01-0.01,0.02-0.02c0.03-0.02,0.05-0.05,0.08-0.07
				c0,0,0.01-0.01,0.01-0.01c0.03-0.03,0.06-0.06,0.09-0.09c0.01-0.01,0.01-0.01,0.02-0.02C300.52,73.03,300.54,73,300.57,72.98z"/>
			<path class="st3" d="M315.92,78.55c-0.43-0.87-1.49-1.22-2.35-0.79c-0.28,0.14-0.51,0.35-0.68,0.59c0,0,0,0,0,0
				c-0.06,0.1-0.12,0.2-0.16,0.3c0,0,0,0.01,0,0.01c-0.01,0.02-0.01,0.04-0.02,0.06c0,0,0,0.01-0.01,0.01
				c-0.01,0.02-0.01,0.04-0.02,0.06c0,0,0,0.01,0,0.01c-0.02,0.06-0.03,0.12-0.05,0.18c0,0.01,0,0.01,0,0.02
				c0,0.02-0.01,0.03-0.01,0.05c0,0.01,0,0.02,0,0.03c0,0.01,0,0.03-0.01,0.05c0,0.01,0,0.02,0,0.03c0,0.01,0,0.03,0,0.04
				c0,0.01,0,0.02,0,0.04c0,0.02,0,0.03,0,0.05c0,0.02,0,0.04,0,0.06c0,0.01,0,0.02,0,0.04c0,0.01,0,0.03,0,0.04
				c0,0.01,0,0.02,0,0.04c0,0.01,0,0.03,0,0.04c0,0.01,0,0.02,0,0.03c0,0.02,0,0.03,0.01,0.05c0,0.01,0,0.02,0,0.03
				c0,0.02,0.01,0.04,0.01,0.06c0,0.01,0,0.01,0,0.02c0.01,0.03,0.01,0.05,0.02,0.08c0,0.01,0,0.02,0.01,0.03
				c0,0.02,0.01,0.04,0.02,0.05c0,0.01,0.01,0.02,0.01,0.03c0.01,0.02,0.01,0.03,0.02,0.05c0,0.01,0.01,0.02,0.01,0.03
				c0.01,0.02,0.01,0.03,0.02,0.05c0,0.01,0.01,0.02,0.01,0.02c0.01,0.03,0.02,0.05,0.04,0.08c0,0,0,0,0,0
				c0.18,0.35,0.45,0.62,0.78,0.78c0.03,0.01,0.05,0.02,0.08,0.04c0.21,0.09,0.43,0.14,0.65,0.15c0.08,0,0.17,0,0.26-0.01
				c0.06-0.01,0.11-0.02,0.17-0.03c0.14-0.03,0.28-0.08,0.42-0.15c0.03-0.02,0.06-0.03,0.09-0.05c0.01-0.01,0.02-0.01,0.03-0.02
				c0.02-0.01,0.04-0.02,0.06-0.04c0.01-0.01,0.02-0.01,0.03-0.02c0.02-0.01,0.04-0.03,0.06-0.04c0.01-0.01,0.02-0.01,0.03-0.02
				c0.03-0.02,0.05-0.04,0.08-0.06c0,0,0,0,0,0c0.03-0.02,0.05-0.04,0.07-0.07c0.01-0.01,0.01-0.01,0.02-0.02
				c0.02-0.02,0.03-0.03,0.05-0.05c0.01-0.01,0.02-0.02,0.02-0.03c0.02-0.02,0.03-0.03,0.04-0.05c0.01-0.01,0.01-0.02,0.02-0.02
				c0.02-0.03,0.04-0.05,0.06-0.08c0,0,0,0,0,0c0.02-0.03,0.04-0.05,0.05-0.08c0.01-0.01,0.01-0.02,0.01-0.02
				c0.01-0.02,0.02-0.04,0.03-0.06c0.01-0.01,0.01-0.02,0.02-0.03c0.01-0.02,0.02-0.04,0.03-0.06c0-0.01,0.01-0.02,0.01-0.03
				c0.03-0.06,0.05-0.12,0.07-0.18c0-0.01,0.01-0.02,0.01-0.03c0.01-0.02,0.01-0.04,0.02-0.07c0-0.01,0.01-0.02,0.01-0.03
				c0.01-0.02,0.01-0.05,0.02-0.07c0-0.01,0-0.02,0.01-0.03c0.01-0.03,0.01-0.06,0.02-0.1c0,0,0,0,0,0v0
				C316.14,79.23,316.09,78.87,315.92,78.55z"/>
			<path class="st3" d="M308.97,67.99c-0.34-0.69-1.18-0.97-1.87-0.63c-0.23,0.11-0.41,0.28-0.54,0.47c0,0,0,0,0,0
				c-0.06,0.09-0.11,0.19-0.15,0.29c0,0,0,0,0,0.01c-0.02,0.07-0.04,0.14-0.06,0.21c0,0,0,0,0,0.01c-0.01,0.03-0.01,0.07-0.02,0.1
				c0,0,0,0.01,0,0.01c-0.01,0.07-0.01,0.14-0.01,0.21c0,0,0,0.01,0,0.01c0,0.03,0,0.07,0.01,0.1c0,0.01,0,0.01,0,0.02
				c0,0.03,0.01,0.07,0.02,0.1c0,0,0,0,0,0c0.01,0.03,0.02,0.07,0.03,0.1c0,0.01,0,0.01,0.01,0.02c0.01,0.03,0.02,0.06,0.03,0.1
				c0,0.01,0,0.01,0.01,0.02c0.01,0.03,0.03,0.07,0.04,0.1c0.19,0.39,0.54,0.65,0.94,0.74c0.02,0.01,0.04,0.01,0.07,0.01
				c0.09,0.02,0.18,0.02,0.27,0.02c0.2,0,0.41-0.05,0.6-0.15c0.02-0.01,0.05-0.03,0.07-0.04c0.01,0,0.01-0.01,0.02-0.01
				c0.02-0.01,0.03-0.02,0.05-0.03c0.01-0.01,0.02-0.01,0.02-0.02c0.02-0.01,0.03-0.02,0.05-0.03c0.01,0,0.01-0.01,0.02-0.01
				c0.02-0.02,0.04-0.03,0.06-0.05c0,0,0,0,0,0c0.02-0.02,0.04-0.04,0.06-0.05c0.01-0.01,0.01-0.01,0.02-0.02
				c0.01-0.01,0.03-0.03,0.04-0.04c0.01-0.01,0.01-0.01,0.02-0.02c0.01-0.01,0.02-0.03,0.04-0.04c0.01-0.01,0.01-0.01,0.01-0.02
				c0.02-0.02,0.03-0.04,0.05-0.06c0,0,0,0,0,0c0.01-0.02,0.03-0.04,0.04-0.06c0-0.01,0.01-0.01,0.01-0.02
				c0.01-0.02,0.02-0.03,0.03-0.05c0-0.01,0.01-0.02,0.01-0.02c0.01-0.02,0.02-0.03,0.02-0.05c0-0.01,0.01-0.01,0.01-0.02
				c0.02-0.05,0.04-0.09,0.06-0.14c0-0.01,0-0.01,0.01-0.02c0.01-0.02,0.01-0.04,0.02-0.05c0-0.01,0-0.02,0.01-0.02
				c0-0.02,0.01-0.04,0.01-0.05c0-0.01,0-0.01,0-0.02c0-0.03,0.01-0.05,0.01-0.08c0,0,0,0,0,0l0,0
				C309.14,68.53,309.1,68.25,308.97,67.99z"/>
			<path class="st3" d="M316.76,70.74c0.02-0.02,0.03-0.03,0.05-0.05c0.01-0.01,0.01-0.02,0.02-0.02c0.02-0.02,0.03-0.03,0.04-0.05
				c0.01-0.01,0.01-0.02,0.02-0.02c0.02-0.03,0.04-0.05,0.06-0.08c0,0,0,0,0,0c0.02-0.03,0.04-0.05,0.05-0.08
				c0-0.01,0.01-0.02,0.01-0.02c0.01-0.02,0.02-0.04,0.03-0.06c0.01-0.01,0.01-0.02,0.02-0.03c0.01-0.02,0.02-0.04,0.03-0.06
				c0-0.01,0.01-0.02,0.01-0.03c0.03-0.06,0.05-0.12,0.07-0.18c0-0.01,0.01-0.02,0.01-0.03c0.01-0.02,0.01-0.04,0.02-0.07
				c0-0.01,0.01-0.02,0.01-0.03c0.01-0.02,0.01-0.04,0.02-0.07c0-0.01,0-0.02,0.01-0.03c0.07-0.36,0.02-0.75-0.15-1.1
				c-0.43-0.86-1.48-1.21-2.34-0.78c-0.15,0.07-0.28,0.17-0.4,0.27v0c0,0,0,0,0,0c-0.11,0.1-0.2,0.2-0.27,0.32c0,0,0,0,0,0
				c-0.06,0.09-0.12,0.19-0.16,0.3c0,0,0,0.01,0,0.01c-0.01,0.02-0.01,0.04-0.02,0.05c0,0,0,0.01-0.01,0.01
				c-0.01,0.02-0.01,0.04-0.02,0.06c0,0,0,0.01,0,0.01c-0.02,0.06-0.03,0.12-0.05,0.18c0,0.01,0,0.01,0,0.02
				c0,0.02-0.01,0.03-0.01,0.05c0,0.01,0,0.02,0,0.03c0,0.01,0,0.03-0.01,0.04c0,0.01,0,0.02,0,0.03c0,0.01,0,0.03,0,0.04
				c0,0.01,0,0.02,0,0.04c0,0.02,0,0.03,0,0.05c0,0.02,0,0.04,0,0.06c0,0.01,0,0.02,0,0.03c0,0.01,0,0.03,0,0.04
				c0,0.01,0,0.02,0,0.04c0,0.01,0,0.03,0,0.04c0,0.01,0,0.02,0,0.03c0,0.02,0,0.03,0.01,0.05c0,0.01,0,0.02,0,0.03
				c0,0.02,0.01,0.04,0.01,0.06c0,0.01,0,0.01,0,0.02c0.01,0.03,0.01,0.05,0.02,0.08c0,0.01,0,0.02,0.01,0.03
				c0,0.02,0.01,0.04,0.02,0.05c0,0.01,0.01,0.02,0.01,0.03c0.01,0.02,0.01,0.03,0.02,0.05c0,0.01,0.01,0.02,0.01,0.03
				c0.01,0.02,0.01,0.03,0.02,0.05c0,0.01,0.01,0.02,0.01,0.02c0.01,0.03,0.02,0.05,0.04,0.08c0.03,0.05,0.06,0.11,0.09,0.16
				c0.06,0.1,0.13,0.19,0.21,0.27c0.06,0.06,0.12,0.12,0.19,0.17c0.18,0.14,0.38,0.24,0.6,0.3c0.03,0.01,0.05,0.01,0.08,0.02
				c0.16,0.04,0.33,0.05,0.5,0.04c0,0,0.01,0,0.01,0c0.22-0.01,0.45-0.07,0.66-0.18c0.03-0.02,0.06-0.03,0.09-0.05
				c0.01-0.01,0.02-0.01,0.03-0.02c0.02-0.01,0.04-0.02,0.06-0.04c0.01-0.01,0.02-0.01,0.03-0.02c0.02-0.01,0.04-0.03,0.06-0.04
				c0.01-0.01,0.02-0.01,0.02-0.02c0.03-0.02,0.05-0.04,0.08-0.06c0,0,0,0,0,0c0.02-0.02,0.05-0.04,0.07-0.07
				C316.75,70.76,316.76,70.75,316.76,70.74z"/>
			<path class="st3" d="M305.36,85.6c0.02-0.02,0.04-0.04,0.05-0.06c0.01-0.01,0.02-0.02,0.02-0.03c0.02-0.03,0.05-0.06,0.07-0.09
				c0,0,0,0,0,0c0.02-0.03,0.04-0.07,0.06-0.1c0.01-0.01,0.01-0.02,0.02-0.03c0.01-0.02,0.03-0.05,0.04-0.07
				c0.01-0.01,0.01-0.02,0.02-0.03c0.01-0.02,0.03-0.05,0.04-0.07c0-0.01,0.01-0.02,0.01-0.03c0.03-0.07,0.06-0.14,0.08-0.22
				c0-0.01,0.01-0.02,0.01-0.03c0.01-0.03,0.02-0.05,0.02-0.08c0-0.01,0.01-0.02,0.01-0.04c0.01-0.03,0.01-0.05,0.02-0.08
				c0-0.01,0-0.02,0.01-0.03c0.08-0.44,0.03-0.91-0.19-1.34c-0.52-1.05-1.8-1.48-2.85-0.95c-0.34,0.17-0.62,0.42-0.82,0.72
				c0,0,0,0,0,0c-0.08,0.12-0.14,0.24-0.19,0.36c0,0,0,0.01-0.01,0.01c-0.01,0.02-0.02,0.04-0.03,0.07c0,0.01,0,0.01-0.01,0.02
				c-0.01,0.02-0.02,0.04-0.02,0.07c0,0,0,0.01,0,0.01c-0.02,0.07-0.04,0.14-0.06,0.21c0,0.01,0,0.02-0.01,0.03
				c0,0.02-0.01,0.04-0.01,0.06c0,0.01,0,0.02-0.01,0.04c0,0.02-0.01,0.04-0.01,0.05c0,0.01,0,0.03,0,0.04c0,0.02,0,0.03,0,0.05
				c0,0.01,0,0.03,0,0.04c0,0.02,0,0.04,0,0.06c0,0.02,0,0.05,0,0.07c0,0.01,0,0.03,0,0.04c0,0.02,0,0.04,0,0.05
				c0,0.01,0,0.03,0,0.04c0,0.02,0,0.04,0,0.05c0,0.01,0,0.03,0,0.04c0,0.02,0,0.04,0.01,0.06c0,0.01,0,0.03,0.01,0.04
				c0,0.02,0.01,0.05,0.01,0.07c0,0.01,0,0.01,0,0.02c0.01,0.03,0.01,0.06,0.02,0.09c0,0.01,0.01,0.02,0.01,0.03
				c0.01,0.02,0.01,0.04,0.02,0.06c0,0.01,0.01,0.02,0.01,0.04c0.01,0.02,0.01,0.04,0.02,0.06c0,0.01,0.01,0.02,0.01,0.03
				c0.01,0.02,0.02,0.04,0.03,0.06c0,0.01,0.01,0.02,0.01,0.03c0.01,0.03,0.03,0.06,0.04,0.09c0,0,0,0,0,0
				c0.2,0.39,0.5,0.7,0.85,0.9c0.36,0.2,0.77,0.3,1.18,0.27c0.07,0,0.14-0.01,0.21-0.02c0.21-0.03,0.41-0.1,0.61-0.2
				c0.04-0.02,0.07-0.04,0.11-0.06c0.01-0.01,0.02-0.01,0.03-0.02c0.02-0.01,0.05-0.03,0.07-0.05c0.01-0.01,0.02-0.02,0.04-0.02
				c0.02-0.02,0.05-0.03,0.07-0.05c0.01-0.01,0.02-0.01,0.03-0.02c0.03-0.02,0.06-0.05,0.09-0.08c0,0,0,0,0,0
				c0.03-0.03,0.06-0.05,0.09-0.08c0.01-0.01,0.02-0.02,0.03-0.03c0.02-0.02,0.04-0.04,0.06-0.06
				C305.34,85.62,305.35,85.61,305.36,85.6z"/>
		</g>
	</g>
	<g>
		<path class="st3" d="M290.89,61.26l3.26-5.71c0.94-1.65,0.37-3.78-1.29-4.72c-1.65-0.94-3.78-0.37-4.72,1.29l-3.09,5.41
			L290.89,61.26z"/>
		<path class="st3" d="M287.65,66.93l2.6-4.55l-5.84-3.73l-2.77,4.85c-0.94,1.65-0.37,3.78,1.29,4.72h0
			C284.58,69.16,286.71,68.58,287.65,66.93z"/>
	</g>
</g>
</svg>
