<?xml version="1.0" encoding="utf-8"?>
<!-- Generator: Adobe Illustrator 28.0.0, SVG Export Plug-In . SVG Version: 6.00 Build 0)  -->
<svg version="1.1" id="Layer_1" xmlns="http://www.w3.org/2000/svg" xmlns:xlink="http://www.w3.org/1999/xlink" x="0px" y="0px"
	 viewBox="0 0 595 170" style="enable-background:new 0 0 595 170;" xml:space="preserve">
<style type="text/css">
	.st0{fill:#CEECFB;}
	.st1{fill:#E6F5FC;}
	.st2{fill:#9BD4EE;}
	.st3{fill:#86C2E6;}
	.st4{fill:#2A3886;}
	.st5{fill:#283271;}
	.st6{fill:#2E4199;}
	.st7{fill:#6DC1E4;}
	.st8{fill:#6CA1D6;}
	.st9{fill:#568BC9;}
	.st10{fill:#3A4EA1;}
	.st11{fill:#16AFDA;}
	.st12{fill:#04A7A7;}
	.st13{fill:#30BEC7;}
	.st14{fill:none;stroke:#FFFFFF;stroke-width:0.9164;stroke-linecap:round;stroke-linejoin:round;stroke-miterlimit:10;}
	.st15{fill:none;stroke:#FFFFFF;stroke-width:0.9573;stroke-linecap:round;stroke-linejoin:round;stroke-miterlimit:10;}
	.st16{fill:none;stroke:#FFFFFF;stroke-width:0.9511;stroke-linecap:round;stroke-linejoin:round;stroke-miterlimit:10;}
	.st17{fill:none;stroke:#FFFFFF;stroke-width:0.953;stroke-linecap:round;stroke-linejoin:round;stroke-miterlimit:10;}
	.st18{fill:none;stroke:#FFFFFF;stroke-width:0.9572;stroke-linecap:round;stroke-linejoin:round;stroke-miterlimit:10;}
	.st19{fill:#4FC3CE;}
	.st20{fill:none;stroke:#FFFFFF;stroke-width:0.9507;stroke-linecap:round;stroke-linejoin:round;stroke-miterlimit:10;}
	.st21{fill:#FFC906;}
	.st22{fill:#D9AE28;}
	.st23{fill:#FFDE56;}
	.st24{fill:#203E51;}
	.st25{fill:#345370;}
	.st26{fill:#446B8B;}
	.st27{fill:#EC9882;}
	.st28{fill-rule:evenodd;clip-rule:evenodd;fill:#FFFFFF;}
	.st29{fill-rule:evenodd;clip-rule:evenodd;fill:#EC9882;}
	.st30{fill-rule:evenodd;clip-rule:evenodd;fill:#203E51;}
	.st31{fill-rule:evenodd;clip-rule:evenodd;fill:#F6BB9D;}
	.st32{fill-rule:evenodd;clip-rule:evenodd;fill:#345370;}
	.st33{fill:#F6BB9D;}
	.st34{fill:#FFFFFF;}
	.st35{fill-rule:evenodd;clip-rule:evenodd;fill:#446B8B;}
	.st36{fill-rule:evenodd;clip-rule:evenodd;fill:#FFDE56;}
	.st37{fill-rule:evenodd;clip-rule:evenodd;fill:#F3DB77;}
	.st38{fill:#96CFA0;}
	.st39{fill:none;stroke:#729F7D;stroke-width:0.9872;stroke-linecap:round;stroke-linejoin:round;stroke-miterlimit:10;}
	.st40{fill:none;stroke:#729F7D;stroke-width:0.7519;stroke-linecap:round;stroke-linejoin:round;stroke-miterlimit:10;}
	.st41{fill:#FDCE09;}
	.st42{fill:#FFF23E;}
	.st43{fill:#D6ECE6;}
	.st44{fill:#AEDCCE;}
	.st45{fill:#7DC9A9;}
	.st46{fill:#7ACEDB;}
	.st47{fill-rule:evenodd;clip-rule:evenodd;fill:#30BEC7;}
	.st48{fill-rule:evenodd;clip-rule:evenodd;fill:#4FC3CE;}
	.st49{fill-rule:evenodd;clip-rule:evenodd;fill:#0F385B;}
	.st50{fill:#1593B9;}
	.st51{fill:#77B8D2;}
</style>
<g>
	<rect class="st0" width="595" height="170"/>
	<path class="st1" d="M162.56,30.17c50.29-21.95,115.65-20.41,152.58,6.48c18.95,13.8,48.19,25.09,72.92,16.2
		c93.27-33.52,134.03,84.49,61.58,108.68c-1.93,0.64-309.16,1.99-312.72,0C87.9,134.28,88.82,62.35,162.56,30.17z"/>
	<path class="st2" d="M328.28,86.21c-5.73,0-11.17,1.27-16.05,3.53c-0.43-39.41-32.51-71.23-72.02-71.23
		c-32.99,0-60.8,22.18-69.33,52.44c-2.76-0.52-5.61-0.79-8.52-0.79c-25.52,0-46.2,20.69-46.2,46.21c0,25.52,20.69,46.21,46.2,46.21
		c13.44,0,61.34,0,77.85,0c20.94,0,72.3,0,88.07,0c21.09,0,38.18-17.09,38.18-38.18C366.46,103.31,349.37,86.21,328.28,86.21z"/>
	<g>
		<g>
			<g>
				<path class="st3" d="M310.13,152.63h-74.72c-1.12,0-2.04-0.91-2.04-2.04v-0.95c0-1.12,0.91-2.04,2.04-2.04h74.72
					c1.12,0,2.04,0.91,2.04,2.04v0.95C312.17,151.72,311.25,152.63,310.13,152.63z"/>
				<rect x="262.25" y="100.03" class="st3" width="29.23" height="48.61"/>
				<path class="st3" d="M320.84,104.07h-98.25c-1.44,0-2.62-1.17-2.62-2.62V31.07c0-1.44,1.17-2.62,2.62-2.62h98.25
					c1.44,0,2.62,1.17,2.62,2.62v70.38C323.45,102.9,322.28,104.07,320.84,104.07z"/>
				<rect x="249.64" y="100.03" class="st4" width="39.27" height="48.61"/>
				<rect x="249.64" y="100.03" class="st5" width="39.27" height="6.68"/>
				<path class="st6" d="M318.45,104.13H220.2c-1.44,0-2.62-1.17-2.62-2.62V31.13c0-1.44,1.17-2.62,2.62-2.62h98.25
					c1.44,0,2.62,1.17,2.62,2.62v70.38C321.07,102.95,319.9,104.13,318.45,104.13z"/>
				<path class="st4" d="M319.24,80.45c-7.48,11.06-19.07,16.56-19.7,16.85c-4.29,1.98-0.79,2.87-3.61,3.43
					c-8.68,1.7-21.76,2.73-34.55,3.35h57.13c1.42,0,2.58-1.15,2.58-2.58V77.44C320.53,78.45,319.92,79.46,319.24,80.45z"/>
				<path class="st7" d="M221.18,90.9V33.66c0-0.9,0.73-1.63,1.63-1.63h93.08c0.9,0,1.63,0.73,1.63,1.63V90.9
					c0,0.9-0.73,1.63-1.63,1.63h-93.08C221.91,92.53,221.18,91.8,221.18,90.9z"/>
				<path class="st8" d="M305.44,96.81h-6.12c-0.34,0-0.63-0.28-0.63-0.63v0c0-0.34,0.28-0.63,0.63-0.63h6.12
					c0.34,0,0.63,0.28,0.63,0.63l0,0C306.07,96.52,305.79,96.81,305.44,96.81z"/>
				<path class="st8" d="M312.45,96.81h-3.76c-0.34,0-0.63-0.28-0.63-0.63l0,0c0-0.34,0.28-0.63,0.63-0.63h3.76
					c0.34,0,0.63,0.28,0.63,0.63l0,0C313.07,96.52,312.79,96.81,312.45,96.81z"/>
				<path class="st8" d="M295.81,96.81h-4c-0.28,0-0.51-0.23-0.51-0.51v-0.24c0-0.28,0.23-0.51,0.51-0.51h4
					c0.28,0,0.51,0.23,0.51,0.51v0.24C296.32,96.58,296.09,96.81,295.81,96.81z"/>
				<path class="st9" d="M305.48,95.55h-0.25c0.05,0.08,0.07,0.18,0.07,0.28v0.07c0,0.32-0.27,0.59-0.59,0.59h-5.94
					c0.1,0.18,0.3,0.31,0.52,0.31h6.19c0.32,0,0.59-0.27,0.59-0.59v-0.07C306.07,95.82,305.8,95.55,305.48,95.55z"/>
				<path class="st9" d="M312.45,95.55h-0.23c0.06,0.09,0.09,0.2,0.09,0.32c0,0.34-0.28,0.63-0.63,0.63h-3.53
					c0.11,0.18,0.31,0.31,0.54,0.31h3.76c0.34,0,0.63-0.28,0.63-0.63C313.07,95.83,312.79,95.55,312.45,95.55z"/>
				<path class="st9" d="M295.69,95.55h-0.23c0.06,0.09,0.09,0.2,0.09,0.32c0,0.34-0.28,0.63-0.63,0.63h-3.53
					c0.11,0.18,0.31,0.31,0.54,0.31h3.76c0.34,0,0.63-0.28,0.63-0.63C296.32,95.83,296.04,95.55,295.69,95.55z"/>
				<path class="st6" d="M306.63,152.63h-74.72c-1.12,0-2.04-0.91-2.04-2.04v-0.95c0-1.12,0.91-2.04,2.04-2.04h74.72
					c1.12,0,2.04,0.91,2.04,2.04v0.95C308.67,151.72,307.76,152.63,306.63,152.63z"/>
				<path class="st4" d="M306.16,147.61h-12.35c1.39,0,2.51,1.12,2.51,2.51l0,0c0,1.39-1.12,2.51-2.51,2.51h12.35
					c1.39,0,2.51-1.12,2.51-2.51l0,0C308.67,148.73,307.54,147.61,306.16,147.61z"/>
				<path class="st10" d="M262.47,149.88h-29.68c-0.34,0-0.62-0.28-0.62-0.62l0,0c0-0.34,0.28-0.62,0.62-0.62h29.68
					c0.34,0,0.62,0.28,0.62,0.62l0,0C263.1,149.6,262.82,149.88,262.47,149.88z"/>
				<polygon class="st11" points="247.22,32.03 221.18,61.26 221.18,76.4 253.46,32.03 				"/>
				<path class="st11" d="M315.92,32.03h-1.38c-1.4,11.01-3.68,19.94-5.73,26.49c-3.62,11.63-7.02,17.5-12.21,22.06
					c0,0,2.96,3.76-3.04,6.21c-6.57,2.68-18.64,4.66-34.87,5.74h57.23c0.89,0,1.6-0.72,1.6-1.6v-57.3
					C317.53,32.74,316.81,32.03,315.92,32.03z"/>
				<path class="st11" d="M315.92,32.03h-93.13c-0.89,0-1.6,0.72-1.6,1.6v0.13h92.35c0.89,0,1.6,0.72,1.6,1.6v57.17h0.79
					c0.89,0,1.6-0.72,1.6-1.6v-57.3C317.53,32.74,316.81,32.03,315.92,32.03z"/>
			</g>
		</g>
	</g>
	<g>
		<g>
			<path class="st12" d="M442.75,155.04c0,0-14.8-36.14,19.08-62.06C461.83,92.98,479.82,127.57,442.75,155.04z"/>
			<g>
				<path class="st13" d="M437.03,159c0,0,8.1-51,56.27-52.58C493.29,106.42,491.38,152.62,437.03,159z"/>
				<path class="st14" d="M437.03,159c0,0,35.29-42.79,56.27-52.58"/>
				<line class="st15" x1="474.49" y1="119.87" x2="474.9" y2="109.87"/>
				<line class="st16" x1="458.89" y1="134.64" x2="460.2" y2="118.23"/>
				<line class="st17" x1="469.75" y1="124.01" x2="488.98" y2="124.94"/>
				<line class="st18" x1="453.92" y1="140.12" x2="476.67" y2="141.67"/>
			</g>
		</g>
		<g>
			<path class="st19" d="M473.16,152.64c-2.01,0-3.88,0.57-5.47,1.56c-2.73-3.74-7.15-6.17-12.13-6.17
				c-6.21,0-11.54,3.77-13.83,9.14c-1.4-1.26-3.26-2.03-5.29-2.03c-4.37,0-7.91,3.54-7.91,7.91h12h3.82h18.4h7.83h13v0
				C483.58,157.3,478.91,152.64,473.16,152.64z"/>
			<path class="st16" d="M452.8,163.34c0,0,2.34-12.31,3.93-15.31"/>
			<line class="st16" x1="453.39" y1="160.43" x2="465.69" y2="151.97"/>
			<line class="st16" x1="446.94" y1="150.44" x2="454.32" y2="156.16"/>
			<line class="st16" x1="469.91" y1="163.34" x2="479.22" y2="154.58"/>
			<line class="st20" x1="471.73" y1="152.44" x2="474.16" y2="159.34"/>
			<line class="st20" x1="438.03" y1="163.05" x2="433.14" y2="155.54"/>
		</g>
	</g>
	<g>
		<g>
			<path class="st21" d="M302.33,152.04h138.03c3.21,0,5.81-2.6,5.81-5.81v-7.06c0-3.21-2.6-5.81-5.81-5.81H302.33
				c-3.21,0-5.81,2.6-5.81,5.81v7.06C296.53,149.44,299.13,152.04,302.33,152.04z"/>
			<path class="st21" d="M333.77,133.36h106.59c3.21,0,5.81-2.6,5.81-5.81v-23c0-3.21-2.6-5.81-5.81-5.81H333.77
				c-3.21,0-5.81,2.6-5.81,5.81v23C327.96,130.76,330.56,133.36,333.77,133.36z"/>
			<path class="st22" d="M438.08,133.36h2.28c3.21,0,5.81-2.6,5.81-5.81v-23c0-3.21-2.6-5.81-5.81-5.81h-2.28
				c-3.21,0-5.81,2.6-5.81,5.81v23C432.28,130.76,434.88,133.36,438.08,133.36z"/>
			<path class="st22" d="M440.36,133.36h-33.71c-3.21,0-5.81,2.6-5.81,5.81v7.06c0,3.21,2.6,5.81,5.81,5.81h33.71
				c3.21,0,5.81-2.6,5.81-5.81v-7.06C446.17,135.96,443.57,133.36,440.36,133.36z"/>
			<path class="st23" d="M354.49,152.04h40.54c3.21,0,5.81-2.6,5.81-5.81v-7.06c0-3.21-2.6-5.81-5.81-5.81h-40.54
				c-3.21,0-5.81,2.6-5.81,5.81v7.06C348.69,149.44,351.29,152.04,354.49,152.04z"/>
			<path class="st23" d="M302.33,152.04h40.54c3.21,0,5.81-2.6,5.81-5.81v-7.06c0-3.21-2.6-5.81-5.81-5.81h-40.54
				c-3.21,0-5.81,2.6-5.81,5.81v7.06C296.53,149.44,299.13,152.04,302.33,152.04z"/>
			<path class="st23" d="M385.93,133.36h40.54c3.21,0,5.81-2.6,5.81-5.81v-23c0-3.21-2.6-5.81-5.81-5.81h-40.54
				c-3.21,0-5.81,2.6-5.81,5.81v23C380.12,130.76,382.72,133.36,385.93,133.36z"/>
			<path class="st23" d="M333.77,133.36h40.54c3.21,0,5.81-2.6,5.81-5.81v-23c0-3.21-2.6-5.81-5.81-5.81h-40.54
				c-3.21,0-5.81,2.6-5.81,5.81v23C327.96,130.76,330.56,133.36,333.77,133.36z"/>
			
				<rect x="436.57" y="152.04" transform="matrix(-1 -4.400581e-11 4.400581e-11 -1 876.1222 314.8298)" class="st24" width="2.98" height="10.75"/>
			
				<rect x="433.17" y="152.04" transform="matrix(-1 -4.599222e-11 4.599222e-11 -1 869.7447 314.8298)" class="st25" width="3.4" height="10.75"/>
			
				<rect x="406.41" y="152.04" transform="matrix(-1 -4.522794e-11 4.522794e-11 -1 815.7944 314.8298)" class="st24" width="2.98" height="10.75"/>
			
				<rect x="403.01" y="152.04" transform="matrix(-1 -4.492241e-11 4.492241e-11 -1 809.4169 314.8298)" class="st26" width="3.4" height="10.75"/>
			
				<rect x="335.67" y="152.04" transform="matrix(-1 -4.522839e-11 4.522839e-11 -1 674.3208 314.8298)" class="st24" width="2.98" height="10.75"/>
			
				<rect x="332.27" y="152.04" transform="matrix(-1 -4.492241e-11 4.492241e-11 -1 667.9434 314.8298)" class="st25" width="3.4" height="10.75"/>
			
				<rect x="305.51" y="152.04" transform="matrix(-1 -4.522794e-11 4.522794e-11 -1 613.993 314.8298)" class="st24" width="2.98" height="10.75"/>
			
				<rect x="302.11" y="152.04" transform="matrix(-1 -4.492241e-11 4.492241e-11 -1 607.6155 314.8298)" class="st26" width="3.4" height="10.75"/>
			
				<rect x="406.41" y="152.04" transform="matrix(-1 -4.484336e-11 4.484336e-11 -1 845.9583 307.0363)" class="st24" width="33.14" height="2.96"/>
			
				<rect x="302.11" y="152.04" transform="matrix(-1 -4.490731e-11 4.490731e-11 -1 708.5162 307.0363)" class="st26" width="104.3" height="2.96"/>
		</g>
		<g>
			<path class="st27" d="M366.7,116.23c-2.86,3.5-4.12-0.01-3.53-3.91c0.58-3.76,1.65-6.94,3.34-10.36
				c1.01-2.05,4.75-11.13,7.62-8.93c2.68,2.05-0.79,10.49-1.71,12.96C371.1,109.53,369.27,113.1,366.7,116.23z"/>
			<path class="st27" d="M344.69,102.66c0.12-0.09-2.31-1.7-1.52-1.95c0.45-0.14,2.18,1.12,2.98,2.01c1.62,1.79,3.91,3.03,6.9,4.15
				c3.73,1.39,5.61,1.73,8.87,3.19c2.54,1.14,2.85,1.07,4.61,3.31c1.44,1.83-0.6,4.68-2.9,4.37c-2.55-0.34-11.51-6.43-13.97-8.1
				c-2.17-1.47-4.56-2.62-6.92-3.78c-1.29-0.64-4.81-3.66-4.19-4.45c1.05-1.35,2.13-0.68,4.14,0.67
				C343.34,102.54,344.18,103.03,344.69,102.66z"/>
			<path class="st28" d="M367.67,102.01c0.26-4.09,1.92-7.86,5.43-10.37c2.99-2.14,4.17-2.45,7.19-1.43
				c6.96,2.34,7.8,27.52,7.51,33.56c-4.41,0.56-7.91,1.28-12.43,1.51c0.83-5.96-3.23-11.64-6.17-17.45
				C368.27,105.97,367.54,104.13,367.67,102.01z"/>
			<path class="st27" d="M372.9,94.73c0.58,0.8,2.45,0.45,4.18-0.79c1.73-1.24,2.67-2.9,2.1-3.7c-0.57-0.8-2.45-0.45-4.18,0.79
				C373.27,92.27,372.33,93.92,372.9,94.73z"/>
			<g>
				<g>
					<polygon class="st29" points="359.04,153.91 359.83,159.13 352.09,162.59 355.7,157.44 354.8,155.49 					"/>
					<path class="st30" d="M356.8,162.75l3.01-0.02c0,0,0.41-0.77,0.4-2.68c-0.01-1.92-0.01-1.8-0.01-1.8s-0.65-0.01-2.23,1.12
						c-1.26,0.9-4.28,0.84-5.28,1.14c-2.04,0.6-3.1,0.83-3.09,2.29l6.17-0.04c0,0,0.45-0.97,1.1-0.97
						C356.85,162.14,356.8,162.75,356.8,162.75z"/>
					<path class="st30" d="M372.76,122.39c0,0-22.03-0.78-25.45,2.88c-3.42,3.66,7.19,30.22,7.19,30.22l5.26,0.6
						c0,0-1.43-17.05-5.41-21.43c0,0,28.05-0.7,28.43-10.89L372.76,122.39z"/>
				</g>
				<g>
					<polygon class="st31" points="364.07,153.91 364.86,159.13 357.11,162.59 360.73,157.44 359.67,155.49 					"/>
					<path class="st32" d="M375.38,120.93c0,0-19.2,0.7-23.04,4.34c-3.63,3.45,7.04,30.22,7.04,30.22l5.41,0.6
						c0,0-1.06-19.02-5.41-21.43c0,0,30.36,4.55,28.43-10.89L375.38,120.93z"/>
					<path class="st32" d="M361.83,162.75l3.01-0.02c0,0,0.41-0.77,0.4-2.68c-0.01-1.92-0.01-1.8-0.01-1.8s-0.65-0.01-2.23,1.12
						c-1.26,0.9-4.28,0.84-5.28,1.14c-2.04,0.6-3.1,0.83-3.09,2.29l6.17-0.04c0,0,0.45-0.97,1.1-0.97
						C361.88,162.14,361.83,162.75,361.83,162.75z"/>
				</g>
			</g>
			<g>
				<path class="st30" d="M375.29,72.38c-1.86,0.09-4.42,0.59-5.87,1.88c-1.46,1.29-1.56,3.34-1.42,5.15
					c0.1,1.35,0.23,2.82,0.55,4.13c0.27,1.1,1.4,1.58,2.39,1.85c2.11,0.56,4.46,0.54,6.62,0.33c1.62-0.16,3.18-1.36,3.98-2.72
					c1.01-1.72,0.3-3.89-0.38-5.61c-0.59-1.48-1.4-2.84-2.62-3.9c-0.62-0.54-1.41-0.92-2.23-1.06
					C376.12,72.39,375.49,72.37,375.29,72.38z"/>
				
					<rect x="374.38" y="77.9" transform="matrix(0.9863 -0.165 0.165 0.9863 -8.7799 63.2294)" class="st29" width="3.56" height="13.12"/>
				<path class="st33" d="M376.04,74.79c-5.91-2.39-8.91,4.3-7.87,9.77c0.29,1.53,1.09,3.57,1.89,3.61
					c1.58,0.08,2.86-0.42,4.14-0.93c2.42-0.96,3.7-2.7,4.75-5.15C380.17,79.23,378.69,75.86,376.04,74.79z"/>
				<path class="st30" d="M371.53,72.69c-2.14,0.98-0.69,3,0.32,4.61c0.46,0.73,1.2,1.41,1.99,1.77c1.04,0.47,2.14-0.01,3.22,0
					c0.75,0.01,1.69,0.18,1.73,1.07c0.1,2.05-1.3,1.87-1.31,1.87c-0.01,0,0.03,1.54,0.05,1.68c0.08,0.54,0.25,1.13,0.74,1.43
					c1.28,0.8,2.51-0.73,3.25-1.55c0.71-0.78,1.29-2.05,1.41-3.13c0.45-3.98-0.72-6.69-3.49-8.04c-0.81-0.39-1.77-0.6-2.67-0.65
					C375.34,71.68,372.88,72.19,371.53,72.69z"/>
				<path class="st30" d="M379.2,72.45c0.06-1.36,0.66-2.25,2.06-2.49c1.09-0.19,2.43,0.11,3.14,1.08c1.37,1.87,0.94,3.71-0.26,4.68
					c-0.59,0.47-1.29,0.49-1.96,0.21L379.2,72.45z"/>
				<path class="st34" d="M372.07,84.69c0,0-1.62-0.76-2.95-1.12C369.12,83.57,369.47,87.58,372.07,84.69z"/>
			</g>
			<path class="st31" d="M379.3,117.29c-1.9,4.1-4,1.02-4.39-2.91c-0.38-3.78-0.35-7.07,0.44-10.8c0.47-2.23,2.05-12.02,5.38-10.61
				c3.11,1.32,1.85,10.35,1.57,12.98C381.89,109.7,381,113.62,379.3,117.29z"/>
			<path class="st31" d="M353.59,115.37c0.05-0.14-2.24-0.91-2.18-1.23c0.09-0.47,2.45-0.08,3.58,0.31
				c2.29,0.78,4.89,0.75,8.05,0.27c3.94-0.59,5.74-1.46,9.3-1.77c2.78-0.24,3.7-0.34,5.42,1.02c1.82,1.45,1.98,4.26-0.18,5.11
				c-2.39,0.94-2.54,0.55-6.29,0.32c-2.97-0.18-6.9-0.34-9.86-0.61c-2.61-0.23-5.26-0.08-7.88,0.06c-1.44,0.07-5.72,0.22-6.09-1.27
				c-0.23-0.94,1.79-2.21,4.2-2C352.45,115.65,353.52,115.56,353.59,115.37z"/>
		</g>
	</g>
	<g>
		
			<rect x="424.17" y="84.52" transform="matrix(-1 -4.506008e-11 4.506008e-11 -1 851.6788 243.347)" class="st35" width="3.33" height="74.3"/>
		
			<rect x="425.96" y="84.52" transform="matrix(-1 -4.571200e-11 4.571200e-11 -1 852.991 243.347)" class="st30" width="1.07" height="74.3"/>
		<polygon class="st32" points="439.97,161.36 427.5,158.82 424.17,158.82 411.71,161.36 411.71,162.95 439.97,162.95 		"/>
		
			<rect x="411.71" y="161.36" transform="matrix(-1 -4.487356e-11 4.487356e-11 -1 851.6789 324.3078)" class="st30" width="28.25" height="1.59"/>
		<polygon class="st36" points="409.71,84.52 441.72,84.52 437.92,52.51 413.51,52.51 		"/>
		<polygon class="st30" points="427.03,158.82 425.96,158.82 430.35,161.36 436.5,161.36 		"/>
		<polygon class="st37" points="437.11,84.52 430.01,84.52 428.43,52.51 433.9,52.51 		"/>
	</g>
	<g>
		<path class="st38" d="M278.89,80.86c0,0-5.15-9.46,4.1-15.28s15.36-2.95,15.36-2.95s-6.41,4.12-7.41,10.26
			C289.67,80.66,284.88,82.95,278.89,80.86z"/>
		<path class="st39" d="M276.55,55.34c-1.29,14.85-2.07,19.57,0,34.33"/>
		<path class="st40" d="M294.61,63.56c0,0-15.05,5.06-18.06,26.11"/>
		<g>
			<g>
				<path class="st34" d="M277.51,44.31c0.72,3.94-0.39,5.84-2.14,6.16c-1.75,0.32-3.47-1.06-4.19-5s1.57-9.27,1.57-9.27
					S276.78,40.37,277.51,44.31z"/>
				<path class="st34" d="M274.42,63.19c-0.72-3.94,0.39-5.84,2.14-6.16c1.75-0.32,3.47,1.06,4.19,5c0.72,3.94-1.57,9.27-1.57,9.27
					S275.14,67.13,274.42,63.19z"/>
				<path class="st34" d="M285.4,55.29c-3.94,0.72-5.84-0.39-6.16-2.14c-0.32-1.75,1.06-3.47,5-4.19c3.94-0.72,9.27,1.57,9.27,1.57
					S289.34,54.57,285.4,55.29z"/>
				<path class="st34" d="M266.53,52.21c3.94-0.72,5.84,0.39,6.16,2.14c0.32,1.75-1.06,3.47-5,4.19c-3.94,0.72-9.27-1.57-9.27-1.57
					S262.58,52.93,266.53,52.21z"/>
				<path class="st34" d="M283.68,48.11c-2.25,3.32-4.38,3.89-5.85,2.89c-1.47-1-1.73-3.19,0.52-6.51c2.25-3.32,7.62-5.51,7.62-5.51
					S285.93,44.79,283.68,48.11z"/>
				<path class="st34" d="M268.24,59.4c2.25-3.32,4.38-3.89,5.85-2.89s1.73,3.19-0.52,6.51c-2.25,3.32-7.62,5.51-7.62,5.51
					S266,62.71,268.24,59.4z"/>
				<path class="st34" d="M281.61,61.47c-3.32-2.25-3.89-4.38-2.89-5.85c1-1.47,3.19-1.73,6.51,0.52c3.32,2.25,5.51,7.62,5.51,7.62
					S284.92,63.72,281.61,61.47z"/>
				<path class="st34" d="M270.32,46.03c3.32,2.25,3.89,4.38,2.89,5.85s-3.19,1.73-6.51-0.52c-3.32-2.25-5.51-7.62-5.51-7.62
					S267,43.78,270.32,46.03z"/>
			</g>
			<circle class="st41" cx="275.96" cy="53.75" r="5.4"/>
		</g>
	</g>
	<g>
		<g>
			<path class="st23" d="M259.97,70.85c-0.37,0.2-0.42,0.63-0.12,0.95c0.08,0.09,0.2,0.19,0.2,0.19l-0.67,2.13l0.43,0.13l0.67-2.13
				l0,0c0.2,0.03,0.41,0,0.58-0.09c0.37-0.2,0.42-0.63,0.12-0.95S260.34,70.65,259.97,70.85z"/>
			<path class="st23" d="M265.39,81.46c-0.11,0.08-0.22,0.19-0.22,0.19l-2.77-0.81l-0.13,0.43l2.77,0.81l0,0
				c-0.02,0.21,0.03,0.42,0.17,0.6c0.29,0.39,0.83,0.46,1.22,0.18c0.39-0.29,0.46-0.83,0.18-1.22
				C266.32,81.25,265.77,81.17,265.39,81.46z"/>
			<path class="st23" d="M263.98,73.08c-0.48,0.06-0.82,0.49-0.76,0.97c0.02,0.13,0.06,0.28,0.06,0.28l-2.09,2l0.31,0.32l2.09-2l0,0
				c0.17,0.12,0.38,0.18,0.6,0.15c0.48-0.06,0.82-0.49,0.76-0.97C264.89,73.36,264.45,73.02,263.98,73.08z"/>
			<path class="st23" d="M266.56,76.85c-0.42-0.15-0.89,0.12-1.06,0.61c-0.05,0.14-0.08,0.3-0.08,0.3l-2.6,1.03l0.11,0.44l2.6-1.03
				l0,0c0.09,0.19,0.24,0.34,0.43,0.41c0.42,0.15,0.89-0.12,1.06-0.61C267.18,77.51,266.98,77,266.56,76.85z"/>
			<path class="st23" d="M250.77,77.16c-0.17-0.45-0.68-0.67-1.13-0.5c-0.45,0.17-0.67,0.68-0.5,1.13c0.17,0.45,0.68,0.67,1.13,0.5
				c0.21-0.08,0.37-0.23,0.46-0.42l0,0l2.78,0.79l0.12-0.43l-2.78-0.79C250.85,77.43,250.82,77.28,250.77,77.16z"/>
			<path class="st23" d="M256.55,72.13c0.3-0.37,0.25-0.92-0.13-1.22c-0.37-0.3-0.92-0.25-1.22,0.13c-0.3,0.37-0.24,0.92,0.13,1.22
				c0.17,0.14,0.39,0.2,0.59,0.19l0,0l0.71,2.8l0.43-0.11l-0.71-2.8C256.35,72.34,256.46,72.23,256.55,72.13z"/>
			<path class="st23" d="M252.8,73.55c0.08-0.37-0.19-0.74-0.6-0.84s-0.82,0.12-0.9,0.49c-0.08,0.37,0.19,0.74,0.6,0.84
				c0.19,0.05,0.38,0.02,0.54-0.05l0,0l1.69,1.8l0.29-0.22l-1.69-1.8C252.73,73.77,252.78,73.66,252.8,73.55z"/>
			<path class="st23" d="M256.85,84.52l-0.43-0.12l-0.75,2.79c0,0-0.15,0.04-0.28,0.09c-0.45,0.18-0.66,0.69-0.48,1.13
				s0.69,0.66,1.13,0.48c0.45-0.18,0.66-0.69,0.48-1.13c-0.08-0.21-0.24-0.37-0.42-0.46l0,0L256.85,84.52z"/>
			<path class="st23" d="M260.54,87.55c-0.17-0.13-0.37-0.19-0.57-0.18l0,0l-0.72-2.54l-0.41,0.09l0.72,2.54
				c0,0-0.11,0.09-0.19,0.19c-0.28,0.33-0.22,0.83,0.14,1.11c0.36,0.28,0.88,0.24,1.17-0.1C260.96,88.32,260.9,87.83,260.54,87.55z"
				/>
			<path class="st23" d="M263.99,85.2c-0.22-0.05-0.44-0.01-0.62,0.09l0,0l-1.86-2.21l-0.34,0.29l1.86,2.21c0,0-0.06,0.15-0.09,0.28
				c-0.11,0.47,0.18,0.94,0.65,1.05c0.47,0.11,0.94-0.18,1.05-0.65C264.75,85.78,264.46,85.31,263.99,85.2z"/>
			<path class="st23" d="M253.93,83.48l-1.82,1.7l0,0c-0.15-0.1-0.34-0.16-0.53-0.14c-0.42,0.05-0.72,0.42-0.66,0.83
				c0.05,0.41,0.44,0.71,0.86,0.66s0.72-0.42,0.66-0.83c-0.02-0.12-0.05-0.24-0.05-0.24l1.82-1.7L253.93,83.48z"/>
			<path class="st23" d="M250.44,81.56L250.44,81.56c-0.1-0.18-0.26-0.33-0.48-0.4c-0.45-0.16-0.95,0.08-1.11,0.54
				c-0.16,0.45,0.08,0.95,0.54,1.11c0.45,0.16,0.95-0.08,1.11-0.54c0.04-0.13,0.07-0.28,0.07-0.28l2.75-0.88l-0.14-0.43
				L250.44,81.56z"/>
		</g>
		<path class="st23" d="M257.96,73.44c-3.44,0-6.23,2.79-6.23,6.23c0,3.44,2.79,6.23,6.23,6.23c3.44,0,6.23-2.79,6.23-6.23
			C264.19,76.23,261.4,73.44,257.96,73.44z M253.39,80.06c-0.37-0.18-0.53-0.62-0.36-0.99c0.18-0.37,0.62-0.53,0.99-0.36
			c0.37,0.18,0.53,0.62,0.36,0.99C254.21,80.08,253.77,80.24,253.39,80.06z M255.03,82.81c-0.18,0.37-0.62,0.53-0.99,0.36
			c-0.37-0.18-0.53-0.62-0.36-0.99c0.18-0.37,0.62-0.53,0.99-0.36C255.05,81.99,255.21,82.43,255.03,82.81z M255.34,76.75
			c-0.18,0.37-0.62,0.53-0.99,0.36c-0.37-0.18-0.53-0.62-0.36-0.99c0.18-0.37,0.62-0.53,0.99-0.36S255.52,76.38,255.34,76.75z
			 M255.61,78.08c0.18-0.37,0.62-0.53,0.99-0.36s0.53,0.62,0.36,0.99c-0.18,0.37-0.62,0.53-0.99,0.36
			C255.6,78.89,255.44,78.45,255.61,78.08z M255.95,80.86c0.18-0.37,0.62-0.53,0.99-0.36c0.37,0.18,0.53,0.62,0.36,0.99
			c-0.18,0.37-0.62,0.53-0.99,0.36C255.94,81.67,255.78,81.23,255.95,80.86z M257.79,84.11c-0.18,0.37-0.62,0.53-0.99,0.36
			c-0.37-0.18-0.53-0.62-0.36-0.99c0.18-0.37,0.62-0.53,0.99-0.36C257.81,83.29,257.97,83.73,257.79,84.11z M258.06,76.38
			c-0.18,0.37-0.62,0.53-0.99,0.36c-0.37-0.18-0.53-0.62-0.36-0.99c0.18-0.37,0.62-0.53,0.99-0.36
			C258.08,75.57,258.24,76.01,258.06,76.38z M258.35,74.74c0.18-0.37,0.62-0.53,0.99-0.36c0.37,0.18,0.53,0.62,0.36,0.99
			c-0.18,0.37-0.62,0.53-0.99,0.36C258.33,75.55,258.17,75.11,258.35,74.74z M260.07,78.81c-0.18,0.37-0.62,0.53-0.99,0.36
			c-0.37-0.18-0.53-0.62-0.36-0.99c0.18-0.37,0.62-0.53,0.99-0.36C260.09,77.99,260.25,78.44,260.07,78.81z M258.58,80.54
			c0.18-0.37,0.62-0.53,0.99-0.36c0.37,0.18,0.53,0.62,0.36,0.99c-0.18,0.37-0.62,0.53-0.99,0.36
			C258.57,81.36,258.41,80.91,258.58,80.54z M260.08,84.36c-0.18,0.37-0.62,0.53-0.99,0.36c-0.37-0.18-0.53-0.62-0.36-0.99
			c0.18-0.37,0.62-0.53,0.99-0.36C260.1,83.55,260.26,83.99,260.08,84.36z M259.84,76.27c0.18-0.37,0.62-0.53,0.99-0.36
			c0.37,0.18,0.53,0.62,0.36,0.99c-0.18,0.37-0.62,0.53-0.99,0.36C259.82,77.08,259.66,76.64,259.84,76.27z M261.84,82.4
			c-0.18,0.37-0.62,0.53-0.99,0.36c-0.37-0.18-0.53-0.62-0.36-0.99c0.18-0.37,0.62-0.53,0.99-0.36
			C261.85,81.58,262.01,82.02,261.84,82.4z M262.69,79.39c-0.18,0.37-0.62,0.53-0.99,0.36c-0.37-0.18-0.53-0.62-0.36-0.99
			c0.18-0.37,0.62-0.53,0.99-0.36S262.87,79.02,262.69,79.39z"/>
	</g>
	<g>
		<g>
			<path class="st42" d="M302.68,43.66c-0.24,0.13-0.28,0.41-0.08,0.63c0.06,0.06,0.13,0.12,0.13,0.12l-0.44,1.41l0.28,0.09
				l0.44-1.41l0,0c0.13,0.02,0.27,0,0.39-0.06c0.24-0.13,0.28-0.41,0.08-0.63C303.28,43.59,302.93,43.52,302.68,43.66z"/>
			<path class="st42" d="M306.27,50.66c-0.07,0.05-0.14,0.13-0.14,0.13l-1.83-0.54l-0.08,0.28l1.83,0.54l0,0
				c-0.01,0.14,0.02,0.28,0.11,0.4c0.19,0.25,0.55,0.31,0.81,0.12c0.25-0.19,0.31-0.55,0.12-0.81
				C306.88,50.53,306.52,50.47,306.27,50.66z"/>
			<path class="st42" d="M305.33,45.13c-0.32,0.04-0.54,0.32-0.5,0.64c0.01,0.09,0.04,0.19,0.04,0.19l-1.38,1.32l0.2,0.21l1.38-1.32
				l0,0c0.11,0.08,0.25,0.12,0.4,0.1c0.32-0.04,0.54-0.32,0.5-0.64C305.93,45.32,305.65,45.09,305.33,45.13z"/>
			<path class="st42" d="M307.04,47.62c-0.28-0.1-0.59,0.08-0.7,0.4c-0.03,0.09-0.05,0.2-0.05,0.2l-1.72,0.68l0.07,0.29l1.72-0.68
				l0,0c0.06,0.12,0.16,0.22,0.28,0.27c0.28,0.1,0.59-0.08,0.7-0.4C307.45,48.06,307.31,47.72,307.04,47.62z"/>
			<path class="st42" d="M296.6,47.82c-0.11-0.3-0.45-0.44-0.74-0.33c-0.3,0.11-0.44,0.45-0.33,0.74c0.11,0.3,0.45,0.44,0.74,0.33
				c0.14-0.05,0.24-0.15,0.31-0.28l0,0l1.84,0.52l0.08-0.29l-1.84-0.52C296.66,48.01,296.63,47.91,296.6,47.82z"/>
			<path class="st42" d="M300.42,44.5c0.2-0.25,0.16-0.61-0.09-0.81c-0.25-0.2-0.61-0.16-0.81,0.09c-0.2,0.25-0.16,0.61,0.09,0.81
				c0.12,0.09,0.26,0.13,0.39,0.13l0,0l0.47,1.85l0.29-0.07l-0.47-1.85C300.29,44.64,300.37,44.57,300.42,44.5z"/>
			<path class="st42" d="M297.95,45.44c0.05-0.24-0.12-0.49-0.4-0.56c-0.27-0.07-0.54,0.08-0.59,0.32c-0.05,0.24,0.12,0.49,0.4,0.56
				c0.13,0.03,0.25,0.01,0.36-0.03l0,0l1.12,1.19l0.19-0.14l-1.12-1.19C297.9,45.58,297.93,45.51,297.95,45.44z"/>
			<path class="st42" d="M300.62,52.69l-0.29-0.08l-0.49,1.84c0,0-0.1,0.02-0.18,0.06c-0.29,0.12-0.44,0.45-0.32,0.75
				c0.12,0.29,0.45,0.44,0.75,0.32c0.29-0.12,0.44-0.45,0.32-0.75c-0.06-0.14-0.16-0.24-0.28-0.3l0,0L300.62,52.69z"/>
			<path class="st42" d="M303.06,54.69c-0.11-0.09-0.25-0.13-0.38-0.12l0,0l-0.48-1.68l-0.27,0.06l0.48,1.68
				c0,0-0.07,0.06-0.12,0.12c-0.19,0.22-0.14,0.55,0.09,0.73c0.24,0.18,0.58,0.16,0.77-0.06C303.34,55.2,303.3,54.88,303.06,54.69z"
				/>
			<path class="st42" d="M305.34,53.14c-0.14-0.03-0.29-0.01-0.41,0.06l0,0l-1.23-1.46l-0.23,0.19l1.23,1.46c0,0-0.04,0.1-0.06,0.18
				c-0.07,0.31,0.12,0.62,0.43,0.69c0.31,0.07,0.62-0.12,0.69-0.43C305.84,53.52,305.65,53.21,305.34,53.14z"/>
			<path class="st42" d="M298.69,52l-1.21,1.12l0,0c-0.1-0.07-0.22-0.1-0.35-0.09c-0.28,0.03-0.47,0.27-0.44,0.55
				c0.04,0.27,0.29,0.47,0.57,0.44c0.28-0.03,0.47-0.27,0.44-0.55c-0.01-0.08-0.03-0.16-0.03-0.16l1.21-1.12L298.69,52z"/>
			<path class="st42" d="M296.38,50.73L296.38,50.73c-0.07-0.12-0.17-0.22-0.31-0.26c-0.3-0.1-0.63,0.06-0.73,0.36
				c-0.1,0.3,0.06,0.63,0.36,0.73c0.3,0.1,0.63-0.06,0.73-0.36c0.03-0.08,0.05-0.19,0.05-0.19l1.82-0.58l-0.09-0.28L296.38,50.73z"
				/>
		</g>
		<path class="st42" d="M301.36,45.36c-2.28,0-4.12,1.84-4.12,4.12c0,2.28,1.84,4.12,4.12,4.12s4.12-1.84,4.12-4.12
			C305.48,47.21,303.63,45.36,301.36,45.36z M298.34,49.74c-0.25-0.12-0.35-0.41-0.24-0.66c0.12-0.25,0.41-0.35,0.66-0.24
			c0.25,0.12,0.35,0.41,0.24,0.66C298.88,49.76,298.58,49.86,298.34,49.74z M299.42,51.56c-0.12,0.25-0.41,0.35-0.66,0.24
			c-0.25-0.12-0.35-0.41-0.24-0.66c0.12-0.25,0.41-0.35,0.66-0.24C299.43,51.02,299.54,51.31,299.42,51.56z M299.63,47.55
			c-0.12,0.25-0.41,0.35-0.66,0.24c-0.25-0.12-0.35-0.41-0.24-0.66c0.12-0.25,0.41-0.35,0.66-0.24
			C299.64,47.01,299.74,47.31,299.63,47.55z M299.81,48.43c0.12-0.25,0.41-0.35,0.66-0.24c0.25,0.12,0.35,0.41,0.24,0.66
			c-0.12,0.25-0.41,0.35-0.66,0.24C299.8,48.97,299.69,48.68,299.81,48.43z M300.03,50.27c0.12-0.25,0.41-0.35,0.66-0.24
			s0.35,0.41,0.24,0.66c-0.12,0.25-0.41,0.35-0.66,0.24S299.91,50.52,300.03,50.27z M301.24,52.42c-0.12,0.25-0.41,0.35-0.66,0.24
			c-0.25-0.12-0.35-0.41-0.24-0.66c0.12-0.25,0.41-0.35,0.66-0.24C301.25,51.88,301.36,52.17,301.24,52.42z M301.42,47.31
			c-0.12,0.25-0.41,0.35-0.66,0.24c-0.25-0.12-0.35-0.41-0.24-0.66c0.12-0.25,0.41-0.35,0.66-0.24
			C301.43,46.77,301.54,47.07,301.42,47.31z M301.61,46.22c0.12-0.25,0.41-0.35,0.66-0.24c0.25,0.12,0.35,0.41,0.24,0.66
			s-0.41,0.35-0.66,0.24C301.6,46.76,301.5,46.47,301.61,46.22z M302.75,48.91c-0.12,0.25-0.41,0.35-0.66,0.24
			c-0.25-0.12-0.35-0.41-0.24-0.66c0.12-0.25,0.41-0.35,0.66-0.24C302.76,48.38,302.87,48.67,302.75,48.91z M301.77,50.06
			c0.12-0.25,0.41-0.35,0.66-0.24s0.35,0.41,0.24,0.66c-0.12,0.25-0.41,0.35-0.66,0.24C301.76,50.6,301.65,50.31,301.77,50.06z
			 M302.76,52.59c-0.12,0.25-0.41,0.35-0.66,0.24s-0.35-0.41-0.24-0.66s0.41-0.35,0.66-0.24C302.77,52.05,302.88,52.34,302.76,52.59
			z M302.6,47.23c0.12-0.25,0.41-0.35,0.66-0.24c0.25,0.12,0.35,0.41,0.24,0.66c-0.12,0.25-0.41,0.35-0.66,0.24
			C302.59,47.77,302.48,47.48,302.6,47.23z M303.92,51.29c-0.12,0.25-0.41,0.35-0.66,0.24c-0.25-0.12-0.35-0.41-0.24-0.66
			s0.41-0.35,0.66-0.24C303.93,50.75,304.03,51.04,303.92,51.29z M304.48,49.3c-0.12,0.25-0.41,0.35-0.66,0.24
			c-0.25-0.12-0.35-0.41-0.24-0.66c0.12-0.25,0.41-0.35,0.66-0.24C304.5,48.76,304.6,49.05,304.48,49.3z"/>
	</g>
	<g>
		<path class="st43" d="M151.46,129.32c0.1,0.09,0.15,0.14,0.15,0.14C151.6,129.46,151.55,129.42,151.46,129.32z"/>
		<path class="st44" d="M119.14,132.95c3.12-1.38,6.32-0.3,8.26,0.3c9.86,3.03,18.75,3.08,18.91,2.52
			c0.24-0.83-18.93-3.73-23.85-14.89c-0.53-1.21-2.55-5.77-0.49-8.41c1.21-1.55,3.3-1.77,3.94-1.84c4.21-0.46,7.76,2.58,9.76,4.34
			c5.59,4.91,14.54,13.19,15.79,14.36c0.1,0.09,0.15,0.14,0.15,0.14c0,0-0.05-0.05-0.15-0.14c-1.65-1.6-16.68-16.64-16.58-30.49
			c0.01-1.29,0.04-5.29,2-6.13c2.32-1,6.08,2.97,7.59,4.57c4,4.22,5.84,8.58,6.72,10.76c4.32,10.67,6.53,20.45,6.81,20.39
			c0.21-0.05-1.51-5.28-0.32-11.8c0.27-1.5,1.34-7.35,4.13-7.84c0.68-0.12,2.01-0.07,3.97,2.24c13.51,15.92,6.43,44.69,2.42,49.69
			c-9.75,12.17-43.27,0.12-44.47-6c-1.21-6.2,27.05-0.55,27.14-4.45c0.01-0.57-16.16,0.51-28.46-5.59
			c-1.66-0.82-7.49-3.72-7.23-7.27C115.33,135.33,117.49,133.68,119.14,132.95z"/>
		<path class="st43" d="M151.46,129.32c0.1,0.09,0.15,0.14,0.15,0.14C151.6,129.46,151.55,129.42,151.46,129.32z"/>
		<path class="st45" d="M136.89,92.7c2.32-1,6.08,2.97,7.59,4.57c4,4.22,5.84,8.58,6.72,10.76c4.32,10.67,6.53,20.45,6.81,20.39
			c0.21-0.05-1.51-5.28-0.32-11.8c0.27-1.5,1.34-7.35,4.13-7.84c0.68-0.12,2.01-0.07,3.97,2.24c13.51,15.92,6.43,44.69,2.42,49.69
			c-2.09,2.61-5.29,4.11-9.02,4.79c-2.79-4.94-5.33-11.48-2.68-16.09c1.27-2.21,4.14-4.7,5.14-4.13c1.32,0.76-1.25,6.57-0.81,6.74
			c0.65,0.26,8.91-11.83,6-22.8c-0.21-0.81-1.64-6.17-4.01-6.3c-0.5-0.03-1.36,0.16-2.63,1.86c-3.98,5.32-2.32,12.64-2.96,12.74
			c-0.71,0.11-2.15-8.84-5.89-19.48c-0.5-1.44-1.79-5.02-3.99-9.45c-2.22-4.48-3.5-7.01-6.04-9.55c-1.2-1.2-3.12-2.84-5.95-4.25
			C135.65,93.84,136.12,93.03,136.89,92.7z"/>
		<path class="st43" d="M141.18,105.24c1.18,1.14,2.58,3,2.51,3.58c-0.06,0.52-1.27-0.04-2.22-0.83c-1.57-1.29-3.12-3.75-3-4.31
			C138.58,103.17,140.1,104.2,141.18,105.24z"/>
		<path class="st43" d="M147.06,114.51c1.75,2.02,2.26,6.72,1.81,6.91c-0.57,0.24-3.64-6.69-3.17-7.65
			C145.89,113.36,146.68,114.08,147.06,114.51z"/>
		<path class="st43" d="M133.05,116.17c1.24,1.23,2.26,3.19,1.88,3.52c-0.75,0.66-7.22-4.7-6.72-5.54
			C128.51,113.67,131.23,114.35,133.05,116.17z"/>
		<path class="st43" d="M133.51,123.46c1.44,0.26,3.28,1.09,3.2,1.8c-0.08,0.69-1.96,1.23-3.54,0.99c-1.76-0.26-3.49-1.52-3.32-2.22
			C130.02,123.34,132.05,123.19,133.51,123.46z"/>
		<path class="st43" d="M139.71,121.5c0.33-0.31,2.64,1.14,3.87,3.41c0.64,1.17,1.2,2.95,0.87,3.13
			C143.77,128.41,139.15,122.03,139.71,121.5z"/>
		<path class="st43" d="M164.18,127.03c0.58,0.15,0.61,2.92-0.33,5.26c-0.42,1.04-1.3,2.65-1.77,2.52
			c-0.55-0.16-0.49-2.68,0.24-4.79C162.75,128.77,163.67,126.9,164.18,127.03z"/>
		<path class="st43" d="M150.97,137.69c1.78,0.85,2.73,2.91,2.3,3.4c-0.75,0.85-6.36-2.13-6.08-3.25
			C147.35,137.22,149.39,136.93,150.97,137.69z"/>
		<path class="st43" d="M140.56,143.06c1.38-0.44,3.21-0.58,3.3-0.25c0.18,0.66-6.52,3.41-6.86,2.81
			C136.82,145.29,138.51,143.73,140.56,143.06z"/>
		<path class="st43" d="M134.4,138.71c0.69,0.4,2.09,1.38,1.89,1.94c-0.19,0.55-1.83,0.6-3.09,0.19c-1.86-0.6-3.4-2.36-3.07-2.96
			C130.45,137.27,132.78,137.76,134.4,138.71z"/>
		<path class="st43" d="M122.36,138.25c2.06,0.08,4.02,1.32,3.88,1.84c-0.24,0.94-7.48,0.39-7.58-0.58
			C118.61,138.99,120.57,138.19,122.36,138.25z"/>
		<path class="st43" d="M151.07,154.96c2.41,1.53,3.76,4.29,3.33,4.69c-0.75,0.7-7.77-4.94-7.25-5.84
			C147.41,153.36,149.6,154.02,151.07,154.96z"/>
		<path class="st43" d="M143.79,159.47c0.7-0.2,1.43-0.26,1.43-0.26c0.62-0.05,1.61-0.13,1.67,0.07c0.16,0.53-6.52,3.41-6.86,2.81
			C139.83,161.73,141.92,160,143.79,159.47z"/>
		<path class="st43" d="M137.55,154.02c1.62,0.75,3.09,2.34,2.81,2.81c-0.54,0.9-7.73-1.82-7.54-2.84
			C132.93,153.41,135.47,153.06,137.55,154.02z"/>
	</g>
	<g>
		<g>
			<g>
				<path class="st29" d="M229.17,59.14c-0.18-0.01-0.35-0.02-0.52-0.02c-0.28,0-0.57,0-0.85,0c-1.63,0-13.4,0.12-16.61,0.19
					c-2.5,0.05-5.58,0.2-7.83,1.41c-2.24,1.2-1.6,3.5,0.39,4.13c3.33,1.05,6.91-0.07,10.23-0.64c2.63-0.45,6.12-0.97,8.74-1.5
					c2.3-0.46,4.53-0.94,6.89-1.07c0.66-0.04,3.26-0.81,3.43-1.58c0.1-0.45-0.11-1.21-0.83-1.28c-0.54-0.05-1.05,0.06-1.55,0.25
					C230.22,59.2,229.68,59.17,229.17,59.14z"/>
				<path class="st29" d="M202.12,63.31c2.62,4.03,4.77,0.77,4.58-3.43c-0.19-4.05-0.89-7.99-2.33-11.78
					c-0.86-2.27-2.87-6.83-6.23-4.76c-3.14,1.93-1.42,6.2-0.7,8.92C198.46,56.13,199.47,59.24,202.12,63.31z"/>
				<path class="st34" d="M200.29,42.1c-1.53-0.25-4.49-0.07-4.32,4.88c0.04,1.27,0.24,2.52,0.51,3.76c0.52,2.38,1.32,4.7,2.28,6.93
					c0.43,0.99,0.89,1.97,1.41,2.91c0.22,0.4,1.37,2.44,1.74,3.04c0.68,1.11,1.45,2.17,2.74,2.15c1.65-0.03,2.57-1.32,2.52-2.84
					C206.9,54.43,203.84,42.67,200.29,42.1z"/>
				<path class="st34" d="M212.76,59.06c-5.37,0.25-8.4,0.98-9.09,1.36c-0.5,0.27-0.79,0.62-1.11,1.06
					c-0.43,0.59-0.52,1.52-0.3,2.31c0.23,0.82,1.55,1.8,2.64,1.84c4.25,0.13,11.78-1.14,13.94-1.67c1.42-0.34,2.84-0.66,4.27-0.98
					l-1.17-3.98C218.88,58.95,215.81,58.92,212.76,59.06z"/>
				<g>
					<g>
						<path class="st24" d="M250.33,47.96l-13.91-1.05c-0.52-0.05-1.15,0.39-1.4,0.99l-8.71,20.46c-0.25,0.6-0.03,1.13,0.49,1.18
							L240,73.16c0.52,0.05,1.15-0.39,1.4-0.99l9.41-23.03C251.07,48.54,250.85,48.01,250.33,47.96z"/>
						<path class="st34" d="M227.9,68.49l11.86,2.87c0.22,0.02,0.48-0.16,0.58-0.41l8.63-20.47c0.1-0.25,0.01-0.47-0.2-0.49
							l-12.46-1.27c-0.22-0.02-0.48,0.16-0.58,0.41L227.7,68C227.59,68.25,227.68,68.47,227.9,68.49z"/>
						<path class="st21" d="M244.04,48.43l-2.99-0.3c-0.66-0.07-1.46,0.5-1.79,1.26l-0.16,0.37c-0.06,0.14-0.01,0.26,0.11,0.27
							l4.97,0.51c0.12,0.01,0.26-0.09,0.32-0.22l0.16-0.37C244.98,49.17,244.71,48.5,244.04,48.43z"/>
						<path class="st21" d="M241.84,47.59l-0.46,1.09l1.9,0.19l0.46-1.09c0.25-0.6,0.04-1.14-0.49-1.19l0,0
							C242.73,46.54,242.1,46.99,241.84,47.59z M242.29,47.64c0.13-0.32,0.47-0.55,0.74-0.52c0.28,0.03,0.39,0.31,0.26,0.63
							c-0.13,0.32-0.47,0.55-0.74,0.52C242.27,48.24,242.16,47.96,242.29,47.64z"/>
					</g>
				</g>
				<path class="st27" d="M225.86,59.34c1.2-0.74,1.44-0.78,2.49-1.04c0.37-0.09,4.12-0.64,4.43-0.17c0.65,0.97-2.1,0.79-2.32,1.18
					c-1.09,1.92-4,0.94-3.59,0.97L225.86,59.34z"/>
			</g>
			<g>
				<path class="st30" d="M196.02,20.77c-1.91,3.57-5.79,4.71-9.29,5.08c-3.5,0.37-7.23,0.38-10.19,2.71
					c-1.93,1.52-3.34,3.99-3.82,6.68c-0.26,1.45-0.6,5.1,0.4,5.93c0.59,0.49,1.36,0.72,2.08,0.57c10.32-2.02,6.57,3.05,15.05,1.37
					c3.79-0.75,8.85-2.56,11.96-10.23"/>
			</g>
			<path class="st46" d="M206.74,52.16c-0.21-4.32-1.91-8.31-5.57-11.02c-3.12-2.3-7.07-2.8-10.53-0.61
				c-3.62,2.28-3.89,6.77-3.6,10.56c0.36,4.63,0.53,8.87,0.63,13.53c0.09,4.06,0.19,8.16-0.16,12.2c4.64,0.66,8.96,1.15,13.72,1.46
				c1.31-6.5,0.61-13.94,3.8-20.03C206.05,56.34,206.85,54.41,206.74,52.16z"/>
			<path class="st27" d="M201.34,44.41c-0.62,0.84-2.59,0.44-4.39-0.89c-1.81-1.33-2.77-3.09-2.15-3.93
				c0.62-0.84,2.59-0.44,4.39,0.89C200.99,41.81,201.95,43.57,201.34,44.41z"/>
			<polygon class="st29" points="172.48,153.4 171.93,159.7 179.05,164.04 175.82,158.1 176.2,153.72 			"/>
			<polygon class="st29" points="194.73,154.56 194.81,160.92 201.93,165.26 198.7,159.32 198.29,154.71 			"/>
			<path class="st47" d="M201.24,78.3c0,0-0.68,38.02-1.98,43.33c-1.25,5.13,0.34,36.17,0.34,36.17l-4.84-0.42
				c0,0-8.93-31.95-4.01-37.69c0,0-7.57-30.27-3.22-42.85L201.24,78.3z"/>
			<path class="st48" d="M201.24,78.3c0,0-10.24,38.47-13.89,42.29c-3.65,3.82-10.71,35.2-10.71,35.2l-4.65-0.41
				c0,0,0.43-31.14,5.34-36.87c0,0,2.79-36.19,10.19-41.68L201.24,78.3z"/>
			<path class="st49" d="M197.53,165.69l-3.16-0.28c0,0-0.37-0.84-0.19-2.85c0.18-2.01,0.17-1.89,0.17-1.89s1.81,0.12,3.38,1.44
				c1.25,1.05,3.3,1.17,4.32,1.57c2.09,0.81,3.18,1.14,3.05,2.67l-6.48-0.57c0,0-0.39-1.06-1.07-1.12
				C197.52,165.47,197.53,165.69,197.53,165.69z"/>
			<path class="st34" d="M195.25,39.09c-0.45,1.4-0.5,0.96,0.37,2.69c0.93,1.84,3.9,6.01,4.57,8.16c1.25,4,0.84,7.94-0.54,12.28
				c-3.05,9.57-5.87,18.14-10.49,27.08c-2.62,5.07-6.36,14.72-12,15.92c-3.55,0.75-6.38-0.49-9.8-1.7
				c-2.38-0.85-6.28-1.97-6.54-5.01c-0.26-3.08,5.4-9.85,6.93-12.27c2.01-3.18,10.61-12.24,13.87-26.29
				c0.98-4.21,1.36-8.54,2.1-12.78C184.97,40.03,192.71,39.15,195.25,39.09z"/>
			<path class="st49" d="M174.6,163.69l-3.16-0.28c0,0-0.37-0.84-0.19-2.85c0.18-2.01,0.17-1.89,0.17-1.89s1.81,0.12,3.38,1.44
				c1.25,1.05,3.3,1.17,4.32,1.57c2.09,0.81,3.18,1.14,3.05,2.67l-6.48-0.57c0,0-0.39-1.06-1.07-1.12
				C174.59,163.32,174.6,163.69,174.6,163.69z"/>
			<g>
				<g>
					<path class="st30" d="M204.09,19.52c1.8,0.66,4.17,1.94,5.2,3.66c1.04,1.72,0.51,3.77-0.19,5.51c-0.52,1.29-1.09,2.71-1.81,3.9
						c-0.6,1-1.86,1.13-2.92,1.08c-2.26-0.09-4.56-0.84-6.62-1.72c-1.54-0.66-2.71-2.32-3.08-3.91c-0.47-2.01,0.9-3.92,2.1-5.41
						c1.03-1.28,2.25-2.36,3.77-3.03c0.78-0.34,1.67-0.47,2.52-0.36C203.27,19.27,203.89,19.44,204.09,19.52z"/>
					
						<rect x="191.81" y="32.26" transform="matrix(0.2725 -0.9622 0.9622 0.2725 111.6625 215.8713)" class="st29" width="13.54" height="3.68"/>
					<path class="st31" d="M202.52,21.87c6.55-0.54,7.45,6.97,4.75,12.04c-0.76,1.42-2.18,3.18-2.97,2.98
						c-1.58-0.41-2.69-1.29-3.79-2.19c-2.09-1.69-2.81-3.8-3.09-6.54C197.09,24.97,199.58,22.11,202.52,21.87z"/>
					<path class="st30" d="M207.61,21.19c1.8,1.62-0.25,3.16-1.74,4.44c-0.67,0.58-1.61,1.02-2.5,1.13
						c-1.17,0.14-2.1-0.67-3.17-0.99c-0.74-0.22-1.72-0.35-2.04,0.52c-0.73,1.99,0.7,2.24,0.72,2.24c0.01,0-0.51,1.51-0.57,1.64
						c-0.24,0.51-0.59,1.03-1.17,1.18c-1.5,0.39-2.24-1.49-2.73-2.52c-0.46-0.99-0.64-2.42-0.43-3.51c0.78-4.05,2.76-6.36,5.91-6.84
						c0.92-0.14,1.93-0.05,2.83,0.18C204.17,19.02,206.44,20.28,207.61,21.19z"/>
					<path class="st34" d="M206.78,32.99c0,0-1.24,0.41-3.04-0.48C203.73,32.51,204.37,37.09,206.78,32.99z"/>
					<path class="st30" d="M200.13,18.59c0.36-1.35,0.04-2.42-1.27-3.09c-1.02-0.52-2.42-0.64-3.42,0.1
						c-1.93,1.42-2.07,3.37-1.18,4.69c0.43,0.65,1.12,0.88,1.87,0.81L200.13,18.59z"/>
				</g>
			</g>
			<path class="st34" d="M199.27,40.02c5.43,5.01,5.64,12.73,4.22,18.45c-1.1,4.46-1.43,13.45-1.43,13.45s1.59-7.61,1.78-8.72
				c0.77-4.48,0.79-3.51,2.48-7.9C208.06,50.79,205.77,43.12,199.27,40.02z"/>
			<g>
				<g>
					<path class="st24" d="M196.1,52.92l0.58-0.16c-0.95-3.42-2.76-10.16-2.83-11.23c-0.05-0.81,0.15-1.46,0.57-1.88
						c0.34-0.33,0.66-0.41,0.78-0.4l0.16-0.58l-0.05,0c-0.32-0.03-0.87,0.11-1.32,0.55c-0.39,0.38-0.83,1.09-0.75,2.34
						C193.34,42.97,195.99,52.52,196.1,52.92z"/>
				</g>
				<g>
					<path class="st50" d="M198.23,53.46c0.24,0.87-0.26,1.78-1.14,2.03c-0.87,0.25-1.78-0.26-2.03-1.14
						c-0.25-0.87,0.26-1.78,1.14-2.03C197.08,52.07,197.98,52.58,198.23,53.46z"/>
					<path class="st24" d="M197.51,53.66c0.13,0.48-0.14,0.97-0.62,1.11c-0.48,0.13-0.98-0.14-1.11-0.62
						c-0.13-0.48,0.15-0.98,0.62-1.11C196.88,52.9,197.38,53.18,197.51,53.66z"/>
				</g>
				<g>
					<g>
						<path class="st50" d="M205.14,57.29c0.25-0.04,0.53-0.19,0.94-0.77c0.8-1.13,0.85-3.39,0.16-6.9
							c-0.19-0.95-0.43-1.81-0.71-2.56l-0.3,0.11c0.28,0.73,0.51,1.57,0.69,2.51c0.66,3.38,0.63,5.62-0.11,6.66
							c-0.44,0.62-0.6,0.62-1.09,0.69c-0.1,0.01-0.09,0.01-0.17,0.03l0.06,0.31c0.08-0.02,0.16-0.03,0.26-0.04
							C204.99,57.32,205.02,57.31,205.14,57.29z"/>
					</g>
					<g>
						<path class="st24" d="M205.14,47.21l0.5-0.19c-1.54-4.04-3.49-4.13-4.5-3.93l0,0c-1.02,0.2-2.81,1.02-2.69,5.34l0.53-0.01
							c-0.1-3.78,1.16-4.59,2.26-4.81l0,0C202.11,43.45,203.74,43.55,205.14,47.21z"/>
					</g>
					<g>
						<path class="st50" d="M202.87,57.74c0.12-0.02,0.06-0.01,0.17-0.04c0.09-0.02,0.17-0.04,0.25-0.06l-0.06-0.31
							c-0.08,0.02-0.17,0.04-0.27,0.06c-0.48,0.12-0.71,0.05-1.18-0.25c-1.07-0.69-1.95-2.74-2.62-6.12
							c-0.18-0.94-0.29-1.8-0.31-2.58l-0.32,0.01c0.02,0.8,0.13,1.68,0.31,2.64c0.69,3.52,1.6,5.58,2.76,6.33
							C202.17,57.76,202.34,57.83,202.87,57.74z"/>
					</g>
					<path class="st24" d="M204.99,57.16c0.04,0.21-0.1,0.42-0.32,0.47c-0.22,0.04-0.43-0.1-0.47-0.31
						c-0.04-0.21,0.1-0.42,0.32-0.47C204.73,56.81,204.95,56.95,204.99,57.16z"/>
					<path class="st24" d="M203.66,57.42c0.04,0.21-0.1,0.42-0.32,0.47c-0.22,0.04-0.43-0.1-0.47-0.31
						c-0.04-0.21,0.1-0.42,0.32-0.47C203.41,57.07,203.62,57.21,203.66,57.42z"/>
				</g>
				<g>
					<path class="st24" d="M200.73,43.32l0.6-0.03c0-0.11-0.21-2.58-2.42-3.63l-0.15,0.52C200.56,41.12,200.73,43.3,200.73,43.32z"
						/>
				</g>
			</g>
			<g>
				<path class="st31" d="M193.27,63.85c2.92,3.76,4.21,0.17,3.68-3.96c-0.5-3.97-1.43-7.5-3.12-11.15
					c-1.01-2.18-3.63-7.73-6.72-5.49c-2.88,2.09-0.5,7.03,0.41,9.66C188.82,56.67,190.65,60.48,193.27,63.85z"/>
				<path class="st31" d="M216.17,71.68c0-0.16,3.48-2.22-0.63-1.02c-2.01,0.59-4.09-1.29-6.36-2.87c-2.84-1.97-5.19-3.58-7.84-5.19
					c-2.07-1.25-4.77-2.48-7.23-2.66c-2.45-0.18-2.52,2.01-1.22,3.55c2.17,2.57,5.08,3.53,8.08,4.79c2.38,0.99,5.5,2.37,7.9,3.3
					c2.12,0.82,3.99,2.22,6.11,3.06c2.17,0.86,5.79,0.74,5.95-0.46c0.19-1.37-2.03-1.54-3.36-1.76
					C217.03,72.34,216.16,72.22,216.17,71.68z"/>
				<path class="st34" d="M189.39,42.3c-1.54-0.15-4.49,0.22-4,5.15c0.12,1.26,0.4,2.5,0.75,3.72c0.67,2.34,1.61,4.61,2.72,6.77
					c0.49,0.96,1.01,1.91,1.59,2.82c0.24,0.38,1.52,2.34,1.93,2.92c0.74,1.07,1.58,2.08,2.87,1.97c1.65-0.14,2.48-1.48,2.33-2.99
					C196.76,54.19,192.97,42.65,189.39,42.3z"/>
				<path class="st34" d="M204.58,64.22c-1.25-0.9-2.56-1.84-3.91-2.59c-0.48-0.26-0.96-0.57-1.45-0.81
					c-0.7-0.34-1.83-0.55-2.6-0.65c-0.56-0.07-0.99,0.02-1.51,0.17c-0.69,0.21-1.33,0.86-1.64,1.58c-0.32,0.75-0.53,2.79,0.32,3.41
					c3.89,2.87,10.46,5.3,12.46,6.13c1.31,0.54,2.61,1.11,3.91,1.68l1.52-3.69C209.34,67.68,206.97,65.95,204.58,64.22z"/>
			</g>
			<g>
				
					<rect x="185.33" y="71.26" transform="matrix(0.2526 -0.9676 0.9676 0.2526 68.039 236.9411)" class="st51" width="4.13" height="6.33"/>
				
					<rect x="186.89" y="71.98" transform="matrix(0.2526 -0.9676 0.9676 0.2526 70.4832 235.901)" class="st51" width="2.1" height="0.69"/>
			</g>
		</g>
	</g>
</g>
</svg>
